<?xml version="1.0" standalone="no"?>
<!DOCTYPE svg PUBLIC "-//W3C//DTD SVG 20010904//EN"
 "http://www.w3.org/TR/2001/REC-SVG-20010904/DTD/svg10.dtd">
<svg version="1.0" xmlns="http://www.w3.org/2000/svg"
 width="300.000000pt" height="285.000000pt" viewBox="0 0 300.000000 285.000000"
 preserveAspectRatio="xMidYMid meet">
<metadata>
Created by potrace 1.10, written by Peter Selinger 2001-2011
</metadata>
<g transform="translate(0.000000,285.000000) scale(0.100000,-0.100000)"
fill="#000000" stroke="none">
<path d="M2684 2667 c-163 -69 -281 -205 -317 -364 l-13 -58 -95 -27 c-130
-38 -175 -56 -210 -86 -30 -25 -31 -25 -60 -8 -16 10 -60 28 -97 41 -144 50
-165 65 -94 65 47 0 81 21 60 37 -48 37 -168 43 -259 13 -33 -11 -65 -18 -70
-14 -10 6 -69 -42 -69 -56 0 -4 24 5 54 21 30 15 87 32 126 39 69 12 175 7
184 -9 3 -4 -41 -15 -98 -24 -99 -16 -163 -33 -155 -42 3 -2 38 2 79 9 l75 13
58 -31 c72 -38 133 -89 153 -127 17 -34 12 -36 -24 -10 -42 29 -109 61 -129
61 -16 0 152 -99 170 -100 18 -1 4 50 -23 88 -17 23 -28 42 -26 42 14 0 139
-79 192 -121 56 -44 194 -201 194 -220 0 -4 -19 0 -41 8 -25 8 -55 11 -73 7
-34 -7 -96 -49 -96 -65 0 -6 11 -1 25 10 39 30 78 34 139 17 85 -25 143 -98
170 -217 17 -69 15 -70 -17 -8 -34 64 -95 104 -160 104 -29 0 -68 -8 -87 -17
-85 -40 -305 -129 -367 -148 -96 -30 -201 -36 -298 -17 -103 19 -232 69 -282
108 -100 80 -175 84 -254 12 -43 -39 -64 -73 -86 -138 -13 -40 -13 -39 -10 35
6 132 71 240 162 270 34 11 56 10 102 -6 17 -6 17 -6 2 11 -21 22 -99 31 -128
15 -13 -6 -25 -10 -27 -7 -7 7 80 120 163 214 42 47 91 108 109 135 19 28 34
46 34 42 1 -21 29 44 30 67 0 45 -13 41 -34 -12 -12 -28 -46 -81 -76 -119
l-55 -68 -90 -5 c-150 -8 -320 -62 -482 -153 -65 -36 -72 -38 -148 -35 -148 4
-313 -31 -341 -74 -14 -22 -14 -29 0 -86 24 -93 70 -165 165 -259 126 -124
245 -188 391 -211 75 -11 158 -6 193 12 10 6 21 9 23 6 3 -2 9 -32 15 -66 12
-77 67 -269 120 -420 70 -200 140 -285 345 -425 69 -48 156 -111 192 -140 85
-68 121 -86 171 -86 61 0 87 14 194 108 55 48 127 109 161 136 142 113 207
190 241 286 41 115 156 597 162 679 6 85 6 86 43 112 28 20 53 57 103 155 66
127 68 130 129 164 163 93 228 214 228 423 0 194 -82 450 -165 513 -38 28 -36
28 -101 1z m99 -59 c29 -39 17 -42 -37 -12 -35 20 -44 29 -34 35 22 15 50 6
71 -23z m-193 -35 c-104 -117 -133 -349 -74 -583 23 -92 29 -137 29 -225 0
-121 -14 -175 -67 -252 -16 -24 -25 -43 -20 -43 13 0 57 66 81 120 12 27 32
52 52 64 l32 19 -53 -101 c-51 -98 -119 -182 -121 -151 -1 7 -3 25 -4 39 -1
13 8 40 20 60 67 103 61 204 -24 462 -49 150 -61 200 -61 250 1 108 58 217
173 329 66 64 89 72 37 12z m135 -7 c55 -23 104 -65 133 -115 26 -44 27 -51
26 -186 0 -117 -4 -149 -22 -198 -29 -79 -78 -143 -154 -202 -35 -26 -79 -64
-99 -82 l-36 -34 -6 73 c-4 40 -18 118 -31 173 -13 55 -27 130 -31 166 -12
123 23 289 82 382 21 33 28 37 63 37 23 0 56 -7 75 -14z m199 -391 c2 -233
-29 -301 -184 -402 -52 -34 -113 -75 -135 -90 -55 -39 -55 -39 -43 4 13 48 25
62 118 133 41 31 92 76 112 98 83 92 124 224 115 377 -5 75 -4 84 5 50 6 -22
11 -98 12 -170z m-505 -195 c27 -80 55 -170 62 -201 15 -72 8 -183 -16 -234
l-18 -40 -13 62 c-16 73 -52 149 -87 182 -14 13 -37 46 -51 75 -47 94 -125
180 -240 262 -21 15 -21 15 -1 30 11 8 76 33 145 55 69 21 132 44 140 49 12 8
16 0 23 -43 4 -29 29 -117 56 -197z m-1309 34 c0 -3 -20 -29 -44 -57 -51 -60
-126 -175 -126 -192 0 -7 -9 -20 -21 -31 -62 -56 -103 -188 -88 -284 5 -30 10
-88 11 -127 l3 -73 -53 -11 c-181 -37 -489 96 -569 247 -74 141 -62 263 31
305 26 11 80 21 132 25 l89 7 -58 -43 c-32 -23 -56 -44 -54 -47 3 -2 33 15 68
37 101 66 316 167 414 195 71 21 182 44 258 54 4 1 7 -2 7 -5z m-950 -281 c-5
-16 -11 -41 -14 -58 -2 -16 -5 -34 -6 -40 -1 -5 -8 4 -15 20 -27 57 -14 105
26 105 15 0 16 -4 9 -27z m967 -133 c168 -76 293 -409 293 -783 0 -153 0 -152
-108 -144 -103 8 -201 40 -258 83 -59 45 -68 38 -13 -10 49 -42 122 -71 211
-86 108 -17 144 -14 167 16 19 24 21 40 21 147 0 256 -67 520 -171 675 l-22
34 61 -31 c197 -99 472 -75 720 64 57 32 59 31 27 -6 -102 -122 -198 -463
-199 -709 -1 -108 2 -131 21 -172 27 -58 48 -65 152 -50 90 14 207 68 245 113
14 17 26 25 26 18 0 -35 -53 -180 -81 -223 -27 -40 -191 -193 -219 -204 -4 -2
-1 16 7 40 8 24 13 60 11 80 -3 37 4 49 17 28 3 -5 11 -10 17 -10 20 0 -17 33
-58 51 -22 10 -49 28 -60 40 -10 11 -50 36 -89 55 -63 31 -78 34 -158 34 -56
0 -101 -6 -124 -15 -49 -21 -121 -81 -145 -122 -11 -18 -28 -33 -37 -33 -19 0
-65 -39 -57 -48 3 -3 15 3 26 13 11 10 22 16 23 14 2 -2 9 -28 15 -57 7 -29
20 -70 31 -92 11 -22 18 -40 16 -40 -6 0 -208 141 -241 169 -43 35 -106 116
-134 171 -25 49 -72 180 -64 180 2 0 -2 12 -10 28 -20 38 -82 246 -100 335
-27 128 -28 168 -11 242 24 105 69 172 140 209 39 21 61 20 112 -4z m1195 -5
c76 -52 115 -164 103 -302 -4 -45 -10 -85 -14 -87 -10 -6 -81 10 -93 22 -5 5
2 7 19 5 15 -2 36 2 46 9 15 11 9 13 -46 13 -50 0 -68 5 -91 23 -70 55 -148
14 -212 -111 -27 -55 -34 -64 -29 -37 4 19 20 62 35 95 58 121 127 151 195 85
39 -38 47 -30 12 13 -67 83 -174 32 -230 -111 -22 -56 -37 -123 -26 -116 13 7
12 5 -17 -93 -16 -56 -27 -117 -28 -168 -1 -44 -8 -90 -14 -102 -11 -20 -10
-23 6 -23 10 0 23 5 29 11 8 8 17 8 31 0 31 -17 89 -13 130 8 45 23 107 85 98
99 -3 5 1 29 9 52 28 79 15 179 -28 227 -46 52 -112 50 -171 -5 l-29 -27 29
55 c42 78 103 140 140 140 72 0 108 -65 107 -195 -1 -83 -9 -120 -48 -230 -7
-20 -7 -20 10 0 31 39 55 142 55 242 0 52 -5 103 -10 114 -13 22 -4 24 30 4
14 -8 40 -14 58 -15 17 0 32 -3 32 -8 0 -17 -99 -371 -109 -390 -39 -73 -214
-151 -338 -152 -74 0 -89 37 -87 215 2 174 39 353 110 540 59 154 135 224 244
225 43 0 64 -6 92 -25z m-153 -480 c45 -23 64 -74 59 -164 -6 -140 -62 -211
-169 -219 -49 -4 -60 -1 -79 18 -21 21 -22 29 -17 104 10 143 51 231 122 262
39 17 50 17 84 -1z m-314 -568 c-10 -51 -26 -97 -33 -97 -4 0 -7 19 -7 42 l0
43 -128 0 c-113 0 -130 -2 -142 -18 -16 -22 -22 -13 -31 41 -6 41 7 60 20 27
4 -12 29 -15 139 -15 122 0 136 2 152 20 17 18 20 19 28 5 4 -9 6 -30 2 -48z
m65 -1 c20 -18 43 -35 50 -38 10 -3 10 -11 0 -43 -20 -61 -59 -114 -105 -140
-40 -24 -42 -24 -92 -8 -45 14 -59 15 -107 3 -79 -19 -124 -2 -198 71 -32 32
-58 63 -58 71 1 17 67 108 80 108 6 0 10 -10 10 -23 0 -34 56 -116 87 -128 47
-18 180 -13 216 8 39 23 67 70 69 117 1 20 3 36 6 36 2 0 21 -15 42 -34z
m-156 -42 c9 -3 16 -15 16 -25 0 -26 -49 -37 -146 -30 -26 1 -61 27 -51 37 16
16 151 29 181 18z m225 -142 c-9 -34 -31 -62 -101 -130 -49 -48 -103 -95 -121
-105 -48 -26 -116 -22 -163 9 -120 81 -163 137 -198 253 -21 72 -20 94 2 50
23 -46 122 -169 164 -204 38 -33 104 -64 134 -65 43 0 123 51 161 103 20 29
52 69 69 91 18 21 39 61 46 90 l13 51 3 -50 c2 -27 -2 -69 -9 -93z m-175 -117
c0 -16 -76 -55 -107 -55 -33 0 -97 25 -97 39 0 18 55 30 130 28 43 -1 75 -6
74 -12z"/>
<path d="M1057 1332 c-22 -25 -22 -39 1 -19 76 68 185 -19 246 -197 14 -41 15
-6 1 41 -19 65 -70 141 -114 170 -43 29 -111 31 -134 5z"/>
<path d="M1033 1274 c-30 -31 -67 -46 -110 -46 -20 0 -30 -4 -27 -10 4 -6 25
-8 48 -5 38 5 40 5 21 -9 -11 -8 -30 -17 -42 -21 -13 -3 -23 -9 -23 -15 0 -12
36 -1 77 24 l32 19 -11 -31 c-6 -18 -8 -67 -6 -113 6 -104 45 -194 118 -271
63 -66 92 -77 198 -74 80 3 95 11 71 35 -7 7 -13 38 -15 71 -8 161 -108 398
-191 453 -42 28 -108 25 -140 -7z m138 -27 c34 -23 103 -115 113 -151 4 -17 3
-17 -17 2 -105 95 -229 15 -215 -140 3 -29 9 -62 13 -73 6 -16 5 -17 -4 -5 -6
8 -21 46 -32 83 -17 55 -21 86 -17 159 4 87 6 92 36 119 39 35 77 37 123 6z
m93 -166 c39 -38 73 -138 83 -244 7 -77 -1 -92 -52 -101 -82 -16 -166 36 -205
126 -18 41 -21 65 -18 124 3 65 7 77 33 104 27 29 34 31 78 27 37 -3 56 -12
81 -36z"/>
<path d="M1137 1050 c-67 -53 -28 -203 67 -261 87 -53 141 10 112 133 -16 68
-49 116 -92 134 -44 19 -57 18 -87 -6z m95 -43 c10 -16 10 -25 -2 -32 -28 -17
-2 -72 43 -88 21 -8 23 -50 1 -67 -22 -19 -61 -2 -97 42 -58 72 -43 179 22
163 14 -4 29 -12 33 -18z m48 -62 c0 -16 -6 -25 -15 -25 -9 0 -15 9 -15 25 0
16 6 25 15 25 9 0 15 -9 15 -25z"/>
<path d="M1653 725 c-57 -12 -119 -42 -109 -52 2 -3 17 2 33 10 44 23 142 40
187 33 30 -5 38 -4 30 4 -18 18 -75 20 -141 5z"/>
<path d="M2072 1054 c-19 -10 -44 -37 -60 -63 -22 -37 -27 -58 -27 -112 0 -78
19 -109 68 -109 83 0 163 136 136 232 -16 60 -61 79 -117 52z m68 -49 c0 -6
-9 -20 -20 -30 -24 -22 -26 -52 -3 -77 21 -23 5 -63 -31 -79 -55 -25 -83 20
-62 101 14 53 38 88 71 100 24 9 45 2 45 -15z m18 -67 c-4 -27 -28 -36 -28
-10 0 20 8 32 22 32 5 0 8 -10 6 -22z"/>
<path d="M1490 2335 c-70 -33 -133 -86 -177 -147 -19 -26 -38 -46 -42 -44 -4
3 -12 -8 -18 -25 -16 -42 -4 -35 42 22 83 105 229 200 305 199 l35 -1 -47 -24
c-42 -22 -69 -45 -53 -45 20 0 126 63 122 73 -2 7 -27 13 -58 15 -41 2 -67 -4
-109 -23z"/>
<path d="M0 114 c0 -51 14 -114 25 -114 31 0 27 68 -6 110 -18 24 -19 24 -19
4z"/>
</g>
</svg>
