<?xml version="1.0" encoding="iso-8859-1"?>
<!-- Uploaded to: SVG Repo, www.svgrepo.com, Generator: SVG Repo Mixer Tools -->
<svg height="800px" width="800px" version="1.1" id="Layer_1" xmlns="http://www.w3.org/2000/svg" xmlns:xlink="http://www.w3.org/1999/xlink" 
	 viewBox="0 0 511.999 511.999" xml:space="preserve">
<g>
	<path style="fill:#F7B239;" d="M208.645,325.221l-25.517,13.955c-4.935-11.353-12.671-21.492-23.382-29.309
		c0,0-0.012,0-0.023-0.012c-4.69-3.43-9.369-6.301-14.025-8.658v-0.012l13.756-25.144L208.645,325.221z"/>
	<polygon style="fill:#F7B239;" points="234.816,310.916 208.645,325.221 159.454,276.041 173.758,249.87 192.205,268.305 
		216.953,293.064 	"/>
	<path style="fill:#F7B239;" d="M159.745,309.866c10.711,7.817,18.447,17.957,23.382,29.309c13.313,30.651,6.149,70.1-18.248,96.306
		C109.411,495.045,8.753,489.13,8.753,489.13s0.012,0,0.023-0.012c1.435-0.77,57.534-31.246,31.328-79.189
		C8.309,351.753,72.75,264.035,145.697,301.185v0.012c4.655,2.357,9.334,5.227,14.025,8.658
		C159.734,309.866,159.745,309.866,159.745,309.866z"/>
</g>
<path style="fill:#E09B2D;" d="M77.966,409.929c22.577,41.316-15.95,69.657-27.956,77.194c-24.082,3.022-41.257,2.007-41.257,2.007
	s0.012,0,0.023-0.012c1.435-0.77,57.534-31.246,31.328-79.189c-29.438-53.859,23.604-133.024,89.527-115.009
	C83.485,307.906,54.49,366.968,77.966,409.929z"/>
<path style="fill:#B27214;" d="M495.206,31.309c6.837,6.837,6.837,17.91,0,24.747l-68.257,68.257
	c-3.279,3.279-7.736,5.134-12.379,5.122l-34,0.012L217.396,292.621l-0.443,0.443l-24.747-24.759l0.432-0.432L360.945,99.566
	c3.279-3.279,7.736-5.122,12.38-5.122l34-0.012l63.134-63.123C477.296,24.472,488.369,24.472,495.206,31.309z"/>
<path style="fill:#333333;" d="M504.311,21.62c-4.959-4.959-11.551-7.69-18.563-7.69c-7.012,0-13.605,2.731-18.563,7.689
	l-60.567,60.567h-30.378c-7.012,0-13.605,2.73-18.563,7.689L191.911,255.642l-11.963-11.963c-1.949-1.949-4.701-2.867-7.431-2.475
	c-2.728,0.391-5.113,2.045-6.435,4.464l-24.185,44.237c-11.979-4.83-24.239-6.962-36.289-6.197
	c-17.891,1.133-34.959,8.412-49.357,21.053c-14.988,13.159-25.86,31.103-30.615,50.527c-5.06,20.673-2.65,41.566,6.788,58.831
	c5.974,10.928,7.4,21.198,4.358,31.399c-6.56,21.994-31.885,35.744-32.124,35.873c-3.469,1.837-5.291,5.758-4.458,9.593
	c0.833,3.835,4.119,6.647,8.038,6.877c0.681,0.041,3.822,0.207,8.857,0.207c26.556,0,105.761-4.615,154.185-56.626
	c19.476-20.919,29.482-50.334,26.765-78.684c-0.652-6.812-2.038-13.346-4.063-19.546l45.027-24.617
	c2.419-1.322,4.073-3.707,4.464-6.435c0.392-2.728-0.525-5.482-2.475-7.431l-11.963-11.963l158.077-158.075h30.377
	c0.001,0,0,0,0.001,0c7.011,0,13.603-2.731,18.562-7.689l68.257-68.257c4.959-4.959,7.689-11.551,7.689-18.563
	S509.269,26.578,504.311,21.62z M158.47,429.517c-30.048,32.274-74.94,44.243-107.635,48.595
	c14.278-9.682,28.135-23.108,33.195-40.535c1.348-4.641-1.323-9.496-5.963-10.844c-4.644-1.346-9.498,1.322-10.844,5.963
	c-2.503,8.623-8.38,16.135-15.24,22.381c0.568-1.448,1.085-2.929,1.54-4.445c4.427-14.734,2.497-29.843-5.738-44.907
	c-14.791-27.056-6.186-64.808,20.016-87.812c11.464-10.063,24.92-15.852,38.917-16.739c1.288-0.082,2.576-0.121,3.866-0.121
	c5.064,0,10.131,0.644,15.188,1.897c-9.459,3.79-20.24,10.568-31.829,22.156c-3.417,3.417-3.417,8.959,0,12.375
	c1.708,1.708,3.948,2.563,6.187,2.563c2.239,0,4.479-0.854,6.187-2.563c20.689-20.689,36.51-22.184,44.241-21.172l-15.333,21.107
	c-2.841,3.91-1.973,9.383,1.937,12.223c1.553,1.128,3.352,1.672,5.135,1.672c2.706,0,5.375-1.252,7.087-3.609l13.775-18.962
	c0.397,3.839,3.663,42.498-21.38,67.541c-3.417,3.417-3.417,8.959,0,12.375c1.708,1.708,3.948,2.563,6.187,2.563
	c2.239,0,4.479-0.854,6.187-2.563c15.993-15.993,22.675-35.78,25.312-51.975c0.511,2.528,0.905,5.111,1.157,7.749
	C182.87,387.873,174.588,412.205,158.47,429.517z M164.897,302.8c-2.436-1.777-4.902-3.429-7.388-4.966l4.017-7.348l32.667,32.666
	l-7.366,4.028C181.295,317.66,173.923,309.382,164.897,302.8z M210.196,314.403l-39.92-39.92l5.559-10.168l44.53,44.53
	L210.196,314.403z M491.935,46.371l-68.257,68.257c-1.653,1.653-3.85,2.563-6.187,2.563l0,0h-34.002
	c-2.321,0-4.547,0.922-6.187,2.563l-160.64,160.639l-12.376-12.376l165.765-165.765c1.653-1.652,3.85-2.562,6.187-2.562h34.002
	c2.321,0,4.547-0.922,6.187-2.563l63.131-63.13c1.653-1.653,3.85-2.563,6.187-2.563s4.535,0.91,6.187,2.563
	c1.653,1.653,2.563,3.85,2.563,6.187C494.499,42.521,493.588,44.718,491.935,46.371z"/>
</svg>