<?xml version="1.0" encoding="UTF-8"?>
<svg id="Layer_1" xmlns="http://www.w3.org/2000/svg" version="1.1" viewBox="0 0 595.3 841.9">
  <!-- Generator: Adobe Illustrator 29.3.1, SVG Export Plug-In . SVG Version: 2.1.0 Build 151)  -->
  <defs>
    <style>
      .st0 {
        fill: #231f20;
      }
    </style>
  </defs>
  <path class="st0" d="M108.4,549.1l34.9-30.3c3-2.6,7.1-4.1,11.7-4.1s8.6,1.6,11.7,4.2c31.7,26.9,74.2,41.9,118.1,41.3,45.3,0,75.6-17.2,75.6-44.4s-30.7-34.4-88.5-53.8c-61.3-19.7-119.5-47.5-119.5-112.5s70-112.5,153-115.9l8.7-38.4c1.7-6.8,8.4-11.9,16.4-11.9h62.4l3.5.3c9.1,1.9,15,9.7,12.9,17.8l-9.4,42.8c31.4,9.4,61,24.1,86.4,43.4l.7.6c6.6,6.2,6.6,15.6,0,21.2l-32.4,29c-3.1,2.6-7.3,4.2-11.9,4.2s-8.4-1.5-11.5-3.9h0c-30.1-22.9-69.3-36.8-112.2-36.9-33.8,0-67.6,10-67.6,37.8s36.2,37.5,78.1,51.6c73.2,21.9,133.8,49.4,133.8,113.8s-60.6,118.1-159.6,123.4l-9.1,37.5c-1.7,7-8.5,12.2-16.7,12.2h-62.4l-3.1-.3c-7.8-1.6-13.6-7.8-13.6-15.2s.1-2.2.4-3.3h0c0,0,9.8-39.6,9.8-39.6-39.2-9-73-26-100.5-49.2h.1c0,0,0-.2,0-.2-3-2.7-4.9-6.5-4.9-10.6s1.9-8,4.9-10.7Z"/>
</svg>