<?xml version="1.0" standalone="no"?>
<!DOCTYPE svg PUBLIC "-//W3C//DTD SVG 20010904//EN"
 "http://www.w3.org/TR/2001/REC-SVG-20010904/DTD/svg10.dtd">
<svg version="1.0" xmlns="http://www.w3.org/2000/svg"
 width="6000.000000pt" height="6000.000000pt" viewBox="0 0 6000.000000 6000.000000"
 preserveAspectRatio="xMidYMid meet">
<metadata>
Created by potrace 1.10, written by Peter Selinger 2001-2011
</metadata>
<g transform="translate(0.000000,6000.000000) scale(0.100000,-0.100000)"
fill="#000000" stroke="none">
<path d="M2450 54474 c-55 -7 -172 -35 -208 -50 -18 -8 -38 -14 -46 -14 -16 0
-165 -64 -225 -97 -66 -36 -115 -66 -121 -73 -3 -3 -33 -27 -67 -53 -67 -51
-154 -144 -179 -192 -16 -30 -54 -140 -54 -156 0 -4 -12 -25 -26 -46 -14 -21
-30 -47 -35 -58 -5 -11 -13 -27 -18 -35 -30 -52 -41 -97 -42 -176 -1 -77 -4
-90 -29 -128 -45 -66 -70 -154 -72 -255 -2 -82 0 -93 30 -150 31 -60 32 -62
18 -113 -8 -29 -19 -66 -25 -81 -6 -16 -11 -56 -11 -91 0 -34 -5 -89 -11 -121
-8 -43 -8 -101 0 -209 6 -83 12 -198 13 -256 1 -67 7 -118 16 -140 23 -54 23
-421 0 -475 -25 -60 -50 -152 -52 -188 l-1 -32 505 -3 c278 -1 515 0 528 3 22
5 22 7 22 181 0 133 -4 187 -16 224 -13 40 -14 55 -4 85 10 31 9 39 -4 54 -9
10 -16 23 -16 30 0 6 -7 26 -16 43 -26 49 -12 73 61 107 36 17 76 31 89 31 25
0 86 49 86 69 0 14 0 14 -120 36 -168 31 -322 93 -432 174 -35 26 -48 42 -48
61 -1 14 -7 36 -15 50 -15 27 -19 246 -6 365 9 90 50 86 51 -6 0 -48 58 -200
87 -231 58 -61 95 -73 228 -72 108 1 125 4 171 27 94 47 155 153 179 308 9 60
62 91 112 66 25 -13 30 -25 46 -103 42 -206 104 -273 284 -308 90 -18 94 -18
159 0 119 34 175 111 210 289 16 78 46 114 100 115 36 0 54 -16 54 -46 0 -13
5 -26 11 -30 16 -9 60 17 69 42 10 26 96 84 124 84 37 0 83 -36 96 -75 26 -78
-7 -199 -72 -271 -36 -39 -132 -87 -177 -88 -28 -1 -36 3 -40 21 -5 19 -16 11
-101 -70 -154 -148 -268 -207 -589 -301 -29 -9 -61 -16 -70 -16 -25 0 -31 -9
-21 -29 5 -9 11 -24 14 -34 4 -13 12 -17 26 -12 39 12 20 -43 -34 -98 -15 -15
-25 -31 -21 -35 4 -4 12 1 19 11 7 9 16 17 20 17 10 0 46 39 46 50 0 18 49 35
62 22 7 -7 19 -12 28 -12 9 0 31 -16 50 -35 33 -34 33 -35 21 -77 -7 -24 -18
-61 -24 -83 -17 -56 -13 -210 7 -264 9 -24 16 -61 16 -83 0 -36 2 -39 21 -33
21 7 21 5 15 -49 -5 -38 -4 -56 3 -56 6 0 11 7 11 15 0 8 4 15 9 15 11 0 21
-25 21 -51 0 -11 9 -21 23 -24 12 -3 216 -4 452 -3 l430 3 -3 45 c-2 24 -10
57 -18 71 -7 15 -13 47 -12 71 0 24 -3 62 -6 85 -6 34 -2 52 23 106 32 67 52
123 78 212 20 67 30 400 14 458 -6 23 -16 87 -21 142 -16 162 -28 247 -40 295
-6 25 -15 64 -20 88 -5 23 -14 51 -20 61 -5 11 -10 31 -10 44 0 14 -6 47 -14
73 -27 96 -46 223 -46 315 -1 89 -8 158 -29 276 -12 66 -70 189 -109 231 -18
18 -34 49 -38 70 -13 70 -126 188 -275 288 -53 35 -105 67 -115 70 -11 4 -38
15 -61 26 -51 24 -71 27 -188 35 -73 5 -97 10 -130 32 -65 41 -104 61 -122 61
-9 0 -24 7 -33 15 -14 13 -53 16 -191 19 -96 2 -190 2 -209 0z m288 -950 c72
-17 122 -39 135 -61 6 -10 39 -13 128 -13 116 0 120 -1 159 -29 38 -27 150
-162 150 -180 0 -4 9 -18 20 -31 11 -13 20 -29 20 -35 0 -7 7 -18 15 -25 8 -7
15 -20 15 -30 0 -10 7 -23 15 -30 8 -7 15 -21 15 -33 0 -17 -4 -19 -37 -12
-21 4 -58 11 -83 15 -59 12 -190 12 -266 1 -35 -5 -98 -26 -146 -49 -84 -39
-86 -40 -174 -35 -74 5 -102 12 -164 41 -80 38 -223 71 -305 72 -28 0 -77 -7
-108 -15 -76 -20 -127 -20 -127 0 0 24 47 105 104 179 37 48 187 180 229 202
56 28 110 46 197 64 108 23 126 23 208 4z m-314 -514 c107 -30 166 -87 166
-159 0 -88 -45 -198 -106 -256 -36 -36 -52 -43 -108 -53 -44 -7 -89 -7 -138
-1 -127 17 -187 80 -214 223 -27 137 -10 212 55 246 52 28 248 28 345 0z m858
3 c55 -13 75 -24 99 -50 26 -31 29 -40 29 -107 0 -72 -21 -161 -53 -223 -48
-91 -178 -131 -317 -96 -36 9 -79 27 -97 40 -62 47 -103 148 -104 257 -1 80
14 108 81 145 40 23 44 23 70 7 30 -17 63 -20 95 -6 18 7 16 10 -15 21 l-35
13 30 7 c56 12 147 9 217 -8z m-1578 -197 c64 -44 75 -65 86 -170 5 -45 15
-102 22 -128 13 -54 7 -68 -24 -49 -14 9 -23 10 -31 2 -18 -18 -95 -13 -136 9
-60 30 -123 109 -145 181 -17 58 -17 63 -1 108 30 78 51 93 128 87 35 -2 62
-13 101 -40z"/>
<path d="M2295 52990 c-3 -5 3 -10 15 -10 12 0 18 5 15 10 -3 6 -10 10 -15 10
-5 0 -12 -4 -15 -10z"/>
<path d="M2198 52771 c-27 -9 -48 -19 -48 -23 0 -4 14 -14 30 -23 22 -12 35
-13 49 -5 25 13 137 13 162 0 36 -20 21 18 -18 45 -44 29 -100 31 -175 6z"/>
<path d="M2991 52762 c-35 -18 -60 -46 -49 -57 3 -4 20 1 37 9 39 21 91 20
135 0 32 -16 35 -16 60 2 49 36 32 46 -104 59 -31 3 -56 -1 -79 -13z"/>
<path d="M1553 52743 c-9 -36 -9 -100 0 -136 8 -31 79 -87 110 -87 10 0 37 17
58 39 47 47 53 94 16 129 -43 40 -99 24 -124 -36 -20 -48 -33 -27 -33 56 0 64
-14 83 -27 35z m155 -111 c4 -25 -15 -55 -29 -46 -5 3 -9 21 -9 40 0 28 4 35
18 32 9 -2 18 -14 20 -26z"/>
<path d="M9782 54083 c-6 -11 -7 -36 -2 -63 12 -62 12 -164 -1 -255 -12 -88
-7 -100 46 -103 l35 -3 0 50 c0 27 4 52 9 55 4 3 28 -19 52 -49 l43 -54 28 17
c15 9 28 22 28 28 0 7 -20 36 -45 65 -25 29 -45 56 -45 60 0 4 18 29 40 55 22
27 39 53 37 59 -2 5 -16 11 -31 13 -22 3 -36 -6 -67 -38 -26 -27 -41 -37 -44
-28 -3 7 -6 56 -7 108 l-3 95 -32 3 c-23 2 -34 -2 -41 -15z"/>
<path d="M4735 54082 c-39 -5 -79 -34 -107 -80 -20 -32 -23 -50 -23 -137 0
-110 12 -140 76 -186 61 -43 217 -22 235 33 13 42 -23 76 -52 49 -5 -5 -25
-14 -45 -20 -31 -10 -43 -9 -73 6 -30 14 -39 26 -53 69 -14 47 -15 58 -1 106
12 44 20 56 51 73 35 19 37 19 84 1 72 -27 78 -26 81 16 3 32 -1 39 -25 51
-32 16 -103 25 -148 19z"/>
<path d="M7157 54082 c-16 -7 -18 -26 -21 -210 -2 -202 -2 -203 20 -208 54
-14 59 -6 62 98 2 87 5 99 24 109 15 8 27 8 45 0 24 -11 25 -14 21 -103 -3
-92 -3 -93 23 -102 52 -18 59 -6 58 96 0 51 -6 108 -13 127 -16 44 -67 74
-103 60 -48 -18 -52 -14 -55 64 -3 64 -5 72 -23 74 -11 1 -28 -1 -38 -5z"/>
<path d="M6830 54063 c-14 -10 -33 -27 -42 -38 -23 -27 -23 -103 0 -131 22
-26 67 -54 87 -54 20 0 95 -38 95 -48 0 -5 -6 -17 -14 -27 -14 -19 -50 -22
-156 -12 -21 2 -25 -3 -28 -28 -3 -27 2 -33 36 -48 55 -24 158 -23 196 2 59
39 72 105 34 161 -24 34 -43 46 -123 78 -35 14 -51 27 -53 42 -8 49 50 65 123
34 46 -19 57 -10 53 42 l-3 39 -90 3 c-73 2 -95 -1 -115 -15z"/>
<path d="M7462 54048 c3 -29 7 -33 32 -33 32 0 53 23 43 49 -4 11 -18 16 -42
16 -35 0 -36 -1 -33 -32z"/>
<path d="M8757 54045 c-34 -33 -37 -41 -37 -90 0 -50 3 -56 34 -80 19 -14 51
-31 72 -37 55 -15 86 -38 82 -61 -4 -28 -51 -39 -117 -27 -74 13 -71 14 -71
-23 0 -28 5 -36 35 -50 51 -24 158 -23 200 3 41 25 61 86 45 135 -10 31 -66
85 -88 85 -22 0 -100 41 -106 56 -8 21 -8 20 10 38 20 20 71 20 119 0 46 -19
57 -10 53 42 l-3 39 -96 3 -95 3 -37 -36z"/>
<path d="M9305 54070 c-11 -18 6 -50 30 -56 33 -8 45 2 45 37 0 26 -3 29 -34
29 -19 0 -38 -5 -41 -10z"/>
<path d="M5607 54044 c-4 -4 -7 -23 -7 -43 0 -43 -13 -67 -30 -56 -15 9 -30
-12 -30 -43 0 -15 8 -26 24 -32 22 -8 24 -15 27 -95 3 -72 7 -89 23 -101 30
-21 99 -18 121 6 24 27 13 49 -25 48 -16 -1 -33 2 -36 5 -10 10 -17 85 -10
111 5 22 12 26 42 26 39 0 50 15 40 56 -4 16 -13 25 -24 23 -36 -3 -41 2 -44
49 -3 44 -5 47 -33 50 -17 2 -34 0 -38 -4z"/>
<path d="M7887 54043 c-4 -3 -7 -23 -7 -43 0 -37 -20 -67 -34 -52 -12 11 -34
-27 -29 -49 3 -11 16 -24 29 -29 21 -8 23 -14 21 -83 -2 -101 15 -127 82 -127
35 0 53 5 66 20 24 27 13 49 -25 48 -41 -1 -51 15 -48 82 l3 55 38 3 c22 2 40
9 44 18 8 21 -14 67 -30 61 -6 -2 -20 0 -30 5 -14 7 -16 16 -11 45 5 25 3 38
-7 44 -17 10 -53 12 -62 2z"/>
<path d="M9115 54038 c-2 -7 -6 -29 -7 -48 -2 -27 -8 -35 -28 -40 -36 -8 -42
-65 -8 -80 21 -10 23 -17 23 -83 0 -100 18 -127 84 -127 83 0 114 65 34 72
l-38 3 0 65 0 65 37 3 c41 3 52 20 38 56 -6 17 -18 26 -37 28 -26 3 -28 6 -26
42 2 23 -2 43 -10 48 -19 12 -57 9 -62 -4z"/>
<path d="M5331 53944 c-25 -20 -31 -34 -31 -63 0 -44 16 -61 83 -91 34 -15 47
-27 45 -38 -5 -25 -37 -26 -63 -2 -20 19 -26 20 -44 8 -56 -35 3 -98 92 -98
73 0 100 27 95 96 -3 48 -3 48 -63 79 -65 33 -85 65 -41 65 15 0 35 -5 45 -12
26 -16 53 6 49 41 -6 47 -117 57 -167 15z"/>
<path d="M8115 53960 c-11 -4 -29 -24 -40 -43 -15 -29 -17 -40 -7 -61 12 -26
74 -71 108 -78 11 -2 19 -11 19 -23 0 -28 -39 -31 -64 -6 -26 26 -29 26 -52 0
-36 -41 16 -89 96 -89 58 0 92 21 104 65 13 51 -4 80 -67 112 -62 31 -81 63
-38 63 15 0 35 -5 45 -12 15 -9 23 -9 36 2 24 20 15 63 -15 71 -35 10 -101 9
-125 -1z"/>
<path d="M10685 53961 c-33 -14 -47 -38 -47 -76 0 -43 20 -67 78 -96 29 -14
44 -27 44 -40 0 -24 -45 -26 -58 -3 -14 26 -62 10 -62 -19 0 -41 39 -67 101
-67 71 0 109 31 109 90 0 46 -14 62 -86 96 -30 14 -53 31 -51 37 5 17 55 21
72 7 32 -26 65 22 40 56 -14 20 -107 29 -140 15z"/>
<path d="M5008 53952 l-28 -3 0 -94 c0 -100 9 -137 42 -172 19 -21 31 -23 120
-23 l98 0 -3 148 -2 147 -29 3 c-44 5 -51 -10 -51 -114 0 -83 -3 -97 -19 -110
-25 -18 -29 -18 -56 4 -20 16 -22 27 -21 109 0 99 -6 111 -51 105z"/>
<path d="M5847 53924 c-63 -63 -64 -179 -1 -233 30 -27 42 -31 92 -31 36 0 66
6 80 16 56 39 81 160 44 216 -33 50 -66 68 -124 68 -49 0 -58 -4 -91 -36z
m118 -46 c22 -10 25 -17 25 -63 0 -45 -4 -55 -25 -69 -33 -22 -51 -20 -69 6
-24 33 -20 81 9 112 28 30 26 30 60 14z"/>
<path d="M6140 53956 c0 0 -1 -66 -3 -146 -2 -159 -1 -161 59 -146 25 7 25 7
18 89 -6 74 -4 85 14 107 17 21 24 23 39 14 15 -10 18 -25 18 -102 0 -53 5
-96 12 -103 6 -6 23 -9 39 -7 l29 3 0 91 c0 113 20 148 60 107 14 -13 16 -32
14 -102 l-4 -85 28 -10 c47 -17 54 2 47 136 -5 94 -10 121 -25 138 -22 24 -71
27 -102 5 -18 -12 -23 -13 -32 -1 -9 10 -39 14 -111 14 -55 0 -100 -1 -100 -2z"/>
<path d="M7467 53953 c-4 -3 -7 -68 -7 -144 0 -129 1 -138 20 -144 11 -3 28
-4 38 -1 16 5 18 20 18 145 0 133 0 140 -20 145 -28 8 -41 7 -49 -1z"/>
<path d="M7624 53949 c-4 -6 -7 -70 -8 -141 -2 -141 2 -152 51 -146 l28 3 3
98 3 98 44 20 c51 23 59 32 50 59 -8 24 -27 25 -59 5 -21 -14 -24 -14 -36 0
-15 17 -66 20 -76 4z"/>
<path d="M9324 53948 c-4 -6 -8 -61 -9 -122 -1 -61 -5 -119 -9 -128 -6 -14 -2
-20 20 -29 52 -19 57 -7 57 138 -1 72 -4 136 -7 142 -9 15 -43 14 -52 -1z"/>
<path d="M9529 53942 c-92 -55 -101 -186 -19 -256 57 -47 200 -29 200 25 0 27
-41 44 -68 30 -33 -18 -59 -13 -81 15 -26 33 -27 65 -2 95 16 20 27 24 70 22
42 -2 53 1 66 20 19 27 19 32 -1 51 -21 21 -129 20 -165 -2z"/>
<path d="M10140 53934 c-35 -30 -70 -93 -70 -126 1 -42 36 -104 72 -126 69
-43 198 -18 198 38 0 27 -45 37 -69 16 -10 -9 -29 -16 -42 -16 -30 0 -69 26
-69 46 0 11 20 14 100 14 118 0 120 3 95 85 -22 67 -61 95 -135 95 -38 0 -55
-6 -80 -26z m121 -44 c10 -6 19 -20 19 -30 0 -17 -7 -20 -54 -20 -61 0 -76 12
-50 41 19 21 55 25 85 9z"/>
<path d="M10443 53953 c-10 -3 -13 -42 -13 -143 0 -148 1 -150 55 -150 33 0
36 8 24 84 -16 99 -3 120 84 150 22 7 23 54 1 63 -8 3 -26 0 -40 -7 -18 -10
-30 -11 -49 -2 -27 13 -42 14 -62 5z"/>
<path d="M8356 53731 c-3 -5 -4 -35 -1 -67 2 -33 4 -62 5 -66 0 -18 41 -6 54
15 20 32 28 85 16 108 -11 20 -64 27 -74 10z"/>
<path d="M10914 53716 c-4 -17 0 -35 10 -51 10 -15 12 -26 6 -30 -17 -11 -11
-33 12 -41 35 -11 60 28 56 90 -3 51 -3 51 -40 54 -33 3 -38 0 -44 -22z"/>
<path d="M7655 53200 l-80 -5 4 -140 c2 -85 -1 -163 -9 -198 -16 -77 -7 -87
74 -87 168 0 236 65 236 224 0 167 -54 217 -225 206z m121 -101 c15 -17 19
-36 18 -95 0 -80 -9 -97 -70 -134 -57 -36 -64 -24 -64 114 0 68 3 126 7 129 3
4 25 7 48 7 30 0 47 -6 61 -21z"/>
<path d="M6821 53191 c-10 -7 -14 -25 -12 -62 2 -58 -8 -71 -49 -63 -39 8 -76
-11 -110 -57 -24 -33 -30 -52 -30 -92 0 -61 30 -114 74 -132 37 -15 182 -8
193 9 5 6 7 100 5 209 l-4 197 -26 0 c-15 0 -33 -4 -41 -9z m-21 -210 c11 -22
14 -90 4 -115 -4 -11 -19 -16 -45 -16 -34 0 -41 4 -50 27 -12 33 -4 87 17 108
21 21 61 19 74 -4z"/>
<path d="M7245 53186 c-37 -11 -40 -15 -43 -50 -4 -42 -6 -42 80 -20 15 3 39
3 53 0 46 -12 24 -78 -30 -88 -15 -2 -20 -11 -20 -38 0 -33 2 -35 40 -40 35
-4 40 -9 43 -33 2 -19 -4 -33 -20 -47 -31 -26 -42 -25 -83 11 -34 31 -36 31
-55 14 -25 -23 -25 -33 3 -67 33 -41 98 -61 153 -47 66 17 94 55 94 130 0 33
-4 59 -10 59 -6 0 -15 11 -21 24 -9 19 -8 29 5 47 9 13 16 37 16 54 0 82 -95
124 -205 91z"/>
<path d="M8166 53185 c-10 -10 -14 -24 -11 -34 12 -31 17 -236 7 -291 -13 -68
-4 -80 55 -80 l44 0 -7 64 c-6 63 -6 65 17 69 13 3 50 10 81 15 60 11 86 30
112 81 20 38 20 64 0 103 -25 49 -53 65 -119 72 -33 4 -83 9 -111 12 -40 5
-54 2 -68 -11z m200 -88 l27 -24 -19 -32 c-20 -34 -44 -45 -90 -39 -27 3 -29
6 -32 52 -2 32 1 52 10 57 25 17 77 9 104 -14z"/>
<path d="M8757 53193 c-4 -3 -7 -19 -7 -34 0 -30 20 -42 56 -33 26 7 33 41 12
62 -13 13 -50 16 -61 5z"/>
<path d="M9267 53154 c-4 -4 -7 -27 -7 -50 0 -37 -3 -43 -22 -46 -30 -4 -38
-55 -11 -65 29 -10 33 -23 33 -105 0 -71 2 -78 26 -97 34 -26 84 -27 111 -1
27 25 20 62 -11 58 -37 -5 -46 10 -46 77 l0 64 33 3 c28 3 32 7 35 36 3 30 1
32 -27 32 -29 0 -30 2 -33 48 -3 46 -4 47 -38 50 -20 2 -39 0 -43 -4z"/>
<path d="M9502 53074 c-12 -8 -29 -28 -37 -44 -12 -24 -13 -34 -3 -57 15 -32
47 -62 66 -63 21 0 62 -31 62 -46 0 -19 -54 -18 -70 1 -17 21 -36 19 -54 -6
-19 -28 -4 -55 43 -75 47 -20 83 -17 122 9 75 50 62 113 -33 161 -40 19 -58
34 -58 47 0 13 7 19 24 19 14 0 28 -4 31 -10 9 -14 55 -12 56 3 3 30 -4 53
-19 65 -22 17 -103 15 -130 -4z"/>
<path d="M6029 53051 c-73 -61 -73 -209 1 -258 35 -24 79 -29 109 -13 12 6 31
5 54 -2 31 -10 40 -9 56 6 19 18 19 18 -1 57 -17 33 -20 53 -16 115 6 85 -1
99 -52 109 -100 19 -113 17 -151 -14z m121 -70 c13 -26 13 -74 -2 -106 -23
-52 -98 -19 -98 43 0 13 8 37 17 53 21 35 66 40 83 10z"/>
<path d="M6380 53071 l-65 -6 -2 -110 c-1 -60 -3 -121 -5 -135 -2 -19 3 -26
25 -34 52 -19 62 -2 58 104 -3 100 1 110 51 110 35 0 53 -51 43 -124 -13 -93
-13 -91 24 -94 18 -2 39 2 45 8 18 18 8 219 -13 246 -18 26 -54 45 -79 42 -9
-1 -46 -4 -82 -7z"/>
<path d="M9036 53073 c-4 -5 -33 -8 -64 -8 l-57 0 -6 -135 c-6 -146 -4 -152
46 -148 l30 3 5 105 5 105 40 0 40 0 5 -105 5 -105 40 0 40 0 3 90 c3 108 -15
168 -58 190 -32 16 -62 19 -74 8z"/>
<path d="M8550 53062 c-12 -2 -15 -23 -16 -115 -1 -61 -3 -121 -5 -131 -5 -22
36 -38 72 -29 17 5 20 11 15 37 -18 107 -18 121 2 144 11 13 36 27 55 33 36
10 50 28 41 52 -3 10 -25 14 -77 13 -40 0 -79 -2 -87 -4z"/>
<path d="M8765 53062 c-6 -4 -11 -65 -12 -140 l-2 -133 40 3 41 3 0 130 c0
116 -2 130 -18 136 -25 10 -37 10 -49 1z"/>
<path d="M3830 52773 c-1 -25 -9 -48 -24 -67 -23 -28 -24 -28 -35 -8 -13 25
-70 45 -97 35 -42 -16 -66 -69 -45 -101 9 -15 58 -42 76 -42 21 0 79 32 98 54
35 43 62 121 51 150 -11 29 -24 17 -24 -21z m-105 -89 c19 -20 16 -43 -7 -58
-14 -8 -22 -6 -38 9 -18 19 -19 22 -4 43 18 26 27 27 49 6z"/>
<path d="M2625 52496 c-36 -10 -40 -15 -43 -47 -2 -30 3 -42 28 -68 26 -26 39
-31 78 -31 65 0 122 45 122 95 0 28 -6 37 -30 50 -34 18 -99 18 -155 1z"/>
<path d="M5210 52220 c-8 -5 -26 -10 -40 -10 -14 0 -36 -11 -48 -25 -24 -24
-24 -28 -20 -199 3 -160 8 -199 24 -184 3 3 8 65 11 137 4 92 10 134 20 142 7
6 13 17 13 23 0 7 15 23 33 37 30 23 41 24 207 29 109 3 174 9 173 15 -1 6
-12 13 -25 16 l-23 6 22 9 c14 6 -41 10 -155 11 -100 1 -184 -2 -192 -7z"/>
<path d="M5620 52201 c0 -5 11 -11 25 -13 28 -6 34 6 9 16 -22 8 -34 7 -34 -3z"/>
<path d="M5683 52073 c-4 -48 -8 -154 -7 -235 0 -82 -3 -148 -7 -148 -4 0 -5
16 -2 35 7 43 -11 47 -26 5 -5 -16 -15 -30 -20 -30 -6 0 -11 -7 -11 -15 0 -8
5 -15 11 -15 5 0 7 -5 4 -10 -5 -8 -11 -7 -21 1 -8 6 -25 8 -41 4 -21 -5 -24
-8 -12 -16 7 -5 28 -9 44 -10 17 -1 22 -3 13 -6 -10 -2 -18 -9 -18 -14 0 -12
27 -12 35 1 3 6 15 10 26 10 11 0 23 8 26 18 4 9 13 22 21 28 11 8 13 50 9
243 -3 128 -7 235 -10 237 -3 3 -9 -34 -14 -83z"/>
<path d="M6006 52098 c-30 -26 -40 -44 -47 -83 -15 -82 -2 -141 42 -187 38
-40 39 -40 99 -36 67 5 108 32 96 63 -6 18 -8 17 -98 -1 -20 -5 -33 0 -53 20
-23 24 -26 32 -23 92 3 60 6 69 31 88 27 20 28 20 61 2 36 -19 77 -19 84 2 2
7 -11 26 -28 42 -26 25 -41 30 -79 30 -39 0 -54 -6 -85 -32z"/>
<path d="M6270 52111 c-5 -11 -10 -82 -10 -159 0 -111 3 -142 15 -152 28 -23
44 -4 47 57 3 52 5 58 26 61 26 4 62 -23 62 -45 0 -15 29 -64 45 -75 16 -12
35 -9 41 7 3 8 -6 39 -21 70 l-26 56 25 30 c18 21 26 42 26 69 0 32 -6 44 -37
69 -34 28 -44 31 -110 31 -61 0 -74 -3 -83 -19z m158 -53 c33 -33 -1 -78 -58
-78 -43 0 -57 21 -46 66 6 21 12 24 49 24 24 0 48 -5 55 -12z"/>
<path d="M6666 52123 c-11 -11 -46 -94 -46 -109 0 -7 -6 -28 -14 -46 -14 -34
-31 -83 -46 -129 -4 -15 -4 -32 0 -40 12 -18 56 3 65 30 5 18 15 21 60 21 49
0 57 -3 77 -30 38 -52 82 -34 55 23 -8 18 -22 51 -31 75 -40 106 -49 130 -68
170 -18 40 -35 51 -52 35z m46 -168 c9 -36 3 -45 -28 -45 -32 0 -40 22 -18 55
20 31 35 28 46 -10z"/>
<path d="M6896 52122 c-10 -17 -9 -313 2 -324 7 -7 16 -6 31 1 17 10 21 21 21
66 l0 55 43 0 c93 0 106 57 15 62 l-53 3 0 40 0 40 67 3 c69 3 91 19 67 48
-13 15 -184 21 -193 6z"/>
<path d="M7137 52124 c-4 -4 -7 -18 -7 -31 0 -17 6 -23 21 -23 52 0 56 -10 57
-141 2 -128 9 -152 40 -133 15 10 17 29 17 133 0 130 4 141 53 141 20 0 23 5
20 28 l-3 27 -95 3 c-53 1 -99 0 -103 -4z"/>
<path d="M7407 52124 c-4 -4 -7 -78 -7 -165 l0 -158 33 -6 c17 -3 63 -5 102
-3 55 2 70 6 73 19 4 21 -19 31 -88 38 -53 6 -55 7 -58 39 l-3 32 49 0 c52 0
79 17 69 44 -4 10 -24 16 -59 18 l-53 3 0 40 0 40 73 3 c73 3 73 3 70 30 l-3
27 -95 3 c-53 1 -99 0 -103 -4z"/>
<path d="M7689 52113 c-11 -12 -14 -50 -12 -157 2 -169 3 -170 103 -163 60 5
68 8 96 41 36 42 49 101 39 175 -7 48 -23 75 -65 104 -34 23 -142 24 -161 0z
m138 -58 c28 -19 39 -87 24 -142 -9 -34 -17 -44 -45 -53 -58 -19 -64 -10 -68
96 -2 52 -1 99 0 104 5 15 65 12 89 -5z"/>
<path d="M8000 52104 c-15 -38 -13 -287 2 -302 13 -13 105 -16 158 -6 44 9 73
56 65 104 -4 19 -9 69 -13 110 -7 70 -9 76 -41 97 -27 18 -48 23 -98 23 -59 0
-64 -2 -73 -26z m138 -46 c22 -22 14 -58 -15 -69 -50 -19 -81 6 -69 54 5 22
12 27 39 27 18 0 38 -5 45 -12z m6 -138 c31 -11 35 -45 7 -60 -55 -29 -116 4
-91 50 12 22 44 26 84 10z"/>
<path d="M8275 52119 c-4 -5 15 -43 42 -82 47 -71 48 -73 48 -151 0 -72 2 -80
22 -89 39 -17 53 5 48 78 -4 69 2 86 69 179 38 54 40 76 7 76 -20 0 -49 -30
-77 -77 -23 -42 -35 -41 -58 2 -36 66 -82 95 -101 64z"/>
<path d="M8639 52101 c-68 -57 -75 -198 -14 -275 20 -26 32 -30 82 -33 61 -4
98 9 117 40 9 14 7 21 -7 32 -15 11 -23 11 -45 -1 -60 -31 -105 -7 -120 62
-12 56 2 110 36 132 22 14 27 14 57 -2 35 -19 76 -18 83 2 2 7 -11 26 -28 42
-45 42 -110 42 -161 1z"/>
<path d="M8907 52123 c-4 -3 -7 -78 -7 -165 0 -132 3 -160 15 -164 8 -4 22 -1
30 6 20 16 22 299 3 318 -13 13 -31 16 -41 5z"/>
<path d="M9046 52114 c-9 -24 -7 -297 3 -312 5 -8 17 -12 27 -10 15 3 19 13
22 58 3 70 10 100 23 100 5 0 13 -8 16 -17 13 -33 85 -134 99 -140 35 -13 43
17 45 170 2 120 0 150 -12 158 -27 17 -34 2 -39 -84 -3 -47 -8 -88 -11 -92 -4
-3 -30 29 -57 72 -28 43 -57 86 -66 96 -20 21 -42 22 -50 1z"/>
<path d="M9376 52114 c-13 -12 -16 -41 -16 -154 0 -170 2 -174 97 -168 55 3
67 8 97 37 43 41 60 113 44 186 -11 55 -29 80 -70 101 -37 19 -132 18 -152 -2z
m139 -64 c22 -24 31 -113 16 -153 -13 -34 -56 -52 -88 -38 -22 10 -23 16 -23
104 0 52 3 97 7 100 14 15 70 6 88 -13z"/>
<path d="M9650 52115 c0 -9 20 -47 45 -85 44 -67 45 -71 45 -149 0 -71 2 -80
20 -86 37 -12 50 11 50 87 0 62 13 103 40 128 17 15 68 105 64 112 -9 14 -43
9 -61 -10 -10 -10 -27 -34 -38 -55 -11 -20 -24 -37 -30 -37 -5 0 -26 24 -45
53 -26 38 -43 53 -63 55 -20 2 -27 -1 -27 -13z"/>
<path d="M9980 52111 c-16 -30 -13 -283 3 -306 21 -27 138 -17 174 16 35 34
55 86 55 144 0 109 -54 165 -160 165 -50 0 -63 -3 -72 -19z m149 -70 c43 -61
19 -173 -39 -186 -51 -11 -60 5 -60 110 0 50 3 95 7 98 3 4 21 7 39 7 25 0 38
-7 53 -29z"/>
<path d="M10317 52096 c-29 -28 -35 -43 -40 -92 -12 -114 22 -194 91 -214 51
-16 102 7 132 57 19 31 23 53 23 113 0 120 -37 170 -125 170 -40 0 -52 -5 -81
-34z m129 -47 c14 -16 18 -36 18 -91 0 -62 -3 -73 -23 -89 -28 -23 -49 -24
-78 -4 -38 27 -43 154 -6 190 21 21 67 18 89 -6z"/>
<path d="M5236 52065 c-17 -26 -20 -90 -10 -194 10 -91 29 -78 30 20 0 65 3
83 17 90 9 6 17 14 17 19 0 6 10 20 21 31 17 17 35 22 89 23 44 2 76 8 92 19
22 15 16 16 -108 16 -129 1 -132 1 -148 -24z m57 -22 c-4 -9 -15 -25 -25 -35
-17 -17 -18 -17 -18 7 0 13 8 29 18 34 25 15 32 13 25 -6z"/>
<path d="M5570 52011 c-7 -13 -16 -17 -31 -14 -15 4 -20 3 -15 -5 4 -7 13 -12
20 -12 17 0 8 -109 -10 -128 -17 -17 -17 -25 -2 -40 19 -19 -15 -50 -36 -33
-16 13 -56 6 -56 -10 0 -5 17 -9 38 -9 20 0 47 -3 60 -6 14 -4 22 -2 22 6 0 6
7 18 15 26 12 12 15 41 15 130 0 63 -2 114 -5 114 -2 0 -9 -9 -15 -19z"/>
<path d="M5352 51958 c-28 -28 -8 -81 29 -77 13 2 30 0 37 -5 16 -10 52 20 52
44 0 41 -87 69 -118 38z m68 -31 c0 -17 -20 -37 -37 -37 -13 0 -18 32 -6 43
11 12 43 7 43 -6z"/>
</g>
</svg>
