<?xml version="1.0" encoding="UTF-8"?><svg id="Layer_1" xmlns="http://www.w3.org/2000/svg" viewBox="0 0 2826.26 2826.49"><path d="M2826.26,1413.26c1.07,774.16-629.02,1414.07-1414.78,1413.23C630.58,2825.65-.89,2189.93,0,1411.81.9,628.42,640.28-1.26,1415.43,0c776.99,1.27,1411.71,634.86,1410.83,1413.25ZM2794.21,1413.54c.81-762.07-620.98-1381.37-1380.97-1381.45C656.85,32,33.21,646.68,32.08,1411.48c-1.12,759.8,615.38,1382.14,1379.61,1382.92,768.06.79,1383.37-624.94,1382.52-1380.86Z"/><path d="M1413.67,466.92c522.64.09,946.9,425.05,945.81,949.06-1.09,526.03-431.9,945.3-949.2,943.71-515.93-1.58-943.91-421.87-943.38-947.59.53-521.67,425.32-945.5,946.76-945.18ZM2327.66,1413.1c-.27-503.13-410.28-913.59-912.32-914.2-508.06-.62-916.26,413.31-916.39,914.03-.12,502.73,409.67,914.21,913.7,914.66,498.94.45,914.23-404.79,915.01-914.48Z"/><path d="M2691.37,1330.41c2.94,18.13,4.68,36.74,6.55,55.26-1.36.34-2.41.8-2.55.61-4.48-6.1-10.19-6.56-17.42-5.67-49.92,6.15-99.9,11.8-149.86,17.6-13.57,1.58-27.13,3.2-40.71,4.66-8.25.89-16.89.73-20.28,10.27-2.77-.75-2.82-2.5-3.01-4.12-1.87-15.88-3.74-31.76-5.58-47.64-.19-1.65-.56-3.39-.23-4.96.42-2.02,1.98-2.52,3.74-1.3q6.68,4.59,11.83-1.51c32.61-38.76,65.21-77.52,97.83-116.27,10.73-12.75,21.52-25.44,32.24-38.2,1.24-1.47,2.93-2.73,3.19-5.78-3.35-1.09-6.86-.31-10.24.08-45.33,5.24-90.65,10.61-136,15.75-7.07.8-13.47,2.13-17.32,9.56-3.88-18.55-5.51-36.78-7.37-54.71,2.39-1,3.49-.48,4.18.85,2.57,5,6.83,5.62,11.88,5.02,27.79-3.27,55.59-6.39,83.39-9.63,37.39-4.36,74.76-8.82,112.16-13.14,6.99-.81,14.25-.67,17.27-9.04.23-.65,1.67-1.27,2.5-1.21,1.51.1,2,1.41,2.16,2.83,2.21,19.86,4.44,39.72,6.63,59.59.18,1.62.43,3.42-1.56,4.25-2.1.87-2.94-.76-3.85-2.12-.87-1.32-1.17-3.11-4.04-4.19-44.44,52.27-89,104.69-133.77,157.35,2.61,2.7,4.91,1.19,6.94.96,43.69-4.96,87.37-9.97,131.06-14.97,1.65-.19,3.3-.59,4.95-.65,5.8-.22,10.45-1.86,11.64-8.46.18-.97,1.33-1.36,3.67-1.04Z"/><path d="M2066.85,413.27c-9.84,16.63-18.74,31.67-27.63,46.7-.65.12-1.3.24-1.95.37-.37-11.49-9.4-14.57-16.83-19.02-23.14-13.87-46.38-27.57-69.62-41.28-7.81-4.61-7.89-4.55-12.66,3.44-7.68,12.87-15.32,25.76-22.93,38.67-4.74,8.03-4.72,8.1,3.04,12.71,32.08,19.04,64.17,38.05,96.26,57.07,9.74,5.78,19.48,11.56,29.21,17.35q8.68,5.17,18.69,1.97c-9.36,15.79-18.03,30.43-26.71,45.07-.84-9.2-7.45-12.59-13.61-16.25-54.42-32.3-108.85-64.57-163.28-96.86-3.72-2.21-7.43-4.44-11.16-6.64-1.21-.72-2.2-1.72-1.98-3.13.24-1.48,1.56-2.19,2.99-1.99,7,.97,10-3.67,13.01-8.76,33.58-56.76,67.23-113.47,100.87-170.2,3.36-5.67,7.6-11.24.45-18.24,4.7-.3,6.9,1.92,9.27,3.33,56.73,33.62,113.44,67.28,170.08,101.05,5.16,3.08,10.09,4.79,16.01.91-1.58,7.86-18.06,36.52-26.15,45.73-.36-9.35-6.73-13.03-13.35-16.93-39.04-22.96-77.97-46.13-116.93-69.23-1.72-1.02-3.55-1.89-5.14-3.07-3.42-2.53-5.67-2.07-7.89,1.8-7.65,13.27-15.48,26.45-23.48,39.51-2.44,3.98-1.01,5.81,2.45,7.82,12.39,7.19,24.65,14.59,36.97,21.89,12.61,7.47,25.22,14.93,37.84,22.38q11.2,6.61,24.17,3.82Z"/><path d="M801.39,285.33c3.09-3.53,6.42-4.24,9.35-5.5,59.91-25.87,119.82-51.7,179.78-77.44,5.68-2.44,10.95-4.9,10.19-13.55.93.37,1.87.74,2.8,1.11,6.66,15.38,13.33,30.75,19.94,46.02-.93.69-1.67,1.46-1.85,1.35-6.02-3.82-11.65-2.51-17.84.19-43.02,18.78-86.16,37.29-129.26,55.89-1.22.53-2.41,1.16-3.67,1.58-4.03,1.35-4.83,3.51-3,7.55,6.16,13.65,12.18,27.38,17.81,41.26,2.1,5.17,4.56,5.13,9.07,3.15,24.98-11,50.09-21.73,75.15-32.56,1.83-.79,3.62-1.72,5.5-2.38,7.14-2.49,13.37-5.84,14.52-15.11,9.15,15.72,15.23,32.21,22.06,49.15-10.59-5.23-18.82.45-27.37,4.13-24.77,10.66-49.54,21.32-74.27,32.07-6.55,2.85-6.6,3.04-3.92,9.32,6.52,15.31,13.26,30.54,19.68,45.89,1.91,4.56,3.86,5.9,8.92,3.69,46.68-20.38,93.46-40.55,140.3-60.57,5.09-2.17,7-5.62,6.87-11.13,4.95,5.43,17.6,33.29,21.98,48.44-8.72-6.68-15.96-2.11-23.31,1.06-59.01,25.43-118.01,50.88-177,76.33-.92.4-1.77,1.01-2.73,1.23-2.47.56-4.94,3.69-7.31,1.52-2.98-2.72,1.06-4.46,2.02-6.56,2.07-4.54.18-8.42-1.55-12.41-10.7-24.75-21.38-49.51-32.07-74.27-15.71-36.37-31.38-72.76-47.14-109.11-3.8-8.77-3.92-8.72-13.67-10.33Z"/><path d="M1759.17,181.35c20.3,3.77,40.52,7.55,60.65,14.61-9.79,2.18-10.24,9.83-11.85,16.83-14.23,61.61-28.52,123.21-42.79,184.81-.53,2.27-.91,4.57-1.53,6.81-1.56,5.64.62,9.67,5.15,12.88,1.43,1.01,2.29,2.62,1.44,4.33-.91,1.83-2.78,1.47-4.39,1.13-3.58-.76-7.14-1.6-10.71-2.44-13.29-3.11-26.57-6.22-39.85-9.35-2.2-.52-5.05-.46-5.53-3.33-.45-2.73,1.46-4.25,3.99-4.85,3.96-.95,4.85-4.19,5.61-7.48,6.03-25.93,11.94-51.9,18.14-77.79,1.24-5.2-.65-7.13-5.41-8.22-42.49-9.75-84.97-19.58-127.41-29.57-4.66-1.1-6.56.05-7.61,4.68-6.04,26.61-12.22,53.2-18.57,79.74-1.43,5.97.73,10.07,6.07,13.31-7.06,2.18-42.88-5.08-60-11.66.05-.63-.08-1.75.16-1.83,7.92-2.77,10.04-9.08,11.76-16.66,13.8-60.69,28.03-121.27,42.05-181.91,2.16-9.33,5.28-18.96-4.98-26.86,20.98,2.99,40.71,7.98,60.3,12.78.07,2.07-.29,3.25-1.91,3.58-5.45,1.1-7.19,5.07-8.31,9.97-4.97,21.74-10.17,43.42-15.21,65.15-2.01,8.65-1.94,8.73,6.53,10.7,34.68,8.07,69.38,16.11,104.07,24.14,6.81,1.58,13.62,3.11,20.45,4.61,7.43,1.63,7.6,1.64,9.3-5.47,3.8-15.86,7.42-31.76,11.11-47.64.98-4.21,1.94-8.43,2.92-12.65q2.97-12.71-3.64-22.35Z"/><path d="M200.83,995.43c-2.18-3.57-.12-5.81.9-8.06,18.92-41.9,37.81-83.8,56.93-125.61,4.99-10.9,10.63-21.52,18.02-31.07,16.63-21.47,39.87-28.76,65.83-20.66,8.64,2.69,16.76,6.52,24.4,11.35,23.67,14.95,31.97,34.88,26.13,62.45-2.99,14.12-8.66,27.27-14.54,40.34-9.84,21.87-19.78,43.7-29.66,65.55-1.5,3.32-2.92,6.67-4.29,9.83,2.21,3.41,5.67,4.05,8.64,5.4,21.51,9.84,43.06,19.58,64.59,29.36q9.62,4.37,18.32.56c-.86,7.2-18.6,47.23-25.57,56.8.35-10.58-7.01-12.63-13.77-15.68-59.2-26.73-118.35-53.57-177.49-80.44-6.21-2.82-12.2-6.79-18.44-.12ZM255.92,960.88c15.6,7.07,30.13,13.64,44.64,20.24,8.83,4.02,8.02,4.83,12.21-4.29,11.68-25.42,23.37-50.83,35.08-76.24,2.52-5.48,4.43-11.16,5.41-17.1,1.33-8.09-.31-15.67-6.98-20.75-24.43-18.6-37-14.3-49.48,7.87-1.96,3.47-3.51,7.18-5.15,10.82-3.41,7.59-6.71,15.24-10.13,22.83-8.34,18.51-16.72,36.99-25.6,56.62Z"/><path d="M131.31,1367.79c-1.93-10.13.18-18.29,1.2-26.47,4.88-39.33,10.07-78.63,15.27-117.92,1.62-12.22,3.82-24.36,8.19-35.96,9.47-25.15,28.98-38.71,55.83-38.99,11.44-.12,22.54,1.74,33.4,5.28,21.59,7.03,33.05,22.34,36.8,44.29,2.62,15.36.92,30.61-.87,45.81-3.12,26.46-6.72,52.86-10.09,79.3-.89,6.96-.84,7.05,6.18,7.98,24.43,3.23,48.87,6.47,73.32,9.56,6.48.82,13.49,2.85,18.07-5.78-.93,21.32-3.61,41.42-6.74,62.15-4.89-2.02-3.46-8.81-9.13-8.88-3.95-.05-7.89-1.11-11.84-1.62-64.74-8.39-129.48-16.77-194.22-25.15-5.93-.77-12.02-2.07-15.36,6.41ZM245.49,1225.02c-.72-12.51-2.47-22.66-13.73-27.56-6.76-2.94-13.94-4.35-21.37-4.32-8.09.03-13.93,3.81-17.9,10.69-3.55,6.15-5.43,12.92-6.33,19.85-3.8,29.36-7.27,58.76-11.14,88.11-.64,4.83.7,6.56,5.41,7.1,14.21,1.63,28.38,3.58,42.56,5.42,9.16,1.19,9.31,1.15,10.52-8.13,2.82-21.77,5.53-43.55,8.36-65.32,1.2-9.23,2.58-18.43,3.63-25.85Z"/><path d="M178.76,1768.31c-6.03-20.71-8.9-41.42-12.7-61.97,1.7-.31,2.76-.68,2.87-.49,3.86,6.37,9.02,6.94,16.13,5.61,44.83-8.43,89.76-16.32,134.66-24.38,19.76-3.55,30.75-13.28,33.65-32.98,4.8-32.59-1.09-63.72-16.68-92.75-7.47-13.9-20.19-19.26-35.37-17.2-17.8,2.43-35.45,5.97-53.15,9.14-28.84,5.16-57.67,10.41-86.5,15.61-6.33,1.14-12.86,1.92-13.81,10.3-.12,1.03-.96,1.64-2.06,1.76-1.8.2-2.31-1.22-2.58-2.42-.74-3.24-1.24-6.53-1.85-9.8-2.36-12.77-4.75-25.53-7.06-38.31-.53-2.94-.83-5.93-1.12-8.91-.1-1.02.46-1.89,1.59-2.15,1.01-.23,2.07-.18,2.48.91,2.99,7.82,9.42,4.87,14.51,4.13,12.18-1.76,24.26-4.28,36.38-6.49,33.08-6.02,66.13-12.24,99.27-17.97,26.42-4.57,50.43-.02,69.76,20.3,5.81,6.11,10.54,12.97,13.95,20.6,18.3,40.97,26.37,83.77,20.87,128.51-4.02,32.67-22.38,52.87-54.61,59.44-36.2,7.38-72.67,13.46-109.03,20.08-9.17,1.67-18.37,3.19-27.54,4.89-9.1,1.69-18.53,2.99-22.08,14.55Z"/><path d="M2414.18,1086.32c-8.89-18.72-17.78-37.45-26.49-55.79,1.9-2.37,3.56-2.37,5.03-1.37,2.93,1.98,4.83.74,6.77-1.56,11.38-13.5,22.76-27.01,34.28-40.39,2.63-3.05,2.35-5.71.75-9.07-13.88-29.17-27.72-58.35-41.34-87.65-2.05-4.4-4.85-5.59-9.36-5.43-14.98.53-29.98.72-44.97,1.13-4.33.12-8.24.21-9.85,6.07-1.13,4.11-4.74,3.73-6.92-.74-6.86-14.07-13.44-28.27-20.13-42.42-.28-.6-.45-1.26-.75-1.85-.51-1-.34-1.92.3-2.73,1.03-1.31,2.6-1.22,3.52-.34,5.03,4.8,11.12,3.48,17.06,3.29,68.94-2.23,137.87-4.43,206.81-6.66,3.66-.12,7.32-.36,10.97-.62,4.61-.33,8.76-1.19,8.48-7.31-.07-1.51,1.15-2.48,2.53-2.38.79.06,1.71,1,2.2,1.78.89,1.4,1.5,2.96,2.22,4.47,7.69,16.26,15.39,32.51,23.04,48.78.95,2.02,2.7,3.91,1.57,6.38-.99.74-1.98.67-2.76.03-4.92-3.98-8.5-1.86-11.73,2.4-1.41,1.86-2.99,3.58-4.46,5.39-44.3,54.59-88.59,109.18-132.89,163.78-.63.78-1.23,1.58-1.9,2.32-5.03,5.61-10.85,10.81-8.89,19.93l-3.1.56ZM2461.35,949.75c18.24-18.73,52.64-62.17,54.63-68.94-28.3.19-56.45.85-86.1,2.32,10.68,22.61,20.82,44.08,31.47,66.62Z"/><path d="M656.24,687.87c1.21-8.24-2.97-10.05-8.73-11.52-14.83-3.77-29.55-8.04-44.17-12.55-5.26-1.62-8.49-.53-12,3.7-20.01,24.07-40.21,48-60.61,71.74-3.57,4.16-4.21,7.32-1.63,12.31,6.59,12.7,12.47,25.76,18.72,38.64,2.13,4.39,3.52,9.33,10.68,7.69,3.41-.78,4.87,2.95,2.31,6.04-10.4,12.57-21,24.98-31.58,37.4-.81.95-1.84,2.06-3.4,1.34-1.97-.91-1.92-2.65-1.34-4.22,1.72-4.63-.44-8.39-2.38-12.29-31.31-62.87-62.6-125.75-93.9-188.63-1.04-2.09-2.2-4.12-3.11-6.26-2.82-6.58-6.34-11.87-15.21-7.73,2.51-7.55,27.33-38.31,42.98-53.9.54.31,1.51.58,1.54.93.8,9.65.75,9.78,10.51,12.31,64.41,16.74,128.84,33.42,193.27,50.13,6.76,1.75,13.52,3.53,20.26,5.39,5.71,1.57,11.38,4.55,17.05-.21.72-.61,1.89-.49,2.57.57.59.92.56,1.83-.04,2.71-.37.55-.77,1.08-1.2,1.59-12.06,14.22-24.12,28.45-36.23,42.62-.56.66-1.65.86-4.34,2.19ZM507.64,710.42c16.56-19.62,31.9-37.8,48.26-57.18-29.29-7.83-57.09-15.66-87.07-22.81,13.26,27.33,25.57,52.7,38.81,79.99Z"/><path d="M1438.98,324.63c-9.19-.17-13.62,4.43-18.25,8.57-48.51,43.38-105.6,52.17-166.36,37.41-75.27-18.29-111-103.73-72.62-169.55,16.36-28.05,41.77-45.29,71.6-56.32,36.49-13.49,73.77-12.95,111.24-4.75,8.77,1.92,17.35,4.67,26.01,7.06,6.01,1.65,12.03,4.35,18.57-.62-7.66,17.99-16.17,34.86-25.96,53.39-3.37-11.77-11.06-16.14-19.8-19-38.51-12.6-76.27-10.29-112.64,7.4-26.51,12.89-36.79,36.41-38.47,64.41-2.68,44.5,26.08,78.72,70.31,84.59,26.43,3.51,51.77-.19,76.34-10.13,11.57-4.68,21.77-11.56,30.79-20.11,6.1-5.79,12.08-11.88,8.73-21.65-.44-1.28.03-2.61,1.37-3.38,1.13-.65,2,.03,2.61.73,11.76,13.46,23.48,26.96,36.54,41.97Z"/><path d="M2699.47,1542.1c-9.29,1.88-9.97,9.04-11.29,15.94-11.85,62.13-23.83,124.23-35.55,186.38-1.14,6.05-5.16,13.01,2.69,18.09.91.59.41,2.62-1.19,3.08-.9.25-1.97.09-2.93-.09-15.63-2.92-31.26-5.88-49.41-9.31,11.97-5.99,12.66-15.73,14.43-24.99,3.51-18.31,7.09-36.6,10.59-54.91,1.5-7.81,1.47-7.91-5.79-9.31-56.89-10.92-113.81-21.65-170.64-32.89-6.49-1.28-10.52,1.55-16.41,4.13,3.68-19.35,7.36-38.69,11.05-58.04,5.42,7.45,12.99,7.92,20.23,9.31,53.95,10.35,107.88,20.77,161.81,31.16,1.63.31,3.34.34,4.93.78,3.67,1,5.42-.09,6.15-4.04,4.5-24.22,9.21-48.4,13.83-72.59.86-4.54.75-8.69-4.51-10.77-.89-.35-1.28-1.5-.83-2.56.41-.97,1.16-1.55,2.27-1.51.33.01.67-.01.99.05,16.22,3.11,32.44,6.22,48.66,9.33.3.92.61,1.84.91,2.75Z"/><path d="M2283.59,750.85c-11.94,11.07-23.87,22.15-35.83,33.19-1.17,1.08-2.41,2.38-4.25.98-.95-.72-1.17-1.77-.71-2.62,3.55-6.54-.65-10.51-4.59-14.76-42.56-45.95-85.07-91.93-127.58-137.92-2.39-2.59-5.33-4.85-7.17-10.31,10.78,6.08,15.52-1.46,21.1-6.63,48.4-44.81,96.64-89.8,145.32-134.3,5.11-4.67,4.3-9.48,4.08-14.59,2.6-.45,3.78.75,4.9,1.96,12,12.95,24.01,25.89,35.96,38.89,1.23,1.34,3.49,2.69,1.78,4.96-1.25,1.66-2.95.68-4.5.01-5.86-2.52-9.33,1.44-13.01,4.85-21.98,20.39-43.96,40.78-65.94,61.17-20.03,18.58-40.04,37.16-60.08,55.73-1.46,1.35-3.08,2.55-4.26,3.52.91,4.43,3.85,6.34,6.05,8.72,29.18,31.55,58.39,63.06,87.66,94.53,5.47,5.88,10.08,13.52,20.75,10.1.1.84.21,1.69.31,2.53Z"/><path d="M728.04,2451.36c12.06-8.13,24.13-16.25,38.23-25.75-6.7,19.91,4.71,30.73,15.75,40.97,15.82,14.69,34.42,24.98,55.25,31.05,6.85,2,13.8,2.46,20.78,1.39,15.83-2.42,21.44-17.24,11.36-29.75-4.03-5-9.21-8.65-14.57-12.05-13.78-8.74-27.62-17.39-41.38-26.16-8.17-5.21-15.96-10.94-22.46-18.18-12.45-13.88-18.42-29.68-10.96-47.77,7.68-18.63,22.71-28.21,42.55-30.02,12.79-1.17,25.23,1.17,37.29,5.46,32.58,11.61,59.1,31.58,80.64,58.43,1.67,2.08,3.47,4.07,4.92,6.29,1.55,2.36,5.02,1.91,6.74,5.56-10.62,6.99-21.35,14.04-33.75,22.2,1.51-8.05-1.45-13.15-4.69-17.97-17.31-25.74-41.4-41.92-71.25-49.64-5.48-1.42-11.27-1.71-16.86-.33-6.42,1.59-11.83,4.88-13.76,11.69-1.77,6.24,1.43,10.9,5.7,15.04,6.03,5.85,13,10.35,20.28,14.46,13.62,7.7,27.66,14.67,40.27,24.08,9.12,6.81,17.37,14.4,24.29,23.55,21.91,29,3.77,73.96-36.27,77.08-10.73.84-21.37.23-31.68-2.84-34.59-10.32-64.85-27.58-88-55.93-2.94-3.6-5.5-7.52-8.13-11.36-2.46-3.59-4.93-7.09-10.03-7.5-.08-.67-.15-1.35-.23-2.02Z"/><path d="M671.93,2286.09c-8.66,9.47-17.31,18.94-26.81,29.34-1.96-3.94-1.31-7.95-3.95-10.41-2.44-2.27-4.78-4.65-7.24-6.9-14.99-13.73-29.98-27.47-45.03-41.15-5.13-4.67-5.27-4.65-10.15.61-7.94,8.55-15.66,17.3-23.74,25.71-3.29,3.43-3.23,5.57.39,8.85,28.15,25.52,56.12,51.25,84.13,76.92,2.73,2.5,5.37,5.12,10.07,2.39.14.68.28,1.36.42,2.05-8.13,8.93-16.25,17.86-25.76,28.3.38-8.87-4.86-12.51-9.32-16.6-35.39-32.42-70.83-64.79-106.21-97.22-2.36-2.17-5.45-3.8-6.81-8.34,9.35,2.43,13.27-4.29,18.05-9.52,32.18-35.16,64.35-70.33,96.47-105.54,3.28-3.6,8.11-6.7,4.74-12.97,3.95-.47,5.31,2.16,7.08,3.78,35.94,32.8,71.86,65.64,107.69,98.57,3.8,3.49,7.36,6.85,15.62,4.63-9.65,11.76-18.47,20.84-28.04,30.01.51-6.11-2.54-9.62-6.39-13.11-25.92-23.51-51.7-47.19-77.52-70.81-.98-.9-2.04-1.73-2.94-2.71-2.54-2.75-4.65-2.83-7.3.18-7.27,8.25-14.74,16.33-22.28,24.33-2.52,2.68-2.94,4.61.06,7.32,17.55,15.87,35.02,31.84,52.4,47.9,3.42,3.16,7.33,3.83,12.11,2.28.09.7.18,1.4.27,2.1Z"/><path d="M1651.66,2539.11c0-71.96,64.45-113.89,122.55-89.28,31.6,13.39,48.1,38.75,55.61,71,3.38,14.53,2.74,29.17-.37,43.65-4.53,21.16-17.22,36.63-35.41,47.5-19.42,11.6-40.83,16.32-63.31,14.43-23.18-1.95-41.65-13.37-56.04-31.24-15.36-19.08-22.83-41.15-23.04-56.05ZM1797.79,2541.27c.03-17.67-6.89-32.94-16.75-47.11-12-17.25-28.44-24.12-49.27-21.28-26.12,3.56-44.16,22.09-45.93,47.41-1.47,20.87,4.34,39.45,17.11,55.9,15.05,19.39,35.75,25.45,60.72,17.88,19.31-5.85,32.14-23.07,34.09-45.83.2-2.31.03-4.65.03-6.98Z"/><path d="M1399.52,2526.58c6.53-1.27,10.39-5.47,14.5-9.26,6.62-6.11,13.38-12.04,20.97-16.95,29.86-19.31,60.56-18.25,91.02-2.29,17.59,9.22,25.22,25.21,23.73,44.98-1.02,13.5-7.02,24.87-17.19,33.92-5.51,4.9-11.73,8.79-18.24,12.2-13.87,7.27-27.82,14.38-41.65,21.71-5.58,2.96-11.09,6.11-16.38,9.57-7.85,5.14-11.53,9.37-16.05,17.27,1.42,2.84,4.04,1.67,6.12,1.56,35.93-1.99,71.86-4.17,107.8-6.04,4.29-.22,7.36-1.91,11.25-7.27.97,15.58,1.77,28.52,2.57,41.46-6.44-4.5-12.72-3.44-18.98-3.08-46.57,2.69-93.15,5.3-139.73,7.93-8.35.47-8.82-.03-8.7-8.76.31-23.42,9.33-42.57,27.7-57.32,11.23-9.02,23.63-16.16,36.08-23.25,10.13-5.77,20.29-11.5,30.36-17.38,5.77-3.37,11.3-7.12,15.51-12.44,9.08-11.48,6.64-24.79-5.85-32.45-5.9-3.62-12.48-4.72-19.17-4.77-19.84-.12-36.22,7.63-49.29,22.46-4.77,5.41-7.85,11.49-6.65,19.63-11.31-9.13-20.28-19.93-29.73-31.41Z"/><path d="M2083.4,2437.78c6.41,11.35,12.81,22.69,19.22,34.04-8.18-1.2-13.64,2.9-19.33,6.1-38.88,21.9-77.75,43.83-116.62,65.75-2.32,1.31-4.74,2.47-6.96,3.93-3.3,2.19-5.39,1.32-7.13-2.05-8.69-16.87-12.28-34.37-7.15-53.11,3.56-13.02,9.87-24.72,17.2-35.88,9.15-13.91,18.66-27.59,27.93-41.43,4.08-6.09,7.92-12.33,9.67-19.6,3.63-15.06-5.1-26.61-20.6-27.17-5.07-.18-9.95.67-14.63,2.64-20.92,8.85-33.34,24.7-38.42,46.61-1.39,6,.05,11.56,3.14,17.27-14.18-3.7-27.17-8.89-41.5-14.8,6.88-5.05,8.87-11.38,11.23-17.51,2.75-7.16,5.87-14.15,9.72-20.79,17.84-30.73,45.53-43.79,80.02-43.32,33.5.45,52.36,33.32,43.47,63.07-2.71,9.07-7.63,16.99-13.14,24.55-9.41,12.92-19.04,25.69-28.46,38.61-7.29,10-13.99,20.33-16.19,32.86-.29,1.64-.8,3.25.26,4.82,2.59.81,4.39-1.04,6.32-2.12,30.18-16.98,60.34-34.02,90.49-51.06,4.54-2.57,9.78-4.49,9.48-11.73.65.11,1.31.22,1.96.33Z"/><path d="M2233.73,2234.45c6.8-1.53,12.21-2.87,17.67-3.94,9.72-1.91,18.39.59,26.38,6.32,21.7,15.54,28.53,38.53,18.74,63.42-2.08,5.29-4.57,10.39-7.85,15.02-21.79,30.81-50.37,51.76-87.55,60.29-6.23,1.43-13.82.68-16.34,9.19-4.92-6.34-13.97-34.2-14.11-42.75,1.38-.86,2.55-.18,3.56.64,6.3,5.11,13.51,5.25,20.88,3.62,23.48-5.18,43.26-16.9,59.65-34.37,5.27-5.62,9.55-11.96,11.79-19.49,5.22-17.49-8.29-33.51-26.37-31.22-4.69.59-9.06,2.23-13.16,4.5-11.17,6.17-20.94,14.12-29.62,23.47-3.04,3.27-4.49,7.08-3.95,13.88-10.92-10.32-18.9-20.17-29.05-31.11,11.08.92,16.78-4.8,22.63-10.15,5.42-4.97,10.02-10.68,14.39-16.57,2.83-3.82,4.64-8.07,5.4-12.75,1.73-10.59-5.16-19.09-15.92-19.74-5.15-.31-9.99.9-14.42,3.32-22.68,12.34-37.04,30.87-41.9,56.51-1.12,5.93.87,10.82,5.62,16.77-15.37-1.55-28.39-4.86-43.48-7.44,7.41-6.44,7.89-13.98,9.39-21.27.93-4.52,2.48-9.01,4.4-13.22,13-28.51,34.39-48.73,62.58-61.76,11.82-5.46,24.39-6.71,37.01-2.52,9.47,3.15,17.1,8.81,22.3,17.51,4.64,7.76,6.7,15.9,3.8,24.83-.81,2.51-1.39,5.09-2.45,9.04Z"/><path d="M1023.81,2452.84c2.91-10.49,5.82-20.99,8.74-31.48,4.16,6.21,10.19,7.43,16.09,9.1,45.78,12.93,91.53,25.92,137.28,38.96,4.82,1.38,9.51,3.29,14.66-.91-1.9,13.13-5.86,25.33-10.28,39.81-3.22-8.15-8.79-9.96-14.53-11.58-14.41-4.06-28.87-7.96-43.16-12.4-4.86-1.51-7.17-.96-8.64,4.26-11.81,41.94-23.8,83.83-35.79,125.72-1.24,4.31-.52,8.22,1.18,13.17-13.9-3.94-27.79-7.88-42.64-12.09,1.52-3.38,5.37-3.64,6.01-6.63.55-2.58,1.75-5.02,2.47-7.58,11.39-39.99,22.77-79.98,34.12-119.98,2.35-8.3,2.31-8.36-6.01-10.76-15.66-4.52-31.32-9.04-47.01-13.44-3.71-1.04-7.78-3.08-10.69,1.65-1.66-1.62-1.19-3.89-1.79-5.83Z"/><path d="M2480,1985.51c0,29.05-23.13,51.97-52.23,51.77-28.53-.2-51.53-23.08-51.71-51.44-.18-28.77,23.14-52.4,51.86-52.53,28.68-.14,52.08,23.32,52.08,52.21Z"/><path d="M472.37,1986.05c-.23,29.19-23.14,51.47-52.63,51.18-28.39-.27-51.23-23.43-51.22-51.94,0-28.52,24.08-52.39,52.45-51.98,29.03.42,51.63,23.6,51.41,52.74Z"/><path d="M1274.65,2631.12c8.47.04,16.7,8.23,16.74,16.68.04,9.33-8.02,17.39-17.13,17.14-8.62-.24-16.28-8.36-16.11-17.07.18-8.93,7.91-16.78,16.5-16.74Z"/><path d="M1023.81,2452.84c.61,1.94.14,4.21,1.79,5.83-2.35,2.55-3.5.82-3.6-1.37-.07-1.46,1.16-2.97,1.8-4.46Z"/><path d="M1275.93,1890.96c-8.88,11.62-17.32,23.59-27.71,33.98-7.09,7.08-14.62,13.56-23.5,18.35-29.08,15.71-64.91,5.71-81.39-22.9-8.17-14.2-11.25-29.72-11.06-45.98.02-1.33.11-2.66.31-3.97.25-1.68.8-3.31,2.78-3.58,2.08-.29,2.99,1.24,3.41,2.87,1.08,4.18,1.9,8.42,2.99,12.6,2.97,11.38,7.61,21.98,15.05,31.2,16.59,20.56,43.45,23.06,63.47,5.87,8.39-7.21,15.07-15.93,21.24-25.04,9.52-14.04,18.11-28.66,26.33-43.49,2.74-2.8,4.75-5.97,5.86-10.5-4.27,1.11-6.43,3.41-8.27,6.14-9.36,6.35-18.5,13.05-29.02,17.52-14.89,6.33-30.2,8.02-45.96,4.42-23.3-5.33-38.95-19.51-47.13-41.84-5.37-14.65-6.42-29.88-4.97-45.32.18-1.96.76-3.91,1.31-5.82.41-1.41,1.59-2.28,3-1.97.82.18,1.89,1.1,2.09,1.88.58,2.23.85,4.54,1.12,6.84,1.54,13.32,4.46,26.28,10.5,38.34,14.05,28.05,44.91,36.99,71.98,20.98,12.5-7.39,22.38-17.79,32.45-27.99,4.19-4.25,8.26-8.62,13.83-14.44-10.44,2.41-18.27-.33-26.32-2.92-5.93-1.91-12.4-2.18-18.64-3.08-12.91-1.87-25.53-4.81-37.43-10.28-29.07-13.36-42.25-39.2-35.12-70.4,1.89-8.3,1.11-15-2.78-22.61-9.25-18.07-16.81-36.99-26.84-54.7-6.08-10.74-12.5-21.25-20.35-30.82-3.39-4.13-7.01-8.03-11.22-11.36-5.78-4.58-11.92-6.74-19.5-4.54-12.14,3.52-24.41,6.66-36.72,9.57-4.61,1.09-5.45,3.77-5.7,7.85-1.09,17.29-2.56,34.55-3.66,51.84-4.25,66.84-8.24,133.7-9.91,200.66-.67,26.98-1.03,53.97,1.19,80.93.83,10.06,2.55,19.79,6.51,29.09,7.05,16.54,14.16,33.06,21.09,49.66,3.33,7.99,6.58,16.06,7.62,24.75.86,7.21-.8,10.08-7.67,11.76-25.98,6.32-52.21,10.67-79.13,8.7-5.37-.39-10.58-1.4-15.57-3.33-10.16-3.92-14.1-9.79-13.79-20.65.3-10.44,2.93-20.39,6.86-30.03,6.68-16.37,12.49-33.01,15.95-50.4,3.27-16.37,4.66-32.98,6.08-49.57,4.66-54.43,9.58-108.85,13.54-163.34,3.04-41.87,5.36-83.81,4.47-125.83-.3-13.99-1.18-27.95-3.45-41.8-1.32-8.03-4.09-15.24-8.95-21.91-9.62-13.22-15.4-27.96-15.37-44.58,0-2.98.17-6.03.8-8.93,2.18-10.13,6.47-14.25,16.75-15.67,8.91-1.23,17.87-2.12,26.89-2.03,2.96.03,5.91,0,8.41,0,2.61-2.99,1.38-5.72,1.51-8.23.2-3.65-.26-7.81,3.56-9.74,3.84-1.94,6.98,1,10.01,2.94,2.8,1.79,5.46,3.82,8.09,5.87,11.98,9.31,24.47,9.29,37.32,2.06,5.22-2.94,10.22-6.3,15.52-9.08,15.44-8.1,22.25-6.96,34.92,4.87,3.56,3.33,6.02,8.12,11.34,9.35,7.42,3.14,9.07,6.53,5.81,14.15-3.64,8.52-3.7,17.49-4.62,26.42-.4,3.8,2.28,6.76,1.73,10.67-1.68,11.98-1.38,23.79,4.98,34.72.76,1.3.75,3.21.65,4.81-.3,4.82,1.34,9.16,2.82,13.59,2.32,6.92,7.03,12.89,9.39,19.43,2.98,8.29,7.5,15.51,11.21,23.26,1.95,4.06,7.09,5.1,8.21,9.75,1.21,5.02,4.82,8.67,7.71,12.73,3.87,5.44,10.53,8.96,13.53,14.21,7.97,13.98,22.1,21.4,32.27,32.96,4.56,5.18,9.96,12,18.62,12.26,4.37,6.57,10.85,10.69,17.26,14.88,2.22,1.45,4.44,3.61,6.85,3.92,6.83.89,8.61,5.28,9.1,11.07.71,8.23,1.48,16.46,2.26,25.12,10.56-.21,20.15-3.05,29.77-5.5,4.76-1.21,8.82-.28,13.48.93,8.72,2.26,16.08,7.25,24.35,10.32,11.21,4.16,23.15,4.6,34.6,7.68,13.37,3.6,27.47.69,41.21,1.96.65.06,1.33-.08,1.99-.13,11.74-.98,23.06-4.42,34.73-6.01,6.95-.95,14.56-2.2,20.12-7.81.83-.83,2.4-1.34,3.61-1.31,5.26.15,9.81-1.99,14.13-4.45,4.44-2.53,8.69-2.4,13.43-1.13,7.07,1.89,14.25,3.42,21.44,4.78,8.3,1.57,8.31,1.42,8.91-6.72.44-5.98,1.15-11.95,1.38-17.94.17-4.41,1.62-6.82,6.03-8.92,8.31-3.97,15.33-9.99,22.51-15.96,7.21-5.99,16.1-10.36,23.05-17,3.23-3.08,5.35-6.87,9.73-9.29,6.96-3.84,12.94-9.76,17.11-16.49,2.24-3.62,5.21-5.66,7.95-8.37,6.14-6.08,12.32-12.33,15.7-20.42,1.11-2.65,2.64-4.32,4.54-6.17,6.56-6.38,10.97-14.39,14.36-22.63,1.63-3.96,3.32-7.6,5.56-11.25,4.55-7.4,7.91-15.54,9.21-24.09.56-3.66,1.17-6.94,2.76-10.27,6.22-12.97,3.89-27.21,5.51-40.86.89-7.51,1.19-15.55-1.55-22.78-1.82-4.79-1.54-9.76-2.9-14.27-2.11-7.02,1.86-8.38,6.55-10.08,5.42-1.7,8.16-6.61,12.02-10.14,11.31-10.36,17.95-11.65,31.56-4.95,5.66,2.79,11.01,6.23,16.45,9.46,13.81,8.22,27.07,8.05,39.88-2.22,3.37-2.7,6.9-5.33,10.7-7.33,5.21-2.73,8.25-.97,9.26,4.67.06.33.02.67.1.99.94,3.7-2.21,8.77,1.88,10.99,2.88,1.57,7.17.48,10.82.74,7.64.53,15.31.91,22.91,1.8,12.65,1.48,17.33,6.41,18.66,19.3,1.72,16.65-2.42,32.25-12.14,45.37-10.14,13.69-12.99,28.91-14.06,44.98-2.37,35.65-.98,71.3.78,106.92,2.52,51.26,6.69,102.42,11.44,153.51,2.9,31.17,4.52,62.48,9.32,93.47,2.92,18.88,8.57,36.94,15.75,54.58,4.28,10.52,8.06,21.2,8.43,32.72.41,12.77-4.04,19.04-16.24,22.92-8.05,2.56-16.39,2.92-24.73,2.93-22.46.01-44.47-3.5-66.2-8.88-8.27-2.04-9.71-4.27-8.83-12.77.83-8.05,3.96-15.48,7-22.85,5.72-13.85,11.39-27.75,17.77-41.3,7.69-16.33,10.76-33.5,11.24-51.33,1.34-50.02-.21-99.98-2.82-149.92-2.1-40.27-4.62-80.51-7.1-120.76-1.05-16.96-2.55-33.89-3.66-50.85-.25-3.76-1.22-6.07-5.3-7.06-12.29-2.97-24.57-6.07-36.72-9.57-7.54-2.17-13.69-.21-19.52,4.42-7.4,5.89-13.11,13.25-18.45,20.92-11.07,15.92-19.83,33.14-28.17,50.59-2.01,4.21-3.52,8.69-5.88,12.68-8.36,14.17-10.84,28.39-7.84,45.31,3.96,22.36-5.71,41.01-24.76,54.1-13.51,9.27-28.96,13.39-44.79,16.08-10.8,1.83-21.67,2.83-32.16,6.49-8.03,2.8-9.32,2.05-19.31-2.75,14.45,15.4,27.35,30.11,43.28,41.67,7.91,5.74,16.56,9.99,26.47,10.95,23.2,2.26,40.84-7.65,51.16-28.75,5.78-11.81,8.74-24.38,10.27-37.39.38-3.26-.78-8.95,3.88-8.89,4.74.05,3.36,5.64,3.65,8.97,1,11.34.48,22.59-1.98,33.79-10.75,48.77-55.57,59.82-86.21,50.87-16.65-4.87-30.44-14.64-43.87-25.09-.3-1.53-1.67-2.75-2.72-2.28-1.51.67-.35,2.21.27,3.2.5.8,1.33,1.4,2.01,2.09,11.88,21.12,23.66,42.3,38.7,61.43,3.71,4.71,7.83,9.05,12.43,12.92,20.06,16.9,47.11,14.09,63.38-6.67,8.17-10.42,12.81-22.44,15.84-35.18.62-2.59,1.16-5.19,1.73-7.79.38-1.71,1.05-3.27,3.1-3.24,2.69.05,2.9,2.19,3.16,4.17.09.66.09,1.33.11,1.99.61,15.92-2.19,31.1-9.73,45.27-15.98,30.05-52.11,41.13-82.18,25.13-14.39-7.66-25.29-19.32-35.52-31.66-5.08-6.13-9.91-12.47-14.85-18.71-1.33-4.7-4.37-8.12-8.03-11.15,1.29,5.48,2.65,10.81,6.05,15.3,11.67,29.78,24.21,59.14,41.84,86.03,4.77,7.28,10.33,13.91,16.69,19.85,6.7,6.25,14.41,10.74,23.44,12.71,12.76,2.78,23.75-.42,32.75-9.97,6.28-6.66,10.28-14.68,13.57-23.12,4.74-12.19,7.11-24.94,9.23-37.77.45-2.71-.22-7.27,3.89-6.82,3.68.41,2.73,4.75,2.85,7.61.78,18.52-1.42,36.61-8.3,53.93-9.68,24.36-30.16,37.67-54.51,35.14-13.61-1.42-25.55-7.15-36.07-15.86-13.79-11.41-24.27-25.58-33.71-40.59-13.51-21.47-24.58-44.25-35.56-67.06-9.1-18.91-18.02-37.91-27.37-56.69-6.36-12.78-13.88-24.91-23.51-36.98-2.06,3.9-.66,7.15-.74,10.16-.29,11.71-4.71,16.29-16.45,16.32-29.66.07-59.33.08-88.99,0-11.8-.03-16.98-5.5-16.58-17.3.1-2.96.67-5.9,1.09-9.37-3.3.5-4.21,3.16-5.59,5.06-10.02,13.79-18.31,28.6-25.7,43.94-13.87,28.81-26.97,57.99-42.03,86.23-8.48,15.9-17.6,31.41-28.73,45.61-10.38,13.24-22.12,24.97-37.93,31.74-29.92,12.79-59.03,1.16-71.74-28.84-7.68-18.13-9.89-37.23-9.19-56.76.04-1,.06-2.01.27-2.98.35-1.66,1.03-3.3,2.94-3.5,2.12-.22,2.9,1.58,3.2,3.15,1.17,6.21,1.98,12.5,3.2,18.7,2.45,12.48,6.16,24.58,12.51,35.68,13,22.73,35.02,27.78,56.8,13.15,9.29-6.24,16.25-14.73,22.6-23.77,9.41-13.42,16.93-27.91,23.78-42.74,7.41-16.02,14.69-32.1,20.78-48.68,2.65-3.49,4.13-7.38,5.16-13.12-4.08,3.86-6.31,6.94-7.63,10.66ZM1620.44,1765.01c24.2-5.3,37.66-22.53,33.39-42.9-10.42,15.48-21.55,29.41-33.39,42.9ZM1173.7,1723.81c-7.77,15.67,9.45,37.68,33.78,41.61-13.1-13.58-23.81-27.19-33.78-41.61Z"/><path d="M1257.72,1405.58c3.13,3.15,1.26,6.04-.39,9.01-3.56,6.42-6.34,13.15-8.15,20.3-.74,2.9.06,4.44,2.76,5.27,1.27.39,2.6.64,3.82,1.14,9.63,3.92,13.41,9.64,12.49,20.21-.54,6.27-1.45,12.62-3.19,18.64-1.77,6.14.94,9.22,5.51,12.25,13.33,8.84,28.34,13.01,43.77,15.92,14.78,2.79,29.73,3.28,44.74,2.19,5.42-.4,9.08-1.7,10.23-8.25,1.19-6.81,3.29-7.9,10.58-7.95,22.3-.16,44.59-.17,66.89.01,7.38.06,9.06,1.34,10.8,9.07.98,4.31,2.73,6.42,7.02,6.78,30.41,2.56,59.86-.69,87.16-15.33,11.32-6.07,11.12-6.47,8.82-18.84-.73-3.92-1.71-7.8-2.32-11.74-1.86-11.97,2.18-18.82,13.58-23.33,6.4-2.53,6.49-2.56,4.52-9.09-2.02-6.68-4.17-13.34-8.68-18.88,0-2.18-1.75-4.87,1.03-6.32,3.22-1.69,4.8,1.04,6.34,3.16,5.12,7.02,9.41,14.55,12.14,22.78,1.44,4.35,3.32,6.97,8.3,6.65,2.64-.17,5.33.33,7.19,2.69,3.69,4.68,8.56,8.83,10.85,14.11,5.64,12.97,12.7,25.25,16.14,39.31,5.01,20.53,3.69,40.66-1.61,60.5-2.25,8.45-5.58,17.39-10.32,24.54-8.16,12.29-14.85,25.91-26.27,35.82-3.55,3.08-4.49,7.89-8.63,10.68-6.57,4.43-12.62,9.65-17.13,16.36-1.41,2.1-2.61,1.2-3.76-.29.63-1.59,1.24-3.69-1.02-3.91-2.18-.22-4.51.71-6.73,1.27-26.96,6.76-54.27,8.48-81.9,5.69-6.5-.66-7.46-.17-5.96,6.03,1.98,8.19,1.31,15.49-5.04,22.43,10.02,3.24,18.75,7.25,28.34,8.6,2.09,2.6,6.84.65,8.35,5.34-4.02.84-5.02,5.68-9.52,6.45-6.65,1.13-12.41,4.8-18.01,8.17-9.55,5.75-20.47,8.03-30.72,10.05-13.27,2.61-27.39,4.44-41.14,1.3-4.2-.96-8.28.32-12.61-1.18-13.34-4.63-27.33-7.46-39.53-15.11-1.34-.84-3.28-.71-4.66-1.53-5.04-3-11.33-4.62-13.25-11.3,12.63-1.93,24.45-6.28,37.45-11.47-5.11-4.04-7.01-8.19-6.79-13.08.15-3.3.5-6.63,1.17-9.85,1.02-4.88-1.04-5.86-5.34-5.05-6.86,1.3-13.85,1.08-20.8,1.38-21.01.9-41.55-2.6-62.08-6.33-3-.92-6.38-5.21-8.6.91-.57,1.58-1.56.92-2.22.37-6.32-5.31-13.72-9.82-18.63-16.22-9.42-12.27-21.33-22.7-28.12-36.96-.42-.89-1.09-1.67-1.68-2.47-6.55-8.86-10.56-19.23-13.88-29.32-4.5-13.72-6.2-28.29-5.33-43.09.65-11.07,2.91-22.04,6.92-31.78,5.2-12.65,10.66-25.64,19.88-36.42,3.2-3.73,5.97-7.12,11.31-6.76,3.97.27,5.87-1.74,7.06-5.42,2.57-7.96,6.62-15.24,11.32-22.15,1.89-2.77,3.71-5.61,7.52-5.95ZM1563.76,1511.6c-.75.04-1.13-.04-1.41.09-1.18.57-2.38,1.14-3.49,1.83-34.31,21.36-72.02,28.98-111.8,26.23-22.66-1.56-45.12-1.57-67.77,0-39.45,2.74-76.82-4.9-110.98-25.7-1.79-1.09-3.34-3.52-6.65-1.48-.53,10.92-.82,22.23-1.71,33.49-.47,5.95,1.68,9.01,7.28,11.04,29.99,10.84,60.7,14.43,92.35,10.41,4.18-.53,6.63-1.72,7.52-6.16,1.06-5.27,4.89-7.74,10.18-7.75,23.97-.03,47.94-.02,71.91-.02,4.85,0,8.99,2.06,9.81,6.81,1.06,6.15,4.93,6.78,9.82,7.37,26.83,3.21,53.15.73,79.02-6.85,18.61-5.46,18.7-5.53,18.11-24.85-.25-8.19.51-16.54-2.19-24.46ZM1260.35,1578.98c-.8,8.47-.22,17.04.19,25.58.43,9.04.52,9.18,9.3,10.95,40.23,8.13,79.42,4.01,117.71-10.23.93-.35,1.62-.92,1.32-2.22-4.17-1.25-8.52-.38-12.8-.61-2.65-.14-5.59.47-7.78-1.16-4.11-3.05-8.69-2.76-13.34-2.81-29.26-.32-57.51-5.69-84.64-16.8-2.98-1.22-5.76-3.48-9.95-2.7ZM1437.76,1603.18c.59,2.31,2.04,2.54,3.18,2.96,32.12,11.62,65.2,15.79,99.17,12.2,6.93-.73,13.76-2.35,20.63-3.62,2.86-.53,4.92-1.93,4.91-5.26-.02-10.19,0-20.38,0-30.42-2.22-.61-3.7.21-5.22.86-17.82,7.63-36.36,12.54-55.43,16.04-17.23,3.16-35.19-.09-51.99,6.4-1.45.56-3.3.04-4.96.12-3.29.17-6.65-.52-10.28.73ZM1412.75,1693.94c.66-.39,1.42-.59,1.62-1.04.15-.34-.32-1.29-.72-1.45-.99-.39-1.93,0-1.97,1.19-.01.43.71.88,1.07,1.29Z"/><path d="M1567.93,906.94c10.73,36.58,9.68,73.53,3.05,110.56-1.25,6.98-1.77,13.56-.03,20.6,2.41,9.75,2.28,19.77.95,29.77-2.39,17.96-14.61,29.32-26.97,40.61-2.08,1.9-4.38.81-6.62.35-17.57-3.55-23.46-1.18-33.63,13.73-3.94,5.77-7.69,11.67-11.49,17.54-11.06,17.1-26.6,27.71-46.51,31.74-22.79,4.61-45.6,4.63-68.36-.39-18.4-4.06-32.98-13.8-43.61-29.35-5.07-7.42-9.97-14.95-14.95-22.42-7.35-11.02-17.31-15.25-30.14-11.11-4.81,1.55-7.85-.01-11.43-3.26-10.78-9.78-20.34-20.1-23.12-35.14-1.84-9.95-2.46-20.02.13-29.71,2.33-8.72,1.45-16.88-.08-25.46-6.46-36.13-6.61-72.15,3.09-107.85,3.11-.17,5.85,1.11,8.63,2.22,10.86,4.35,22.13,7.27,33.58,9.5,24.21,4.71,48.66,7.09,73.27,8.72,48.73,3.23,97.08.48,145.21-7.33,16.82-2.73,32.88-8.18,49.05-13.3ZM1501.62,1061.5c28.67.11,42.02-20.6,30.58-45.38-4.14-8.97-10.07-16.56-18.27-22.05-8.29-5.56-16.77-10.89-25.46-15.8-13.8-7.79-26.84-5.89-37.42,4.73-9.79,9.83-16.15,27.93-7.05,42.03,7.59,11.75,17.6,20.83,29.58,27.77,9.04,5.24,18.66,8.84,28.04,8.7ZM1323.17,1061.5c5.37,0,10.62-.72,15.72-2.46,16.26-5.53,29.52-15.29,39.91-28.83,11.72-15.26,10.37-33.02-3.19-46.86-10.52-10.73-23.23-13.01-36.41-5.74-9.32,5.14-18.43,10.76-27.14,16.87-11.03,7.73-18.13,18.51-21.22,31.68-3.24,13.79,2.3,25.14,14.95,31.49,5.48,2.75,11.28,3.95,17.38,3.86ZM1413.24,1043.47c-8.22,14.21-14.79,26.78-18.29,40.76-.98,3.93-1.5,7.89-.38,11.8,2.15,7.54,7.92,9.47,14.47,5.07,1.55-1.04,2.32-3.35,4.87-3.01,3.76,2.85,7.17,7.73,12.86,4.57,5.88-3.27,5.9-9.09,5.3-14.91-.1-.99-.15-2-.39-2.96-3.52-14.28-10.14-27.13-18.45-41.32Z"/><path d="M1567.93,906.94c-16.16,5.12-32.23,10.57-49.05,13.3-48.14,7.82-96.48,10.56-145.21,7.33-24.61-1.63-49.07-4.01-73.27-8.72-11.45-2.23-22.72-5.14-33.58-9.5-2.78-1.11-5.52-2.39-8.63-2.22-2.35-3.91-6.73-5.33-10.01-8.1-11.88-10.06-11.77-23.33.44-33.09,6.33-5.05,13.57-8.56,21.19-10.98,5.88-1.87,8.73-5.47,9.51-11.34,1.19-8.91,2.5-17.8,3.84-26.69.81-5.36.02-9.1-5.82-11.97-6.77-3.32-7.56-12.01-2.76-16.9,3.54-3.61,9.5-4.21,13.79-1.39,4.26,2.8,5.99,8.11,4,13.18-1.37,3.51-5.09,6.47-1.28,10.75,4.15,4.66,8.79,8.24,15.3,8.26,8.23.02,14.73-3.75,19.83-9.96,4.29-5.21,6.98-11.31,9.13-17.66,3.45-10.16,4.84-20.74,6.04-31.33.72-6.34,1.19-12.12-6.34-16.04-5.51-2.87-6.06-9.7-3.25-15.05,2.62-4.99,7.81-7.47,13.42-6.41,5.37,1.01,9.52,5.52,10.04,11.02.41,4.31-1.27,7.91-4.39,10.68-2.89,2.57-2.51,5.05-.74,7.92,5.6,9.08,11.1,18.25,19.15,25.46,7.6,6.82,12.1,6.25,17.79-2.34,5.74-8.67,9.39-18.37,12.92-28.08,2.73-7.51,4.91-15.23,7.8-22.67,2.73-7,2.79-11.97-4.94-16.44-7.09-4.1-8.24-13.26-4.55-20.46,3.48-6.8,10.75-10.25,18.49-8.61,6.88,1.46,11.22,5.82,12.74,12.57,1.63,7.21-.99,13.07-6.8,17.55-7.02,5.41-7.06,5.43-4.54,13.47,5,15.89,10.02,31.79,17.74,46.63,8.48,16.32,14.24,16.97,26.16,3.28,5.05-5.8,9.16-12.26,13.27-18.73,2.36-3.72,3.43-7.08-.59-10.56-1.4-1.21-2.32-3.28-2.87-5.14-1.83-6.19,1.21-12.59,6.85-14.93,5.44-2.26,11.76-.4,15.06,4.44,3.54,5.2,3.39,13.29-2.05,16.07-8.48,4.34-7.11,10.59-6.38,17.69,1.12,10.99,2.83,21.81,6.52,32.23,3.17,8.96,7.71,17.03,16.23,22.08,6.79,4.03,13.76,4.88,20.81.67,7.31-4.37,8.37-7.59,5.44-15.86-2.5-7.04.48-13.4,7.06-15.07,6.24-1.59,12.33,2.32,13.38,8.7.8,4.81-.96,9.12-5.23,10.89-5.99,2.48-6.43,6.73-6.06,12.06.63,8.99,2.12,17.83,3.64,26.7,1.01,5.88,3.65,9.48,9.52,11.31,6.67,2.09,12.99,5.2,18.75,9.27,15.44,10.93,15.58,25.52.37,36.64-2.68,1.96-5.75,3.4-7.87,6.08ZM1413.32,885.48c5.91-8.99,8.7-18.63,13.6-27.13,4.75-8.23,5.29-15.77.15-24.14-3.79-6.17-6.23-13.18-9.4-19.74-1.11-2.29-1.53-5.21-5.03-6.26-4.51,4.46-5.18,11.2-8.68,16.27-9.93,14.39-10.03,28.49-.19,43.01,3.61,5.33,4.73,12.18,9.55,17.98ZM1557.34,873.79c-.23,4.99,2.24,8.18,4.04,11.58,1.43,2.7,3.46,3.92,6.38,1.81,3.21-2.33,3.72-5.6.78-8.25-2.88-2.59-5.99-5.14-11.19-5.14ZM1269.01,876.52c.12-1.68-.54-2.34-1.6-2.53-3.31-.59-11.06,5.11-11.2,8.26-.1,2.19,1.17,3.68,2.83,4.9,1.44,1.05,3.14,1.59,4.47.23,3.08-3.14,4.54-7.16,5.5-10.87Z"/><path d="M1413.57,2063.81c-16.99,0-34-.46-50.97.16-11.27.42-17.4-3.44-18.91-17.9-.98-9.4,1.76-18.53,2.79-27.78.96-8.6,2.4-17.14,3.68-25.71.29-1.97.67-3.95,1.2-5.87,2.56-9.28,5.86-11.88,15.59-11.91,22.99-.07,45.98-.02,68.97-.02,7.66,0,15.33-.04,22.99.01,10.78.07,14.85,3.39,16.76,14.21,1.51,8.52,2.65,17.11,3.87,25.68,1.13,7.91,2.05,15.86,3.27,23.75.73,4.75.14,9.34-1.12,13.84-2.36,8.39-6.2,11.39-15.13,11.47-17.66.15-35.32.04-52.98.04v.02Z"/><path d="M1308.55,1147.32c4.66,1.7,6,5.89,7.29,10,1.3,4.12,2.32,8.33,3.44,12.51,4.52,16.78,15.29,27.6,31.5,33.42,10.11,3.63,20.56,5.66,31.19,6.56,26.63,2.26,53.23,2.62,79.61-2.63,4.23-.84,8.41-2.05,12.52-3.38,17.93-5.8,29.27-17.81,33.79-36.18.95-3.88,1.88-7.77,3.13-11.56,1.23-3.73,2.75-7.41,6.95-8.75.69.76,1.45,1.19,1.45,1.64.08,15.68,2.15,31.18,3.88,46.74,2.57,23.2-5.73,36.4-27.4,45.3-12.76,5.24-26.2,7.76-39.8,9.08-35.28,3.43-70.51,3.58-105.5-3.14-9.2-1.77-18.05-4.62-26.43-8.87-14.12-7.16-21.75-18.6-21.25-34.47.58-18.29,4.03-36.39,4.31-54.72,0-.49.81-.97,1.32-1.54Z"/><path d="M1335.91,1352.95c-9.46,4.22-18.56,9.02-26.38,15.96-21.55,19.16-19.31,47.84,5.18,63.08,15.62,9.72,33.21,13.31,51.23,15.23,2.01.21,4.4.48,5.4-1.56,3.01-6.18,8.53-5.42,13.82-5.43,18.65-.02,37.3,0,55.95,0,5.31,0,10.82-.68,13.98,5.26,1.1,2.06,3.28,1.99,5.31,1.75,20.35-2.36,40.32-6.12,56.9-19.28,17.69-14.03,19.26-38.08,4.03-54.71-4.3-4.7-9.25-8.63-14.66-11.96-7.11-4.37-14.62-7.91-22.55-10.57.65-.66,1.29-1.32,1.94-1.98,13.37,2.05,25.71,6.8,36.9,14.37,25.18,17.04,30.79,48.9,13,73.6-6.94,9.63-16,16.85-26.23,22.71-22.3,12.76-46.68,19.29-71.74,23.47-43.66,7.29-83.73-4.5-122.1-24.08-10.18-5.19-18.65-12.82-25.4-22.15-17.77-24.58-12.09-56.71,13.05-73.59,8.63-5.79,17.95-10.14,28.19-12.3,1.39.72,2.79,1.45,4.18,2.17Z"/><path d="M1412.76,1946.66c-15.66,0-31.33.05-46.99-.02-11.83-.05-16.91-4.89-17.66-16.72-.13-1.98-.11-4.02.18-5.98,1.99-13.51,3.82-27.05,6.19-40.49,2.42-13.76,7.76-14.88,17.22-14.75,27.99.38,55.99.1,83.98.16,10.6.02,14.38,3.13,16.1,13.51,2.13,12.81,4,25.66,5.92,38.51.34,2.3.5,4.65.51,6.97.08,13.47-5.11,18.76-18.47,18.8-15.66.04-31.33,0-46.99,0Z"/><path d="M1412.93,1427.12c-10.95,0-21.91.14-32.86-.04-9.15-.15-11.76-3.32-10.44-12.46.76-5.24,1.9-10.44,2.98-15.63,1.07-5.17,3.93-8.11,9.61-8.08,20.58.1,41.16.09,61.73,0,5.52-.02,8.73,2.43,9.81,7.8,1.04,5.2,2.18,10.39,3.12,15.61,1.59,8.85-1.23,12.58-10.11,12.76-11.28.22-22.57.05-33.85.06Z"/><path d="M1413.23,1379.06c-10.63,0-21.27.15-31.9-.05-8.69-.16-11.36-3.26-9.7-11.92,4.58-23.89,2.53-21.15,24.71-21.25,14.62-.07,29.24-.1,43.86.03,9.19.08,10.13.95,12.2,9.6.93,3.87,1.84,7.76,2.57,11.67,1.53,8.27-1.19,11.7-9.84,11.87-10.63.2-21.27.05-31.9.05Z"/><path d="M1413.78,1335.05c-9.67,0-19.33.08-29-.02-11.09-.11-13.15-2.51-11.02-13.09,3.96-19.6,2.9-17.16,20.93-17.25,14.66-.08,29.33-.07,43.99,0,9.66.05,10.47.78,12.68,10.29.6,2.59,1.12,5.21,1.63,7.82,1.78,9.15-.55,12.05-10.23,12.21-9.66.15-19.33.03-28.99.03Z"/><path d="M1412.66,1294.74c-9.31,0-18.62.15-27.93-.05-9.08-.2-11.22-3-9.5-11.67,3.79-19.13,3.91-16.27,19.58-16.4,14.63-.12,29.26-.11,43.89.02,8.03.07,8.95.95,10.92,8.62.49,1.93.84,3.9,1.26,5.85,2.42,11.1.45,13.53-11.29,13.63-8.98.08-17.96.02-26.93,0Z"/><path d="M1237.35,1383.25c12.18,7.77,11.38,25.93.71,34.37-3.61,2.86-6.33,6.82-9.78,9.92-7.54,6.79-18.1,6.42-25.16-.64-1.72-1.72-3.22-3.52-1.38-6.05,1.69-2.32,3.53-2.1,6.04-.94,10.34,4.8,11.21,4.59,18.95-3.09,3.06-3.04,6.27-5.99,8.92-9.37,3.55-4.51,3.27-10.27-.13-13.63-3.25-3.22-7.78-3.3-12.72,0-2.2,1.47-4,3.56-6.25,4.92-4.25,2.55-8.56,3.72-11.94-1.5,2.6-1.98,5.5-3.66,7.72-5.99,6.94-7.3,15.25-9.8,25.01-8Z"/><path d="M1625.76,1401c4.74,7.68,6.18,15.38.12,23.11-1.45,1.84-3.1,3.53-5.37,4.3-1.65.56-3.28.34-4.52-1.1-1.26-1.46-1.25-3-.12-4.5.99-1.33,2.16-2.53,3.09-3.9,2.78-4.1,2.55-8.08-.68-11.87-4.56-5.34-9.79-9.97-15.58-13.88-4.67-3.16-9.57-2.49-12.61,1.07-3,3.5-2.82,8.22.58,12.76,2.36,3.15,6.2,5.29,6.98,9.48.41,2.21.68,4.97-1.75,6.24-2.27,1.18-3.51-1.14-4.85-2.48-7-6.97-12.82-14.49-11.27-25.29,4.87-14.12,21.21-15.31,30.83-6.6,4.87,4.41,10.08,8.45,15.13,12.66Z"/><path d="M1678.02,1480.94c.71,3.22,1.46,6.43,2.14,9.66,2.71,12.95-8.06,24.86-21.16,23.41-2.06-.23-3.97-.83-4.45-3.18-.49-2.43,1.01-3.62,3.07-4.32.63-.21,1.28-.36,1.89-.6,10.65-4.22,11.72-6.35,9.01-18.06-.59-2.57-1.77-5.17-.44-7.73,1.19-2.29,2.34-5.24,5.2-5.5,2.84-.26,2.79,3.3,4.42,4.81,0,.54.11,1.04.33,1.53Z"/><path d="M1153.94,1467.03c4.08-3.33,7.71-7.4,13.43-7.98,4.35-.45,8.64-.29,12.61,1.76,2.59,1.34,6.08,2.54,4.9,6.36-1.32,4.26-4.48,2.36-7.38,1.58-8.71-2.32-12.41-.48-15.98,8.52-1.92,4.85-3.8,9.15-9.74,9.94-3.59.48-3.62-1.92-3.91-4.26,2.02-5.31,4.05-10.61,6.07-15.92Z"/><path d="M1669.78,1462.97c-1.33,8.31-4.37,15.45-13,18.62-1.84.68-3.83,1.1-5.79,1.25-1.78.14-3.2-.87-3.82-2.62-.66-1.86.24-3.18,1.76-4.16.56-.36,1.2-.59,1.75-.95,9.45-6.2,10.1-8.06,4.84-18.64-2.49-5.01-3.19-9.36,1.23-13.6,4.19,0,4.46,4.49,7.12,6.2,1.97,4.63,3.94,9.26,5.91,13.9Z"/><path d="M1641.28,1417.19c2.47,3.5,5.15,6.87,7.36,10.53,5.82,9.64,2.17,21.47-7.81,25.92-2.55,1.14-5.18,1.93-7.02-.96-1.69-2.65.47-4.03,2.17-5.71,7.55-7.42,7.64-9.13,1.5-18.52-5.05-7.72-5.02-8.98.36-15.22,1.15,1.32,2.29,2.64,3.44,3.96Z"/><path d="M1168.22,1439.57c2.21-2,4.24-4.27,6.66-5.97,7.74-5.44,19.2-4.42,24.66,1.99,1.1,1.3,2.02,2.72,1.08,4.48-1.09,2.06-2.81,2.65-5,1.85-.31-.11-.6-.3-.91-.4-11.77-3.57-12.41-3.51-19.41,6.9-3.14,4.67-6.79,6.97-12.82,5.58-.56-4.32,3.25-7.16,3.65-11,.7-1.15,1.39-2.29,2.09-3.44Z"/><path d="M1194.17,1407.64c4.29-1.8,8.63-3.17,13.4-2.81,3.73.28,7.17,1.29,9.98,3.77,2.2,1.95,4.92,4.21,2.9,7.5-2.36,3.84-4.91,1.05-7.49-.32-7.27-3.86-9.59-3.43-16.27,3.44-4.04,4.16-7.9,7.95-14.24,4.79-.55-3.33,2.62-4.62,3.31-7.1,2.8-3.09,5.6-6.19,8.41-9.28Z"/><path d="M1549.7,1897.24c-3.4-4.5-4.76-9.83-6.05-15.3,3.66,3.03,6.7,6.46,8.03,11.15-.66,1.38-1.32,2.77-1.98,4.15Z"/><path d="M1335.91,1352.95c-1.39-.72-2.79-1.45-4.18-2.17,5.53-2.71,11.29-3.98,19.34-3.35-5.91,3.13-10.33,4.87-15.16,5.52Z"/><path d="M1275.93,1890.96c1.32-3.72,3.56-6.8,7.63-10.66-1.03,5.74-2.51,9.63-5.16,13.12-.82-.82-1.65-1.64-2.47-2.46Z"/><path d="M1265.45,1846.51c1.84-2.73,4-5.03,8.27-6.14-1.11,4.53-3.13,7.69-5.86,10.5-.8-1.45-1.6-2.9-2.41-4.36Z"/><path d="M1486.06,1348.74c-.65.66-1.29,1.32-1.94,1.98-2.73.15-5.04-.95-8.93-3.42,4.85-.75,7.91-.73,10.87,1.44Z"/><path d="M1555.51,1845.4c-.68-.69-1.51-1.28-2.01-2.09-.61-.99-1.77-2.53-.27-3.2,1.05-.47,2.42.76,2.72,2.28-.15,1-.3,2-.45,3Z"/><path d="M1620.44,1765.01c11.84-13.49,22.96-27.43,33.39-42.9,4.28,20.37-9.19,37.6-33.39,42.9Z"/><path d="M1173.7,1723.81c9.97,14.41,20.68,28.02,33.78,41.61-24.33-3.92-41.55-25.94-33.78-41.61Z"/><path d="M1412.75,1693.94c-.36-.41-1.08-.87-1.07-1.29.04-1.19.98-1.57,1.97-1.19.4.15.86,1.11.72,1.45-.2.45-.96.65-1.62,1.04Z"/><path d="M1557.34,873.79c5.2,0,8.31,2.55,11.19,5.14,2.94,2.65,2.43,5.92-.78,8.25-2.91,2.11-4.95.89-6.38-1.81-1.79-3.39-4.27-6.59-4.04-11.58Z"/><path d="M1269.01,876.52c-.97,3.7-2.43,7.73-5.5,10.87-1.33,1.36-3.03.82-4.47-.23-1.66-1.21-2.93-2.71-2.83-4.9.14-3.15,7.9-8.86,11.2-8.26,1.06.19,1.73.84,1.6,2.53Z"/><path d="M1454.51,1772.96c-3.8.09-7.31-.94-10.18-3.4-7.86-6.75-11.15-15.47-10.51-25.71.13-2.07.92-3.99,3.38-4.23,2.45-.24,3.52,1.41,4.05,3.5.24.96.3,1.97.53,2.94,3.05,12.47,6.33,14.62,18.9,12.38,1.31-.23,2.6-.71,3.91-.73,2.94-.06,9.55,4.72,9.7,7.48.26,4.96-4.44,4.02-7.18,5.05-4.02,1.51-8.21,2.72-12.6,2.71Z"/><path d="M1394.56,1777.01c-.56-.04-.89-.06-1.22-.08-20.78-1.19-30.46-16.81-22.42-36.18,1.04-2.5,2-5.28,5.61-4.05,2.89.98,2.73,3.35,2.29,5.79-.41,2.29-.93,4.59-.98,6.9-.21,8.44,2.76,12.05,11.23,13.52,3.95.69,8.14.67,10.19,5,1.11,2.35,3.47,4.68,2.25,7.34-1.4,3.05-4.7,1.39-6.95,1.76Z"/><path d="M1508.52,1752.45c-5.33,4.74-11.82,7.11-18.37,9.32-2.59.87-5.24.44-7.83-.36-8.78-2.71-18.11-14.94-18.4-24.15-.06-2.05.02-4.13,2.26-5.02,2.9-1.15,4.26.78,5.28,3.04.96,2.11,1.66,4.37,2.82,6.36,4.15,7.1,8.99,8.72,16.72,5.77q9.87-3.76,17.52,5.05Z"/><path d="M1336.09,1746.57c-.01-4.92,2.08-10.83,5.15-16.42,1.31-2.39,3-4.79,6.25-3.05,2.62,1.4,2.16,3.79,1.22,6.09-.5,1.23-1.11,2.43-1.5,3.69-3.1,9.93-1,15.33,8.94,18.43,7.73,2.41,8.25,6.4,8.97,11.48.34,2.39-.99,3.64-3.43,3.78-13.6.82-25.38-9.49-25.6-24Z"/><path d="M1317.98,1712.08c2.48.5,4.11,2.01,3.25,4.81-.67,2.18-2.11,4.12-2.99,6.25-3.77,9.14-2.41,13.99,6.41,18.83,5.07,2.78,7.34,6.25,6.83,11.89-.31,3.43-1.79,4.93-5.18,3.71-23.28-8.42-24.82-23.51-12.59-43.04.87-1.39,2.19-2.49,4.27-2.46Z"/><path d="M1538.61,1735.54c-5.48,4.51-10.8,7.69-16.57,10.13-3.53,1.49-7.12,1.27-10.63-.14-9.18-3.69-14.83-10.78-18.52-19.64-.93-2.22-1.27-4.66,1.32-6.09,2.57-1.42,4.36-.02,5.78,2.12,1.64,2.47,3.04,5.17,5.02,7.33,4.78,5.24,8.38,5.78,14.98,2.81q8.92-4.01,18.61,3.48Z"/><path d="M1424.91,1777.44c-17.13.07-29.07-17.57-22.39-33.23.7-1.64,1.76-2.8,3.68-2.73,1.93.07,3.03,1.29,3.3,3.06.3,1.95.26,3.96.45,5.93,1.05,10.99,4.85,14.31,16.01,14,6.77-.19,9.89,1.83,12.05,7.56.91,2.42.16,4.01-2.23,4.37-3.59.55-7.24.71-10.86,1.03Z"/><path d="M1278.04,1718.62c.38-6.99,3.3-14.27,8.43-20.64,1.81-2.25,4.14-3.59,6.81-1.26,2.33,2.04,1.06,4.12-.23,6.18-1.22,1.96-2.52,3.93-3.37,6.06-3.07,7.68-2,12.07,5.8,16.52,6.73,3.84,6.53,7.74,5.86,13.25-.21,1.73-1.1,3.04-3.26,2.92-8.85-.52-19.98-12.58-20.05-23.03Z"/><path d="M1250.79,1702.13c.4-9.04,4.1-16.65,10.43-23.02,1.84-1.85,4.03-2.37,6.16-.33,1.81,1.72,1.31,3.58.08,5.36-1.13,1.64-2.5,3.14-3.46,4.87-4.14,7.41-3.08,12.76,3.52,18.37,1.52,1.29,3.36,2.31,4.54,3.85,2.87,3.75,1.77,8.1-.52,11.17-2.52,3.38-5.36-.22-7.62-1.67-6.83-4.38-13.35-9.15-13.13-18.61Z"/><path d="M1244.37,1705.49c-6.76-3.52-11.63-7.92-15.96-12.89-3.2-3.68-4.23-8.19-3.53-13.05,1.14-7.91,5.03-14.32,10.84-19.64,1.99-1.82,4.29-3.82,6.95-1.49,3.2,2.81,1.04,5.3-1.05,7.62-.89.99-1.81,1.96-2.55,3.06-4.63,6.83-4.66,12.29,1.78,17.53,6.44,5.24,6.6,10.79,3.52,18.86Z"/><path d="M1566.51,1716.82c-4.37,4.92-9.33,7.63-14.12,10.42-5.28,3.07-10.89,2.57-16.14-.26-6.9-3.72-11.9-9.4-15.47-16.31-1.23-2.39-2.37-5.09.99-6.8,2.64-1.34,4.32.24,5.74,2.32,1.3,1.91,2.53,3.91,4.09,5.59,5.45,5.88,9.71,6.56,16.71,2.9q8.78-4.58,18.21,2.14Z"/><path d="M1574.75,1710.39c-12,.12-25.55-10.02-28.03-18.69-.61-2.14-.33-3.93,1.74-5.11,1.69-.97,3.3-.52,4.51.74,1.36,1.43,2.37,3.19,3.68,4.69,6.63,7.61,11.05,8.18,19.67,2.64,1.39-.9,2.69-2,4.19-2.65,3.16-1.36,10.93.86,11.52,3.44.83,3.67-2.62,5-4.76,6.76-4.58,3.75-8.94,8.07-12.51,8.18Z"/><path d="M1200.71,1658.88c.84-9.02,5.52-16.38,13.08-22.01,1.92-1.43,4.17-2.44,6.29-.3,2.2,2.23.99,4.2-.73,6.05-1.36,1.46-2.79,2.86-4.04,4.41-4,4.97-5.35,12.36,1.31,17.71,4.89,3.93,5.57,8.67,3.21,14.19-.68,1.59-1.4,3.06-3.58,2.4-5.71-1.73-15.63-15.71-15.52-22.44Z"/><path d="M1636.4,1638.84c-6.37-.49-12.88-3.44-18.33-8.68-1.97-1.89-3.82-4.02-1.28-6.79,2.02-2.21,4.11-1.52,6.15.06,1.05.81,2.05,1.7,3.18,2.38,8.11,4.84,12.94,4.05,18.4-4.01,3.31-4.89,6.94-7.86,13.04-6.64,1.8.36,3.48,1.42,2.57,3.32-3.42,7.12-6.49,14.62-13.82,18.85-2.63,1.52-5.68,1.69-9.9,1.51Z"/><path d="M1618.6,1672.56c-3.74,5.75-8.39,9.52-12.85,13.4-3.83,3.33-8.52,3.71-13.21,2.59-8.5-2.03-14.8-7.29-19.71-14.33-1.41-2.03-2.27-4.37.13-6.19,2.27-1.72,4.37-.65,6.16,1.19,1.62,1.67,3.15,3.46,4.96,4.91,5.91,4.71,10.41,5.07,15.94-.2,5.75-5.48,11.21-6.49,18.59-1.37Z"/><path d="M1617.78,1665.18c-8.99-.94-15.76-5.34-21.17-12.04-1.5-1.85-2.72-3.98-.61-6.2,2.1-2.22,4.12-1.34,6.03.43,1.21,1.12,2.38,2.32,3.72,3.28,7.77,5.56,12.25,5.07,18.91-1.96,5.24-5.53,8.52-6.47,13.69-4.01,1.69.8,3.06,2.12,1.84,3.78-4.84,6.56-8.58,14.43-17.68,16.38-1.6.34-3.29.25-4.72.34Z"/><path d="M1194.13,1657.3c-5.99-4.69-10.3-10.17-13.15-16.42-4.89-10.74,4.4-27.76,15.95-30.2,2.21-.47,3.97.04,4.99,2.16.82,1.71.43,3.23-1.1,4.38-1.06.8-2.24,1.46-3.25,2.32-8.41,7.12-9.54,11.88-2.78,20.24,5.19,6.42,2.97,11.32-.67,17.52Z"/><path d="M1301.8,1677.32c1.48,1.81,3.36,3.05,5.52,3.91,5.5,12.21,2.75,23.4-4.34,33.98-1.54,2.29-3.54,4.38-6.58,2.31-2.43-1.66-1.89-3.96-.65-6.19.97-1.75,2.03-3.46,2.79-5.3,3.21-7.75,2.1-12.01-4.44-17.47-1.77-1.48-4.32-2.38-4.97-4.74-1.01-3.66-.61-7.75,2.03-10.26,2.29-2.17,4.71,1.08,7.01,2.12,1.21.55,2.42,1.09,3.63,1.64Z"/><path d="M1683.51,1547.22c.84,8.93-.53,17.31-5.58,24.58-5.76,8.3-22.7,9.54-29.87,2.69-.98-.93-1.74-2.04-1.34-3.52.48-1.77,1.61-3.03,3.45-3.01,1.64.01,3.26.59,4.9.81,10.09,1.35,13.39-.49,15.94-10.36,1.66-6.42,4.07-11.18,12.5-11.19Z"/><path d="M1524.7,1677.23c1.09-.82,2.18-1.65,3.27-2.47,5.41-1.25,9.16-5.55,14.09-7.69,0,0,.06.15.06.16,10.1,1.07,18.29,5.66,24.66,13.5,1.45,1.78,2.71,3.78,3.75,5.83.82,1.62.31,3.26-1.2,4.39-1.83,1.37-3.67,1.48-5.3-.32-2-2.21-3.73-4.7-5.91-6.71-5.75-5.29-9.27-5.58-16.06-1.75-8.38,4.72-11.55,3.82-17.37-4.94Z"/><path d="M1512.02,1685.13c14.24-.7,25.52,5.8,31.37,18.04,1.04,2.17,2.17,4.39-.25,6.23-2.78,2.12-4.91.73-6.64-1.73-1.14-1.62-2.19-3.33-3.49-4.83-5.54-6.38-9.69-7.26-17.47-3.75-2.1.95-4.06,2.74-6.42,2.38-3.72-.58-7.41-2.58-8.73-5.85-1.52-3.76,3.13-4.18,5.24-5.88,2.06-1.65,4.26-3.12,6.4-4.66,0,0-.02.06-.02.06Z"/><path d="M1675.18,1583.44c-.59,7.57-3.41,14.27-7.6,20.05-6.76,9.33-27.52,8.14-33.53-1.46-1.01-1.62-.92-3.11.16-4.56,1.15-1.55,2.74-1.75,4.41-1.05,1.52.64,2.92,1.56,4.44,2.19,8.94,3.66,13.32,2.27,17.41-6.79,2.94-6.51,6.59-10.39,14.71-8.37Z"/><path d="M1337.41,1711.51c-.84,7.3-2.89,14.25-7.11,20.41-1.46,2.13-3.45,3.26-5.9,1.54-1.89-1.33-2.14-3.21-1.12-5.26.59-1.19,1.29-2.33,1.82-3.54,4.66-10.58,3.73-14.47-5.65-20.78-3.38-2.28-5.24-4.56-4.5-8.92,1.12-6.57,1.97-6.97,8.3-3.93,8.67,4.18,15.14,9.68,14.17,20.48Z"/><path d="M1155.78,1596.18c-3.81-5.86-5.64-11.61-7.05-17.32-3.4-13.83,11.06-25.22,23.15-25.08,1.8.02,3.16,1.08,3.52,2.93.35,1.81-.35,3.25-2.06,4.07-.9.43-1.85.75-2.74,1.19-10.95,5.42-12.06,7.88-8.83,19.52q2.09,7.51-6,14.68Z"/><path d="M1403.5,1719.32c7.4-.27,13.49,3.98,17.2,12.12,2.8,6.17,4.08,12.67,4.42,19.35.14,2.77-.64,5.51-4.12,5.77-3.57.27-4.41-2.22-4.59-5.16-.15-2.32-.15-4.68-.58-6.96-1.4-7.43-3.99-10.01-11.72-11.38-3.35-.6-6.44-.91-8.11-4.65-2.94-6.62-1.33-9.32,7.5-9.1Z"/><path d="M1161.68,1605.47c.15-9.97,10.25-21.08,19.93-21.97,2.2-.2,4.01.31,4.76,2.57.59,1.78-.14,3.23-1.67,4.25-.55.37-1.17.63-1.72,1-12.06,8.09-12.32,8.97-6.05,22.32,1,2.14,2.26,4.24,1.19,6.61-1.2,2.65-1.65,6.44-4.93,6.97-3.09.49-3.95-3.07-5.26-5.22-3.09-5.1-6.53-10.13-6.24-16.53Z"/><path d="M1273.69,1657.58c1.44,1.12,2.87,2.23,4.31,3.35,9,11.38,7.82,27.67-2.66,37.52-2.17,2.04-4.37,3.16-6.88.79-2.29-2.17-.83-4.17.57-6.11.97-1.34,2.02-2.63,2.81-4.07,3.85-6.99,3.12-12.04-2.5-17.79-2.04-2.09-4.98-3.58-5.1-6.98-.11-3.01.21-6.31,2.37-8.35,2.56-2.41,4.62,1.31,7.07,1.64Z"/><path d="M1683.04,1509.19c2.53,7.6,3.46,15.12,1.89,22.57-2.29,10.88-16.97,17.82-27.2,13.4-1.96-.85-3.53-1.97-3.35-4.34.18-2.46,1.93-3.28,4.1-3.44,1.33-.1,2.67,0,3.99-.13,8.99-.94,11.57-3.38,11.5-12.74-.05-6.91,1.33-12.37,9.07-15.32Z"/><path d="M1548.55,1661.12c1.78-1.43,3.56-2.85,5.34-4.28.59-.31,1.21-.57,1.75-.94,13.53-9.09,27.49-6.85,37.27,6.04.99,1.3,1.85,2.78,2.38,4.31.59,1.72-.16,3.29-1.67,4.29-1.54,1.02-3.17.96-4.52-.37-1.88-1.86-3.51-4.02-5.54-5.69-5.2-4.28-10.37-4.74-15.6-1.71q-9.97,5.8-19.42-1.67Z"/><path d="M1430.18,1719.24c8.49-1.41,13.44,1.52,17.49,6.47,4.74,5.8,7.59,12.5,9.25,19.73.61,2.66,1.07,5.61-2.33,6.69-3.45,1.1-4.67-1.42-5.49-4.19-.66-2.24-1.23-4.52-2.12-6.66-3.13-7.52-6.05-9.37-14.44-9.07-2.69.09-5.56.64-7.31-1.93-1.82-2.67-4.95-5.63-3.28-8.86,1.97-3.83,6.64-1.76,8.24-2.19Z"/><path d="M1473.44,1707.73c7-4.14,13.32-10.31,22.48-7.13,10.01,3.47,16.23,11.09,20.57,20.42.91,1.95.83,3.95-1.32,5.15-1.97,1.09-3.95.83-5.31-.99-1.58-2.11-2.74-4.54-4.31-6.66-5-6.74-9.27-7.85-17.14-4.64-8.29,3.38-8.57,3.27-14.97-6.14Z"/><path d="M1393.46,1744.19c-.1.6-.44,3.55-1.06,6.45-.59,2.76-1.76,5.21-5.29,4.4-2.97-.68-3.07-3.08-2.77-5.5.25-1.96.82-3.9.91-5.87.34-7.85-2.46-12.08-9.96-14.94-3.12-1.19-6.19-2.02-7.06-6.03-1.52-6.98.5-8.99,7.54-7.8,8.89,1.5,14.18,6.43,16.09,15.19.85,3.88,1.86,7.72,1.61,14.1Z"/><path d="M1260.33,1654.53c-.16,10.35-4.34,17.74-10.36,24.24-1.67,1.8-3.92,2.83-6.18,1-2.38-1.92-1.4-4.11.04-6.14,1.15-1.62,2.47-3.15,3.49-4.85,4.06-6.77,3.63-10.95-1.65-17.02-.87-1-1.95-1.83-2.74-2.88-2.36-3.15-1.89-9.4,1.18-11.67,3.52-2.6,5.31.99,7.4,2.72,4.93,4.1,9.58,8.45,8.83,14.61Z"/><path d="M1145.03,1561.4c-3.13-7.68-3.7-14.94-2.99-22.16,1.1-11.25,16.08-20.03,26.42-15.91,1.69.68,2.79,1.76,2.77,3.64-.02,1.92-1.22,2.96-2.94,3.47-.63.19-1.31.21-1.95.36-12.78,3.01-13.67,3.86-12.72,16.42.49,6.48-1.81,10.77-8.59,14.17Z"/><path d="M1488.21,1737.49c-.02,2.45-.98,3.72-2.67,4.34-1.69.62-3.38.36-4.35-1.27-1-1.69-1.65-3.59-2.54-5.36-4.7-9.23-8.11-10.99-18.1-9.4-1.3.21-2.62.71-3.89.6-4.61-.4-7.23-3.96-8.29-7.56-1.24-4.19,3.48-3.77,5.89-4.9,9.15-4.31,16.7-1.45,23.18,5.49,5.01,5.37,9.15,11.29,10.76,18.07Z"/><path d="M1364,1727.6c-.02,5.73-1.14,11.23-3.54,16.43-1.02,2.21-2.44,4.16-5.33,3.18-2.82-.95-3.11-3.13-2.34-5.65.49-1.59,1.13-3.13,1.57-4.73,2.66-9.66,1.44-12.84-6.88-18.17-1.12-.71-2.4-1.26-3.32-2.17-3.33-3.32-2.99-7.63-1.17-11.07,1.99-3.77,5.32-.82,7.81.24,10.48,4.47,13.44,9.54,13.2,21.95Z"/><path d="M1593.92,1629.11c8.83,1.07,16.32,4.9,22.53,11.25,1.73,1.77,2.85,3.83.93,6.11-2.29,2.72-4.58,1.75-6.81-.25-1.47-1.32-2.93-2.7-4.57-3.78-6.39-4.18-10.08-3.93-16.04.95-1.53,1.25-2.84,2.92-4.56,3.77-4.21,2.08-8.28-.06-10.8-2.71-3.03-3.18,1.51-4.93,3.26-6.84,4.29-4.66,8.87-9.07,16.05-8.5Z"/><path d="M1614.21,1606.83c7.7-.26,14.01,2.57,19.95,6.32,2.49,1.57,5.52,3.45,3.46,7.06-2.12,3.71-4.92,2.03-7.54.24-1.36-.93-2.79-1.82-4.3-2.44-6.47-2.67-11.12-1.67-16.09,3.33-1.4,1.4-2.54,3.28-4.22,4.12-3.67,1.83-7.42.57-10.01-2.02-2.61-2.6.49-4.79,2.01-6.71,4.38-5.56,9.06-10.77,16.75-9.9Z"/><path d="M1225.89,1614.04c5.29,5.62,11.57,9.4,12.27,17.14,1,10.91-4.28,19.03-12.06,25.86-1.81,1.59-4.07,2.49-6.22.45-2.23-2.11-1.24-4.16.45-6.05,1.32-1.48,2.83-2.8,4.01-4.38,4.63-6.2,4.54-10.57-.18-16.99q-5.05-6.86,1.72-16.03Z"/><path d="M1209.43,1591.23c3.58,3.49,5.97,7.84,8.5,12.04,1.78,2.95,2.17,6.27,1.32,9.61-2.24,8.79-7.75,15.23-14.98,20.35-2.02,1.43-4.3,2.02-6.21-.25-1.95-2.31-1.01-4.26,1.02-5.95,1.52-1.27,3.21-2.38,4.58-3.8,5-5.13,5.59-9.58,2.33-16.17q-4.17-8.45,3.44-15.82Z"/><path d="M1653.62,1589.71c-.13,2.24-1.09,4.06-3.45,4.07-1.56,0-3.13-.95-4.7-1.46-10.22-3.35-12.91-2.57-19.43,5.97-1.66,2.18-3.19,4.37-6.25,4.34-2.62-.02-5.67.57-7.38-1.93-1.64-2.4.71-4.35,1.81-6.26,7.83-13.69,22.45-17.42,35.8-9.22,1.74,1.07,3.31,2.25,3.6,4.48Z"/><path d="M1167.37,1499.05c-9.67-.2-12.03,1.73-14.26,11.48-1.01,4.39-.44,9.52-5.91,11.79-3.25,1.35-5.19.93-5.35-2.92-.27-6.73.38-13.38,3.47-19.46,4.43-8.69,16.7-12.56,26.05-8.45,2.24.98,4.34,2.18,3.56,5.13-.77,2.93-3.1,3.08-5.58,2.69-.66-.1-1.32-.17-1.98-.26Z"/><path d="M1203.88,1582.78c.1,9.48-10.23,22.17-18.99,24.33-2.19.54-3.91.14-5.13-1.82-1.6-2.58-.5-4.36,1.78-5.75.85-.52,1.77-.91,2.6-1.46,9.1-6.07,10.04-8.19,6.2-18.72-1.83-5.02-.24-8.22,3.38-11.24,1.95-1.63,3.7-1.48,4.85.71,2.46,4.68,4.92,9.38,5.31,13.94Z"/><path d="M1650.26,1553.27c4-.03,7.92.5,11.61,2.11,2.1.91,2.89,2.65,2.27,4.85-.61,2.17-2.08,3.34-4.42,2.92-1.29-.23-2.54-.75-3.83-.98-8.44-1.54-12.22.02-15.88,7.89-2.21,4.75-4.77,7.71-10.38,7.04-2.94-.35-3.98-1.52-3.37-4.55,2.48-12.31,10.82-19.07,24-19.27Z"/><path d="M1188.75,1541.17c9.05,16.48,1.8,32.5-16.27,35.99-2.38.46-4.79.82-5.89-2.03-1.05-2.74.47-4.4,2.85-5.45,1.52-.67,3.13-1.13,4.6-1.88,6.84-3.52,8.41-6.65,7.42-14.46q-1.05-8.29,7.27-12.17Z"/><path d="M1188.4,1523.79c.1,12.81-12.28,23.73-25.15,22.21-2.16-.25-3.88-1.13-4.25-3.47-.45-2.87,1.15-4.33,3.79-4.84,1.96-.38,4-.46,5.9-1.01,5.25-1.55,8.66-4.8,9.1-10.56.15-1.99.17-4,.5-5.96.6-3.55,3.26-5.02,6.44-5.14,4.09-.16,3.31,3.31,3.65,5.78.14.98.02,1.99.02,2.99Z"/><path d="M1168.13,1514.23c-.98-.16-3.29-.39-5.52-.91-2.14-.5-3.54-1.81-3.15-4.25.36-2.23,1.73-3.55,4-3.66,1.31-.06,2.64.28,3.96.28,8.83.02,10.74-1.27,13.68-9.77,1.2-3.48,1.91-7.07,6.3-8.1,3.86-.9,5.69.47,5.42,4.4-.96,13.78-8.97,21.31-24.68,22.02Z"/><path d="M1180.81,1484.43c-3.7-.14-7.24-1.02-10.56-2.64-2.33-1.13-3.75-2.78-2.49-5.57.97-2.15,2.67-2.82,4.88-2.31.97.22,1.89.67,2.86.87,8.88,1.79,10.6,1.04,15.31-6.82,1.88-3.13,3.34-6.71,7.84-6.69,2.64,0,4.53.8,4.14,4.08-1.33,11.14-10.69,19.29-21.99,19.1Z"/><path d="M1635.07,1546.35c1.43-15.01,12.36-24.73,26.52-23.55,2.69.22,5.66.38,5.79,3.99.14,3.79-2.92,3.99-5.59,4.02-9.1.09-14.17,4.46-15.23,13.59-.44,3.75-2.93,5.72-6.59,6.45-4.18.84-5.32-.13-4.91-4.49Z"/><path d="M1618.63,1451.72c.86-7.44,3.99-13.81,10.54-18.16,2.09-1.39,4.41-1.75,6.26.49,1.88,2.28,1.25,4.33-1.03,5.91-7.53,5.23-7.77,11.66-3.42,19.07.97,1.66,1.75,3.73,1.72,5.6-.04,2.74-1.48,5.49-4.11,6.32-2.99.93-3.63-2.24-4.59-4.17-2.37-4.72-5.3-9.28-5.36-15.06Z"/><path d="M1637.82,1513.83c-.2-11.23,8.23-21.17,19.24-22.74,1.28-.18,2.64-.13,3.93.05,1.86.27,2.83,1.61,3.08,3.38.26,1.86-.59,3.21-2.37,3.81-1.56.53-3.22.78-4.76,1.35-5.85,2.17-9.29,6-8.94,12.67.17,3.23.68,6.73-2.27,9.24-1.53,1.3-3.32,2.46-5.37,2-2.45-.55-2.37-2.87-2.52-4.8-.13-1.64-.03-3.3-.03-4.95Z"/><path d="M1631.57,1482.9c-.02-10,6.8-19.45,14.83-22.23,2.35-.82,4.61-1.23,6.12,1.33,1.54,2.6.31,4.35-1.99,5.72-1.71,1.02-3.5,1.95-5.02,3.21-3.6,2.98-5.32,6.7-3.91,11.47.66,2.22,1.45,4.46,1.69,6.74.36,3.42-3.23,8.19-5.97,7.98-3.68-.29-3.17-3.73-3.86-6.08-.93-3.17-1.51-6.44-1.9-8.15Z"/><path d="M1196.4,1456.92c-4.42-.14-8.44-1.56-12.12-3.96-2.1-1.37-3.57-3.09-2.16-5.78,1.35-2.57,3.49-3.11,5.8-1.59,8.27,5.46,14.24,2.53,19.25-4.88.89-1.31,2.28-2.48,3.7-3.19,2.13-1.06,4.72-1.36,6.5.46,1.74,1.8-.02,3.64-.95,5.31-5.78,10.35-11.15,13.99-20.02,13.62Z"/><path d="M1611.49,1408.13c2.22.32,3.69,1.65,3.68,3.89,0,1.18-.73,2.58-1.55,3.5-5.55,6.18-4.2,12.02.55,17.88,2.36,2.91,4.35,6.01,2.1,9.96-1.11,1.94-2.36,3.19-4.68,1.49-10.53-7.68-13.31-23.53-5.72-32.91,1.47-1.81,2.98-3.59,5.62-3.82Z"/></svg>