<?xml version="1.0" encoding="UTF-8"?>
<svg id="Layer_1" xmlns="http://www.w3.org/2000/svg" version="1.1" viewBox="0 0 548.8 501.7">
  <!-- Generator: Adobe Illustrator 29.6.0, SVG Export Plug-In . SVG Version: 2.1.1 Build 207)  -->
  <defs>
    <style>
      .st0 {
        fill: #708cd0;
      }

      .st1 {
        fill: #31b6c9;
      }

      .st2 {
        fill: #628ad3;
      }

      .st3 {
        fill: #29a1c0;
      }

      .st4 {
        fill: #38aec8;
      }

      .st5 {
        fill: #4d78cc;
      }

      .st6 {
        fill: #4f79cd;
      }

      .st7 {
        fill: #489bc8;
      }

      .st8 {
        fill: #7783e0;
      }

      .st9 {
        fill: #35b2c8;
      }

      .st10 {
        fill: #6787d7;
      }

      .st11 {
        fill: #2fbdcb;
      }

      .st12 {
        fill: #3aacc9;
      }

      .st13 {
        fill: #1a8ab4;
      }

      .st14 {
        fill: #638bd4;
      }

      .st15 {
        fill: #4d97ca;
      }

      .st16 {
        fill: #2faac1;
      }

      .st17 {
        fill: #1084b1;
      }

      .st18 {
        fill: #4e80c9;
      }

      .st19 {
        fill: #2ba9c0;
      }

      .st20 {
        fill: #4c75cd;
      }

      .st21 {
        fill: #469dc8;
      }

      .st22 {
        fill: #4b9bc9;
      }

      .st23 {
        fill: #5590cb;
      }

      .st24 {
        fill: #5a8fcf;
      }

      .st25 {
        fill: #3db1ca;
      }

      .st26 {
        fill: #4782c6;
      }

      .st27 {
        fill: #37afc8;
      }

      .st28 {
        fill: #1495b5;
      }

      .st29 {
        fill: #559bcd;
      }

      .st30 {
        fill: #6c84d9;
      }

      .st31 {
        fill: #489cc9;
      }

      .st32 {
        fill: #5f8cd1;
      }

      .st33 {
        fill: #3d95c3;
      }

      .st34 {
        fill: #2c86ba;
      }

      .st35 {
        fill: #3ca9c8;
      }

      .st36 {
        fill: #6789d7;
      }

      .st37 {
        fill: #5193ca;
      }

      .st38 {
        fill: #4a81c6;
      }

      .st39 {
        fill: #7283dd;
      }

      .st40 {
        fill: #3ea7c8;
      }

      .st41 {
        fill: #4f9bcc;
      }

      .st42 {
        fill: #29c2cc;
      }

      .st43 {
        fill: #276eb8;
      }

      .st44 {
        fill: #5276d0;
      }

      .st45 {
        fill: #43a0c7;
      }

      .st46 {
        fill: #6193d3;
      }

      .st47 {
        fill: #4d7dca;
      }

      .st48 {
        fill: #416bca;
      }

      .st49 {
        fill: #4a99c8;
      }

      .st50 {
        fill: #3acad0;
      }

      .st51 {
        fill: #6f83db;
      }

      .st52 {
        fill: #2eb8c9;
      }

      .st53 {
        fill: #569dc3;
      }

      .st54 {
        fill: #4d95c8;
      }

      .st55 {
        fill: #469ec8;
      }

      .st56 {
        fill: #7480dd;
      }

      .st57 {
        fill: #387ebc;
      }

      .st58 {
        fill: #46a0c9;
      }

      .st59 {
        fill: #29c4cc;
      }

      .st60 {
        fill: #608bd2;
      }

      .st61 {
        fill: #4878c7;
      }

      .st62 {
        fill: #2f72be;
      }

      .st63 {
        fill: #3d72c6;
      }

      .st64 {
        fill: #5690cc;
      }

      .st65 {
        fill: #638ed5;
      }

      .st66 {
        fill: #787ee0;
      }

      .st67 {
        fill: #517ecc;
      }

      .st68 {
        fill: #35b0c8;
      }

      .st69 {
        fill: #3f8bc4;
      }

      .st70 {
        fill: #3094c1;
      }

      .st71 {
        fill: #4e98ca;
      }

      .st72 {
        fill: #6c8dda;
      }

      .st73 {
        fill: #7b83e2;
      }

      .st74 {
        fill: #6688d6;
      }

      .st75 {
        fill: #2a71ba;
      }

      .st76 {
        fill: #4070c8;
      }

      .st77 {
        fill: #2080b7;
      }

      .st78 {
        fill: #5b8ece;
      }

      .st79 {
        fill: #7385de;
      }

      .st80 {
        fill: #6986d8;
      }

      .st81 {
        fill: #5691cc;
      }

      .st82 {
        fill: #3fa7c8;
      }

      .st83 {
        fill: #4a9bc9;
      }

      .st84 {
        fill: #6e88dc;
      }

      .st85 {
        fill: #4474c9;
      }

      .st86 {
        fill: #797fe1;
      }

      .st87 {
        fill: #44a1c8;
      }

      .st88 {
        fill: #3fa6c9;
      }

      .st89 {
        fill: #5b92d1;
      }

      .st90 {
        fill: #487cc8;
      }

      .st91 {
        fill: #348fba;
      }

      .st92 {
        fill: #4780c5;
      }

      .st93 {
        fill: #6090d3;
      }

      .st94 {
        fill: #2493bd;
      }

      .st95 {
        fill: #6c86d9;
      }

      .st96 {
        fill: #178fb5;
      }

      .st97 {
        fill: #4574c9;
      }

      .st98 {
        fill: #29c4cd;
      }

      .st99 {
        fill: #5475d1;
      }

      .st100 {
        fill: #5194ca;
      }

      .st101 {
        fill: #7686da;
      }

      .st102 {
        fill: #2da6c6;
      }

      .st103 {
        fill: #5d8cd0;
      }

      .st104 {
        fill: #3ea6c8;
      }

      .st105 {
        fill: #9394ea;
      }

      .st106 {
        fill: #4787c3;
      }

      .st107 {
        fill: #5393cb;
      }

      .st108 {
        fill: #2bbeca;
      }

      .st109 {
        fill: #6b85d9;
      }

      .st110 {
        fill: #3baac8;
      }

      .st111 {
        fill: #1c7db4;
      }

      .st112 {
        fill: #2070b5;
      }

      .st113 {
        fill: #7c7fe2;
      }

      .st114 {
        fill: #2b6fba;
      }

      .st115 {
        fill: #477bc7;
      }

      .st116 {
        fill: #216eb6;
      }

      .st117 {
        fill: #5e8ed2;
      }

      .st118 {
        fill: #5078ce;
      }

      .st119 {
        fill: #5a75d4;
      }

      .st120 {
        fill: #6394c7;
      }

      .st121 {
        fill: #39acc8;
      }

      .st122 {
        fill: #506ecc;
      }

      .st123 {
        fill: #39a6c1;
      }

      .st124 {
        fill: #2bc2cc;
      }

      .st125 {
        fill: #4c7bca;
      }

      .st126 {
        fill: #4f7acd;
      }

      .st127 {
        fill: #6a8ad9;
      }

      .st128 {
        fill: #43a2c9;
      }

      .st129 {
        fill: #4e97c9;
      }

      .st130 {
        fill: #3aaac8;
      }

      .st131 {
        fill: #2dbac9;
      }

      .st132 {
        fill: #2facc1;
      }

      .st133 {
        fill: #4277c6;
      }

      .st134 {
        fill: #3dccd3;
      }

      .st135 {
        fill: #6e84db;
      }

      .st136 {
        fill: #1f95bc;
      }

      .st137 {
        fill: #499cc9;
      }

      .st138 {
        fill: #7681df;
      }

      .st139 {
        fill: #1673b2;
      }

      .st140 {
        fill: #7d7ee3;
      }

      .st141 {
        fill: #4785c4;
      }

      .st142 {
        fill: #6178d5;
      }

      .st143 {
        fill: #22a7be;
      }

      .st144 {
        fill: #31c6ce;
      }

      .st145 {
        fill: #31b4c8;
      }

      .st146 {
        fill: #276eb7;
      }

      .st147 {
        fill: #4ab1cd;
      }

      .st148 {
        fill: #3ea8c8;
      }

      .st149 {
        fill: #2993b9;
      }

      .st150 {
        fill: #40a3c8;
      }

      .st151 {
        fill: #41a3c8;
      }

      .st152 {
        fill: #2abfca;
      }

      .st153 {
        fill: #30acc2;
      }

      .st154 {
        fill: #2d8abe;
      }

      .st155 {
        fill: #34a4c0;
      }

      .st156 {
        fill: #fafbfb;
      }

      .st157 {
        fill: #638ad4;
      }

      .st158 {
        fill: #557bd1;
      }

      .st159 {
        fill: #3f85c1;
      }

      .st160 {
        fill: #767fde;
      }

      .st161 {
        fill: #2384bc;
      }

      .st162 {
        fill: #44a1c9;
      }

      .st163 {
        fill: #1e9cbd;
      }

      .st164 {
        fill: #55a6ce;
      }

      .st165 {
        fill: #38adc8;
      }

      .st166 {
        fill: #5b8ecf;
      }

      .st167 {
        fill: #286dbe;
      }

      .st168 {
        fill: #3d86c1;
      }

      .st169 {
        fill: #30b9ca;
      }

      .st170 {
        fill: #5794ce;
      }

      .st171 {
        fill: #4f77cd;
      }

      .st172 {
        fill: #858be6;
      }

      .st173 {
        fill: #6588d5;
      }

      .st174 {
        fill: #33aec2;
      }

      .st175 {
        fill: #5497cd;
      }

      .st176 {
        fill: #296fbb;
      }

      .st177 {
        fill: #2d70bb;
      }

      .st178 {
        fill: #7282dd;
      }

      .st179 {
        fill: #2572bb;
      }

      .st180 {
        fill: #16a2bd;
      }

      .st181 {
        fill: #497ec8;
      }
    </style>
  </defs>
  <path class="st140" d="M26.1,45.6c5.2,3.2,5.5,8.3,1,15.2l.5,17.6c2.9,5.4,3.4,9.9-2.4,13.5,2.9,7.8,2.1,11.2-.9,19l.2,2.3c4.1,5,4.3,7.9.6,8.7,3.2,5.4,3.5,9.7.9,12.9.8,2.1,1,3.9-.3,5.7,3.3,3.7,2.9,6.6-1.2,9.4.3,3.3-.8,6.4-3.6,9.3,2.3,2.3,2.7,5.3,1.4,9.2,4.4,5.8,5.4,11,2.9,15.5.9,2.4,1,4.8-.9,6.8,4.5,4.9,2.6,12.4-1.3,16.8,7.4,11.3,6.1,25.7,2.2,38.1,4.2,6.8,5,13.1,2.4,19,2.6,3,2.4,6.7-.6,11.1,2.4,11.6,2.2,22.5-.7,32.6-2.3,1.4-3.4,2.5-3.4,3.3,4.5.8,12.5,4.7,5,7.2-.9.9-3.7,8.9-1.4,9.6l-.4,2.7c2.6,5,3.2,10.8,1.7,17.3,1.9,4.2,2.5,6.4-.7,10.2,2.2,5.9,2.1,9.6-1.1,15.1l1.9,21.2c-.3,3.5-1.2,6.1-2.8,9.2,4.6,5.6,1.6,11.1-3.2,14.2,4.4,2.1,6.6,5.8,1.1,8.7,1.6,3.2,5.5,16.6-2.2,14.4-4.9-7.3-1,1,.7,4.1l-.2,3.3c4.8,1.3,8.2,7.4,2.5,9.3,1.2,1,1,1.9,0,3.2-.8.6-2,.3-3.8-1-5.1-6.8-9.7-14-12.5-22.1-4.3-10-6.6-21.2-6.7-32.8C-.4,302.7-.1,199.7.6,96.9c0-12,4.4-27.5,10.1-37.9,1.6-1.8,2.8-3.9,3.7-6.5,1.9-1.7,3.6-3.7,4.9-6l2.9-1.9c.9-2.8,4.1-1.9,3.8,1Z"/>
  <path class="st108" d="M462.9,15.8c3-2.6,10.6,3.7,9.1,8,2.9,3.4,3.7,6.2,2.5,8.3,4.3,5.2,5.8,11.5,4.7,19,1.7,4.4,1.3,7.9-1.3,10.5l7.1,4.3c2.6,1.6,2.9,3.3,1.8,6.1,1.7,1.7,2.2,4.1,1.5,7.2,5.1,9,4.3,14.2-2.5,15.6,3.5,3.4,4.2,6.9,2.3,10.6,5.9,6,5.2,12.6,3.7,20.4,2.7,4.3-.6,6.5-4.8,7.5,5.4,4.7,5.1,7.5,3.9,14.7-4.9,1.2-5.4,4.2-1.3,9.1-.4,3.2-1,6.4-1.8,9.6,3.4,4.9,3.8,8.6,1.1,11.1,2.5,3.2,1.9,7.1-2,11.9,3.9,3.3,3.4,6.2-1.5,8.8l1.9,6.3c4.3,3.2,1.8,6.7-.8,10.1,3.4,3.7,2.7,6.4.6,10.4,2,3.3,2.1,6,.3,8,2.4,2.7,1.6,4.9-.4,7.5,1.8,3.4,2.6,6.6-1,9.1,3.2,5.1,3.8,11.4,2,18.8,5.3,2.4,3.8,5.4.8,9.2,2.3-.5,3.6.8,3.5,3.2l-3.4,10.5c2.5,4,5.6,11.9-.1,14.2l2.7,3.8c.3,12.4-3.2,25.4-8.3,36.6,1.9,3.6,1.9,6.2,0,8,6.8,7.8,13.1,23.6-1,27.1,1.4,3,.8,5.9-2,8.7l-1,4c8.2,1.4,4.5,9.3-1.2,12,7.4,1.5,4.3,14,1.2,18.9,2.8,2.9,2.4,6.9-1,12,3.7,4.2,3.9,7.8.4,10.9,6.6,4.2,6.4,9.7-.5,16.5,6.4-.4,13.3,2.5,5.1,7.2,2.4,3.9,2.3,7.2-.1,11,2,2.4,2.3,4.6.2,7.1,2.7-1.4,5.2-2,7.4-1.7,3.3-3.3,5.8-4.2,7.7-2.9-2.8,4.9-22,10.2-27.8,11.5h-1c-1-.6-1.9-.8-2.9,0-1.1.9-2.7,1.5-4.8,1.9-.3,0-.6,0-1,0-2.6.7-9.1,1.4-6.7-1,2.3-1.8,5.4-2.9,9.3-3.4,1-1.2,3.9-12.4.6-14.2.8-5.1,1-8.7-1.1-13.5l1.8-7.6c-2.5-4-1.9-6,0-9.9l-2-16.9c1.7-5.2,1.7-10.8,0-16.7,2.1-7.1,3-14.3,2.7-21.6-1.1-5.2-1.3-10.7,5.1-11.5-3.6-1.5-4.6-4.6-2.9-9.2-3.9-2.1-4.6-5.5-2.8-9.5,3.5-4.7,4.9-9.6,4.3-14.5,2.4-1.8,2.9-4.5,1.4-8.1,4-15.1,3.2-30.2,1.7-45.9-1.1-6.7.2-11.7,3.9-15-4.5-4.6-3.9-9.5-3-15.3-2.1-38.6-2.2-77.5-.3-116.6,0-8.2-.4-15.7-3.1-23.3,3.6-13,0-24.8-4.6-37.2,1.5-2.6-1.7-21.8-3.1-23.7-1.5.4-2.4.2-3.1-1.4-3.6-1.1-1.8-4.1,1.1-5.4-2.9-1.4-5.9-11.1-4-13.8-.6-1.1-.4-2.4.6-4-4.8-3.9-.8-14.2,3.7-17.2-8.2-2.8-2.3-14.4,2.4-6.7Z"/>
  <path class="st86" d="M65.4,41.8c3,.4,5.1,6,1,5.8-.8-.1-.7.2,0,1l2.1.4c.9,4.6,1.8,9,2.7,13.1,1.9,2.1.8,3.7-1.9,2.9l-2.9,4.8c5.5.8,5.9,9.1,2,12.8l-.9,9.1-2.1,1.1c-3.1,2.2-2.2,5.6-1,8.6,2.8.2,2.7,3.3,0,3.8-.7,1.6-1.7,3.2-2.7,4.6,1.3,6.9,1.4,13.8.2,20.9-2.4,1.5-2.4,4.1.2,8l-1.9,2.1c4,2.6,1.8,9-3.3,8.4.5,6.5-1.1,11.3-5,14.5,4.9-.8,4.1,3.1,2,6.1,4.3,1.4,6.1,3.8,2.3,7.3,2.3,4.5,1.8,10.4-4,6.3l-1.5,3.6c2.9,3.3,2.7,6.4-.5,9,2.2,1.6,3.4,4,3.4,7.4,4.6,4.2,3.2,7.4-4.3,9.5,1.5,2.2,2.2,4.5,2,7,3.7,3.7,3,6.8-1.7,8.7,3.8,3.9,2.4,10.3-1.3,13.8,1.9,3.5,2.5,7.3,1.8,11.6,4.6,3.8,5.9,7.2,4.1,10.2,1.2,2.5,1.4,4.5-1.6,5.6-1.3,6.3-1.9,12.9,1,18.8.7,2.8-1,4-3.4,5.2,1.8,5.5,0,9.1-2.9,13.7,3.3,5,5,9.9,5,14.7-2.4,1.7-2.9,4-1.4,6.8-3,5.5-1.9,13.5,6.1,11.9,6.4,4.3,0,7.4-5.4,7.2,2,4-.4,6.4-3.3,8.8,2.5,1.5,3.5,2.5,4,5.5,6.3,1.7,3.1,10.7-2.5,11.4,1.9,3.3,2.1,7.6.6,12.7,3.9,2,5.3,4.2,4.4,6.4-3.7,4.3-1.5,10.2.5,14.5-2.2,2.4-2.3,4.6-.4,6.4-1.2,3.1-.5,5.6,1.8,7.6-1.5,3.1-2.5,6.2-3.1,9.2,1.6,2.7,3.2,5.4,5,8.1,1.7.1,2.4,2.1,1.9,5.8l1.8.8c-2.1,4.6-4.6,9.1-7.4,13.6,1.9,3.5,2.3,5.2-.2,8.5.7,3.7,1,6.9-.6,10.5,5.8,1.1,6.7,7.9,5.5,12.6-5.3-1.3-10.5-3.9-15.4-7.7-.2-.1-.7.1-1,0-2.8-2.9-5.9-5.7-9.2-8.4l.6-1.2c-3.5-4.3-3-8.8-1.9-13.9-4.6-5-4.7-8.4-.2-10.4-4-3.1-3-7,2.2-7.3.3-.2,1.9-6.7.6-6.3.2-3.2-.7-6.3-2.7-9.2,1.5-2.8,1.6-4.6.4-5.6v-3c5.3-5,6.5-8,1.7-14.5,1.6-4.2,1.3-7.7-.8-10.4,2.7-3,3.7-6.2,2.9-9.4-8.2-4.2-5.1-12.3,1.6-16.2l-.3-1.9c-3.9-3.4-3.9-7.7.2-13-3.6-3.7-4.9-5.8-.7-9.9-1.8-5.4-3.9-10.5-6.6-15.3,2.3-6.3,3.5-13.2,3.5-20.5,1.3-3.2,1.2-6.3-.4-9.5,5.6-4,6.4-7.7.6-12.9-2.3-3.8,0-6,4-4.3,1.2-.4,1.7-1.9.9-2.9-3.6-1.3-4.4-4.6-.8-6.4-2.7-2.8-3.5-5.7-2.4-8.7-4.3-2.9-4.7-7.6.3-9.9-1.6-2.7-1.1-5.6,1.7-8.6-5.6-7.3-8.7-14.4-2-22.2-5.3-4.1-6.4-10.6.3-13.8-1-3.6-.9-6.9.5-10-3.6-2-4.9-5-2.1-8.5-2.1-3.5-.3-11.8,3.3-14.3-2.6-2.5-3.8-5.4-3.7-8.5-3.3-3.2-2.3-7.1,3-11.7-.9-3.7-.8-6.7.4-9,4.8-.4,3-3.8-.7-4.9-.6-4.9.3-10,2.7-15.4-4.6-3.3-3.2-15.7,1.4-19.2l-.2-3.8c-2.6-9.3-3.2-16,6.1-21.9-2.4-4.2-.9-21.9,3.8-23.1,1.8,1.1,3.3,1,4.6-.2.8-1.5,2.3-1.9,4.6-1.2-3.2-6.2-3.5-10.9,3.2-14.7l1.8,1.5Z"/>
  <path class="st98" d="M513.7,33.1l1,1c1.5-3.2,6.2.7,7.7,2.9l7.7,8.6c1.1,2.4,2.3,4.6,3.8,6.7l1,1c8.3,13.8,12.7,31,12.9,47.8-.4,83,0,166.4,1,250.2-.2,19.6-.6,39.4-1.1,58.6-.1,4.4-1.2,9.6-2.3,13.9-3.4,21-17.1,38.1-32.6,50.9h-1c-1.4-2.8,5.7-9.5,8.6-8.6.3-1.3,0-2.6-1-3.8-1.9-2.2,0-3.1,2.3-3.6-1.4-3.9-2.2-8.1,3.4-7,.8-1.3,2.5-1.9,5-1.8-.4-3.4.1-6.5,1.5-9.2-2.6-2.1-2-4.5,1.8-7.3.1-4.1,1.7-7,4.7-8.8-3.9-2.3,1.1-11.4,5.5-12-2.1-1.7-2.1-4.6,0-8.6l-.3-21c1.3-4.6.7-9.3-1.7-14.1.3-7.9,1.2-15.7,2.5-23.4-4.9-4.3-12.2-13.7-1.5-14.9l.7-6c-3.6-3.7-3-5.2.7-8.5-5.9-1.1-5.9-5.3-.8-7.9-1.5-1.7-2-3.7-.9-5.8-6-8.4-5.6-13.2,1.2-14.4.3-1,.5-2.1,0-3.1-2.9-2-7.9-12.1-3.2-13.5,3.7,1.6,3.8-.8.2-7.2,1.8-9.4,3.2-17.7,2.8-27.3s-2.3-25.4-4.8-37.2c1.1-4.3,2.7-8.5,4.7-12.6-3.2-2.8-4.6-4.9-2.7-9.2-10.7.6-8.4-17.7.7-9.9,4-4.8.5-7.2-4-9.2,0-2.7-2-5-6-6.9-1.7-2.9,7.7-9.9,10.3-7.2l-2.1-3.3c1.1-3.5,2.4-6.8,4.1-10.2-5.2.6-14.4.5-12.1-7,2.4-.9,2.4-3.1-.1-6.6l1.2-2-2.2-.6-2-7.2c-3.5-2.9-4.2-4.6-1.6-8.5-3.5-4.6-3.5-8.2,0-10.8-1.5-3.6-.6-6,1-9.4-4.1.7-5.4-1.5-2.9-4.6l-.9-4.1c-4.8.3-2.5-5.4-.2-7.8-3.5-4.9-5.8-10.7-6.9-17.5-3.3-2.7-5.2-5.8-5.6-9.3-5.1.1-12.2-4.1-11.4-9.6.2-2.8,6-2.3,8-1.2s9.9,6,5.4,8Z"/>
  <path class="st178" d="M90.4,318.2c.6,1.7.9,3.7,1,5.8.6.3.6.6,0,1-.7,1-.6,1.9,0,2.9.5,0,.9.6,1,1.9,1.1.4,1.5,1.9,1,2.9.4,0,.7,0,.9.1,2.3,1.7,5.1,4,6.8,5.6,1.8.6,2.2,2.5,1.2,5.7,7.2-2.6,6.7,3.9,5.6,9,2.2,11,1.3,22.4-2.8,34.1,2.1,3.9,3.4,7.6-2.4,8.1-1.3,4.7-1.5,9.5-.7,14.4l-3.4,12.9c1.9,4.6,1.5,7.5-.5,11.9,2.1,4.7,1.9,8.7-.6,12.1,1.3,5.1-.3,7.3-4.7,6.7.3,7.8-.6,15.7-2.7,23.7-1.8,7.4,0,12.8,2.9,19.4,3.7-.2,6.1.6,7.2,2.4,1.6-2.7,6.1-2.8,7.7,0,1.4-2.4,2.4-2.4,3.8,0,.8.3.8.6,0,1-6.9.9-14.2,1-21.1,0-1,0-1.9,0-2.9,0-.9-.2-1.5-.5-1.9-1-1.3.5-4.2-.3-3.8-1.9-1.3-.4-2-1.6-2.2-3.6-5-.2-6.8-1.5-5.5-4.1-1.3-13.9-1.1-28.2,1.1-42.3,4.8-3.2,5.5-7.8,2.1-14,3.4-4.4,4.8-8.8,4-13.1l1.4-5c-4.2-2.6-3.7-6.6,1.6-12-4.8-3.8-3.7-8.7,2.2-10.5-1-11.3-.8-22.6.7-34.1,1.2-8.4-.2-15.7-4.2-21.9-1.4-3.7-3-9.3,1.7-10.5-2-3.1-.4-4.8,2.4-6.5,0-3.4,2.3-4.3,3.2-.9Z"/>
  <path class="st104" d="M370.7,373.9c2.4,0,4.6.3,6.7,1,2.7,2.2,1.4,4.2-3.9,6.2l-.9,2.3c.9,11.1,1,22.2.3,33.3,3.1,2.9,3.3,7,.8,12.3-.4,21.4-1.7,42.5-4,63.4,2.6,4.8,2.3,7.5-1,8.3h-4.8c-5.2-.4-10.3-.7-15.4-1-.3-1.6.9-2.5,3.4-2.7-1.5-5.8-.6-10.4,2.4-15.4l1-20.7c-3.3-5.9-3.2-9.7.2-11.2,1.2-2,4-16.8.3-17.9-.7-5.1-.4-10.3.9-15.7-2.8-2.6-2.7-6.2.2-10.8-4.7-10.6-7.6-19.3-.5-30.1l9.2-1.2c1.4-.8,3.5-.8,4.8,0Z"/>
  <path class="st165" d="M409.1,374.9c5.2,4.9-3.4,6.2-7.7,6.2l1.7,4.2-2.7,16c1.2,3.3,1.3,6.3.2,9-3.1,1.7-3.2,3.5-2.2,6.8,3.3,6.5,3.4,12.6.3,18.1,2.6,4.9,2.4,8.4-1.2,12.6l1.6,5.3c-1.9,4.7-2.6,9.3-2.2,13.7,4.6,4.7,3.5,6-.9,10,.7,7,.3,13.9-1.1,20.8,3.9-.3,6.4.4,7.5,2.3,2-.5,4.1-.7,6.3-.4,5.3-1.9,11.8-2.7,16.8.4,3.5-.4,7.1-.4,10.6,0,5.8-.7,11.6-.7,17.3,0-1,1.6-3.6,1-5.3,1-21,.3-50.5,2.2-70.6,0-7.8-.4-7.9-3.1,0-4.2l.7-1.7c1.7-22.1,3.7-44.4,6.2-66.6-.9-17.7-.6-35.1,1-52.1l3.6-1.1c6.6-.7,13.5-.4,20.2,0Z"/>
  <path class="st1" d="M414.9,1.4c.8.3.8.6,0,1-3.2,2.7-.8,4.4,2.5,5.4,2.3,2,3.4,5,3.5,9,6.7,4.5,8.6,9.1,5.6,13.8.7,6.6,2.9,12.4,5.6,18.3-2.3,4.5-.9,9.7,4.2,15.7-2.5,10.7,2.2,22.4,8.6,31.4.8,2,.5,4,0,6,7.6,1.7,10.6,5.9,13.2,12.6,3.3,1,3.8,6,0,4.8-1.4,0-2.4-1.6-1.9-2.9-3.2-2.2-6.3-5.5-8.6-8.6-5.9-3.5-12.2-6.6-18.9-9.3l-.3-1.3c-2.7-1.1-3.9-2.9-4.8-5.6-7.7-.9-9.7-4.2-6-10.1-3.1-6-3.9-11.4-2.2-16.3-2.3-4.5-4.5-9-6.7-13.6l-2.6-27.4c-2.8-3-3.4-5.9-1.8-8.8-2.8-2.7-5.1-5.8-7-9.3-2.8-.9-4.7-2.3-5.5-4l3.8-1c5.5-.7,13.4,0,19.2,0Z"/>
  <path class="st130" d="M388.9,374.9c-4.4,3.5-1.9,5.6-2.2,9-1,11.6-1.3,19.3-.6,30.8,1,15.4-1.4,30.4-3.6,46.2s0,22.5-2.3,33.4-2.9,4.7-7.6,4.4c-.2.8,4.5,1.9,4.8,1.9h-8.6c2.2-3.5-.7-5.6-1-8.3-.7-6.9,2.6-18.9,2.8-26.8.4-12.2-.4-24.3,1.1-36.4.3-2.9,3-7.8,1.4-10.2s-2.4-.7-2.4-1.5,1.1-2.2,1-3.7c-.8-8.8-.2-13.1,0-22.1s-2.6-8.4.4-12,5.4-1.2,5.3-4.8c3.8-.8,7.7-.7,11.5,0Z"/>
  <path class="st73" d="M264.1,1.4c.8.3.8.6,0,1-1.9,1.9-3.9,1.9-5.8,0-5.7,1.9-11.5,1.9-17.3,0-3.6,1.3-7.2,2-10.6,0-7.7,2.4-15.3,2.4-23,0-4.8,1.9-9.6,1.9-14.4,0-7.7,2.4-15.3,2.4-23,0-8.4,2.3-16.6,2.8-25,0-7.6,2.9-16.4,2.8-24,0-4.5,2.1-11.2,3.2-15.4,0-8,2.3-16.6,4.3-25.6,6-1.1,3.6-2.6,4.2-6.2,5-.6,2.7-2.5,4.9-5.6,6.5,2.6,6.6,1.7,14.4-.9,20.9l-2,.9c-2.1-.3-5.3,4.1-5.6,5.5-.6,3.7,8.4,12-4,8.9-5.2,4-10.6-6.3-6.6-11.2-4.6-.4-6.6-3.2-8.9-6.9-2.5-2.1-3.7-.9-3.4,3.5-3.7,1.1-7.3,2.4-10.8,4.1-.1-.1-3.6-1-3.8-1-.4-.2-1.3.4-2.9,1.9,1.3.8-.8,6.4-1,6.7s-1.8-1.1-2.8-.5c-2,1.2-1.5,6.8-4.8,6.3,0-1.5.6-3.1,1.9-4.8C27.8,24,63.1,3.4,96.6,1.4c53.4-3.2,113.4,0,167.6,0Z"/>
  <path class="st11" d="M443.7,1.4c2.1.3,4,.6,5.8,1,1.9,1.1,5.6,1.8,11.2,2.1l2.3,1.8c2.3,1.6,1.6,2.8-.9,3.7,2.4,1.7,4.7,5,.9,5.9-2.9-1.4-4.1-1.9-4.6,1.6s1.9,1.3,3.2,3.1c2.5,3.5-1.5,4.1-2.4,5.4s-3.2,9.2-3,10.3,5.6,2.9,0,7.4c-2.1.6-5.7-2.3-7-4s-4.3-9.6-4.4-10.3c1.9-1.5,0-7.3-2-8.7-2,3-5.4-2.6-6.2-5.1-3.2-1.1-4.6-4.5-4.1-10.2l-10.9.9c-2.3-.4-6.6-1.4-6.6-3.9v-1c9.6,0,19.2,0,28.8,0Z"/>
  <path class="st105" d="M10.7,59c-5.2,12.3-8.3,24.5-9.6,37.9.9,106.5-1.6,213.1,1.3,319.5,1.8,7.2,3.1,14.9,5.5,21.9-5.3-8.3-6-18.8-7.7-28.3V94c2-13.5,4-28.7,12.5-39.8-.6,1.2-1.3,3.3-1.9,4.8Z"/>
  <path class="st134" d="M545.4,423.8c.9-5.3,1.7-12.4,2-17.7,4.5-92.8-3.5-189.2,0-282.3.8-22.8-.6-42.9-9.1-63.8s-2.8-2.7-3.4-6.7l-1-1c-4.3-3.3-2.4-4.2-3.8-6.7,10.8,15.1,16.7,29.5,18.3,48.4v315.9c-1.1,4.5-.4,9.9-2.9,13.9Z"/>
  <path class="st144" d="M453.3,2.4c26.6,1.1,51.3,14.5,69.1,33.6v1c-1.9-2.3-5.8-1.8-7.7-2.9l-1-1c-.2-.4.1-1.8-.5-2.8-2.6-4.2-8.5-4.1-12.9-3.9-1.4,5.1-6.4-1.9-3-5.5-6.9.8-10.1-1-9.6-5.6l-11.1-4.2c-3,2.2-7.3.4-9.1-2.5-2.7.2-4.2-.6-4.7-2.3-3.4-.7-6.7-1.3-10.2-1.9s-3.8,1.1-3.3-1.9c1.1-.7,2.3-.7,3.8,0Z"/>
  <path class="st8" d="M395.7,1.4c-.6,0-2.3,1.7-3.8,1l-1.9,1.7c-7.2,0-14.3-.6-21.1-1.7-7.9,2.4-16.2,2.4-25,0-7.5,3.1-14.5,1.8-22.1,0-.2.9-.5.8-1,0-9.3,2.4-18.5,2.4-27.8,0-9.6,2.4-19.2,2.4-28.8,0v-1h131.5Z"/>
  <path class="st53" d="M301.6,499.7c1.2-1.9,2.6-1.9,3.8,0,.5-2.5,1.1-2.5,1.9,0,7.8-1.3,15.5-1.3,23,0,4.5-1.9,9-1.9,13.4,0,1.5-1.9,3.3-1.9,4.8,0,4.9,0,11.1-.8,15.4,1h-94.1c-.8-.3-.8-.6,0-1,10.6-.7,21.1-.8,31.7,0Z"/>
  <path class="st0" d="M111.5,499.7c23-.7,46.1-.8,69.1,0,.8.3.8.6,0,1-28.3,0-56.7.3-85,0-1.6,0-4.3.6-5.3-1,7,.3,14.1,0,21.1,0Z"/>
  <path class="st120" d="M182.5,499.7c20.1-.7,40.3-.8,60.5,0,8.4-.8,18.3-.8,26.9,0v1c-29.7,0-59.5,0-89.3,0v-1c.6-.7,1.3-.7,1.9,0Z"/>
  <path class="st172" d="M24.1,461.3c.8.3.8.6,0,1l1,1c.9.3.8.6,0,1l3.8,3.8c2.8-1.3,5.2,2.1,5.8,4.8.9.8,1.6,2.3,2.9,3.4s7.8,3.8,5.8,6.2c-8.8-5.2-17-14-23-22.1,1.5-1.3,2.5,0,3.8,1Z"/>
  <path class="st172" d="M44.3,482.4c4.6,2.5,10.2,5.2,15.4,7.7l2.5-1c5.9,2.4,12,4.2,18.3,5.4l1.3,2.3c1.1.3,2.6,1.4,3.8,1.9.8.3.8.6,0,1-13.3-1.4-31.2-8.4-41.3-17.3Z"/>
  <path class="st131" d="M459,62.9c1.1-.4,3.4-.4,4.8-1-.1,3.6,5.2,22.8,4.5,23.8s-1.8.1-1.7.7c2.9,9.7,6.3,16.5,6.6,27s-1.3,8.5-1.7,11.6,2.1,6.3,2.4,8.8c2.3,23.8-.7,50.1-.6,74.6,0,7.5-.4,14,0,21.1.5,11.5,3.1,30.7,1.2,40.6-1.3,6.7,4.2,8.3,3.7,11.2s-2.3.9-3,1.9c-1.4,1.9-1.1,11.6-.9,14.6.6,9.1,1.5,17.4,1.1,26.8-.2,5.4-2.7,13.2-2.9,17.3s1.1,3.3,1,4.8-2.5,2.7-2.7,4,1,3,.8,4.5-3.8,7.3-4.6,9c-3.2,7.1,1.8,6.4,2.5,8.6s-1.4,6.4-.8,7,3.2-.8,3.8,2.4-1.9,1.6-3.9,2.9c-3.5,2.2-1,7.1-1.2,9.5-.6,5.4.2,6.3,0,9.5s-2.6,7.7-2.7,11.7,2,8,1.9,10.6-1.7,3-1.8,4.8c-.4,5.5,2.1,13.7,2,18.3s-1.9,3.4-1.9,4.7,1.7,3,1.9,4.8-1.9,5.4-1.8,7.7,1.6,3.4,1.9,5.7-1,5.8-.7,7.6,2.2,2.9,2.3,4c.1,1.6-3.5,8.9-2.7,11.8-3.6,1.3-7.5,2.4-11.4,2.1.1.2-.4,1,.6,1,2,0,4.1,0,6.1,0-1.6,1.7-5.3.9-7.7,1-5.7,0-11.5,0-17.3,0,0-.7.1-1.9.6-2,1.4-.3,15.3-1.9,16-1.7l1.6,1.8-2.7-1c-3.8-12.9-4.9-26.4-3.2-40.6-1.5-7.1-2.1-13.1,0-20.2-2.2-4.1-1.8-8.6,1.2-13.5-1.4-13.3-2.4-25.7,1.5-38.9-2.5-4-1.9-7.3,0-11.4-3-2.2-2.5-5.3,1.6-9.3l3.1-6.6c7.1-6.6,10.4-15.4,9.8-25.5.5-59.7.8-119.8,1-180.5,1-10.9-1.6-23.8-4.7-34.5-3-.9-3.7-3.5-2.2-7.8-2.4-2.6-2.4-4.4.1-5.3-3.8-1.7-6.9-8.4-3.8-11.7-1.6-4.5-1.1-8.4,1.4-11.8-1.5-2.8-2-6-1.5-9.6-8.7,1.2-9.4-8.6-.8-6.2,1.2-1.6,2.2-2,3.7-.3Z"/>
  <path class="st50" d="M530.1,45.6c-.9-1.7-7.5-5.6-7.7-8.6v-1c3.5,3.8,4.8,5.6,7.7,9.6Z"/>
  <path class="st131" d="M469.6,496.8h1c-3.2.7-4.5,1.7-8.6,1.9,1.1-.9,3.4-1.7,4.8-1.9.8-.8,2.1-.7,2.9,0Z"/>
  <path class="st8" d="M453.3,2.4c-1.3,0-2.6,0-3.8,0-1.8,0-4.7.7-5.8-1,3,0,7.4-.8,9.6,1Z"/>
  <path class="st152" d="M498.4,485.3c-3-2.3-1-4.5,6-6.5,2.6-3,5.1-4.3,7.4-4.1h1c-5.7,4.6-6.9,7.1-14.4,10.6Z"/>
  <path class="st51" d="M87.5,499.7c-.6,0-1.3,0-1.9,0v-1c.6.3,1.5,0,1.9,1Z"/>
  <path class="st113" d="M26.1,45.6c.6-4.1,6.3-5,9.6-4.8l-1-4.8c8-2.7,7.4,3.3,11,5.8s5.9.2,5.4,4.2-2.2,2.4-1.6,4.4,3.5,5.3,3.7,5.5c1,.6,2,0,2.6.2.5,4.1-4.6,1.7-4.8,1.9-.3.3-2.4,7.8-2.5,8.6s-.3,9.4-.2,9.9c.1,1.1,1.6,2.4,1.6,3.1s-7.7,5.5-8.3,9.8,2.5,10.7,1.8,16.1-2.4,1.6-3.3,4.5-.8,11.2-.7,11.8c.3,1.2,2.6.2,2.9.5.8.8-5,14.8-3.7,16.2s5.5.7,3.6,6.2-3.5,1.3-3.7,1.6c-.7.8,2.2,4.8,1,8.1s-10,8.9-1.9,9.2c-3.4,5.2,2.5,7.3,2.7,10.2s-2.6,2.8-3.3,4.2.2,2.6,0,3.9-1.4,2.1-1.4,3.3c0,2.6,3.9,1.8,2.9,3.8s-2.8,1.1-2.9,2c-.6,3.5,3.9,4,4,4.8s-1.4,3-1.5,4.7.4,4.8.7,6.5,3.2,4.5-.2,3.1-1.3-1.7-2.4-1.4c-4.6,6.2-1.3,8.2,4.3,11-4.6,2.7-6.9,8.7-5.3,14s5.4,6.4,5.3,9.1-2.9,3.6-2.8,5.8,2.8,3.4,1.9,4.3-4.5-.2-4.5,3.4,3.5,3.2,3.6,4c.1,1.2-1.2,2.7-.9,4.4s3.7,5.2,3.6,6-2.7,1.3-2.9,1.4c-1.4,1.8,1.6,2,2.3,2.9,3.1,3.3-1.6,8.8-5.2,4.8-1.8,2.3,6.3,7.4,5.8,10.9s-1.5.5-1.6.9c-.6,1.4-.1,3.1-1.3,4.1s-4.3-1.1-1.8,3.5,1.9.8,1.9,1.3c0,1.2-1.6,2.4-1.9,3.9-1.1,5.4-1,12.3-2,18.1s-1.9,2.8-1.9,3.9,1.8,2.3,2.3,3.4,4.4,11.3,4.4,11.9c0,2-2.8,2.6-2.7,4.6s2.3,2.4,3,3.8c1.9,3.8-3.6,6.3-3,9.7s3.4,2.8,3.5,5.9c.3,4.7-6.5,2.7-6.5,10.6,0,4.7,4.3,3.4,4.7,4.9s.6,6.3.5,6.6c-.2,1.6-3.7,2.8-3.4,4.6s2.5,2,2.7,3.1-2.2,3.3-1.9,6.6,3.1,1.8,3,7.6-5.5,3-4.9,10.1c.7.8,6.4-4.8,4.6.3s-4.1,3.1-4.5,3.7c-1.7,2.8,2.1,4.8,2.3,6,.3,2.3-2.4,3.8.9,4.4s-.7,2.6-1.3,4.5,0,4.8-.2,5.1c-.3.4-3.8-2.1-4.8.5.3,3,3.7,2.2,3.8,2.4,2.5,2.9-4.3,3.1-4.7,5.4s3.5,4.3,3.8,6.7-1,3.8-1,5.7,1.6,5.3,1,8.2c-1.8-1.7-3.2-1.8-5.8-4.8l-3.8-3.8c-.1-.2.1-.7,0-1l-1-1c-.1-.2.1-.7,0-1-1.3-2.1-3.1-3.5-4.8-5.3,2.4-5.9,2.6.8,5.8.5.6-6.4-5.3-5.3-5.8-5.8s1-3.3.6-4.8c-.9-3.2-4.7-5.1-2.5-10.5,2.5.9,4.1,1.9,3.8,4.8,7.4-3.7-2.1-10.4.5-14.4s3.6-.7,2.4-4.3-4.4.2-4-3.9,3-1.8,3.7-2.6,2-5.6,2-5.9c0-1.5-2.4-3.6-2.5-5.1s2.4-4.6,2.7-7.6c.8-7.3-2-16.1-1.8-23s2.5-4.3,2.7-6.8-1.9-6.2-1.7-8.4,2.6-3.1,2.5-4.7-1.6-2.7-1.8-5,1.2-5.8.8-7.4c-1.1-4.8-.3-4.8-.7-7.8s-3.3-.7-1-5.4c-.3-.2-5.8.8-3.8-1.9s1.2.1,1.9-.7c2.7-3.5,2.2-4.6,2.9-8.9l3.8,1c-.5-2.6-8.6-3.8-8.7-4.4-1-5.4,1.1-3.5,2.9-4.8s2.3-4.8,2.6-6.8c1.4-9.2-1.7-17.4-1.4-25.8s2.6-4.4,2.8-6.8-1.7-1.1-1.9-2c-1.1-4.6,2-6.7,1.9-9.3s-4.5-8.2-4.6-11.8,1.5-3,1.7-4.7c.7-5.8,1.9-17.3.9-22.9s-4.5-7.1-4.8-9.7c-.4-3.7,2.4-3.9,2.8-5,.6-1.7,1.2-7.1.6-8.9s-2.2-2.6-2.3-3.5,1.4-2.1,1.6-3c.4-1.8-.7-3.2-.5-4.4s1.8-1.8,1.7-3.9c-.2-3.8-4.3-9.1-4.6-10.8-.6-3.1,3.5-7.4-2.1-7.5-.4-2.4,3.4-6,4.3-8.2s-.5-2.6,0-3.7,3.4-2.3,3.4-4.4-2.6-2.9-2.7-3.8c0-1.7,3.9-3.7-1.2-6.7,8.5-2.5.8-8,.9-12.6s2.6-2,2.9-2.3c1.5-1.8-1.4-1.9-1.9-2.6-5-7.2,2.1-14.2,1.7-16.9s-1.3-1.5-1.5-2.4c-.8-3.4,0-5.2-3.2-7.9,3.4,2.4,6.7-2.6,6.7-5.3s-2.1-3.6-2.3-6.1-.7-15-.5-17.9,3.8-7.5,3.9-9.6-1.6-.5-2.3-1.7-.5-3.5-.7-3.6Z"/>
  <path class="st113" d="M22.2,44.6c-.2,0-1.2,2.4-2.9,1.9l2.4-2.9.5.9Z"/>
  <path class="st113" d="M22.2,201.1c-2.1-.8-2.3-1.6-.5-2.9l.5,2.9Z"/>
  <path class="st152" d="M474.4,32.2c6.4.9,9.4,3.5,9.2,7.9,5.4.7,5.3,2.6,5,7.4l5.3,7.8c7.8-.5,9.6,4.8,1.5,6,5,2.4,9.2,6,2,9.1,1.4,3.8,3.3,6.8,5.8,9.1-.9,2.2-1.8,4.4-2.8,6.5l1,1c.9.2.8.6,0,1,2.1,2,2.1,3.3,0,3.8l1,1c.8.3.8.6,0,1l1,1c.8.3.8.6,0,1,.9,0,1.6.5,2,1.3v9.2c2.9-.6,2.7.9.9,2.9,2.4-1,2.8-.5,1.9,1.9,5.2,1.3,6.1,8,.8,10.4,1.6,2.7,1,4.3-.9,6.5,5.7,4.2,4.8,11.9.2,16.6,4.2,5.4,4.8,9.2,1.8,11.4,1.3,4.3,1,8.7-.7,13.2,3.2,1.9,4.2,4.6.2,5.7,1.2,3.8,1.1,8.2-.2,12.9,3.4,9.9,5.1,19.7,5,29.4-2.2,7.8-3,13.8-1,21.5-3.4,3-4.5,4.7-4.1,9.6,6.3,6.8,6.3,13.5-1.1,19.4.7,3.4.7,7.1,0,11,4.2,4.1,4.4,7.5.5,10.3,2.5.4,2.8,1.9,3.2,4.1s-1.6,21.9-2,24.4l-1.7,2c3.3,5.5,3,10.3-1,14.3,4.6,4.1,3,9.7-1,13.7-.6,2.7.7,5.5,3.8,8.4v1.9c-5.2,4.7-2.8,9.9.4,15.2,1.1,4.4-2,11.4-4.7,14.7,2.4,1.6,2.6,4.6.5,8.9,4.2,8.1,3.3,12.5-2.7,13.2.6,3.3,1.5,6.6,2.6,9.9l-3.7,14.8c2.7,4.1,1.7,7.2-2.9,9.3l.2,1.7c7.8,6.7,8.1,12.5.7,17.3,2.2,9.1-.5,21.2-9.5,25.4-2,1.5-5,3.4-7.4,3.6-6,.7-.5-3.4-.4-5.2s-1.7-2.3-1.7-3.7,2-3.4,2-5.8-2.1-4.4-1.9-5.6c.5-2.4,4.5-1.5,3.7-4.4-1.6-.7-8.3,0-8.6-1.5-1.1-3.9,5.7-7.9,5.6-9.4-.3-5.8-6.6-7.3-6.6-7.9,8.4-7.2,1.4-6.5.9-10.6s3.7-7.6,3.6-8.6-2.6-1.8-2.7-3.8,2.2-4,2.7-6,1-9.7,0-10.6-4.3,0-3.6-3.6,5.9-2.8,5.8-6.8-5.1,0-4.7-4.6,3.7-7.5,3.8-8c.3-1.6-1.4-3.8-.6-5.1,1.6-2.6,7.8-.2,8-9.1.2-7.9-4.8-12.1-8.5-18.2,6.1-.7.6-3.2,1.1-7.4s2.8-5.1,3.4-7.3c1.7-5.7,5.7-22.7,5.1-27.5s-3-3.1-3-4.9,2.6-1.8,3-3.1c1-3.8-1.2-7.9-2.7-11.2l3.7-12.2-4.8,1c-.6-2.3,4.1-6.8,3.8-8.1s-3.3-1.6-3.7-3,1.3-10.4.7-14.3-3.8-3.7-3.8-5.8c6.6-2.9,1.8-5.9,1.9-8.7s1.9-2.5,1.9-3.8-2.3-2.7-2-4.8,2-.5,2-1c0-1.4-1.9-3.8-1.9-5.7s2.1-3.5,1.9-5.7-2.6-2.9-2.8-4,3.4-4.7,3.6-6.8-1.8-2.2-2.2-3.2c-1.8-4.8-4.6-9.9,2.4-10.5.4-2.4-2.8-3-2.9-5.2,0-3.3,5.6-6.8,3.3-10.1s-2.2-.8-2.4-1.4c-1.1-3.7,2.4-1.9,2.9-2.4,1.5-1.7-2.7-6.8-2.9-9.1-.4-3.9,2.4-6.3,1.9-9.4s-4.7-5.6-4.6-6c0-.6,2-1,2.6-1.8,1-1.3-1.2-3.5,4.1-2.6-1-2.3.1-7.8-.1-9s-5.4-1.2-4.4-5.9,6.7-.6,5.5-4.7-6.7.1-5.8-5.8,3.8-.8,3.9,2.4c2.2,1.7,2.4-10.1,1.4-12.4s-3.8-3.9-4.2-6.5,1.9-3.2,1.7-4.4-3.4-2.9-3.8-6,5.6-2.8,5.9-3.9c.7-2.7-2.9-8.5-3.4-11.4s2.9-7.9-5.3-5.3c.6-1.8-4.6-7.2.5-5.8s-.1,2.4,2.9,1.9c5.7-.9-8.9-7.4-9.1-8.3-.3-1.6,2.7-2.5,2.9-4.7s-1.1-4.3-1-6.7c0-8.7.5-10-2.8-18.7Z"/>
  <path class="st42" d="M524.3,70.6l1.4,6.7c1.9,2.7,2.7-4.8,4.2-.4s-1.6,6-1.8,7.6,1.2,3.1.8,4.6-2.8,2.1-2.8,4,3,4.3,2.8,6.8-2,2.6-1.8,3.7,2.5,2.2,3.2,3.6c1.4,2.8,1.6,6,2.5,8.6,0,1.5-.5,3-1.6,4.7,1.3,7.1,1.5,16.7-3.1,23.1.9,4.3,2.2,8.6,3.9,12.8.9,3.3,2.1,7.9-2,9.5,2.2,5.6,2.2,10.5,0,14.8,3.6,7.2,5.1,15.4,4.6,24.7,2.9,4.3,3,7.3.3,8.9.9,2.6.2,5.3-2.1,7.9.8,3.5,1.4,6.1-.9,9.2,2.3,4.2,2,9.2-.9,15.2,4.5-.6,5.6,5.8,4.9,9.3l-3,8c3.8,2.9,1.3,5.6-1.4,8.1,3,6.2,5.9,12.2-2.4,15.2,5.3-.2,7.2,4.2,4.2,8.4,3.9,1.3,4,3.6,2.6,7.1,2.4,2.2,1.5,5.2-2.7,8.9,1.7,3.1,2.3,5.3-.8,7.7,3,4.7,6,11.5,0,14.9,2.1,4,2.5,7.3-3.1,8.1,5.2,5.2,5.5,8.7.9,10.4,3.4,3.7,1.4,8.2-2.4,10.7,2.1,1.4,4.1,9.8,3.7,12l-2.1,3.1c4.7,12.2,1.1,28.1-6,38.8,3.2,7.2,1,15.7-1.3,23,7.1.9,5.2,5.2,1.1,8.8,1.3.6,2.2,1.1,2,2.8l-2.9,1.9,1.9,6.7c-1.4,0-4.5.4-4.8,1.9,1,1.3,1.4,2.6,1,3.8-2,2.3-6.3,6.5-8.6,8.6-4.8,4.4-6.4,7.1-13,7.8s.2,1.7-.5,2.8c-2.3,1.1-5.2,2-7.7,2.9,4.3-3.4,8.3-13.3,8.5-18.8s-1.6-4.9-.7-7.4,5.7-3.8,5.6-7.9-7.3-5-6.8-10.5,4.5-3.1,4.8-3.4c.7-.7-1.9-3.2-2-5.2-.1-3.9,3.8-14.5,3.7-15.3-.2-2-4.4-10.1-1.8-11.7s4.5.7,4.6-3-3.6-5.2-2.6-10.3,2-2.8,1.8-3.8c-.4-2.4-8.8-3,0-5.6-.6-3.6,2.8-7,2.8-10.1,0-3.1-5.8-7.1-3.4-15s3-2.5,2.6-3.9-4.7-3.3-4.3-7.8c.3-4.2,6.5-4.8,3.3-12.2s-2-.5-1.9-2.1c.1-3.3,3.6-4.6,3.8-6.9s-2.8-5.5-2.8-8.6,1.9-1.2,2-2c.6-3.1.3-12,.5-15.8s2.4-8.5.4-10-3.5.8-3.8-.9,4.7-3.4,4.7-6.8-1.7-.7-2.3-1.4c-2.9-3.7-1-7.2-.7-11s-.9-2.5-.8-3.7,5.5-5.1,5.7-7.9c.4-6.4-3.9-8.2-4.6-10.7s1.6-5.9-.1-8.9c8.2.9,2.3-5.5,2.8-10.1s3.1-11.5,3-18.2-5.5-17.2-5.5-24.2,1.5-8.5,1.5-9.2c0-1.1-2.8-4.2-1.8-5.4s2.9,1.6,3.8-.5c-6.5-1-1.9-5.8-1.8-10.6s-1.3-5.4-1.1-6.6,2.9-1.3,2.9-2.1-4.8-5.7-4.6-8.5,3.1-3.6,3.4-5.1.2-6.1.1-6.4c-.4-1.8-3.7-2.8-3.7-5s2.6-3.3,1.9-4.3-2.8-.6-2.9-1.5,5.3-3.2,5.4-4.8-1.8-4.8-2.6-6.3c.6-1,0-1.6-1.9-1.9-.3-.6-.4-1.9-1-2.9-.6-2.7-.3-5.5.9-8.4-1.7-.2-2.6-.9-2.9-2.2,0-.3,0-.6,0-1l-1-1c-.1-.3.1-.7,0-1l-1-1c-.1-1.2.2-2.8,0-3.8,1.8-.7,3.9-.1,6.3,1.8,3.3-4.3,7-2.7,11.1,4.9-.6-6.2.9-13.3,2.2-19l2.5-1.6c-.8-1.5-1-2.6.9-3.5Z"/>
  <path class="st124" d="M462.9,6.2c1.7.3,3.4-.2,5.5.7s1.1,1.6,1.5,1.8c5.8,3.2,4,.4,6.8.4s11.7,4.2,12.4,4.7c1.4,1,.1,4.4.6,4.9s13.2-1.3,10.4,2.8-3-.2-1.8,4.3,1.8.4,2,.6c1.9,1.9,3.9,5.3,6.4,6.6s5.1.8,6.2,1.5.9,4.1,1.8,5.6,2.3,1.2,3.3,2.6c3.8,5.6,2.3,8.5,3.9,13.4s4,4.2,4.2,6.3-2.2,3-2.6,4.9.7,2.4.8,3.1c.2,1.3,1.2,2.9.9,4.2s-3.1,1.6-3.7,3.2.6,3,.3,4.3c-2.3,9.5-2.1,9.2.3,18.9s-3.9,3.8-4.7,4.4c-1.2,1-.5,4.3-2.4,5.4l-3.3-7.2c3-4.8-2.3-4.6-1.9-6.7s4.3.3,5.3.4c6,1-3.2-7.5-3.9-9.5-3.5,6.5-5.4,3-10.1,0,0-.3,0-.7,0-1l-1-1c-.3-.4-2.3-.7-1.9-2.3s3.9-2.8,2.8-4.3-1.7-.2-2.3-1.1c-1.1-1.6-1.4-4.1-2.5-6s-3.2-.5-1.9-2.5,5.3-1.8,4.7-3.4c-.9-2.6-8.3-2.3-5.2-7.2l5.2-.5c-1.5-2.4-4.9-.8-6.5-1.7s-5.8-8.2-6.1-8.9c-.6-1.9.3-5,.1-5.3s-5.6-.8-5.8-1c-.4-.5,1.7-3.4.6-4.8s-6.3-1.2-7.3-4.7c-1.2-3.1-3.4-5.3-4.3-7.7s.5-2.7,0-3.8-6.3-4.4-7.2-4.8c1.3-3.5-4.6-5.6-4.8-6.2-1.7-5.4,5.3,1.1,4.8-3.4Z"/>
  <path class="st131" d="M442.7,20.6c.2,0,1.4-1.5,1.9-1,.7.8.7,6.1,4.8,7.2.5,2-2.4,2-2.7,2.5-1.3,2.3,2.2,4.1,3.2,5.7s.2,2.6.8,3.5,4.3,2.6,5.5,5.1,2,5.7,2.7,7.4-.2,3.1.4,3.9,6,1.1,3.7,3.9-4.9-.3-3.8,3.9c-3.6,1.4-1.6,3.6-7.7,1v3.8c9.4-2.3,6.2,3.4,6.7,8.1s1.5,2.2,1.6,3c.1,1.2-2,3.4-2.4,5-.6,2.9,1.1,5,.8,7.4s-1.5,2.3-1.6,2.9,2.5,5.9,2.9,6.4c1.1,1,7.9-.6,4.9,3.7s-3.6-.7-5.3.5c5.6,3.2.6,6.3.9,7.7s3.2,1.2,3.6,1.7.1,2.4.7,3.6c3.5,6.9,1.7,8.6,2.3,16s1.1,8.1,1.2,13.3,1.3,2.7-1.1,3.4c-.5-4-1.1-8.5-1-12.5-2.6-5.8-5.3-12.3-7.7-18.2l.7-.6c0-1.4-.7-2.8-.7-4.2-1.3-1.3-2-3.3-1.9-6.1-8.9-7.9-8.4-17.1-7.7-28-5.8-5-11.4-19.3-4.9-25.3-3.9-1.5-4.9-5.4-4-9.2-3-1.7-2.6-3.7-1.7-6.5-6-.2-4.1-6.9,1.5-5.9.2-4.6,1.1-9.2,3.4-12.9Z"/>
  <path class="st152" d="M484.9,287.5h-2.9s0-1.9,0-1.9c1.3-.3,2.6.5,2.9,1.9Z"/>
  <path class="st152" d="M469.6,496.8c-.9.1-2-.2-2.9,0,.1-1.4,2.7-1.4,2.9,0Z"/>
  <path class="st152" d="M476.3,493.9c.7.3-.6,1.6-1.9.9s.6-1.6,1.9-.9Z"/>
  <path class="st152" d="M483,276c-.3.7-1.6-.6-.9-1.9s1.6.6.9,1.9Z"/>
  <path class="st66" d="M64.5,107c.9.6,1.5,1.4,1.9,2.4s0,9.9-.9,11.3c1.4,2.9,2.6,6.1,0,8.5.8.3.8.6,0,1,.5,1.6-.4,2.9-2.7,3.9,3.3,3.7,3.9,6.6,1.8,8.6,1.6.4,1.3,1-1,1.9,2,.8,3.4,2.8,3.7,5l-1.8,13.8c1.3,5.3,1.1,10.2-.7,14.6,3.7,4.4,4.9,6.2,1.9,12.1,1.2,33.7,1.7,69.1.8,103.5,1.6,5.5,1.1,9.2-3.5,12.6,2.4,5.8,2.4,10.2,0,13.3,4.4,5,3.5,10.6,2.4,16.5,1.9,4.8,1.1,8.2-2.2,10.1-.8,3-.3,6.4,1.3,10.1-2.3,3.1-2.4,5.1-.2,6,.3,6.2-1.2,12.3-4.4,18.3,3.1,2.9,3,6.6-.2,10.9,2.8,4.2,3.4,9.4,1.8,15.6,1.8,5.6,1.1,10.1-1.9,13.6,2.4,2.7,3.2,3.8.1,6.5.6,2.1.6,3.9-.1,5.3-.6.8-1.2,1.5-1.9,1.9,2.7.5,2.5,2.9,0,3.8-4.8-2.4-7.8-5.5-6.7-11s1.8-2.8,2.4-4.3c1.8-4.6-1.8-2.3-2.5-2.9s1.7-6.1,1-7.7l-3.8,1c-.2-3.4,6.8-5.3,3.6-8.4s-3.5,0-3.6-.2c-1.3-2.1,1.7-1.7,1.9-2.5.5-2.2-.2-5.6.6-8.1s2.3-3.1,2.3-3.3c0-1-4-1.3-5.1-3.6s1.2-8.6.9-10.8-4.4-2.9-1.5-4.8,3.9,1.4,5.5-4.1-2.6-2.8-3.5-4.2.2-2.5-.3-3.4-4-1.2-3.6-3.5,8.2-4.9,1.9-8.8c.7-1.1,1.8-1.4,3-1.8,3.1-1,7.2.8,6.6-3s-2.8.2-4,0c-4.6-1.1-6.6-5.2-6.4-9.8s1.5-2.4,1.7-3.7c.2-1.8-1.4-3.6-.8-5.5s2.8-2.2,2.8-4-5.6-11-5.6-12.3c0-2.6,3.2-5.1,3.6-7.9s-1.2-7.7-.9-8.1,3.3.2,3.8-1.6-2.6-6.9-2.6-9.7,2.8-8.4.7-12.8h3.8c-2.3-3.3-2-4,0-7.2-.5-.8-2.1-2.1-2.9-1.5s.8,2.3-1,1.9c1.7-3.3-1.2-4.4-1.7-6.5s.5-4.7,0-7.4-2.2-4-2.1-5.7,1.7-.5,2.3-1.7c4.6-9.6-2.2-9.5-2.2-12.7,6,0,8.3-3.7,2-5.8,4-2.4-1.9-7.6-.9-9s6.1-3.7,7.6-3c0-2.5-2-2.1-3.1-5s-.4-3.9-1-5.3-2.4-.7-2.4-2.8,2.4-2.5,2.8-4.7-3.9-.9-1.8-6.4,5.2-.2,6.5-1.7c-.2-4.4-3.9-5.8.9-9.1-.5-1.9-4.7-2.2-4.8-2.9-.7-2.6,2.8-5.2,2-6.2-3.4,2-5.3.9-3.4-2.9s2.5-1.4,3.1-2.2c1-1.4,1.2-9.9.8-10.3-1.2-1.5-4.5.4-3.4-3.8.7-.8,8.1,4.6,9.5-.6s-7.3-1.4-6.6-5.6,6.1,1,6.7-2-5-6.1-3.8-7.2h3.8c-1.5-4.6,1.1-8.8.6-13.8s-4.5-8.3,3.2-11.2c1.8.5,1.8,1.4,0,1.9Z"/>
  <path class="st8" d="M105.7,2.4c4.8,2.5-1.7,4.4-5.2,4.2-.5,6.2-1.9,12-4,17.4,2,7.8-.7,13.8-6.2,18.7q-5.4,1.6-2.4,6.9c-.3,4.4-5.9,4.6-9.1,2.8l-3.6,9.4c-1.5,1.6-2.8,2-4.1,0-1.5-1.1-2.3-1.5-2.8-3.4s-1.6-9.6-2-10c-.8-.3-.8-.6,0-1,1.7-1.5-.9-2.9-1-5.8,0-4.5,3.3-9.4,2.7-15.6s-2.3-4.2-1.6-6.7,4.3-2.7,5.2-4.5.3-3.5.5-3.8c.6-.5,4.8,1,5.5-1.6s-2.3-1.7,1.1-2.7c7.2-2.1,19.4-4,26.9-4.3Z"/>
  <path class="st138" d="M90.4,42.7c4.1,1.7,4.5,6.1,1.4,13.4,2.1,3.7,2.3,6.3.5,7.7l-1.4,2.9c3.3,3.5,1.6,12.2-1.5,15.3-.9,7.3-4.1,11.2-9.7,11.9,2.6.8,3,3,2.2,5.4,9.2-1.9,5.5,7.5-1.6,8.6.5,3-.3,6.3-3.3,3.9-2.6-4.9-3.7-4.8-3.1.2-2.8,7.4-12.1,4.6-6.3-2.5-1.8-.1-2.9-.9-3.1-2.4,0-.6,0-1.3,0-1.9,0-.9,0-2.8,0-3.8-2.5-1.2-1.6-8.2,1-8.6.5-3.2.7-8.7,1.1-10.8s2.5-2.5,2.6-5-2.6-6-2.8-7.2l2.9-4.8c1-1.2,1.7-2.6,1.9-2.9.4-.4,2.2-.5,2.7-1.2l5-13.7c3.2-1.8,1.9,2.4,1,4.3,11.1.8,4.5-3,4.2-5.2-.5-3.4,3.3-5.9,6.4-3.4Z"/>
  <path class="st138" d="M70.2,434.4c2.8.9,3.7,4.2,1,5.8-.5.8-.5,1.5,0,1.9l1.8,1.5-1.1,11.2c4.2,2.2,1.3,7.2-2,9,.8,2,1.8,4,3.1,6l1.1,19.3c2.7,4.2,8.5-1.3,7.7,7.7-8.6-2.2-13.6-2.7-22.1-6.7-2.9-2.5-.5-7.1-3.3-9.6s-4.3-.6-4.3-1.4c0-1.7,1.4-4.6,1.6-6.9s-1-3.5-.6-5.5,1.9-2.7,1.9-3.9-2.2-2.3-1.8-4.5c.8-4.6,5.5-8.2,7-11.4s.3-2.3.5-2.8c.4-1.2,2-2.7,2.5-1.6s-1.4,1.5-2.5,1.6c-1.4-.4-1.8-4.3-1.9-5.8s-.1-3.7,0-3.8c.5-.7,1.1-1.3,1.9-1.9.4-.3.8-.5,1.2-.5,2.4.3,7.4,1,8.4,2.4Z"/>
  <path class="st66" d="M65.4,92.6c-.4,2.3-.8,5.6-1,8.6l-5.8-2.9c7.1,1-.4-8.8,6.7-5.8Z"/>
  <path class="st8" d="M66.4,69.6c-.3-2.6,1.8-3.5,2.9-4.8-.2,1.9-1,4-2.9,4.8Z"/>
  <path class="st66" d="M57.7,124.3c-.6.6-2.9-.8-2.9-1.4,0-2.7,4.3,0,2.9,1.4Z"/>
  <path class="st66" d="M50.1,207.8c-2.1-.8-2.3-1.6-.5-2.9l.5,2.9Z"/>
  <path class="st113" d="M37.6,323.1c1,1-.9,3-1.9,1.9s.9-3,1.9-1.9Z"/>
  <path class="st73" d="M66.4,47.5v1c-.1-.1-1.4,0-1.9,0l1.4-1.9.5.9Z"/>
  <path class="st113" d="M40.5,194.4c-.3.7-1.6-.6-.9-1.9s1.6.6.9,1.9Z"/>
  <path class="st113" d="M37.1,212.6c.6.3.6.6,0,1v-1Z"/>
  <path class="st59" d="M532.9,115.7c.8,2.5,3.8,6.6,2.7,8.5s-3.9.6-2.2,3.1c2.7,4.1,8.1,1.5,12,1.9,1.7,3.9-1.8,6-1.9,6.5-.3,1.1.2,2.4,0,3.4s-1.9.6-1.9,1.1c0,1.9,3.5,3.8,2.9,6.7s-3.7-1.6-5.2-1.4-2,2.2-3,2.9c-1.9,1.3-5.9.6-1.8,3.6s4.9,1.9,5.1,2.1c.6.9-1.2,3.6-.9,3.8s1.8-.2,2.8.6,3.9,4,4,4.7c.5,3.3-3.6,4.5-2,9.1-1.7-.3-4.2-4.6-5.3-4.8-3.1-.7-4.2,7.7,1.2,8.5s1.7-1.1,2.2-1.3c3.6-1.3,0,6.1.2,7.5s3.7,2.7,3.6,4.9-3.9,8.7-4.5,10.8c-1.2,4.2,2,7.8,2,11.8,0,12.5,3.6,25.3,2.4,38-.5,5.7-2.2,11.3-2.8,16.5s2.2,3,2.6,4.9-1.1,4.6.1,7c-3.9,1.4-3-4.4-5.8-2.4,1.7,2.2,2,5.5,3.1,7.5s4.2,1.5,2.7,7.7-9.6-1.7-2.9,9.7c4,6.7,1.1,2.5,1.3,6.7s1.9,2,1.7,3.8-4.8,1.8-3.9,4.4c9.9,1.5,1,6.2,1,7.2s2.7,1.7,2.9,3.9-.7,7.8-1,8.1-5,0-5.7,1.5c0,1.1,4,7,5,8.5s2.7,1.4,2.8,2.1c0,1.1-1.3,5.7-1.4,7.9-.3,5.3-1.2,11.6-1.3,16.1s2.5,5.8,2.6,8.6-1,3.9-.9,5.7c0,6.5,1,17.2,0,22.9s-1.9,2.5-2,3.9,1.7.4,2,1.1c1.3,4.3-2.2,3-3.8,4.7s-1.1,3.3-1.9,4.7-1.9.6-1.9.6c-.5.8,2.8,2,2.5,3.9s-2.6,2.1-3.3,3.4c-1.2,2-.7,4.3-1.6,6.1s-2.9,2.4-3.3,3.4c-1.1,2.5,4.4.9,5.1.5s2.2-6.3,2.6-2.4c-1.5,1.4-1.5,4.6-2.8,5.8s-3.3-.1-3.8.6c-2.7,4.4,3.3,12-7.8,9.5s.3-6.5,0-8.1-4.6-1.3-4.8-1.5c-1.2-1.2,1.5-6.8,1.7-8.4s1.1-9.9,1-11.3c0-2-2-3.2-1.6-5.5s4.1-6.4,5.2-9.3,3.3-18.4,3-22.5-2.3-5-2.2-6.9,2.5-3,2.5-4.8-1.4-2.1-1.7-3.1c-.4-1.6.1-3.9-.4-4.8s-3.2-.7-2.7-2.6c.3-1.3,4.8-1.9,4.8-6.8s-1.8-1.4-2.4-2.3c-2.8-4,2.5-2,4.3-4.4.3-1.7-5.9-6.1-4.8-9.1,9.8,0,1.9-5.7,1.9-6.2s3.3-2,3.9-2.8c3.2-4.2-3.1-11.8-2.9-12.4.2-1,2.5-2,2.7-3.1.4-2-3.6-3.4.1-7.6s3-1.3,2.9-1.9c0-1.4-1.8-2.3-1.9-3.8s1.4-3.1.8-4.2-3.4-1-3.7-2.7,4.3-4.3-.1-6.6-3.9,1.1-3.8-1.9,5.1-1.9,5.6-6-3.8-9.7-3.7-10.3c.3-1.4,4.4-1.4,3.9-4.9s-1.5-.4-1.7-.7c-1.4-2.5,3.3-9.2,3.2-11.8s-1.4-5.1-1.6-5.3c-.3-.3-1.8.7-2.4.6-3.8-.7,1.5-10.7,1.5-12.6s-2-3.4-2-4.8,1.5-2.8,1.7-4.1-1-3.6-.8-5.5,2.5-3.3,2.7-5-1.2-3.1-.6-4.1,2.7-.7,2.7-1.6-2.5-3.1-2.8-4.9c-1.1-5.6-.6-13.6-1.4-18.7s-3.5-5.8-3.5-7.2,1.9-2.5,2-4.7-2.7-11.3-2-12,3,1.9,2.9-2.4-5-14-4.7-18.1,2.1-2.8,2.5-4.2,1.6-11,1.7-12.6c.2-3.4-3.9-6.9,2.4-10.7Z"/>
  <path class="st59" d="M528.1,455.5c-.8,2.1-1.6,2.3-2.9.5l2.9-.5Z"/>
  <path class="st59" d="M520.5,466.1c0-1.1-1.1-2.9-1-3.8,1.6,1.6,2.5,2.1,1,3.8Z"/>
  <path class="st124" d="M534.9,53.3c-.4-.3-.6-.7-1-1,.5,0,.9.5,1,1Z"/>
  <path class="st124" d="M514.7,34.1l-1-1c0,.1.8.9,1,1Z"/>
  <path class="st42" d="M529.6,91.7c.6.3.6.6,0,1v-1Z"/>
  <path class="st56" d="M89.4,82.1c4.8,2.1,2.1,8.7-.4,12.3.1,3.3,1.5,6.8,4,10.5l-1.8,6.7c1.7,9.7,1.4,19.4-1,29.2,2,4.6,1.7,8.2-.8,10.6,1.2,5,.9,8.1-4.1,10.4,4.4,2.9,5.9,4.2,1.2,8.2l.9,5.7c-2.5,6.2-1.8,9.5,2,10.1-.1,3.5.2,6.7.9,9.6.2,41,.2,81.9,0,122.9l-1.9-1.4c2.7,4-2.9,5-2.9,5.8s1.3,2.3.9,3.6-3.6,2.1-3.7,3,1.3,1.6,1.4,2.4c.6,5.9.5,2.8,2.8,6.8,3.2,5.7,2.4,20.8,1.6,27.4s-1,15.2-1,22.8,1.2,3.3,1,4.8-5.4-.1-5.4,4.4,3,3,3.1,4.4c.2,2.6-6.3,6.9-4.3,9.9s2.3.5,2.6,1.7-1.2,4.2-1.3,6,.7,3.5.4,5.3c-.4,2.7-4.3,5.5-4.4,7.8-.2,3.6,5.1,5.3.5,12.4s-2.8,1.4-2.8,2.1c-.6,9.6-2.3,19.7-2.5,29.5s1.7,8.1-.4,12.2c-.3-.4-.7-.5-.9-1.5-.9-4.6-1.2-14.8-2.1-18s-3.8-2.8-2.7-6.7,4.1-2.3,3.9-5.9-1.8,0-2-1.9c-.6-4.1.9-8.8,1-13-.5-.4-.5-1.1,0-1.9,0-2.3-.9-3.4-1-5.8-3,0-2.4-11.6-1.8-14.4,3.7-5.8,5.5-10.1-.5-15.4l-.4-2.7c3.3-3.9,4.4-5.4,4.2-10.8-1.7-7.8-2.9-14.5,2-21.6-4.1-6.2-3.8-10.8,1-13.9-.7-2.9-.4-5.5,1.5-8-2.2-2.4-2.6-4-.5-6.4l-3.2-2.9c.7-10.6.6-21.2-.3-31.6-.3-5.1.1-10.2,4.3-13.6-2.6-2.7-6.3-7.7-1.5-10.1-2.9-3.2-2.6-7.9.9-13.8-2.3-2-4-4.3-1.2-6.7s4.8,1.7,1.5-.6-5.1-3.8-2.3-9c-1.1-3.5-1.1-6.1,2.4-8.2-1.9-2.7-1.8-5.8,0-8.6-3.3-4.5-4.5-9.2-.9-13.8-4.3-3.3-4.3-14.2-.8-18.2-2.7-3.3-2.4-7.1,1.7-8.7-4.3-3.8-6.5-9.1-3.2-14.3l-2.1-15.6c2.2-6.7,2.3-11.9,1.1-18.8l1.9-1.4c-1.9-.8-3-2.6-1-3.8-3.4-1.3-.2-13.4,3.8-10.6l-1-1c-2.5,1.7-3.9.4-1.9-1.9-2.2-1.4-1.6-2.6,1-2.9-2.2-2.7-1.2-11.7,1.9-13.4,3.1-.8.6-3.7,1.4-4.8,1.1-1.5,6.5-1.6,7.3-5.3s-2.7-.1-4.2-.5c-2.7-1-.5-3.8-1.1-4.8s-3.6-.5-2.4-3.3,4.3-.9,6.2-2.4c3.1-2.5,1-8.3,5.3-8.6Z"/>
  <path class="st51" d="M112.5,336.5c2.1,1.2,3.5,3.8,4.2,7.8,6,1.8,8.3,8.4,1.2,10.2l-.4,3.9c7-1.5,4.9,7.8,0,9.9.6,3.6,0,7.6-1.9,11.8,2.4,2.2,2.1,5.3-.8,9.2,1.1,3.1,1.3,5.9-2.2,7.5l1.9,10.7c-1.6,2.3-2.1,4.7-1.5,7.2-3.9,3.3-4.6,6.4-2.2,9.3-1.6,5.7-2.3,11.6-2.1,17.7-2.5,2.2-3.5,5-3,8.2,0,5.5-1.3,9.4-4.3,11.9-.5,4.3-3,25.7-1.3,27.6,6.4,1.6,4,6.5.1,9.4-3.2-.2-6.4.2-9.4-1.1.6-3.3-2.8-7.8-3-9.9-1-10.9,3.3-21.1,3.6-31.6s-1.3-4.7-.8-5.3,5.4,2,5.7-.5-1-1.9-.7-3.6,2.4-4.1,2.5-5.3-2.1-4.1-1.8-7.5,1.6-3.1,1.9-4.8-1.5-5.2-1.4-6.7c.4-3.4,3.1-9.3,3.4-13.5s-1-5.8-.9-7.7,2.7-4.5.9-8.1h4.8c.7-2.3-1.9-4.3-1.7-6.1.7-6.6,4.3-16.3,4.5-23.3s-1.5-7.4-1.7-10.6,1.7-5.1-.1-8.1c-2.5-.3-4,3.3-5.8.5l1-7.2c.6-1.6,4.7-.9,4.8,1l1-1c.7-1.5,1.5-1.6,1.9,0l1-1c.3-.8.6-.8,1,0l1-1c.3-.9.6-.8,1,0Z"/>
  <path class="st135" d="M120.1,330.7c4.5-2.7,4.8-1.6,4,3.2,7,3.9,9.3,11.1,6.7,21.6l1.5,11.7-1.6,2.8c-1.2,2.9-1.6,6.1-1.2,9.7-3.1,7.4-5.5,15.2-7.1,23.2,1.7,5.7,0,8.9-4.9,9.7v3.7c1.6,4.4,1.2,8.9-1.2,13.5.4,8.8.3,17.6-1.9,25.9-6,2.4-5,9.5-3,14.6l-3.6,19.4c2.1,4.6,2.1,7.6,0,9-2.5,0-5.1.1-7.7,0-1.6-3.1,2.9-4.2,1.9-6.2s-3.2-1.1-3.6-1.6-1.1-6.4-1-7c1.1-6.3.6-7.3.8-13.4.1-3.4,1.8-7.3,1-11.1,4.8,1.6,3.2-3.6,3.9-6.2,1.3-5.1.3-7.1.8-9.5s2-.9,2.5-1.6c1.2-1.9.3-8,.6-11s1.9-5.5,1.9-7.9-1.8-1.2-2-2c-1.3-4.6,10-8.2,1-10.4,1-1.6,4.2-1.3,4.7-3s-2.2-10.2-1.9-12.2,2.5-.8,2.9-2.2-.8-3.2-.6-4.6,2.4-3.8,2.7-6-1.9-1.2-2-1.9c-.3-2.5,2.7-8,2.7-10.7s-2.1-2.3-1.7-4.1c5.2,0,4.9-1.9,5.8-6.2-1.2-1.7-4.4,3.3-4.8,0s.7-7.8,1-8.1,4.4,2.4,3.9-2.4-4-2.1-5.3-4.3-1.9-6.4-2.4-8.6c-1-1.5,2.2-3.3,3.8-2.9l1.9-1.9c.2-1.2.9-1.6,1.9-1Z"/>
  <path class="st30" d="M130.7,370.1c4,2.4,9.2,11.6,6.4,16.7-4.1,2-5,4.6-2.9,7.7l-.5,3.1c4,3.7,2.4,5.7-1.7,8.1l-1.8,4.8c2.1,3.1,1,6.2-1,9.1,1.7,4,1,10.2-4.1,10.5.5,3.7-.5,6.4-2.9,8.3,1.3,2,2.2,3.7,1,6.1,1.5.4,1.8,1.8.9,4.2.7.4,1.4,1.1,1.1,1.9-1.8,5.1-3.2,10.5-3,16.2l-1.7,2.7c-3,.8-3.5,2.9-1.5,6.3l-2.5,13.3c1.1,5.3.4,8.5-2.1,9.6-.9.7-1.9.7-2.9,0-1.3,0-2.6,0-3.8,0,.6-3.1-2.1-6.3-1.9-9.1.4-5.3,2.5-14.3,3.6-19.5s-1.9-3.7-1.8-6.5,2.6-11.4,5.8-8.2c-1.9-4.2.5-6.1.9-9.2,1-7.4-1.3-12.5.5-19.6s2.1-2.4,2.3-3.5-2.8-7-1.4-11.4,4.9-1.8,5.3-2.4c.7-1-.9-4.2-.7-6,.5-3.7,3.3-12.2,4.2-16.7s2.7-5.3,3.1-7.7c.7-3.8-2.6-6.4,3-8.9Z"/>
  <path class="st122" d="M96.1,172.3c2,1.4.8,2.9-.4,4.3l.3,31.5c-2.4,41-2.5,81.6-.3,122l-1.5,1.5c.9,1.4.6,1.9-1,1-.6-.9-.6-1.9-1-2.9-.8-50.5-.8-103.1,0-153.6-3.6-2.4,3-8.8,3.8-3.8Z"/>
  <path class="st142" d="M92.3,329.8c-.2-.5-.7-1-1-1.9-.6-.9-.8-2,0-2.9,0-.3,0-.6,0-1-1.8-48.4-.9-98.4,0-146.9-1.3-1.4-.7-1.9,1-1v153.6Z"/>
  <path class="st101" d="M91.3,324c-.2-1.8-.8-3.1-1-5.8-1.9-39.4-.6-83.2,0-122.9-.9-2.1-1.1-4.6-.6-7.4-2.5-2-2.2-10.6,1.5-10.8v146.9Z"/>
  <path class="st119" d="M133.6,321.1c-1.7,5.7-8.3,8.7-13.4,9.6-.6.2-1.3.6-1.9,1l-1.9,1.9c-1.6,1-3,2.3-3.8,2.9s-.7-.1-1,0l-1,1c-.3.1-.7-.1-1,0l-1,1c-.5.1-1.3,0-1.9,0l-1,1c-.6,0-4-.7-4.8-1-3.4-1.1-5.8-2.8-7.7-5.8l1-1,2.1-.4c6.1,5.9,13.3,3.1,19.3-1.6l16.7-11.3,2.3.8c1,.2.7.8-1,1.9Z"/>
  <path class="st72" d="M114.4,498.7c5.7-2.6,11.6-2.6,17.3,0,8-2.6,16.1-2.6,24,0,7.7-2.4,15.3-2.4,23,0,1.2-1.9,2.6-1.9,3.8,0,.8.3.8.6,0,1-.6,0-1.3,0-1.9,0-23,0-46.1.3-69.1,0v-1c1,0,1.9,0,2.9,0Z"/>
  <path class="st101" d="M91.3,327.8c-1.2-.6-1.5-2.6,0-2.9.1.9-.2,2.1,0,2.9Z"/>
  <path class="st150" d="M365.9,373.9c-.7,0-6.8,1.5-7.3,1.8-.9.7-3.8,8.1-4,9.5s-.2,7.9-.2,8.3c.4,2.8,4.6,6.8,4.7,11.7s-2.4,4.2-2.6,5.8,2.2,3.4,2.3,4.6-1.7,10-1.5,13.4,2.9,3.1,3,4.9-2.4,17-3.2,17.6-2.4,0-2.6.2c-.6.6,2.9,6.7,3,9.1.2,5.3-.6,15.7-1.1,21.1s-2.5,3.7-2.9,6.7.2,6.9,1,10.1l-5.8,1c-1.6,0-3.2,0-4.8,0-.9-2.3-.7-5.2.4-8.7,0-34.2,0-68.6-.4-103l1.2-12.7c2.6-.7,5.4-1.2,8.4-1.4,3.8-1,8.6-.7,12.5,0Z"/>
  <path class="st102" d="M346.7,373c22.4-.8,44.8-1,67.2,0,0,.4.1.7,0,.8s-.8.2-1.1.3c-2.1.3-4.3.4-6.5.5-11.8.1-23.7,0-35.5-.6-1.6,0-3.2-.1-4.8,0-4,.3-8.5-.4-12.5,0l-6.3.6c-1.3,2.5-3.8,1.3-3.3-1.6.3-.8,2.2-.7,2.9,0Z"/>
  <path class="st25" d="M418.7,373c.1-1.4,1.7-1.5,1.9,0,3.8,2.5-8.4,5.5-11.5,1.9-6.7.2-13.5,0-20.2,0s-7.7,0-11.5,0-5.7-1-6.7-1c13.2-.5,26.7.7,40,0,1.8,0,2.9-1,3.2-1,1.2-.9,3.5-.7,4.8,0Z"/>
  <path class="st145" d="M444.6,362.4c.8,1.3.7,3-.5,4.9,0,6.6-2.4,11.7-7.1,15.4.3,17.9-.3,36-1.9,54.3,1.9,4.4.7,6.5-3.7,8.2.8,1.7,1.8,7.2,1.3,8.4l-2.5,1.8c5.6,1.7,6.8,5.6,3.7,11.8,1.1,4.5,1.8,9,2.1,13.6-4.1,5.2-4.2,11-.4,17.3l-.7,1.2-9.6.5c-7.6,0-15.4.3-23,0-.7-2.7,1.5-3.7,6.5-2.8-.2-8.9,1-16.2,3-24.7-2.7-4.2-2.9-8-.8-11.4-3.5-5.8-3.3-10.1.6-13,2.6-6,2.8-7.5-.7-12.8,3.8-9.5,4.9-16.3,2-26.2,2-6.4,2.9-13.2,2.8-20.4,0-6.9,2.3-12.1,6.7-15.4.7-.5,1.7-.8,2.9-1-.1-.6-.2-1.1,0-1.2,4.5-2.6,13.2-6.5,18.2-8.8s.6.1,1,.4Z"/>
  <path class="st52" d="M465.7,330.7c2.6,7.5.9,14.8-3.4,21.1s-2.8,1.7-3.4,2.6c-1.8,3-2.9,7.1-5.7,11.3s-2.9,2.5-2.9,2.9,2.4,1.7,2.7,3-1.8,4.3-1.8,6.6,1.7,3.7,1.8,4.9-2.2,10.6-2.4,12.5c-1.1,9.4-.6,12,.6,21,1.3,9.8-1.9,8.6-2.7,13.6s1.6,3.5,1.7,5.5-1.7,7-1.6,9.7,1.5,6.9,1.7,10.5c.6,13.9-3.1,29.1,3.9,41.7l-18.2,1.9c-3.5,0-7,0-10.6,0l8.6-1c-1.4-4.1-3.9-7.4-3.4-12s2.9-3.3,3.4-5.7c1-4.9-2.2-9.7-2-14.4s2.4-5.3,2-6.6c-.5-1.9-11.9-3.7-1.9-7.8l-2.9-1.4,1.9-3.4c-6.1-3,2.8-5,3-5.9.3-1.5-.9-3.3-1-4.8-.4-12.2,1.8-22.2,2.3-34.4s-1.4-8.5.2-16.5c.2-1-.8-2.4-.5-3.5.4-1.8,4-3.6,5-5.6,2.3-4.3.5-10.2,4.4-14.3.2-.9.5-.8,1,0,2.1-.6,3.7-2.2,4.8-4.8-.5-.9,0-1.5,1-1.9-.4-.5.3-.8,1-1,.3-.8.6-.8,1,0,2.7-.9,3.2-2.1,3.8-4.8-.9-.8,0-2.2,1-2.9,2.6-4.7,4.7-9.7,6.3-14.8l1.3-.5v-1Z"/>
  <path class="st68" d="M422.5,372c.8.3.8.6,0,1-5.8,9.7-4.9,20.4-5.8,31.1s-1.8,3.2-1.8,4.8c0,3.4,2.4,7.6,1.8,13.5s-3.8,11-3.9,12.5,2.3,2.5,2.7,4-1.3,7.8-2.3,9.8-2.8,2.3-3.1,3.6c-.4,2.1,2.9,5.8,2.8,8.5s-1.9,3.4-1.8,4.6,2.5,3.6,2.7,6c.4,5.7-2.5,9.4-2.9,13.4s1.9,13.1-1.6,13.9-5.4-1.1-7,.9c-1.7,0-9.4.4-9.7-1.6.7-3.6,1.6-7.8,1.8-11.4s-.9-7.7-.4-10.6,4.4-4.1,4.4-4.8-3.5-2.3-3.9-5.7c-.7-5.4,2.4-9.7,2.6-12.5s-2-3-1.6-5.7,2.9-2.7,3-5.8-1.9-4.9-1.8-6.6,2.5-4.3,2.6-7c.2-5.2-5.6-12.6-2.5-17.4s2.3-.5,2.7-2.7-1.1-4.6-1-6.7c.1-3.8,2.9-13.8,2.7-16.2s-4.1-5,.1-6.1,8.4,1.2,7.7-4.2c4.2-.2,8.3-.8,12.5-1,0-.5-1-.8-1-.9-1.5-1.6,1.2-2.4,1.9-1Z"/>
  <path class="st9" d="M391.8,2.4c8.5,1.1,7.4,4.4,11.7,9.9s3.7,2.6,3.7,3-2.1,1.5-1.9,3.8,2.5,3.2,2.7,5.1c1.3,8.3,1.5,17.1,2.3,25.5.7,7.1,7.4,11.5,7,16.5s-1.6,1.9-1.5,3.7,3.4,9.3,3.7,11.8-2.6,4.5-1.7,7c2.7-.2,5.2,0,7.3,1.9l3.3,6.8c-.8,1.6-4.9.4-5.8-1-6.7.6-13.5.6-20.2,0-.4-1-.3-1.9.7-2.3-2.6-4-3.6-8.1-3-12.4-4.6-3.4-6.2-7.2-4.6-11.4l-2.6-5.8-2.5-23.5c-3.9-1.9-5.7-6.1-5.4-12.5-4.4-7.5-7.4-15.3-9-23.3-4,.9-6.4.3-7.1-1.9-.8-.3-.8-.6,0-1,7.1,0,16.4-.8,23,0Z"/>
  <path class="st169" d="M414.9,2.4c3.3.3,5.2,1.9,7.2,2s8.7-1,12-1.1l1,10.6c6.4-1.6,2.6-.5,3.4,1.9s3.7,4.8,4.3,4.8c1.7,3.5-.4,4.8-.9,7.3s-.5,7.6-1,8.1-5.2-2.6-4.8,1.9l3.8-1c.7,1.4-1.2,6.5-1,6.7s2.6-.3,2.9,0c.8.8-2.6,6,1.3,9.3s2.9.5,3.5,1.8c.9,1.8-3.2,1.5-3.8,4.8-1.1,5.6,2.3,13.6,5.1,18.4s2.1.7,2.5,1.9c.6,1.7-.9,12.4.5,17.7s5.6,7.4,7.1,10.2.1,4.8.2,7c-3.9-.3-4.3-5.8-6.5-7.7s-7.5-2.1-8.5-3.8.8-3.4.2-5.8-5.7-8.3-7-12.3-3.1-15.2-3.1-16.1c0-1.3,1.6-2,1.4-3.4s-5.8-9-6.2-12.2,1.8-3.1,1.8-4.6-3.1-5.6-3.6-7.9-1.9-9.3-2-10.5,2.1-2.4,1.6-4.4c-.9-3.9-6.1-6.8-7-8.4s-.4-5.8-2-7.6-3.2-1-4.4-2.4c-2.7-3.2-.6-5.7-8.6-4.4-.2-1.7,2.2-.9,3.3-1,2.2,0,5.1-.2,7.2,0Z"/>
  <path class="st153" d="M428.3,97.4c5.9,1.5,14.4,6.8,19.2,10.6,1.3,1.3.7,1.8-1,1l-2.5.6c-7.5-5-16-8.5-24.9-10l-1.4-2.1,4.8-1c.6,0,4.9.7,5.8,1Z"/>
  <path class="st132" d="M456.1,116.6c.8,1.1,1.2,1.8,1.9,2.9,3.7,5.7,6.4,11.5,7.7,18.2-.1,1.2-.4,2.2-1,2.9-2.7-3-4.6-6.9-5.7-11.8-2.7-4.1-4.3-8.2-4.8-12.2.3-.4.9-.4,1.9,0Z"/>
  <path class="st143" d="M456.1,116.6l-.5.9-1.4-.9c-3.5,0-7.6-4.2-7.7-7.7l1-1c3.2,2.6,6.1,5.3,8.6,8.6Z"/>
  <path class="st79" d="M121.1,2.4c3.7,1.8.3,4.4-2.9,4,1.6,5.9,1,9.3-1.6,14.7,1.1,8.6,0,16.3-3,23.1,3.1,6.8,3.1,12.4-.1,16.7,3,0,2.9,3.4,0,3.8-.5,2.5-2.9,3.9-7.1,4.2-2.7,9.8-7.1,5.5-8.1-2.1-7.1,2.8-9.1,1.8-5.9-3.1-.5-2.9-2.3-5.8-2.4-7.6s2.2-6.1,2-9.3-1.4-2.7-1.5-4.3c-.2-5,4.2-7,4.8-10.1.9-4.4-2.3-9.3,1-10.7l2.9-17.6c.8-.8,7.6,1.9,6.7-1.9,5.1-.2,10.3,0,15.4,0Z"/>
  <path class="st84" d="M145.1,2.4c.8,2.1-.6,4.4-4.3,6.9.2,8.7.1,17.1-2.3,25.6l-2,1.1c-1,3.7-2.5,6.8-4.6,9.2,1.1,3.3,1.8,7.3-2.9,6.9,4.9,3.9,2,8.2-3.5,5.3,0,4.3-1.1,6.4-3.4,6.4-2.1.5-7.6-.7-8.6-2.9-.7-4.6.4-3.3.7-6.6s-2.6-7.1-2.5-10.2,2.4-3.6,2.8-5.8c.8-5-.6-13.6.4-18.7s2.4-3.8,2.5-6.2-2.1-6.3-.6-8.2,5.1.6,4.4-2.8c8-.1,16,0,24,0Z"/>
  <path class="st127" d="M170.1,2.4c2,1.8,1.7,2.5-1,1.9l-1.2,1.8c-9.6-.2-11.6,16.2-8.5,23.1-2.8,1.9-3.2,3.9-3.7,7.3l-5.9,11c2,8.8.4,14.5-3.8,22.4,2.7,3.4,2.5,6.5-1.3,8.9,1,3.9,2.1,9.1-3,9.9l3.3,9.5c1.6,4.2-1.3,12.2-5.6,8.8-2.3-2.7-3.3-6.2-2.8-10.6.2-19.6,0-39.2-1.5-58.3l1.3-2.1c.1-3.4,2.2-10.2,2.6-14.1l-.5-13.1,6.6-6.4c8.3,0,16.7,0,25,0Z"/>
  <path class="st175" d="M258.4,2.4c3.9,1.2,1.3,4.5-.6,6.8,2.8,2.7,3.3,6.4,1.5,11l1.1,9.8-2,1.2c1.4,2.5.7,5.3-2.2,8.4.2,2.5-.3,4.2-1.6,5.1-.2,2.2-3.9,1.1-5.7.2-6.3,2-11.1.9-14.4-3.1-2.7,0-3.3-2.3-1.9-6.8l1.9-7c-3.1-3.5-2.5-22.4.8-24.4,2.8.2,4.8-.2,5.9-1.2,5.7,0,11.5,0,17.3,0Z"/>
  <path class="st170" d="M241.1,2.4c.7,3.5-3.1,1.1-4.9,2.3s-1.3,3.2-1.4,4.3c-.3,3.2-.6,12-.3,15s1.7,2.4,1.7,3.8c.2,2.7-3.9,9.9-1.9,13.9.2,1.8-.5,3.7-1.9,4.8,0,6.4-.3,13.9-8.5,8.9-2.2,1.4-6.1,3.4-6.9-.2-1.6,1-4.8-1.6-3.8-3.8-2.7-.7-1.2-4.9,1.6-5l.4-2c-4.9-.9-4.5-4.7-1.1-7.5,1.3-6.1,2-12.3,2-18.7,1.5-9.3,4.9-14.7,14.5-15.7,3.5,0,7,0,10.6,0Z"/>
  <path class="st41" d="M264.1,2.4c9.6,0,19.2,0,28.8,0,2,1.7,1.5,2.4-1,1.9l-1.2,1.7c-6.9,0-8.2,10-7.9,15.3,2.8,5.1-.2,8.7-5.3,10.4.6,2.9,1.3,8.2-2.8,6.2-2.7-2-7.1-3-11-1-3.9.6-5.7-2.2-5.4-5.7.5-4.2-.8-7.4-1-11s1.4-4.2,1-6.7-2.9-2.9-2.9-4.9,4-2.7,2.9-6.2c1.9,0,3.8,0,5.8,0Z"/>
  <path class="st89" d="M230.5,2.4c-1.3,2.9-4.4,1.2-6.8,3.3s-4.7,7.4-5,8.4c-1.7,5.5-.4,16-2.8,23.2s-4.4,3.2-1.7,5,2.9-1.1,3.8.9c-1.5.8-1.1,4-1.4,4.4-1.2,1.4-4.4-.2-3.4,3.8.8,3.3-4.5,4.2-5.1.4,2.3-5.5.2-10.1-3.9-3l-2.5.7c-4.1-3.4-4.8-8.6-1.8-15.5v-5.6c-.1,0-1.7-1.9-1.7-1.9.1-4.7.9-16.9,3.5-20.3s3.3-3,5.8-3.7c7.7,0,15.4,0,23,0Z"/>
  <path class="st65" d="M193.1,2.4c4.2,1.8-.4,4.2-3.4,4.5-2,1.3-3.9,21.6-2.5,25.9.8,4.6-3,9.9-6.6,11.9-.5,4.9-4.9,2.1-6.4-1.4-3.5-.5-6.2-2.9-8-7.2l-1.4-1.8c-.2-9.7.5-19.3,2-28.8l2.3-1.1c.1-.4,1-1.2,1-1.9,7.7,0,15.4,0,23,0Z"/>
  <path class="st93" d="M207.5,2.4c-1.4,2.7-4.9,4.2-5.6,7.4-1.2,5.4-.9,13.2-2.1,18.5,2,3.8-1.1,6.7-4.4,8.5,1.4,3.1-.3,5-5,5.6-4.5,4-7.7,5.1-9.8,3.2-.9,0-.8-.4,0-1,.6-4,4.3-6.9,4.6-8.3.5-2.7-.8-11.2-.8-14.3s1.5-4.4,1.9-6.8c.6-3.5-1.2-7.8,2.4-10.1s4.9.1,4.4-2.8c4.8,0,9.6,0,14.4,0Z"/>
  <path class="st151" d="M321.7,2.4c5.7-.2,9.1,1.2,10.2,4.2.7,7.8,1.8,16.4,7.7,21.8-.1,9.1,2.5,17.8,7.9,26.1-.9,10.8,1.3,20.3,6.7,28.6l1.7,9.3c8.9.6,3.9,4.2-2.3,4-7.3.8-15.7.8-23,0-1-3,1-3.1,3.5-3-1.9-1-3.9-2-6.1-3.2,0-5.4-.5-10.5-1.3-15.5-4.3-.5-8.4-4.5-3.8-7.1-1.4-2.3-.1-3.6,3.8-3.7-4.5-6.4-5.2-8.9-5.7-16.9,1.6-11.9.4-23.2-3.3-34-6-3.6-3.1-10.4,3.4-10.7.3,0,.6,0,1,0Z"/>
  <path class="st82" d="M343.8,2.4l1.9,1c2.5.3,3.2,2.2,2.3,5.5,3.6,5.9,4.7,11.6,3.3,17.2,4.5,1.2,6,3.6,4.2,8,2,5.1,2.4,10.8,1.1,17.1,0,3.7,1,7.1,3.3,10.4,5.3.9,6.2,6.7.3,6.9,1,3.2,2.2,6,3.7,8.5-1.5,7,.1,11.5,4.9,13.7l.9,2.2c6-1.4,9.2-.5,9.6,2.6-3.1.3-6.3.6-9.6,1-5,.8-11.3.8-16.3,0l6.7-1.9h-5.7c-.8-.9-1.7-9.4-2.2-10.8s-3.9-5.5-4.9-8.6c-2.5-7.5-.6-13.7-1.8-20.2-.5-3-6.3-11.5-7.3-14.8s.3-9.1-.6-11.4-2.4-1.5-3.5-3.7-2.9-9.2-3.5-11.8,0-6-1.2-8.2-6-.7-7.7-2.6c7.3,0,14.7,0,22.1,0Z"/>
  <path class="st58" d="M320.8,2.4c-2.4.3-5.1,5.3-4.9,7.1s2.2,1.1,3.2,2.7,3.3,10.3,3.6,11.8c.9,5.1-.1,17.3,0,23,0,2,.6,7.6,1,9.3s4.4,4.4,4.6,7.1c.3,3.9-4.7,1.3-5.6,4.1-3.1.3-8.7-4.3-8.6-7.8-3.2-2-4.6-4.1-1.9-7.2-2.4-2.8-3.7-5.2-1.7-8.7-6.6-.2-6-2.6-4.3-8l-4.5-9c-2.7-.8-4.6-2.9-5.8-6.4l-1.4-1.8c2.6-5.6,1.7-8.3-2.6-8.2-2.4-1.6-3.1-5.7.1-6.3,0-.5.8-1.3,1-1.9,9.3,0,18.6,0,27.8,0Z"/>
  <path class="st12" d="M368.8,2.4v1c.2,3.1,1.5,6.4,3.8,9.7l-1,5.3c2.8,1.2,4.1,3.8,4,7.6,2.4,3.1,2.7,7.4,1,13.1,2.7,3.9,2.4,7.2-1.4,9.9s3.3-3.5,5.3,7.4c-.1,6.1.2,12.2,1,18.2,5.6-1,5.5,3.4,4.2,7.6,2.5,2.3,4.2,6.9.5,8.5-1.7,4.6-12.4,1.1-12.4-4.3,1.1-2.9.3-5.4-2.3-7.4-2.2-11.4-4-22.9-5.3-34.4-4.7-1.2-4.2-4.4-3.6-8.3-3.4-4.8-4.2-7.6-3.8-13.2-3.2-5.5-5.6-11.1-7-16.8-3.1-.1-5-1.1-5.8-2.9-.8-.1-1.7,0-1.9-1,8.3,0,16.7-.1,25,0Z"/>
  <path class="st49" d="M312.1,373.9c2.7-.8,5.9-.7,8.6,0-.5,2.4-3.7,3.8-9.5,4.1l-1,2.5c-.5,14.4-.7,28.9-.6,43.4l-2.2,8c2.4,4.4,2.2,7.4,0,11.8,2.5,9,1.6,16-2.9,20.9,2.5,6.2,6.2,17.5,1.5,22.4,2.6,2.7,3.3,11.4-.5,12.6-1.3,0-2.6,0-3.8,0-5.2-.4-10.3-.7-15.4-1-4.2-4.3-5.6-13.9-1.2-18.5-6.2-.9-2.9-5.3,0-8.3-2-2.9-2.2-4.9-.4-8-2.9-3.6-1.1-5.6,2.1-7.7-2.5-3.2-4.5-6.8.4-8.7-1.3-7-.8-13.9.6-21-2.5-3.6-2.5-6.7,0-9.2-1.6-4.3-1.9-6.1,1.3-9.6-1.8-5.8-1.3-10.5,1.5-14.3-1.1-2.7,0-5.4,3.7-8.3-1.6-8.8,1.6-12.4,9.6-10.6l2.4-.5c1.6-.9,4.2-.7,5.8,0Z"/>
  <path class="st45" d="M343.8,373c2.3,2,6.6.5,9.6,1-1.4.1-4.3,1.9-6.7,1,.6,5-.9,9.9-1,14.9-.7,32.6,1.6,65.2.7,97.7s-.6,8.9-2.6,12.2c-4.5,0-9,0-13.4,0-3.6-.4-3.6-3.3-3.4-6.6,2.3-6.3,1.6-10.8-.3-17l3.9-55.2c-1.8-7.9-1.7-15.3.4-22.3-5-5.7-2.5-16.2,1.4-22.3-3.7-.1-6.9-1-9.6-2.5-1,1-1.4,1.4-1.9,0-2.9,0-5.8-.1-8.6,0-.8-.3-.8-.6,0-1,10.6-.7,21.1-.7,31.7,0Z"/>
  <path class="st7" d="M322.7,373.9l1.1,1.9c-2.4,6-2.6,12.9-.6,20.7,1.5,9,.5,17-3.1,24.1l1.8,2.9c.4,8.6-.6,16.9-3,25l1.4,4.3c-1.7,4.4-1.3,6.9,1.6,10.7-.3,4.3-.8,8.5-1.6,12.7,1.7,5.6.7,8.6-2.9,9.1,1.6,5.7,2,9-1.1,14l-9,.5h-1.9c.4-1.9,1-9.5,0-10.5s-9.2,1.1,1-4.5c-.2-6.9-1.2-13.8-3.7-20.2,7.1-7.5,2.2-14.1,2.7-20.9s2-3.4,2-5.8-1.8-3.8-1.9-5.7,2.2-6.8,2.4-9.8c.6-7.5-1.1-11.8,0-20.2s-1.2-11.7-.4-17.8c1.5-10.6,3-8.3,11.6-9.5s1.4-.9,1.5-.9c.6,0,1.3,0,1.9,0Z"/>
  <path class="st21" d="M322.7,373.9c6.6-.4,13.5.3,20.2,0-.9,2.3-5.9,0-7.5,1.1s-4.8,9.3-4.9,10,0,9.8.1,10.3c.8,2.7,4.3,1.8,3.7,4-6.8,3.4-1.2,15.1-1.8,22.1-1.5,17.5-2.8,37.1-3.9,54.7s2.2,5.6,1.9,9.7-3.6,7.9,0,13.9c-7.7,0-15.4,0-23,0l7.7-1c-2-4.1.5-2.4,1.4-3.8,1.8-2.6-2.5-10-.5-12.5s2.9,2,3.8-.6c-3.6-6.2,1.2-13.5.1-19.1s-2.4-.2-2.9-.5.8-2.2.7-3.2c-.7-5.4.3-2.7.9-6.3s-1.5-2.2-1.5-4.2c0-3.1,2.8-7.9,2.8-9.8,0-4.1-1.5-1.2,0-7.7,2-9-1.5-8.2-1.7-10.5s2.1-3.1,2.6-4.9c1.9-7.4.5-24.4-.8-31.6s.7-6.6,2.8-10Z"/>
  <path class="st29" d="M259.3,498.7c8.9-1.9,17.9-1.9,26.9,0,4.9,0,11.1-.8,15.4,1-10.5,0-21.1,0-31.7,0h-26.9c-.8-.3-.8-.6,0-1,5.4-1.9,10.9-1.9,16.3,0Z"/>
  <path class="st46" d="M188.3,498.7c7-1.9,14.1-1.9,21.1,0,8.9-1.9,17.9-1.9,26.9,0,.3-2.9,6.1-2.8,6.7,0v1c-20.1,0-40.3,0-60.5,0v-1c1.9-1.9,3.9-1.9,5.8,0Z"/>
  <path class="st140" d="M25.1,463.2l-1-1c.1.2.6.5,1,1Z"/>
  <path class="st140" d="M28.9,468c-1.7-.9-2.8-2.2-3.8-3.8,1.9.7,2.7,2.4,3.8,3.8Z"/>
  <path class="st124" d="M505.1,106.1c-3.2-6.1-1.5-3.5-1.9-10.6,8.6-.6,3,6,1.9,10.6Z"/>
  <path class="st124" d="M506.1,109l3.8-2.9,1.9,4.8h-3.8c0-.2-1.3-.8-1.9-1.9Z"/>
  <path class="st124" d="M489.7,57.1h-1.9s0-2.9,0-2.9c1.4.3,2.2,1.6,1.9,2.9Z"/>
  <path class="st124" d="M495.5,80.2c1,1-.9,3-1.9,1.9s.9-3,1.9-1.9Z"/>
  <path class="st108" d="M485.9,52.3c1,1-.9,3-1.9,1.9s.9-3,1.9-1.9Z"/>
  <path class="st42" d="M507,113.8c-.3.7-1.6-.6-.9-1.9s1.6.6.9,1.9Z"/>
  <path class="st124" d="M489.3,63.8c.6.3.6.6,0,1v-1Z"/>
  <path class="st124" d="M491.2,74.4c.6.3.6.6,0,1v-1Z"/>
  <path class="st42" d="M501.3,86.9l-1-1c0,.2.7.2,1,1Z"/>
  <path class="st124" d="M503.2,94.6c0,0-.8-.4-1-1l1,1Z"/>
  <path class="st124" d="M502.2,92.6c-.5-.1-.9-.5-1-1,.4.2.8.5,1,1Z"/>
  <path class="st152" d="M502.2,446.9h-.9c-.3-2-1.6-2.5.5-3.8l.5,3.8Z"/>
  <path class="st180" d="M466.7,150.2c2,57.4-1.5,115.8,0,173.3,0,2.4-.6,4.8-1,7.2s0,.7,0,1l-1.2-.2c1.1-63.7,1.2-127.3.3-190.9,0-1.1-.3-2.4,1-2.9.9,4.8.8,7.8,1,12.5Z"/>
  <path class="st131" d="M464.8,75.4c-.3.7-1.6-.6-.9-1.9s1.6.6.9,1.9Z"/>
  <path class="st160" d="M64.5,107c3.3.3,5.7.3,4.8,4.2s-3.1.8-1.9,3.5c6.1-1.3,4.9-3.5,3.8-8.6,5.4.6,6.4.2,5.8,5.8-.5,4.3-.8,9.5-1.9,13.4-1.6,1-1.9,1.9-1,2.9.4.3.7,1.7,1.9,1.9.5-.5.8-.2,1,1-.2.4-1.7.9-2.1,2.3s-1.7,7.1-1.8,8.3c-.9,1.2-.6,2.5,1,3.8,0,4.1,1,9,1,12s-2.1,4.4-2.1,7.7,2.2,12.1,2.1,16.4-1.9,3.3-1.9,4.7,2.4,6.1,2.8,6.6c.9,1,3.6.9,3.9,2.1.6,2.3-4.1,2.1-4.7,3.9-1.4,4,2.4,3.8,2.8,4.2,1.4,1.8-1.9,2.1-2.8,3.4-1.6,2.3-.9,10.5,0,13.2s2.6,1.2,2.9,2.2-2.9,3.3-2.8,6.6,3.5,7.3,3.5,7.8-1.9,2.1-1.8,4.8,2,3.4,2.1,4.8-3.2.9-3.7,3.1.9,2.9.7,4.4-3.1,3.8-.3,6.5,5.4-1.5,4.3,4.7c-9.4-1.7-2.3,2.9-2.1,4.5s-3.5,9.4-3.4,10.4c.2,1.8,6.2,4.5,5.4,7.6l-4.8-2.4c-2.1,3.8,4.1,7.4,3.8,9s-2.5,2.3-3.2,3.6c-3,5.3-.5,15.8-.5,21.5s-1,12.8-1,19.1c6.7,3.7,1.7,5.4,1.8,6.9s2.9,1.1,2.9,1.9c0,1.4-2.2,3.3-2.6,5.2s.7,3.5.1,4.8-3.9,2.9-4,4.3,3.3,7.3,3.2,8.7c-.2,2.7-4.6,5.9-3.4,13.4s2.4,8.1.6,15.3-3.2,2.8-3.4,4.1c-.4,2.2,3.6,4.3,3.7,4.9.2.8.8,5.9.7,6.7,0,2.3-3,3.9-3.4,5.8s-.3,12.9-.2,14.7c-3.9,0-6.9,2-9.6-1.9s-3.2-6.9.9-8.2c-6.1-4.4-.5-5.4,0-8.7s-1-5.6-1-8.5c0-4.6,1.6-9.2,0-13.2s-2-.4-1.9-2.1c.2-2.8,3.2-5.6,3-7.7s-2.9-.6-2.7-3.8,3.6-8,4.2-10.9.6-6.8.3-7c-.5-.5-3.3,1.2-2.9-1.5s2.8-2.8,3-4.8-2.2-3.8-2-7.6,3.3-4.4,3.8-5.9-1-4.4-1-6.6c.2-6,2.7-7.9-1.1-14.2-1.1-1.8-3-1-2.7-3,7.9-2.3.4-7,1.4-13.1.4-2.1,3.4-2.1,4.1-5.3s-.8-5-.7-7.4c.9-17.2.3-33.2.3-50.6s-.6-22.3-.4-33.9c0-5.6,0-8.2-.9-13.5-.9-5.7,2.2-8.1,2-11.5s-1.9-1.6-2.8-3c-2.3-3.8.6-4.4.7-6.6s-1.1-7.6-1-10.5,2-10.1,1.9-13.5-2.9-2.7-1.8-5.2c1.3-.9,1.7-1.5,1-1.9-.2-.1-.6-3-1.2-4.1-2.7-4.9-5-4.7,2.1-8.4,2-.5,2-.8,0-1-.9-6.7-1.1-15.2-1-22.1Z"/>
  <path class="st86" d="M60.6,432.5c2,2-1.8,1.8-1.9,1.9-.7-1.3.9-3,1.9-1.9Z"/>
  <path class="st138" d="M64.5,142.6c.1.1,3.3-.4,1.9,1.9s-2.2-.9-2.9,0c.3-.7.7-1.3,1-1.9Z"/>
  <path class="st86" d="M58.7,417.1c.7.3-.6,1.6-1.9.9s.6-1.6,1.9-.9Z"/>
  <path class="st39" d="M92.3,63.8c.2,1.2-.1,2.6,0,3.8,5.8-5,9.5-2.9,8.6,4.8,4.7,1.2,1.7-3,4.2-4.9s6.2-1.3,8.3-2.8c3.1,1.5,2.9,7.7,0,9.3,2.4,3.5,2,6.5-1.3,9,.6,2.6,0,4-2.3,5.3l1.6,11.7c-2.7,15.4-4.1,30.8-4.3,46.1-2.7,1.4-3.1,2.5-1.1,3.2,2.8,5.2.6,10.1-6.7,14.8-.2,1.2,0,2.6.7,4.3-1.8.7-1.5,1,1,1,1.8,2.8-2.5,5.1-4.8,2.9,0,0-.5-1.2-1.9.3s-1.2,2.2-1.9,3.5-.8.6-1,1c-1.9,5.1-.9,12.5-1,18.2-3.9-1.2,0-6-1.1-7.6s-2.6-.6-3.7-1.6c-3.2-2.7,0-7.2,0-10.6.1-5.1-3.4-6,2.8-9.5-10.4-5.3-1.5-6.3-.6-8.4s-.7-4.5-.2-6.7,2.5-2.8,2.6-4.2-1.6-2.3-1.8-3.8c-.7-6.1,2.5-13.2,2.3-20.1s-1.6-8-1.4-11.5,2-5.4,1.8-6.6-4.3-5.8-4.4-8.6,3.2-6.5,3.4-8-.7-4.2-.8-6.1c-.3-5.7,1.6-8.7,1.6-11s-4-4.8,1.3-7.2Z"/>
  <path class="st8" d="M80.3,53.6c.4,0,6.3,0,6.3,1.1s-7.7,4.4-8.1,4.3c-2.7-.5.9-5.3,1.9-5.4Z"/>
  <path class="st160" d="M60.6,444c.7-1.6.5-3.6,2.4-4.8,1.1,1,5.8,5.1,4.3,6.7s-2.7-1.4-3.6-1.7-2.5,0-3.1-.2Z"/>
  <path class="st160" d="M67.3,452.6h-4.8c-1.3-5.9,5-5.9,4.8,0Z"/>
  <path class="st160" d="M71.2,442.1l-1-.5,1-1.4c0,.6,0,1.3,0,1.9Z"/>
  <path class="st138" d="M65.4,129.1c4.3.5.7.6,0,1v-1Z"/>
  <path class="st98" d="M539.7,341.3c1.5,2-1.7,3.4-4.9,1.5-6.1-3.5,4.1-2.7,4.9-1.5Z"/>
  <path class="st98" d="M541.6,243.4c.3.3.6,3.6-1.4,2.9-3.5-1.3-.2-4.5,1.4-2.9Z"/>
  <path class="st98" d="M539.7,197.3c1,.9-2,3.9-2.9,2.9-1.4-1.6,1.2-4.3,2.9-2.9Z"/>
  <path class="st138" d="M75,125.3c-.3,1-.4,2-1,2.9-.4-.3-1.8,0-2.3-1l-6.3-7.6c5.9-.7,4.7,6.1,9.6,5.8Z"/>
  <path class="st138" d="M73.1,141.6c0,.5.9,2.3,1,3.8-3.4,0-3.8-1.9-5.7-4.3l4.8.5Z"/>
  <path class="st160" d="M77,365.3l.5-3.8c2.1,1.5,1.9,3-.5,3.8Z"/>
  <path class="st178" d="M86.5,383.5c.7.3-.6,1.6-1.9.9s.6-1.6,1.9-.9Z"/>
  <path class="st138" d="M76.9,131l-1-1c0,0,.3-1.1.9-1,0,.6.2,1.5,0,1.9Z"/>
  <path class="st135" d="M105.7,339.4c0,0,.3-.8,1-1l-1,1Z"/>
  <path class="st135" d="M110.5,337.4l1-1c-.3.2-.6.8-1,1Z"/>
  <path class="st135" d="M108.6,338.4c.1,0,.5-.7,1-1l-1,1Z"/>
  <path class="st109" d="M148.9,365.3c-1,3-3.4,1.8-1.9-1h1c.8-.4,1.1,0,1,1Z"/>
  <path class="st109" d="M138.4,319.2c6.7-.9,10.3,4.6,7.3,10.6,3.4,2.5,3.7,6,.4,8.6l.4.9c-10.7,7.4-9.5,16,.8,23l-.2,1v1c-.3.9-1,1.3-1.9,1.6,2.6,4,1.3,7.3-3.8,10,4,7.6,3.8,12.1-1.5,18.5,1.2,4.7.5,8.6-2.2,11.6.6,2.1,0,3-1.5,4.6,2.7,4.5.7,8.1-3.8,9.9l-.9,14.9c-.5,4.8-3.2,11.3-7.4,13.3.7-2.4-2.4-2.1-2.8-3.5s.8-2.5.6-3.6-2-2-1.6-3.8,2.2-1.9,2.6-3.3-.3-5.1.3-5.9,5.3,0,6.4-4.6-3.9.3-3.6-2.7,3.2-3.9,3.5-7.2-1.3-2.7-1.1-3.9,1.8-5.4,2-5.7c.7-1.1,4.3-2.5,4.2-3.4s-2.4-1.7-2.7-3.1.7-2.5.5-3.5c-.4-2.9-3-3.1.3-6.9s2.3-1.2,2.9-2.1c2.9-4.7-4.4-10.5-4.9-15.6-.4-4.6-1.4-9.5-1.8-13.9-.6-6.3,3.1-13.8-2.5-18.8s-5.5.1-3.4-7.7c-.9.5-1.9.6-2.9,1,4.7-2.8,9-6.6,13.4-9.6,1.2-1.3,3.5-3.3,4.8-1.9Z"/>
  <path class="st109" d="M116.3,333.6c.3-.2.7-1.2,1.9-1.9l-1.9,1.9Z"/>
  <path class="st80" d="M148,364.3h-1v-1c.8-.4,1.1,0,1,1Z"/>
  <path class="st80" d="M147,364.3c.2,1.2,1.4.7,1.9,1,2.9-.5,7.5,2.6,9.6,4.8,1.4-.3,3.3-.5,3.8,1,.7,1.6-.3,3.1-2.9,4.3,3.1,3.3,5.5,8.1,2.2,12,.6,3.2-1,6.5-4.8,10l-.6,10.5c-.2,6-2.2,9.6-6,10.8-3.2,7.2-3.7,15.8-2.2,23.6.5,4.2-1.8,7.4-6.9,9.5,1,3.5.4,6.9-1.9,10.3,0,10.3-2.3,19.5-6.9,27.4,4.9,1.6,2.9,7.6-.8,9-5.7,0-11.5,0-17.3,0,1.2-3.1-.1-5.9,0-9s2.6-11.7,2.6-14.7-2.2-2.8-1.7-4.6,6.4-1.7,4.8-6.3c-1.7,1.5-4.7.6-2.9-1s2.4.4,2.8,0,1.8-10,2.3-11.7,1.4-1.9,1.6-2.6c1.7-4.8,1.8-4.1,3.9-7.4,2.7-4.3,1.6-16.1,2.8-21.7s4-1.8,4.7-4.3c.9-3.5-5.3-7.6,1.1-7-2.3-4,1.5-4.5,1.9-7.2.6-4-2.3-5.1.9-10.3s2.3-1,2.7-2.2.1-6,0-6.4c-.4-2.2-3.2-4.4-2.6-6.8s5.4-4,5.5-5-5.4-9.1,2-6.3Z"/>
  <path class="st109" d="M130.2,382.6c.6.3.6.6,0,1v-1Z"/>
  <path class="st156" d="M141.3,191.5c3,.7,5.8,2.4,7.7,4.8,10.7,5.8,21.5,12.1,30.7,20.2,9.8,5.1,19.7,10.7,27.8,18.2.9-.5,1.9,0,1.9,1,2.6-1.6,6.3.8,5.8,3.8,1.9,0,4.6,1,4.8,2.9,10.3,5.9,6.8,15-1.6,21.3s-24.3,16.8-36.8,23.8c-14.9,11.9-30.5,22.4-47,31.7-4.6,3-23.3,16.4-26.6,17.1s-11.3-.4-13.7-4.6-.9-3.8-1-5.2c-3.7-48,2.3-101.7.7-150.1l2.2-4c1.6-.9,3.6-1.3,4.8-2.9,2.2-2.6,8.3.5,11.3,2,9.6,5.1,20.7,13.4,29.1,20.1Z"/>
  <path class="st171" d="M181.6,288.5c-2,5.1-9.9,11.5-15.4,11.5-7.2,8.4-17.3,15.7-27.8,19.2-1,.7-3.7,1.2-4.8,1.9l1-1.9c15.7-10.3,31.5-21.1,47-31.7.6.3.6.6,0,1Z"/>
  <path class="st173" d="M172.9,373l5.8,1c4.5-1.4,10-1.6,14.4,0-.9,2.4-3.3,3.4-7.5,3.1,2.2,9.2-.3,18-7.4,26.5,2.1,2.6,4,5.8.2,7.6.1,4.1-1.2,6.3-5.5,6.3.9,12-1.8,23.8-7.7,34.3l-1.1,22.7c-.8,4.6-1.7,10-6.4,11.9,3,7.2,2.3,11.4-2.1,12.5-8,0-16,0-24,0-.6-2.3,2.3-4.2,2-6.2s-3-.6-3-3,2.1-2.4,2.4-3.4c3.5-9.3,3.2-14.3,4.3-23.5.4-3,2.4-5,2.6-6.8s-1-2.9-.6-4.5c.7-2.8,5.7-2.9,6.4-5.2,1.2-3.4-.7-7.5-.6-10.4.1-4.2.9-15.3,3.6-18.3s2.9-.5,3.4-1.3,1.7-6.4,2-7.7c.6-2.8.2-8.2.6-10.8.6-4.1,5.2-6,5.5-7.1s-.8-2.4-.6-3.5,1.3-1.6,1.4-2.3c1.1-5.4-4.6-8.8-4.6-9.3s4.8-3.9,5.7-4.3c3.2,0,7.6.8,10.6,1.9Z"/>
  <path class="st60" d="M196.9,379.7c.3,17.3.5,34.5.4,51.9-1.9.4-2.9-.8-3-3.6-1,2.8-3,4.7-5,6.6.6,7.7-.9,14.3-4.4,19.7,1.6,2.3,1.5,4.5-.2,6.7,4.8,2.8,2.8,7.5-2.5,5.5.1,6.3-1,12.1-3.3,17.6l2.3,7.7c1.2,4.2.3,6.5-2.6,6.9-7.7,0-15.4,0-23,0,5-4.5-.6-8.7.2-12.9s3.4-2.3,4.1-3.5,2.3-8.3,2.4-9.2c.8-5.9,0-15.7,1-21.9s4.8-8.9,5.7-12.7c1.3-5.4,1.6-11.8,2.5-17.5s-1.4-4.2.5-5.5,2.9-.1,3.7-.6.7-3.6,1.2-4.9,1.8-.8,1.9-1.3c.4-2.9-3.3-3.9-2.9-5.6s1.9-1.6,2.3-2.6c2.1-5.4,2.8-4.9,4.8-8.7s2.1-7.8,2.1-8.2c.2-2.8-1.2-6.5-2.5-9,4.1.3,6.8,0,10.6-1,4.6-3.8,5.6,1.6,3.8,5.8Z"/>
  <path class="st103" d="M197.9,433.4v1l1,1c.8.3.8.6,0,1v1l1,1,2.9,1.9c.9-1.1,2.5-.3,2.9,1l1,1c-.2-1.4,1.2-1.1,1.9,0,2.1,3.2-2.5,3.3-4.8,2.4,1.8,5.1-.4,7-4.8,9,1.7,3.6,0,5.5-2.4,8-.9,6.8-1.1,13.7-.8,20.7l-1.6,2.9c2.1,6.8,1.3,11.5-5.8,13.7-1.9,0-3.8,0-5.8,0s-2.6,0-3.8,0c3.1-5.2-1.8-11.3-1.7-14.7s2.1-4.6,2.5-7-.1-13.7,2.5-13.8,2.3,2.9,3.4,1.9c1.6-1.5-2.9-2.8-2.9-3.4,0-1.3,1.7-2.7,1.8-3.9s-1.5-2.8-1.5-3.7,2.9-2.7,3.4-5c.9-4.2.8-11.2,1.4-15.1s2.8-2.6,3.6-4,4.3-9.6,4.8-5.8l.9,7.2c-.5-17.2.8-34.6,0-51.8.3-.8.6-.8,1,0,.6,17.9.6,35.8,0,53.8Z"/>
  <path class="st96" d="M415.8,372c2.5-.7,3.5-.3,2.9,1-1.6,0-3.3-.1-4.8,0-22.4,0-44.8,0-67.2,0-.8-.3-.8-.6,0-1,1.3-.5,2.7-1,4-1.3s2.7-.6,4-.7c19-.5,38.2-.8,57.1.6l4,1.4Z"/>
  <path class="st77" d="M346.7,372v1h-2.9c-10.5,0-21.1,0-31.7,0-7.3.8-14.8.7-22.1,0-2.1.2-4.3.5-6.7,1-.3.6-.6.6-1,0h-1c-.6-.3-.6-.6,0-1-1.1-2.1,0-2.9,2.2-2.9,21.1-.6,42.1,0,63,2Z"/>
  <path class="st16" d="M451.3,355.7c-.3.6-.6,1.3-1,1.9-1.2,2.6-2.8,4.2-4.8,4.8-.3.1-.7-.1-1,0-2.7.9-15.8,7.8-19.2,9.6-1.2.7-2.2.7-2.9,0-.5,0-1-.2-1.4,0-.5.2-.6.5-.5,1h-1.9c-.5-1.2-1.8-.9-2.9-1l1.5-2.4c11.7-1.8,22-6.5,30.8-14.4l2.3.4h1Z"/>
  <path class="st25" d="M425.4,372c-.9.5-1.4,1.4-2.9,1v-1c.8-.2,2,.1,2.9,0Z"/>
  <path class="st174" d="M465.7,331.7c-1.5,6.7-4.4,10.2-7.7,15.4-.3.8-.6.8-1,0l-.5-3,4.7-10.9c2-57.5,2.4-115.1,1.1-172.7,0-6.7,0-13.4,2.4-19.7,0,.4,1.7,1.9,1,3.3v187.8Z"/>
  <path class="st19" d="M457.1,349.9c-.2,2.3-1.3,4.6-3.8,4.8h-1v-1c-1.5-2.5,1.9-7.3,4.8-6.7h1c-.3.5-.2,2.2-1,2.9Z"/>
  <path class="st145" d="M457.1,349.9c.8,3.5-.1,5.8-3.8,4.8l3.8-4.8Z"/>
  <path class="st145" d="M450.4,357.6c-.7,1.4-.9,3.3-2.2,4.5s-2.5.2-2.6.3l4.8-4.8Z"/>
  <path class="st145" d="M452.3,354.7c-.2.4-.8.7-1,1h-1c-1.7-2.2-.5-2.9,1.9-1.9v1Z"/>
  <path class="st4" d="M368.8,3.4c1.4.6,8.2-.2,8.5,0,.8.6,1.1,7.2,1.9,9.2,1.7,4.3,5.9,10.5,7.5,15.5s.2,7.7,2.1,10.2,2.5,0,3,1.2c1.7,3.9,1.1,11,1.8,15.2s.7,5.4,1.1,9.6,2.4,3.7,2.7,6-1.1,3.9-.8,5.4,4.4,2.8,5.4,5.5-.6,3.3-.3,5,3.4,8,3.8,8.2c1.2.7,4.1-.1,5.6.2l-8.6,1.9c-5.1.5-11.1.9-16.3,0-4.9.8-11.3.7-16.3,0,2.2-1.8,6.6-.9,9.6-1l4.7-1.6c-.2-1.8,0-2.9,2-3.2,0-1.6.4-3.8-.1-5.2s-2.3-1.3-2.6-1.7,1.9-6.6.8-7.6-2.8.5-3.7-.1c-3.4-2.2,0-24.9-3.7-25.8s-4.3,1.3-3.2-3.2,2.8-.8,3-3-1.9-3.4-2.1-5.7,2.1-7.2,1.8-8.5-1.9-1.8-2.5-3.2-.2-3.8-1.1-5.3-2.5-1-2.9-2.2c-.6-1.9,1.1-3.9.9-5.6s-7.4-10.1-1.9-10.1Z"/>
  <path class="st28" d="M402.4,96.5h20.2c-.5,0-3.2,1.9-4.8,1l-2.7,1.7-26.3.2-2.7-1.9c-.8-.3-.8-.6,0-1h16.3Z"/>
  <path class="st156" d="M234.4,97.4c32-.9,64-.8,96,0,18.5-.8,37.2-.9,55.7,0,10,.1,22-.9,31.7,0s21.5,6,28.8,11.5,5.4,4.8,7.7,7.7c5.4,7,8.7,15.4,10.6,24-2.1,64.1,2.9,128.9-1.6,192.8-1.6,4.6-3.6,9.5-6,13.6s-3.5,5.2-4.8,6.7-1.3,1.4-1.9,1.9c-4.5,4.5-13,9.9-19,12.2s-10.5,2.6-15.6,4.1c-22.7-.8-46.3,0-69.1,0-21,0-42,0-63,0-1.1-.3-1.8.8-2.3,1l-3.8,3.8c-4,5.3-9,11.5-14.4,15.4,1.3,2.4.5,3.2-1.9,1.9,1.4,2.4-.4,4.3-2.9,2.9l-1,1c-.3,1.2-1.5,2.4-3.8,3.8-3.9,5.4-8.4,10.2-13.4,14.4,0,1.7-1.2,3-2.9,2.9l-1,1c-4,5.8-14.7,18.4-21.4,20.9-6.7,2.4-16-1.8-16-9.3-1-18.5-1-37.1,0-55.7-.8-1.5-1.7-2.5-2.8-3.1-12.6,1.3-24.5.1-35.6-3.7-13.8-3.1-33.3-20.5-12.5-29.8,0-1.4,1.5-2.6,2.9-1.9,1.1-1.1,2.4-2.1,3.8-2.9,10.6-8.2,21.9-16.2,33.6-23,0-1,1.1-1.5,1.9-1,8.5-7.4,18-13.8,27.8-19.2,1-2,4.6-4.5,6.7-4.8l1-1c.2-.9.6-.8,1,0l1.9-1.9c-.2-1.2,1-1.6,1.9-1l1-1c.3-.8.6-.8,1,0,.5-.9,1.2-1.6,1.9-1.9,3.6-3.9,7.4-7.7,11.5-11.5-.8-.3-.8-.6,0-1l1-1c-.8-.3-.8-.6,0-1l1-1c-.8-.2-.8-.6,0-1l1-1.9-.6-1.3c3-11.1-1.1-20.5-7.1-29.4-2.4.9-4.4-.5-2.9-2.7l-1-1.2c-12.6-7.3-25.6-16.2-37.4-25-1,.6-1.9.1-1.9-1-6.5-3.1-12.8-7.9-18.2-12.5-1.5.4-4.3-1.4-4.8-2.9l-1-1c-.5.3-.9.5-1.2.4-6.7-4.1-32.3-19.9-35.1-25.2s0-34.5,7.5-40.4c-.2-.8.2-1.5,1-1.9,10.1-14.9,26.8-21.3,44.2-20.2,14.6-1.2,29.6-.8,44.2,0Z"/>
  <path class="st135" d="M122.1,63.8c6.1-.2,2.9,9.1,1.2,13.1.2,9.8.3,19.6.4,29.4l-1.4,5.3c2,9.3,2.1,17.7-.3,26.9,2.1,7.9.6,12.7-4.3,14.2,6.2,2.3,7.9,11.6-.4,8.6-1.5,2.2-3.7,3.8-6.8,4.8,1.8,1.2,3.1,2.1,1.9,4.3-1.4,1.1-7.6-1.2-6.7-2.9,1.5-.9-3.2-.8-4.8,0,1.2,1.2.6,1.5-1,1-1.1-1.2-2.8-.3-3-2.4-.4-6.4,8.8-5.7,8.6-13.7s-2.8-1.3-2.8-3.6c0-3.6,2.8-2.9,3-4,.4-1.8-.9-4.1-.8-6.3.5-7.5,1.8-10,1.7-18.5-.2-9.3.9-10.7,2.6-18.4s-2.4-12.8-1.1-14.8,1.9-.7,2.2-1.1-.6-2-.1-3.4,4-3.4,3-4.9-1.8.7-1.8-2.5,1.8-2.2,2-3.1c.4-1.8,0-4.9,0-7s.4-1.3,0-3.8c3.2-.5,6.6.3,8.6,2.9Z"/>
  <path class="st95" d="M139.3,107l2,1c-.5,6.2-1.1,12.3-2,18.2l.7.9c-2.5,7.7-3.5,15.9-3.6,24.1s.9,8.2,2.9,12.5l1,1c.5-1.4,1.9-.5,1.9,1-.2,1.2-.9,2.5-1.9,3.9,2,8.7-1,11.1-8.6,13.4-.3.8-.6.8-1,0l-1-1c-5.8-2.5-13.4-6.7-17.3-11.5-1.3-1-2.1-3.1-4.8-2.9,1.5-4.5,4.5-3.9,6.7-5.3s1.6-3.2,2.5-3.4,4.1,3.4,4.3.5c.2-4.9-7.7-4-5.7-9.1,8.5,2.6,4.6-6.9,4.7-11.1,0-2.9,1.7-8.6,1.9-11.5.6-6.5-1.6-11.9-1.6-16.1s1.5-4.5,1.7-6.9c.6-8.2-1.4-18.2-1-25.9.2-5,5.2-9.5,1-14.9,1.2-1.5,1.1-8.1,1.9-8.6,1.2-.8,5.9,3.3,5.7.5s-4.1-2.9-3.8-4.8,4.4,0,4.8-.5c.8-.8-1.7-6.8-.9-7.6s2.2.3,2.7-.2.3-6,4-6.6c-.2,6.8,1.7,14.5,2,21.6.6,15.9-1.1,33.9.9,49.5Z"/>
  <path class="st36" d="M169.1,4.3c-2.3,8-2.5,11.2-2,18.8s.8,8.3-.9,12.9c1.8,1.9.8,3.8-1.1,5.1,1.5,11,.8,22.4-2.3,34l1.4,23.2c1.1.2,1.8.9,2,2.1-7.2,4.5-14.5,9.4-20.2,16.3-.3,1.4-1,2.3-1.9,2.9-.9,2.3-2.7,5.7-4.8,6.7-.2-3.2-1-5.9-1-9.1s1.5-6.5,1-10.1c9-3.4.8-13.3,0-20.2,1.4-.9,5.6,2.7,3.9-6.2-.2-1.3-2.7.2-2.9-1,1.4-1.5,5.2-3,5.7-5s-1.7-3-1.8-4.6c-.1-2.7,3.9-8.8,4.5-10.7,1-3.3-1.2-9.5-.7-12.3s5-9,6-11.3.4-4.2,1.2-5.5,2.3-.7,2.4-1.5c.3-1.8-1.8-3.1-1.9-4.7-.3-5.1,2.7-11.3,3.7-16.3,3.2-2.4,5.3-4.2,9.6-3.4Z"/>
  <path class="st129" d="M274.7,37.9c3.7,1.2,4.2,10.8,3,14.3-1.9.6-1,2.4,0,3.6,6.1,4.3,8.2,8,5.6,15.2l1.7,16.5c4.1,1.4,8.4,3.1,9,7.9-1.2.3-2.4.6-3.8,1-13.7.7-27.5.7-41.3,0l1.2-2.3c3.8-.9,7.7-.8,11.6-.6-3.5-1-4.5-3.7-4.8-7.1,1-6.4-.5-10.6-4.5-12.6l.4-4.8c-4-4.6-4.3-10-1-16.2-2.8-3.7-3.9-8.5,2.2-7.1l.8-1.2c-2.2-8,3.1-7.6,3.8-13.4,5.4,6.7,3.1,3.4,8.1,2.8s7,.3,7.3.6c1.3,1.1.7,2.2.9,3.4Z"/>
  <path class="st107" d="M234.4,41.8c4.1-2.4,2.8,1.5,4.5,1.9,3.3.8,7.6-.9,10.2-.7s3.4,2.1,5.4,1.6c.1.4,1.9,1.9,1,2.9s-2-.8-2.6-.7c-4.4.1.5,3.8.6,6s-2.5,6.6-2.5,8.8c-.2,4.3,6.1,5.4,2.6,11.8,2.5,1.9,1.7-5.5,3.8-2.9s-.9,2.2-.7,3.2,1.4,2.5,1.6,4c.5,4.2-.6,8.8,1.5,12.9l11,4.8c-7.1.6-15.3-1.2-22.1,1-4.8.7-9.6.7-14.4,0-10.5.6-21.1.6-31.7,0-.9-3.7,8.1-4.2,8.8-1.5l5.6.5,2.6-1.7,14.2-.3c-3.6-13.6-2.8-29.9-1.6-43.8-1.9-1.2-1.8-1.9.2-3.1-.8-2.5-1.5-2.8,1.9-4.8Z"/>
  <path class="st24" d="M201.7,49.4c.7-1.4,1.8-3.2,2.8-4.4,5.3-5.9,8.8,3.2,4.8,7.2,1.4.6,3.1-1,3.8-1,1.4,0,2.7,3,3.8,3.8,2.5,1.1,1.6,3-1,2.9-.6,1.8-1.4,1.8-1.9,0q-2-2.3,0,0c1.5.2,1.7,5,0,5.8,2,2.4,4.2,13.7,3.3,15.9s-1.6,1.4-2.5,1.6c3.4,3.6,3.4,8-.8,10.9,2.1.6,3.1,1.7,2.9,3.3-4.6.5-10.4-1.2-14.4,1-5.7.5-11.6.7-17.3,0l.9-2c2.1.7,5.6-4.8,6.4-6.7.1-7.1.5-14.2,1.2-21.2-2.1-2.9-.9-6,3.7-9.3.2-4.8,1.6-7.4,4.1-7.8Z"/>
  <path class="st81" d="M232.5,46.6c1,3.3.7,8.1.9,12.2.4,7,.3,13.9.4,21.1s0,12.6,3.5,14.2,5.3-.4,5.7,1.5c-8.3-.6-17.7.8-25.9,0s-3.6-1.9-5.8-1c-.3-5.3,6.6-3.8,3.4-10.6s-8.7-3.1,1.4-4.8c-1.6-2.8-.7-7.6-1.3-9.9s-2.5-3.6-2.5-4c0-.6,1.9-1.3,1.9-1.4.7-1.4,1.3-3.3,1.9-5.8,0-.3.8-2.8,1-2.9.4-.2,2.3.3,3.3,0s2.9-1.8,3.8-1.7c1.3.1,3,2.3,4.9,1.7s2.9-5.4,2.5-5.7-7.7,0,1-2.9Z"/>
  <path class="st22" d="M292,4.3c-.8,7.3,1.3,3.6,3.9,5.2s1,8.3,0,11.1c1.5,2.3,2.9,4.7,4.5,7-1.3,15.3.9,31.3,7.8,45.2l-.5,2.8c-2.7,2.1-2.6,4.5.1,7-.6,7.3.7,10.3,8.5,10.2l1.2,2.8c-7.8.4-15.9.8-23.6-.1-2.7-.5-3.3-3.3-4.8-4.3s-5.5-1.3-5.6-1.6c-.6-.7-2.1-16.6-2.1-18.6,0-5.2,3.7-4.8-1-10.4s-4.6-2.6-5.4-6.1,1.7-2.9,1.8-3.7c0-1.9-1.4-10.4-1.9-12.9,3.1-1.6,0-5.8,1.1-7.6s2.7-.9,3.7-1.6c5-3.8,1.4-4.3,1.3-8.4-.1-6.5,2.7-18.2,11.2-16Z"/>
  <path class="st117" d="M201.7,49.4c-1.7,3.5-1.4,6.2-2.4,8.6s-4.6,3.8-5.3,6.3c3.6.9,1.1,3,1,5.7-.1,4.5.8,17.3-1.2,20.4s-4.3,1.3-2.1,4.1l6.2.9-12.5,1c-.9.8-2.8.9-3.8,0l-6.1-.4c1.3-7.3,1.8-14.7,1.5-22.2l1.8-4.9c-1.4-5.7-.8-10.9,1.9-15.4-2.1-4.3-2.2-6.9,0-7.9,5.4-1.2,8.3-6.6,13.4-5.8.7-1.7-1.9-2.9-1.9-3.4,0-.9,6.2-1.5,7.7-8.2,4.7,3.9-.2,10.8.1,14.9s2.7,3.7,1.8,6.2Z"/>
  <path class="st14" d="M180.6,44.6c0,.3,0,.6,0,1,0,3.5,2.1,6,1.9,8.1s-1.9,3.3-2.4,5.3c-.7,3,.8,7.2.6,10.1s-1.7,3.8-1.8,5.1c-.6,6.9,1.1,14.7-2.1,21.3l4.8,1c-.9.6-2.1.6-3.8,0-2.6,2-8.1,3.5-11.5,3.8h-3.8s-1.5-25.5-1.5-25.5c2.2-9.3,3-19.2,3.5-28.8s-1.4-4.4-1-5.7,1.6-1.1,2.8-4.4c4.1-1,3.3,3.3,4.8,4.3s3,.4,4.4,1.4,1.3,5.1,5.2,2.9Z"/>
  <path class="st55" d="M295.8,20.6c3.1.4,2.6,3.1,3.1,3.6.8.7,2.8.5,3.9,1.2s5.1,9.7,5.2,10.3c.3,1.7-1.1,4.4-1.7,6.1,10-.1,4.7,3.2,5,6.1s2.8,3.3,2.7,5-3.5,3.2,0,4.7,1.9-.4,1.9-.4c.4.7-.5,3.2.5,4.9s5.1,2.9,6.3,5.7-.4,2.8.4,3.9c1.2,1.6,4.4-.2,5.9,3.8s-.4,12.9.5,14.3,4.6.6,5.4,1.3.3,4.1,3.1,3.7c-1.1,2.5-6.7-.6-7.7,1.9-13.4.7-26.9.7-40.3,0,.7-1.4,2.6-.9,3.8-1,7.7-.2,15.4.5,23-.5,0-1.1-9.4,1.2-11-6.1-.4-1.8.8-4.9-.5-7.2s-2.6-.4-2.9-.6c-1.2-.9,3.9-6.7,3.9-7.1-.3-2.6-3.3-6.1-3.7-8-1.3-7.5-4.5-17.2-4.9-24.8s1-9.6.6-13.2-3.8-3.9-2.6-7.3Z"/>
  <path class="st17" d="M353.4,96.5h32.6v1c-18.5-.2-37.1,0-55.7,0-.8-.3-.8-.6,0-1h23Z"/>
  <path class="st35" d="M345.7,3.4c1.3.2,7.3.7,7.6,1s0,3.3.5,4.8c1.7,4.2,6.2,10.2,7,15.1s-.8,2.9-.6,4.3,3.6,5.4,4,7.4-.8,3.6-.3,5.2,3.5,1,3.8,2.2-.3,2.9.2,4.4c3,10.7,2.2,20.6,4.8,29.8s2.8,2.7,3.3,4.5-1.2,3.6-.1,5.8,7.2,3.2,10.1,2.9c0,.9-.2,3.7,0,3.8.3.3,7.5,0,9.1,0s3.6-.7,3.3,1c-6.4,0-12.8,0-19.2,0-2.7-2.4-8.2,0-10.9-.9s-.5-2.1-1.1-2.9c-1.1-1.4-3.1-.4-4.4-3.3-1.9-4.1-.2-8.6-.8-11.5s-1.7-.6-1.9-1.3c-.4-1.5.3-3.2-.5-5.1s-6.1-5.5-1.9-5.7,6.4,4.4,4.3-.5-2.4-.5-3.4-1.4-3.3-5.8-3.6-7.1c-1.1-4.7.7-12.9.3-17.4s-1.6-3-1.7-4c-.2-1.4,1.1-3.1.6-4.5s-4-1.2-4.7-3.1,1.1-4.7.9-6.6-3.9-9.3-4.4-11,1.3-4-.4-5.8Z"/>
  <path class="st54" d="M306.4,373.9c-.1,0-1.1.9-2.3,1-2.3.3-4.8-.4-7.1,0-2.1,4.3,1.5,8.6-2,12.9s-2.9,1.2-3,1.9c-.3,2.1,2.3,3.8,2,4.2s-1.6,0-2.3,1c-3.6,4.4.2,8.9-.5,12.9s-2.4,2.9-2.6,3.8c-.2,1.5,1.5,3.9,1.3,5.7s-2.4,3.2-2.4,4,2,2.2,2.3,4c.7,4-1.7,8.8-1.6,10.4.1,3.4,1.4.7.3,6.9s1.3,3.5.6,5.5-2.7,1.3-2.9,2.1c-.4,2.2,2.5,3.8,2.6,5.7s-3.1,2.8-3.5,3.9c-.6,1.8,1.6,3,1.7,3.9s-1.7,2.2-1.8,3.6,2,3.2,1.8,4.7c-.4,2.3-9.2,8.1,1.1,5.4,1.1,3.1-3.3,4.6-3.6,6.3s0,7,0,7.4c.3,1.9,2.8,4.5,1.7,7.4-8.9,0-17.9,0-26.9,0-2.7-1.5-2.7-9.5-2.5-12.8s1-7.1,3-10.7c-3.9-3.7-3.8-13.8,2.5-14.1l.3-5c2.3-6.3,2.3-9.8.5-16.2l2.9-24.5c-1.1-4.5-.2-6.4,4.3-7.7,1.8-3.9,2.5-8.3,2.2-13.3,2.3-3.3,5-6.4,7.9-9.4-.5-4,0-7.4,1.8-10.4,4.3,0,8.5-.2,12.7-.7,3.6-.9,7.9-.7,11.5,0Z"/>
  <path class="st21" d="M312.1,373v1c-1.9,0-3.9-.2-5.8,0-3.8.2-7.7-.2-11.5,0-1.8.7-3.4.7-4.8,0-.8-.3-.8-.6,0-1,7.3,0,14.7,0,22.1,0Z"/>
  <path class="st37" d="M290.1,373.9h4.8c-.1,0-1.1.9-2.3,1-3.3.3-6.8-.3-10.2,0-.4.4.5,8.6-.2,10.8s-7,6.7-7.9,9.3,1.1,8.9-2.4,13.8c-1,1.4-3.7,1.3-4.4,2.5s.6,2.8.5,4.2c-.5,6.2-3.1,21.4-2.9,26.1s1.8,3.9,1.8,5.6c-.1,3.4-3.2,8.7-2.5,14.4s2.4,3.3,1.7,5.5c-4.3,1.2-3.5-3.5-3.8-3.8-3.1-2.6-5.1,11.8,1,11.1-6.7,8.2-3.7,14.9-3.9,24.5-5.4,0-10.9,0-16.3,0h-6.7c-2.7-.4-2.7-2.5.1-6.4-6.7-1.2-2.8-8.7.6-11.8-4.3-5.6-4.7-10.1-1-13.4,3.6-13.5,6.1-27.1,7.6-40.8-4-6-1.9-7.9,4.6-8.8-.1-3.4.6-6.2,2.2-8.4,2.8-1,7.3-6,6-8.3h-1c-.2.9-1.2,1.5-1.9,1,.7-2,2.7-2.7,3.8-3.8h1c.5-.4.5-.7,0-1,.9-.9,2-2,2.9-2.9q.4.3,0,0c.6-.7,1.3-1.3,1.9-1.9,6.2-5.8,12.6-11.9,19.2-18.2.3,0,.6,0,1,0,2.1-.8,4.9-1,6.7,0Z"/>
  <path class="st64" d="M256.5,400.8c.7-.6,2-1.5,2.9-1.9,1.4,1.9-4.5,9.9-6.1,11.3s-2.1,0-2.4.4c-.5.6,0,6.7-1.3,8.3s-6.4,1-6.5,2.6,3.5,3.7,2.5,7.9-1.3,4.3-1.9,8.3c-1.9,11.5-1.7,18.9-6,30.3s-2.9,3.3-3,4.4c0,1.7,4.7,5,4.1,8.7s-2,2.2-2.7,3.6c-4,8.5.8,4,2,7s-3.3,3.4-1.8,7.1c-8.9,0-17.9,0-26.9,0l-1.2-2.3c1.1-8,1.9-16.1,2.3-24.3,4.2-7.7,6.2-15.8,6.1-24.5,3.9-2.8,8.1-6.4,6.3-11.3-.2-.5-.3-1-.1-1.2,3.9-4.4,9.3-9.9,13.5-14s.6-.2,1-.1v-1c.3-.6.6-.6,1,0,.2-1.2,1.6-3,2.9-2.9-.3-.9,0-1.2,1-1l3.8-3.8c1.2-4.4,6.4-9,10.6-11.5Z"/>
  <path class="st166" d="M222.9,436.3c1.2.6,2.9,1.6,2.7,3.2s-3.7,6.8-4,7.1c-.8.8-2.6,0-3.4,1.8s.1,9-.6,12-3.9,6.5-5.1,11.2c-2.2,9.3.4,18.4-3.1,27.1-7,0-14.1,0-21.1,0,0-3.3,4.1-2.4,4.8-6.3s-1-5.7-.8-7.7,1.7-2.4,1.8-3.8c.6-5.9-1.8-14.3.7-20.4s2.7-2.6,2.9-3.7-1.1-3.1-.8-4.6,4.4-1.4,5.4-3.5-1.9-4.8.4-6.3,2.7.7,4.2.5,1.4-.9,1.6-1c5.2-.3,9.7-2.3,13.3-6.1l1.1.3Z"/>
  <path class="st138" d="M70.2,146.4c1,1-.9,3-1.9,1.9s.9-3,1.9-1.9Z"/>
  <path class="st99" d="M105.7,167.5c-.1,1.1,5.3,2.3,6.7,2.9,5.8,4.7,11.3,7.5,17.3,11.5l1,1c.2.1.7-.1,1,0,3.8-1.1,10,3.9,10.6,7.7,1.3,1.3.7,1.8-1,1-6.7-4.3-29.7-20.6-35.3-21.9s-3.4-.3-5-.2-2.4,1.3-3.8,1c.2-1.7,1.8-1.5,2.9-1.9s.7-.9,1-1c1.5-.8,3.5-.9,4.8,0Z"/>
  <path class="st56" d="M89.4,180c.3,1.3-.1,4.8-1.4,4.8-2,0-2.1-5.6,1.4-4.8Z"/>
  <path class="st79" d="M108.6,72.5c-2.8.4-5-1-2.4-2.9l2.4,2.9Z"/>
  <path class="st10" d="M170.1,322.1v1.3c0,0-18.2,12.1-18.2,12.1,1-.9,2-1.3,2.9-1-.7,1.9-2.5,2-3.8,2.9-.7-.6-.4-1.2,1-1.9-1.3,1.3-3,2.7-4.8,2.9-.3.8-.6.8-1,0,1.4-8.7-1.9-5.8-2.9-6.7s5.4-6.6-1.4-10.6-3.9,1.6-3.4-1.8c9.3-6.2,18.5-12.9,27.8-19.2,4.9,1.1,7.3,15.1,6,19.3l-2.2,2.8Z"/>
  <path class="st44" d="M148,339.4c-5.4,4.1-10.5,8.1-7.2,15.4s14.7,12.5,19.7,14.4c.7.8,0,1.1-1.9,1-3.2-1.2-6.4-3.3-9.6-4.8-.3-.3-.6-.6-1-1s-.6-.7-1-1c-6.7-6-13.5-10.9-6.2-20.1s4.7-4.6,5.2-4.9.6,0,1,0c1.8-1.4,2.4-.8,1,1Z"/>
  <path class="st30" d="M126.9,434.4l-.5,2.9c-1-.9-1.8-1.5-1.4-2.9h1.9Z"/>
  <path class="st85" d="M160.5,369.1c11.8,4.4,24.5,2.5,36.8,2.8,1,.2,1.5,3,1.6,3.9-.2,1.5-.5,2.8-1,3.8h-1c-.2-4.7,1.3-7.1-3.8-5.8-4.8,0-9.6,0-14.4,0l-5.8-1c-4.6-.2-6.3-.7-10.6-1.9s-2.7-.5-3.8-1l1.9-1Z"/>
  <path class="st32" d="M199.8,227c-4-2.8-11.5-14.1-6.1-19.6s4.5-.9,5.3,2.4c2.4-1.6,5.2-1.9,8.5-1,4.3,1.3,9,4,11.5,7.7l1,1c1.3-1.3,1.9-.7,1,1-3.1,6.2-2.7,12.8-.6,19.4l-1.3,1.7c-.6.6-1.9.6-3.8,0-1.8-1.3-3.9-2.6-5.8-3.8-.2-.5-.5-1.1-1-1.9-2.8-.9-8-4-8.6-6.7Z"/>
  <path class="st90" d="M222.9,261.6c.3,1.9-.5,2.3-1.9,1l-1.9,1.9c-.3.8-.6.8-1,0l-1,1c-6,7.5-14.8,13.6-24,16.3,0,1.2-1,2.1-1.9,1l-1.9,1.9c.3,3.2-5.4,5.8-7.7,3.8v-1c11.6-7.9,26.8-16.9,37.4-25.5s8.8-12.9,1-19.6c-1.3-1.3-.7-1.8,1-1,4.3-2,7.8,5.3,8.4,9.3.8,6-2.3,8.5-6.4,10.9Z"/>
  <path class="st5" d="M172.9,209.8c1.3-1.3,1.9-.7,1,1,.6,0,1.3.3,1.9,1,2.4-1.5,5.7,1.2,4.8,3.8,1.3,1.3.7,1.8-1,1-10.2-6.7-20.5-13.6-30.7-20.2-1.3-1.3-.7-1.8,1-1,8.9,2.5,16.9,7.5,23,14.4Z"/>
  <path class="st125" d="M195,224.2l1,1c1.4-1.4,2.2-1,1.9,1l1,1c.3-.8.6-.8,1,0,2.6,1.8,6.2,4.7,8.6,6.7,1.1,1.1.5,1.4-1,1-9.2-6.1-18.6-12.2-27.8-18.2l1-1c5.1,0,12.3,4,14.4,8.6Z"/>
  <path class="st118" d="M149.9,195.4l-1,1c-2.5-1.6-5.1-3.2-7.7-4.8l1-1c3.7-.9,6.9,1.1,7.7,4.8Z"/>
  <path class="st133" d="M219,239.5c2.2-1.3,2.7-.4,1.9,1.9l-1,1c-1-.8-3.4-1.9-4.8-2.9l.6-.7,3.3.7Z"/>
  <path class="st63" d="M209.4,235.7c-.6-.4-1.3-.6-1.9-1l1-1c.5.5,1.5.7,1.9,1.4l-.9.5Z"/>
  <path class="st157" d="M202.7,300c0,1.5-1.4,2.5-2.9,1.9l-1,1c-.3.8-.6.8-1,0l-1.9,1.9c-1.1,2.2-4.3,4.3-6.7,4.8,0,.8-.6,1.4-1.9,1.9l-15.7,10.8-1.6-.2c1.4-7.5-.5-15.2-3.8-22.1,5.2-3.5,10.3-8.1,15.4-11.5s5.5-2.4,7.7-3.8l1.9-1.9c.6-.4,1.3-.6,1.9-1l2.1-.2c-1,1.9-.9,15.3,1.5,15.6,3.2-2,8.5-1.3,6,2.8Z"/>
  <path class="st60" d="M178.7,373.9c-1.8,0-4.7.7-5.8-1,1.8,0,4.7-.7,5.8,1Z"/>
  <path class="st92" d="M237.3,421c-2.2,3.4-11.1,12.4-14.4,15.4-6.9,6.2-5.6,4.9-14.4,5.8-.6-.1-1.4.2-1.9,0l-1-1c-.9-.4-1.9-.4-2.9-1-1.6-1-2.9-2.3-3.8-3.8-.1-.2.1-.7,0-1l-1-1v-1c0-.9.4-1.6,1-1.9,2.2,6,7.8,10.7,14.5,9.2s18.5-16.2,23-20.7c.4-.5.8-.2,1,1Z"/>
  <path class="st167" d="M198.9,431.5c.1.7-.9,1.7-1,1.9-.9-17.1-.4-36.5,0-53.8,0-1.3-.5-3.2,1-3.8,1.8,17.5-1.4,37.9,0,55.7Z"/>
  <path class="st60" d="M197.9,434.4c-.2-1.1,0-.9,0-1,0,.3,0,.7,0,1Z"/>
  <path class="st166" d="M198.9,435.4c0-.2-.9-.5-1-1,0,.2.8.6,1,1Z"/>
  <path class="st166" d="M202.7,440.2c-.8-.5-2.3-1.3-2.9-1.9l-1-1c-.2-.2.1-.7,0-1l3.8,3.8Z"/>
  <path class="st60" d="M199.8,438.2c-.3-.3-.6-.5-1-1l1,1Z"/>
  <path class="st166" d="M206.5,442.1c-.7-.2-.9-.9-1-1l1,1Z"/>
  <path class="st106" d="M282.4,373.9c-5.4,5.9-10.9,11.6-16.3,17.5s-2.6,2.5-2.9.7c4.9-5.3,8.4-10.8,14.4-15.4,1.1-1.6,2.3-2.6,3.8-2.9.3,0,.6,0,1,0Z"/>
  <path class="st54" d="M290.1,373v1c-2.2,0-4.6-.2-6.7,0,1.3-1.7,4.6-.9,6.7-1Z"/>
  <path class="st37" d="M281.4,373.9c-.9.3-2.8,2.1-3.8,2.9.9-1.6,2.2-3,3.8-3.8v1Z"/>
  <path class="st78" d="M220.9,218.4c5.7,1.9,11.1,5.1,15.9,9.6l.4-.9c1.7,1.5,2.3,2.2,3.8,3.8,8.2,11.6,11.7,25.8,2.9,38.4-2.4,4.2-7.1,8.3-11.5,10.6-.3,1.5-3.1,3-4.8,2.9-14.4,6-13.1-4.5-11.1-15.3l2-1.8c6.1-1.4,7.6-2.8,4.3-4.1,4.3-5,6.4-9.5,2.7-15.7s-3.3-3-4.7-4.5-1.2-.6-1.9-1.9c-2-3.7-4.7-20.4,1.9-21.1Z"/>
  <path class="st27" d="M414.9,309.6c-.7,1-.9,1.3-1.9,1.9-1.6.4-2.9.4-3.8,0l-1.8-.4c-4.2.8-7,0-8.3-2.1-14.6,3.7-21.3-17.5-5.3-20.5.1-.6.2-1,.4-1,4.7-.5,15.4-.8,19,2.1s2.8,15,1.7,20Z"/>
  <path class="st23" d="M242.1,165.6c8.2-.1,16.2.2,24,1,4.5,3.5-2.6,4.3-5.8,3.2-.9.4-1.5,16.1-.8,16.4,3.9-.5,6.4.3,7.5,2.4-9.9,0-19.5.3-28.8,1-2-.8-3.8-1.8-4.8-3.8-.5-5.5-.7-12.3,1.9-17.3.6-1.8,2.3-3.2,3.8-1.9l1-1c.4-.8,1.5-.7,1.9,0Z"/>
  <path class="st136" d="M413.9,229.9v1c-1.6,2.7-4.8.7-4.8-1.9-20.5.5-41,.9-61.4,0-3.2.7-6.4.7-9.6,0l-39.7-.9-.6-1c34.9-2.5,72.8,1.9,108,0,3.1,0,5.8.9,8.1,2.9Z"/>
  <path class="st20" d="M145.1,119.5c-1.3,2.5-2.9,4.5-3.9,7.2-2.9,7.5-6.1,26.4-2.6,33.4,2.1,4.2,29.2,20.1,35.3,24.7v1c.8.3.8.6,0,1-.3.8-.6.8-1,0l-1-1c-1.3,1.4-1.9.8-1-1l-3.9-.3c-4.4-2.3-23.1-13.9-24.4-16.9s-.4-1.3-.5-2.1c-.5-.4-1.5-.6-1.9-1l-1-1c-1.9-2.1-3.4-4.4-3.5-7.3-.4-7.8.5-23,3.5-30.1s3.6-4.9,4.8-6.7c.3-.4.6-.4,1,0Z"/>
  <path class="st155" d="M410.1,164.6l1,1c.3.1.7-.1,1,0l1,1c1.7,1.4,3.1,1.9,3.6,4.5,1.1,5.1,1.1,17.3-5.6,18.5-.7-.1-1-.5-1-1-.2-.5-.4-.9-.2-1.3,3.8-8.9,8.2-20.2-6.9-19.1l-22.1.2-1.5-1.9c-.4.5-1.1.5-1.9,0-.2.9-.5.8-1,0-8,2.6-16.1,2.6-24,0-2.7,1.6-5,1.6-6.7,0-1.2-1-.5-1.5,1.9-1.5l47-.4c4.4-.1,11.2-.6,15.4,0Z"/>
  <path class="st3" d="M414.9,309.6v-14.8c-1.5-9.1-14.3-6.2-21.1-6.3-8,2.8-17,2.9-25,0-4.9,2.4-9.5,2.4-14.4,0-1.2-1-.6-1.5,1.9-1.5l34.6-.4c5.2,0,19-1,22.6,1.9s4.4,16.5,1.4,21.2Z"/>
  <path class="st159" d="M343.8,286.6c-12.3,1.3-24.6,1.8-37.1,1.4l-2.3.5c-.9,2.6-2,2.6-2.9,0-1-.7-1.9-.7-2.9,0l-1.5,2c-8.9-.9-8.2,11-6.2,16.9l-.9,2.3-1,1c-5.1-4.9-4.3-21.1,3.8-23.6l50.9-.4Z"/>
  <path class="st70" d="M390.9,286.6c-10,.2-20.8.8-31.2.9s-4.3-.6-5.3,1c-3.2,1.9-6.4,1.9-9.6,0-6.7,2.6-13.5,2.6-20.2,0-5.7,2.9-13.5,2.8-19.2,0-.2.9-.5.8-1,0,1-1.6,3.6-1,5.3-1,11.4-.1,23.1-.7,34.1-.9,15.7-.3,31.4.2,47,0Z"/>
  <path class="st139" d="M248.8,96.5c13.7,0,27.5,0,41.3,0s26.9,0,40.3,0v1c-32,0-64-.2-96,0-.8-.3-.8-.6,0-1,4.8,0,9.6,0,14.4,0Z"/>
  <path class="st91" d="M394.7,164.6c-14.2.4-29.1.8-43.7.9s-4.3-.6-5.3,1c-7.4,2.4-14.7,2.4-22.1,0l-1.9-1c-.8-.3-.8-.6,0-1h73Z"/>
  <path class="st163" d="M412.9,311.5c-2,1.3-2.8,1.7-5.3,1.9-11,1.1-25.5,0-37,0-3.7,0-6.6-.6-8.6-1.9h1c7.7-2,15.7-2,24,0l3.4-1.9c6.4,0,12.6.7,18.7,1.9,1,0,2.1-.9,3.3-.7l.6.7Z"/>
  <path class="st57" d="M321.7,164.6v1c-26.5.7-53.1.7-79.7,0-.6,0-1.4-.1-1.9,0l-1,1c-1.5.4-2.7.9-3.8,1.9-.3.8-.6.8-1,0,1.3-2,2.5-3.9,5.2-3.9,27.4,0,54.8,0,82.1,0Z"/>
  <path class="st126" d="M177.7,96.5c4.3.3,8.4.6,12.5,1-3.4.2-9,.8-12.7,1.2-11.9,1.5-23.9,10-31.5,18.9v-1c6.6-8.7,9.7-11.9,20.2-16.3s7.4-3.3,11.5-3.8Z"/>
  <path class="st115" d="M237.3,227c1.2,1.4,1.4,2.9-1,1.4-5.1-3.2-10.3-6.7-15.4-10.1s-.6-.7-1-1l-1-1c-3.8-2.6-7.6-5.2-11.5-7.7-1.5,1-2.3.8-1.9-1l-1-1c-2.6,1.5-6.2-.8-5.8-3.8-1-1.1-.5-1.4,1-1,11.7,7.7,27.1,16,37.4,25Z"/>
  <path class="st154" d="M314.1,311.5c5.1-2.6,10.3-2.7,15.4,0,1.7.4,2.6.7,1,1.9-10.7,0-24.9,1.2-35.1,0s-4.3-1.1-6.2-2.9c.3-.6.6-.6,1,0l1.6-1.5c7.8.5,15.3,1.3,22.4,2.5Z"/>
  <path class="st112" d="M267,188.6c8.9-1.4,17.8-1.4,26.9,0l1.1-1.9c6.2.6,12.6,1.3,19.1,1.9.8.3.8.6,0,1-25.3,0-50.6,0-75.8,0,1-1.6,3.6-1,5.3-1,7.8,0,15.7,0,23.5,0Z"/>
  <path class="st26" d="M248.8,261.6l-1,1.9c0,.3,0,.7,0,1l-1,1c-.1.3.1.7,0,1l-1,1c-.1.2.1.7,0,1-.7.9-1.3,1.3-1.9,1,6-12.3,5.6-23.6-1.9-35-.4-.6-2.7-3.1-.9-3.4,8.5,9.6,10.8,18.3,7.7,30.7Z"/>
  <path class="st149" d="M412,251c.8.3.8.6,0,1l-1.9,1c-23.7,0-47.4,0-71,0-.8-.3-.8-.6,0-1,5.4-.7,10.9-.8,16.3,0,2.2-1.4,4.5-1.5,6.7,0,8.6-1.9,17.5-1.9,26.9,0,3.5-2,8-2.7,13.3-1.9,3.8-.8,7.1-.5,9.7.9Z"/>
  <path class="st94" d="M339,311.5c7.5-2.2,15.2-2.2,23,0l8.6,1.9c-13.4,0-26.9,0-40.3,0l-1-1.9c3.1-.7,6.3-.7,9.6,0Z"/>
  <path class="st6" d="M187.3,311.5c.3-.5.6-.5,1,0-11.1,7.5-21.6,16.8-33.6,23-1,.5-2,.6-2.9,1,2-2.6,14.6-11,18.2-13.4,5.4-3.7,11.6-7.8,17.3-10.6Z"/>
  <path class="st13" d="M369.7,188.6l3.4-1.3c11.3.6,22.7,1,34,1.3.4-2.7,2.1-2.7,2.9,0,.5,0,.8.5,1,1-21.1,0-42.3,0-63.4,0-.8-.3-.8-.6,0-1,7.3-1.5,14.7-.8,22.1,0Z"/>
  <path class="st47" d="M218.1,291.4c-9.2,6.5-18.5,12.8-27.8,19.2-1.4.5-1.6.4-1-1,2.2-1.8,4.5-3.2,6.7-4.8l1.9-1.9c.2-.2.7.2,1,0l1-1c.9-.7,1.9-1.3,2.9-1.9,2.3-5.1,8.8-9.3,14.4-9.6,1.4-.9,1.9-.5,1,1Z"/>
  <path class="st168" d="M292.9,229c-2.6,5.6-7.9,21.9,3.5,20.1l1.3,1.9c.8.3.8.6,0,1-.9.4-2.1.8-3.8,1-.3,0-.7,0-1,0l-1.9-1c-2.5-1.2-3.1-.6-4.2-4-1.8-6-1.6-17.4,5.1-20,1-.1,1.3,0,1,1Z"/>
  <path class="st176" d="M181.6,96.5c1.3,0,2.6,0,3.8,0,5.7-.2,11.5,0,17.3,0,10.5-.1,21.1,0,31.7,0v1c-14.4.1-29.9-.8-44.2,0-4-.5-9.2,1.2-12.5-1,1.2-.2,2.6,0,3.8,0Z"/>
  <path class="st161" d="M297.7,227l40.3,1.9c-14.7.8-29.5.8-44.2,0-.3.8-.6.8-1,0l-1-1c1.9-.7,3.8-.8,5.8-1Z"/>
  <path class="st34" d="M297.7,252c13.7-.9,27.6-.8,41.3,0v1c-14.2,0-31.4,1.3-45.1,0,.7-1.4,2.6-.9,3.8-1Z"/>
  <path class="st67" d="M197.9,201.1c1,1.1.5,1.4-1,1l-2,1-15.2-10.3v-2.1c-.4.5-.7.5-1,0-.9-.3-.9-.6,0-1-1.2-1.4-.6-1.7,1-1,6.4,3.8,12.1,8.4,18.2,12.5Z"/>
  <path class="st141" d="M256.5,400.8c-3.4,3.1-7.5,7.9-10.6,11.5l-3.8,3.8c-.3.3-.7.6-1,1-1.3,1.3-1.8.7-1-1,4.6-4.7,8-10.5,13.4-14.4s1.3-.6,1.9-1c.3-.6.6-.6,1,0Z"/>
  <path class="st123" d="M414.9,250.1l-1.9,1.9c-.2.1-.7-.1-1,0,.2-.2-.2-.8,0-1l-.8-2.2c2.4-5,2.8-10.4,1.1-16.3l1.7-1.7v-1c4.2,3.7,4,15.6,1,20.2Z"/>
  <path class="st62" d="M235.3,168.5l-1.9,17.3c-2-4.1-1.6-13.4,1-17.3h1Z"/>
  <path class="st111" d="M316,188.6c.3-2.7,5.4-2.7,6.4-.9l15.7.9c3.2-1.9,6.4-1.9,9.6,0v1c-11.2,0-22.4,0-33.6,0v-1c.5-.5,1.1-.5,1.9,0Z"/>
  <path class="st38" d="M234.4,279.8h-1c-.3.6-.6.5-1,0,4.2-3.2,7.9-7.8,11.5-10.6s1.3-.6,1.9-1c-3.8,6.2-6.3,7.4-11.5,11.5Z"/>
  <path class="st18" d="M224.8,285.6v1c-2.3,2.2-4.3,3.1-6.7,4.8l-1-1c.4-3.7,4-6.5,7.7-5.8.8.3.8.6,0,1Z"/>
  <path class="st181" d="M233.4,279.8c.2.5-.1,1.1-1,1.9-.2.2-.7-.1-1,0l-1,1c-.8.5-1.5.7-1.9,1l-1.9,1.9c-.2.1-.6,0-1,0h-1v-1c-.3-1.3.6-2,2.9-1.9,1.5-1.1,3.5-1.9,4.8-2.9h1Z"/>
  <path class="st97" d="M179.7,188.6c-.2.4-.9.8-1,1-1.7,2.6-6-.2-4.8-2.9v-1h1c1.8.7,3.2,1.9,4.8,2.9Z"/>
  <path class="st158" d="M151.8,335.5c-.4.5-.6,1.3-1,1.9-.9.6-2.2,1.4-2.9,1.9,0-.7-.3-1.1-1-1,1.3-1.9,3-2.1,4.8-2.9Z"/>
  <path class="st37" d="M241.1,417.1c-.9,1-1.3,2.4-2.9,2.9l-1-1c1-1,1.9-1.9,2.9-2.9l1,1Z"/>
  <path class="st61" d="M199.8,202.1l-1,1c-1.5,2.1-2.2,1.6-1.9-1l1-1c.4.3,1.2.5,1.9,1Z"/>
  <path class="st76" d="M190.2,310.6c-.6.4-1.3.6-1.9,1h-1c.3-1.1,1.2-1.3,1.9-1.9l1,1Z"/>
  <path class="st48" d="M146.1,117.6c-.3.6-.6,1.3-1,1.9h-1c.7-1.1.9-1.6,1.9-2.9v1Z"/>
  <path class="st38" d="M247.8,263.5c.2-.7,0-1.6,1-1.9-.2.7,0,1.6-1,1.9Z"/>
  <path class="st33" d="M292.9,253c-1-.2-1.3-.7-1.9-1l1.9,1Z"/>
  <path class="st27" d="M412,252c-.1,0-.6,1.4-1.9,1,.2-1.1,1.8-.8,1.9-1Z"/>
  <path class="st177" d="M237.3,420c-.1.3.1.7,0,1l-1-1c.3-.3.6-.6,1-1,.6.3.6.6,0,1Z"/>
  <path class="st75" d="M258.4,397.9c0,0,.2.8-.5.9l-.5-.9c.3-.3.6-.6,1-1,.5.3.5.6,0,1Z"/>
  <path class="st78" d="M224.8,286.6v-1h1c-.3.3-.6.7-1,1Z"/>
  <path class="st78" d="M226.7,285.6l1.9-1.9c-.3.2-.6,1.2-1.9,1.9Z"/>
  <path class="st78" d="M230.5,282.7l1-1c-.3.2-.6.7-1,1Z"/>
  <path class="st78" d="M232.5,281.8l1-1.9h1c-.5.4-.9,1.2-1.9,1.9Z"/>
  <path class="st38" d="M245.9,267.4l1-1c-.3.5-.9.8-1,1Z"/>
  <path class="st38" d="M246.9,265.4l1-1c-.2.7-.9.9-1,1Z"/>
  <path class="st27" d="M412.9,252l1.9-1.9c-.7,1.1-.8,1.2-1.9,1.9Z"/>
  <path class="st27" d="M411,165.6l-1-1c.7.1.9.9,1,1Z"/>
  <path class="st27" d="M412.9,166.6l-1-1c.3.2.6.7,1,1Z"/>
  <path class="st74" d="M174.9,185.8h-1v-1c.4.3.6.7,1,1Z"/>
  <path class="st39" d="M100.9,167.5c1.1-1.7,4-.8,5.8-.9-.1.5-1,.8-1,.9-1.5.2-3.5-.3-4.8,0Z"/>
  <path class="st74" d="M171,184.8l1.2,9.7c5.5,5.4,5.8,9,.9,10.7,1,2.1.9,3.6-.2,4.6-7.8-4.7-15.4-9.5-23-14.4s-5.2-3.2-7.7-4.8c-3.6-2.4-7.2-5.4-10.6-7.7.5-4.2,4.8-2.7,6.7-5.4s-3.4-10,3.9-11.9c8.7,7,19.4,12.9,28.8,19.2Z"/>
  <path class="st135" d="M119.7,152.2c.6.3.6.6,0,1v-1Z"/>
  <path class="st74" d="M140.3,164.6c-.3-.3-.7-.6-1-1l1,1Z"/>
  <path class="st74" d="M130.7,182.9l-1-1c.4.3.7.8,1,1Z"/>
  <path class="st170" d="M216.1,58.1c-.4,2.5,1.4,6.6-1.9,5.8.2-.7,0-4.6,0-5.8.5-.2,1.3.1,1.9,0Z"/>
  <path class="st89" d="M214.2,58.1c-.5.2-1.2,1-1.4.9-2-.4-1-4.8,1.4-3.8,0,.9,0,1.9,0,2.9Z"/>
  <path class="st12" d="M354.9,15.8c.6.3.6.6,0,1v-1Z"/>
  <path class="st146" d="M261.3,394.1c.5-.5,1.5.9.5,1s-.7-.7-.5-1Z"/>
  <path class="st116" d="M258.4,397.9v-1l.9.5c0,.6-.9.4-.9.5Z"/>
  <path class="st37" d="M242.1,416.2c1.2-1.4,1.9-3.1,3.8-3.8-1.2,1.4-2,3.1-3.8,3.8Z"/>
  <path class="st114" d="M238.2,420h-1c.1-.3-.1-.9,0-1,.5-.2,1.1.3,1,1Z"/>
  <path class="st2" d="M171,184.8c.4.2.6.7,1,1l1,1c.2.1.7-.1,1,0,1.6,1,3,2.2,4.8,2.9,0,.3,0,.7,0,1,.3.5.6.5,1,0,4.5,1.9,12.6,8.5,17.3,11.5s1.3.6,1.9,1c1.9,1.2,4,2.5,5.8,3.8l1,1c.6.4,1.3.6,1.9,1-1.4,2.8-4.5,1-5.8,1.5s-1.7,2.9-3.8,2.3l-1.9-5.7c-2.4,6.2-2.9,9.1,1,14.9s8.3,7.7,2.9,5.3c-.2-.1-.7.1-1,0l-1-1c-.6-.4-1.3-.6-1.9-1l-1-1c-4.8-2.8-9.9-5.5-14.4-8.6s-3.3-2.6-4.8-3.8l-1.9-1c-.6-.4-.9-.9-1-1-4.5-7.1,1-6.2,1.9-7.7s-4-4.7-4.6-7.4-.7-6.1-1-8.6,1.2,0,1.7-1.2Z"/>
  <path class="st78" d="M220,217.4l-1-1c.4.2.6.7,1,1Z"/>
  <path class="st32" d="M227.7,282.7c-.9.7-1.9,1.2-2.9,1.9-2.6,1.9-5.1,3.9-7.7,5.8-4.7,3.3-9.7,6.3-14.4,9.6-1.8-4.5-5.5-.2-6.3-.2-1.2,0-4-7.4-3.9-8,0-3.1,1.2-1.2,0-7.2s2.5-2.5.5-2.9c8-5.4,15.9-11,24-16.3l1-1c.2-.1.7.1,1,0l1.9-1.9c.6-.4,1.3-.6,1.9-1s2.6-2.2,2.9-1.9c3.4,8.9-5.7,5.4-7.3,7.6s-1.4,12.2-1.2,12.8c1.2,4.7,7.5,1.2,10.4,2.6Z"/>
  <path class="st32" d="M189.3,284.6c.3-.2.8-1.2,1.9-1.9l-1.9,1.9Z"/>
  <path class="st78" d="M217.1,265.4c.2-.1.5-.6,1-1l-1,1Z"/>
  <path class="st78" d="M219,264.5c.3-.2.8-1.2,1.9-1.9l-1.9,1.9Z"/>
  <path class="st74" d="M175.8,211.7c-1.1.2-1.4-.6-1.9-1,1.3-1.3,1.3.4,1.9,1Z"/>
  <path class="st32" d="M198.9,227l-1-1c.4.3.7.7,1,1Z"/>
  <path class="st32" d="M196,225.1c-.4-.2-.7-.6-1-1,.4.2.7.6,1,1Z"/>
  <path class="st32" d="M198.9,302.9c.3-.2.6-.7,1-1l-1,1Z"/>
  <path class="st32" d="M196,304.8c.3-.2.8-1.2,1.9-1.9l-1.9,1.9Z"/>
  <path class="st121" d="M393.7,288.5c-1.8,4.5-6.5,2.1-7.5,8.4s2.7,8.6,3.8,9.7,5.4.8,6.3.9,2.8-.8,3.5-.6c1.7.3,1.2,3.2,1.6,3.6,1,.9,6.2-1.1,7.6,1.1-7.1.4-14.9,0-22.1,0-3.4-.3-6.8-.6-10.3-.9-.6-1.8-2.5-2.2-5.7-1.4-3.4-4.2-4.1-9.9-2.2-17-1.9-1.4-2.4-2.6,0-3.8,8.3,0,16.7-.1,25,0Z"/>
  <path class="st100" d="M289.1,166.6v2.2c-3.7,2.1-7.2,4.5-10.5,7.1,3.7,3,4.8,6,3.1,9.1l11,1.2,1.2,2.5c-8.9,0-17.9,0-26.9,0l-14.4-1c1.3-3.9,1.1-2.8,4.8-1.9,1.1-4.2-1.4-13.9,1.2-17s7.9,2.2,7.4-2.2c7.7-1.1,15.4-.8,23,0Z"/>
  <path class="st69" d="M321.7,165.6h1.4s.5,1,.5,1c-1.6,3.1-13.5,3-15.4,0-6.4,1.9-12.8,1.9-19.2,0-7.7,0-15.4,0-23,0s-16.5.8-24-1c25.3-2.3,54,1.7,79.7,0Z"/>
  <path class="st69" d="M239.2,166.6l1-1c-.3,0-.6.9-1,1Z"/>
  <path class="st27" d="M413.9,230.9c1.3,7,2.7,14.4-1.9,20.2-7.5,1.6-15.4.9-23,1l-12.6-1-.6-2.2c-4.4-.1-5.2-5.8-1.3-7.7-2.4-6.2,2.7-9.3,7.8-11.2,8.9-.6,17.9-1,26.9-1,1.7,0,3,1.8,4.8,1.9Z"/>
  <path class="st147" d="M409.1,229c-8.7.3-17.8,1-26.9,1-7.3,1.9-14.7,1.9-22.1,0-4.1,1.9-8.4,1.9-12.5,0-.8-.3-.8-.6,0-1,20.5,0,41,0,61.4,0Z"/>
  <path class="st164" d="M338.1,229c3.2,0,6.4,0,9.6,0v1c-2.8,1.9-5.8,1.9-8.6,0-5.7,1.9-11.5,1.9-17.3,0-7.3,2.9-15.8,3-23,0-.5,3.4-5.9,2.6-4.8-1,14.7,0,29.5,0,44.2,0Z"/>
  <path class="st74" d="M172.9,186.7c-.5-.3-.7-.8-1-1l1,1Z"/>
  <path class="st27" d="M379.3,166.6c5.9,0,29.7-1,33,1.1s4.2,19.2-2.3,21c-.8-.1-2,0-2.9,0-8.9-.5-17.8-.7-26.8-.7-8.7,1.3-14.8-8.6-5.3-11.3-5.6-7.3-5.1-10.7,1.4-10.1.3,0,.6,0,1,0,.8.5,1.5.5,1.9,0Z"/>
  <path class="st148" d="M376.5,166.6l-3.8,1c-1,1.1,4.1,6.7,4.4,9.1.5,4.2-3.7.4-4.3,3-3.4,13.2,28.4,5.6,34.5,9-12.4-.3-25,0-37.4,0-7.9-.9-15.8-1-23.7-1-1.8-.5-4.2-21.4,3.4-20.3,1.5.2,2.5-.1,3.1-.8,8,0,16,0,24,0Z"/>
  <path class="st162" d="M345.7,166.6c2.2,0,4.5,0,6.7,0,.5,3.7-1.8.1-3.9,2.3-4.8,5.2-1.4,11.8-1.9,17.9,7.6,0,15.6.2,23,1.9-7.3,0-14.7,0-22.1,0s-6.4,0-9.6,0l-17.2-1.1c-.7-.9-.8-20.4,2.8-21,7.3,0,14.7,0,22.1,0Z"/>
  <path class="st148" d="M379.3,166.6l-.5,1-1.4-1c.6,0,1.3,0,1.9,0Z"/>
  <path class="st40" d="M354.4,288.5c4.8,0,9.6,0,14.4,0-.7,2,1.7,1.7,1.9,2.6.7,3.5-2.9,14.3,1.1,16.5s2.9-.9,4.1-.7c1.9.3,2,3.4,3.2,3.7,2.3.5,6-1.2,8,.9-8,0-16,0-24,0-3.4-.4-6.8-.7-10.3-.8l-.5-2c-6.3-1.4-8.7-6.7-7.2-15.9-2.1-2.1-2.2-3.5-.2-4.3,3.2,0,6.4,0,9.6,0Z"/>
  <path class="st71" d="M298.7,288.5c.9-.8,1.9-.7,2.9,0,1,0,1.9,0,2.9,0s.6,0,1,0l2,1c.5,3.2.8,6.4.9,9.6-2.4,7.1.4,8.8,6,10.8l-.3,1.6c-6.6,0-18.3,1.1-24-1-.6-.3-.6-.6,0-1-3.1-3.9-3-15.5.3-18.9s5-2,8.3-2.3Z"/>
  <path class="st70" d="M301.6,288.5c-1,0-1.9,0-2.9,0,.1-1.4,2.7-1.4,2.9,0Z"/>
  <path class="st179" d="M290.1,310.6c-.3-.1-.9.1-1,0-.3-.4.3-1.1,1-1v1Z"/>
  <path class="st87" d="M344.8,288.5c-.7,1.9,1.7,1.8,1.9,2.6.8,3.8-1.3,10.9,1.9,14.3s3.8,1,4.9,1.8.5,3.1,1.5,3.4c2.1.6,6.2-1.3,8.1.9h-1c-7.7,0-15.4,0-23,0-15.6.9-18.6-6.2-14.7-19.4-1.8-1.5-1.9-2.6.3-3.6,6.7,0,13.5,0,20.2,0Z"/>
  <path class="st137" d="M324.6,288.5c-.8,1.9,1.9,1.9,2,2.4.2,2.1-1.8,3.1-1.9,4.7s.8,2.1.8,3c-.1,2.3-1.4,3.8-.4,6.1,3.2,7.4,7.8,4.9,13.9,6.8-3.2,0-6.4,0-9.6,0-5.1,0-10.3,0-15.4,0-1-2-6.3-.4-6.7-1s.3-2.2,0-3.1-1.7-.7-1.9-1.4c-.5-2.2,1.1-5,1.1-7.5s-.8-7-1-10.1c6.4-.1,12.8,0,19.2,0Z"/>
  <path class="st32" d="M205.6,207.8c-.4-.2-.7-.6-1-1,.4.3.7.6,1,1Z"/>
  <path class="st129" d="M308.3,166.6c3.4,5.3-3.8,6.1-7.9,5.7,1.1,1.7.8,3.5.3,5.3,3.7.5,4.7,3.2,3,8.1h7.6c3.7-.4,5.3.7,4.7,3-.6,0-1.3,0-1.9,0h-20.2c-4.6-2.3-11.1.5-15.4-3.4,5.1-6.2.6-4.1-1.4-8.1s3.4-2,4.6-6.4l7.4-4.2c6.4,0,12.8,0,19.2,0Z"/>
  <path class="st110" d="M382.2,229.9c-.6,3.2-5.7,3.7-6.6,7.4s1.1,3.2.8,4.5c-.5,1.8-4,.2-1.9,5.4l3.8-1-1,3.8,11.5,1.9c-8.9,0-17.9,0-26.9,0-2.1-.7-4.8-1.5-8.2-2.2-.6-.7.5-18.3,1.4-18.9,2.4.3,4,0,4.9-1,7.3,0,14.7,0,22.1,0Z"/>
  <path class="st88" d="M347.7,229.9c4.1,0,8.3,0,12.5,0,.8,3.5-3.3,1.3-3.8,1.9s0,8.3,0,10.1-2.2,6.2,0,7.8,6.4-1.3,5.8,2.3c-2.2,0-4.5,0-6.7,0-2.9-.4-5.8-.7-8.6-1-3.7-.2-5.6-2.5-5.6-7-4-1.7-3.2-4.6-1.5-7.8-2.9-3.3-3.1-5.4-.6-6.3,2.9,0,5.8,0,8.6,0Z"/>
  <path class="st33" d="M304.5,251c7-3.2,15-2.4,22.1,0,6.7-2.6,13.5-2.7,20.2,0,2.7,0,6.7-.8,8.6,1-5.4,0-10.9,0-16.3,0-13.7,0-27.6-.3-41.3,0v-1c.5-1.4,1.1-1.6,1.9-.5l4.8.5Z"/>
  <path class="st15" d="M298.7,229.9c1.8.8,6.1,9.7,6.2,11.8.3,3.5-.2,4.6-2.9,6.8,1.6.3,2.4.7,2.4,2.5-2.2,0-4.5.1-6.7,0-3.7-.2-8.6.8-9.6-4.3s-.8-15.9,4.8-17.7.7,0,1,0c.8,1.5,3.3.9,4.8,1Z"/>
  <path class="st74" d="M178.7,190.6h1c0,0-.5,1.9-1,0Z"/>
  <path class="st43" d="M256.5,400.8h-1s-.1-.9.5-.9l.5.9Z"/>
  <path class="st83" d="M323.7,166.6c-1.3,6.6-.5,13.4-1.5,20.2l15.9,1.9h-22.1c-2.4-2.4-11.7-.2-13.5-1.4s1-5.8,0-7.2-3.4-.6-3.7-1.1c-.6-.9.6-3.1.5-4.3-.1-1.7-2.8-3.3,0-4.1s7.6,1.8,9-4h15.4Z"/>
  <path class="st31" d="M321.7,229.9c2.6,5.3,3,11.7,2.6,17.9,2.5.6,3.2,1.7,2.2,3.2-7.3,0-14.7.2-22.1,0l-4.8-1c-.8-2.9,3.7-4.1,3.6-6.4,0-3.5-4.9-9.8-4.6-13.8,7.7.1,15.4,0,23,0Z"/>
  <path class="st128" d="M339,229.9c-.7,2.5,2.5,4.4,2.5,6.2s-1.8,3.5-1.5,4.8,2.1,1.1,2.5,1.8c1.3,1.9.1,6.9,4.1,8.4-6.7,0-13.5,0-20.2,0-.5-1.6-3.7-.3-3.9-1.5-.5-3.2,0-8.2-.2-11.3s-3-4.7-.7-8.3c5.7,0,11.5,0,17.3,0Z"/>
</svg>