<?xml version="1.0" encoding="UTF-8"?>
<svg id="svgQrWrapper" xmlns="http://www.w3.org/2000/svg" version="1.1" viewBox="0 0 300 300">
  <!-- Generator: Adobe Illustrator 29.6.0, SVG Export Plug-In . SVG Version: 2.1.1 Build 207)  -->
  <defs>
    <style>
      .st0 {
        fill: none;
      }
    </style>
  </defs>
  <path class="st0" d=""/>
  <g>
    <g>
      <rect x="13.7" y="108.7" width="9.5" height="9.5"/>
      <rect x="13.7" y="118.2" width="9.5" height="9.5"/>
      <rect x="13.7" y="127.7" width="9.5" height="9.5"/>
      <rect x="13.7" y="146.7" width="9.5" height="9.5"/>
      <rect x="13.7" y="175.2" width="9.5" height="9.5"/>
      <rect x="13.7" y="184.7" width="9.5" height="9.5"/>
      <rect x="23.2" y="99.2" width="9.5" height="9.5"/>
      <rect x="23.2" y="108.7" width="9.5" height="9.5"/>
      <rect x="23.2" y="118.2" width="9.5" height="9.5"/>
      <rect x="23.2" y="165.7" width="9.5" height="9.5"/>
      <rect x="23.2" y="184.7" width="9.5" height="9.5"/>
      <rect x="23.2" y="203.7" width="9.5" height="9.5"/>
      <rect x="32.7" y="118.2" width="9.5" height="9.5"/>
      <rect x="32.7" y="146.7" width="9.5" height="9.5"/>
      <rect x="32.7" y="156.2" width="9.5" height="9.5"/>
      <rect x="32.7" y="175.2" width="9.5" height="9.5"/>
      <rect x="32.7" y="184.7" width="9.5" height="9.5"/>
      <rect x="32.7" y="203.7" width="9.5" height="9.5"/>
      <rect x="42.2" y="99.2" width="9.5" height="9.5"/>
      <rect x="42.2" y="118.2" width="9.5" height="9.5"/>
      <rect x="42.2" y="127.7" width="9.5" height="9.5"/>
      <rect x="42.2" y="137.2" width="9.5" height="9.5"/>
      <rect x="42.2" y="165.7" width="9.5" height="9.5"/>
      <rect x="42.2" y="175.2" width="9.5" height="9.5"/>
      <rect x="42.2" y="184.7" width="9.5" height="9.5"/>
      <rect x="42.2" y="194.2" width="9.5" height="9.5"/>
      <rect x="51.7" y="118.2" width="9.5" height="9.5"/>
      <rect x="51.7" y="127.7" width="9.5" height="9.5"/>
      <rect x="61.2" y="89.7" width="9.5" height="9.5"/>
      <rect x="61.2" y="108.7" width="9.5" height="9.5"/>
      <rect x="61.2" y="118.2" width="9.5" height="9.5"/>
      <rect x="61.2" y="156.2" width="9.5" height="9.5"/>
      <rect x="61.2" y="165.7" width="9.5" height="9.5"/>
      <rect x="61.2" y="175.2" width="9.5" height="9.5"/>
      <rect x="61.2" y="184.7" width="9.5" height="9.5"/>
      <rect x="61.2" y="194.2" width="9.5" height="9.5"/>
      <rect x="70.7" y="89.7" width="9.5" height="9.5"/>
      <rect x="70.7" y="108.7" width="9.5" height="9.5"/>
      <rect x="70.7" y="127.7" width="9.5" height="9.5"/>
      <rect x="70.7" y="146.7" width="9.5" height="9.5"/>
      <rect x="70.7" y="165.7" width="9.5" height="9.5"/>
      <rect x="70.7" y="184.7" width="9.5" height="9.5"/>
      <rect x="70.7" y="203.7" width="9.5" height="9.5"/>
      <rect x="80.2" y="108.7" width="9.5" height="9.5"/>
      <rect x="80.2" y="118.2" width="9.5" height="9.5"/>
      <rect x="80.2" y="137.2" width="9.5" height="9.5"/>
      <rect x="80.2" y="156.2" width="9.5" height="9.5"/>
      <rect x="80.2" y="165.7" width="9.5" height="9.5"/>
      <rect x="80.2" y="175.2" width="9.5" height="9.5"/>
      <rect x="80.2" y="184.7" width="9.5" height="9.5"/>
      <rect x="80.2" y="194.2" width="9.5" height="9.5"/>
      <rect x="80.2" y="203.7" width="9.5" height="9.5"/>
      <rect x="89.7" y="13.7" width="9.5" height="9.5"/>
      <rect x="89.7" y="42.2" width="9.5" height="9.5"/>
      <rect x="89.7" y="61.2" width="9.5" height="9.5"/>
      <rect x="89.7" y="70.7" width="9.5" height="9.5"/>
      <rect x="89.7" y="89.7" width="9.5" height="9.5"/>
      <rect x="89.7" y="99.2" width="9.5" height="9.5"/>
      <rect x="89.7" y="146.7" width="9.5" height="9.5"/>
      <rect x="89.7" y="165.7" width="9.5" height="9.5"/>
      <rect x="89.7" y="175.2" width="9.5" height="9.5"/>
      <rect x="89.7" y="194.2" width="9.5" height="9.5"/>
      <rect x="89.7" y="213.2" width="9.5" height="9.5"/>
      <rect x="89.7" y="232.2" width="9.5" height="9.5"/>
      <rect x="99.2" y="61.2" width="9.5" height="9.5"/>
      <rect x="99.2" y="80.2" width="9.5" height="9.5"/>
      <rect x="99.2" y="89.7" width="9.5" height="9.5"/>
      <rect x="99.2" y="99.2" width="9.5" height="9.5"/>
      <rect x="99.2" y="137.2" width="9.5" height="9.5"/>
      <rect x="99.2" y="156.2" width="9.5" height="9.5"/>
      <rect x="99.2" y="165.7" width="9.5" height="9.5"/>
      <rect x="99.2" y="184.7" width="9.5" height="9.5"/>
      <rect x="99.2" y="213.2" width="9.5" height="9.5"/>
      <rect x="99.2" y="222.7" width="9.5" height="9.5"/>
      <rect x="99.2" y="251.2" width="9.5" height="9.5"/>
      <rect x="99.2" y="279.7" width="9.5" height="9.5"/>
      <rect x="108.7" y="23.2" width="9.5" height="9.5"/>
      <rect x="108.7" y="32.7" width="9.5" height="9.5"/>
      <rect x="108.7" y="51.7" width="9.5" height="9.5"/>
      <rect x="108.7" y="70.7" width="9.5" height="9.5"/>
      <rect x="108.7" y="118.2" width="9.5" height="9.5"/>
      <rect x="108.7" y="127.7" width="9.5" height="9.5"/>
      <rect x="108.7" y="137.2" width="9.5" height="9.5"/>
      <rect x="108.7" y="146.7" width="9.5" height="9.5"/>
      <rect x="108.7" y="156.2" width="9.5" height="9.5"/>
      <rect x="108.7" y="175.2" width="9.5" height="9.5"/>
      <rect x="108.7" y="184.7" width="9.5" height="9.5"/>
      <rect x="108.7" y="194.2" width="9.5" height="9.5"/>
      <rect x="108.7" y="213.2" width="9.5" height="9.5"/>
      <rect x="108.7" y="232.2" width="9.5" height="9.5"/>
      <rect x="108.7" y="241.7" width="9.5" height="9.5"/>
      <rect x="108.7" y="251.2" width="9.5" height="9.5"/>
      <rect x="108.7" y="260.7" width="9.5" height="9.5"/>
      <rect x="108.7" y="270.2" width="9.5" height="9.5"/>
      <rect x="118.2" y="32.7" width="9.5" height="9.5"/>
      <rect x="118.2" y="51.7" width="9.5" height="9.5"/>
      <rect x="118.2" y="61.2" width="9.5" height="9.5"/>
      <rect x="118.2" y="89.7" width="9.5" height="9.5"/>
      <rect x="118.2" y="99.2" width="9.5" height="9.5"/>
      <rect x="118.2" y="108.7" width="9.5" height="9.5"/>
      <rect x="118.2" y="118.2" width="9.5" height="9.5"/>
      <rect x="118.2" y="137.2" width="9.5" height="9.5"/>
      <rect x="118.2" y="165.7" width="9.5" height="9.5"/>
      <rect x="118.2" y="194.2" width="9.5" height="9.5"/>
      <rect x="118.2" y="232.2" width="9.5" height="9.5"/>
      <rect x="118.2" y="241.7" width="9.5" height="9.5"/>
      <rect x="118.2" y="260.7" width="9.5" height="9.5"/>
      <rect x="118.2" y="270.2" width="9.5" height="9.5"/>
      <rect x="127.7" y="13.7" width="9.5" height="9.5"/>
      <rect x="127.7" y="32.7" width="9.5" height="9.5"/>
      <rect x="127.7" y="51.7" width="9.5" height="9.5"/>
      <rect x="127.7" y="61.2" width="9.5" height="9.5"/>
      <rect x="127.7" y="70.7" width="9.5" height="9.5"/>
      <rect x="127.7" y="80.2" width="9.5" height="9.5"/>
      <rect x="127.7" y="99.2" width="9.5" height="9.5"/>
      <rect x="127.7" y="108.7" width="9.5" height="9.5"/>
      <rect x="127.7" y="118.2" width="9.5" height="9.5"/>
      <rect x="127.7" y="127.7" width="9.5" height="9.5"/>
      <rect x="127.7" y="146.7" width="9.5" height="9.5"/>
      <rect x="127.7" y="156.2" width="9.5" height="9.5"/>
      <rect x="127.7" y="175.2" width="9.5" height="9.5"/>
      <rect x="127.7" y="194.2" width="9.5" height="9.5"/>
      <rect x="127.7" y="203.7" width="9.5" height="9.5"/>
      <rect x="127.7" y="222.7" width="9.5" height="9.5"/>
      <rect x="127.7" y="251.2" width="9.5" height="9.5"/>
      <rect x="127.7" y="270.2" width="9.5" height="9.5"/>
      <rect x="127.7" y="279.7" width="9.5" height="9.5"/>
      <rect x="137.2" y="13.7" width="9.5" height="9.5"/>
      <rect x="137.2" y="23.2" width="9.5" height="9.5"/>
      <rect x="137.2" y="32.7" width="9.5" height="9.5"/>
      <rect x="137.2" y="42.2" width="9.5" height="9.5"/>
      <rect x="137.2" y="51.7" width="9.5" height="9.5"/>
      <rect x="137.2" y="61.2" width="9.5" height="9.5"/>
      <rect x="137.2" y="89.7" width="9.5" height="9.5"/>
      <rect x="137.2" y="99.2" width="9.5" height="9.5"/>
      <rect x="137.2" y="118.2" width="9.5" height="9.5"/>
      <rect x="137.2" y="137.2" width="9.5" height="9.5"/>
      <rect x="137.2" y="146.7" width="9.5" height="9.5"/>
      <rect x="137.2" y="156.2" width="9.5" height="9.5"/>
      <rect x="137.2" y="165.7" width="9.5" height="9.5"/>
      <rect x="137.2" y="175.2" width="9.5" height="9.5"/>
      <rect x="137.2" y="184.7" width="9.5" height="9.5"/>
      <rect x="137.2" y="194.2" width="9.5" height="9.5"/>
      <rect x="137.2" y="203.7" width="9.5" height="9.5"/>
      <rect x="137.2" y="213.2" width="9.5" height="9.5"/>
      <rect x="146.7" y="42.2" width="9.5" height="9.5"/>
      <rect x="146.7" y="61.2" width="9.5" height="9.5"/>
      <rect x="146.7" y="70.7" width="9.5" height="9.5"/>
      <rect x="146.7" y="80.2" width="9.5" height="9.5"/>
      <rect x="146.7" y="89.7" width="9.5" height="9.5"/>
      <rect x="146.7" y="118.2" width="9.5" height="9.5"/>
      <rect x="146.7" y="137.2" width="9.5" height="9.5"/>
      <rect x="146.7" y="146.7" width="9.5" height="9.5"/>
      <rect x="146.7" y="175.2" width="9.5" height="9.5"/>
      <rect x="146.7" y="203.7" width="9.5" height="9.5"/>
      <rect x="146.7" y="213.2" width="9.5" height="9.5"/>
      <rect x="146.7" y="232.2" width="9.5" height="9.5"/>
      <rect x="146.7" y="251.2" width="9.5" height="9.5"/>
      <rect x="146.7" y="260.7" width="9.5" height="9.5"/>
      <rect x="146.7" y="270.2" width="9.5" height="9.5"/>
      <rect x="146.7" y="279.7" width="9.5" height="9.5"/>
      <rect x="156.2" y="13.7" width="9.5" height="9.5"/>
      <rect x="156.2" y="42.2" width="9.5" height="9.5"/>
      <rect x="156.2" y="51.7" width="9.5" height="9.5"/>
      <rect x="156.2" y="89.7" width="9.5" height="9.5"/>
      <rect x="156.2" y="99.2" width="9.5" height="9.5"/>
      <rect x="156.2" y="108.7" width="9.5" height="9.5"/>
      <rect x="156.2" y="118.2" width="9.5" height="9.5"/>
      <rect x="156.2" y="127.7" width="9.5" height="9.5"/>
      <rect x="156.2" y="156.2" width="9.5" height="9.5"/>
      <rect x="156.2" y="175.2" width="9.5" height="9.5"/>
      <rect x="156.2" y="184.7" width="9.5" height="9.5"/>
      <rect x="156.2" y="203.7" width="9.5" height="9.5"/>
      <rect x="156.2" y="241.7" width="9.5" height="9.5"/>
      <rect x="156.2" y="251.2" width="9.5" height="9.5"/>
      <rect x="156.2" y="270.2" width="9.5" height="9.5"/>
      <rect x="165.7" y="13.7" width="9.5" height="9.5"/>
      <rect x="165.7" y="32.7" width="9.5" height="9.5"/>
      <rect x="165.7" y="51.7" width="9.5" height="9.5"/>
      <rect x="165.7" y="61.2" width="9.5" height="9.5"/>
      <rect x="165.7" y="70.7" width="9.5" height="9.5"/>
      <rect x="165.7" y="80.2" width="9.5" height="9.5"/>
      <rect x="165.7" y="89.7" width="9.5" height="9.5"/>
      <rect x="165.7" y="99.2" width="9.5" height="9.5"/>
      <rect x="165.7" y="108.7" width="9.5" height="9.5"/>
      <rect x="165.7" y="118.2" width="9.5" height="9.5"/>
      <rect x="165.7" y="137.2" width="9.5" height="9.5"/>
      <rect x="165.7" y="175.2" width="9.5" height="9.5"/>
      <rect x="165.7" y="203.7" width="9.5" height="9.5"/>
      <rect x="165.7" y="213.2" width="9.5" height="9.5"/>
      <rect x="165.7" y="270.2" width="9.5" height="9.5"/>
      <rect x="175.2" y="61.2" width="9.5" height="9.5"/>
      <rect x="175.2" y="80.2" width="9.5" height="9.5"/>
      <rect x="175.2" y="99.2" width="9.5" height="9.5"/>
      <rect x="175.2" y="108.7" width="9.5" height="9.5"/>
      <rect x="175.2" y="127.7" width="9.5" height="9.5"/>
      <rect x="175.2" y="137.2" width="9.5" height="9.5"/>
      <rect x="175.2" y="146.7" width="9.5" height="9.5"/>
      <rect x="175.2" y="156.2" width="9.5" height="9.5"/>
      <rect x="175.2" y="165.7" width="9.5" height="9.5"/>
      <rect x="175.2" y="222.7" width="9.5" height="9.5"/>
      <rect x="175.2" y="251.2" width="9.5" height="9.5"/>
      <rect x="175.2" y="279.7" width="9.5" height="9.5"/>
      <rect x="184.7" y="13.7" width="9.5" height="9.5"/>
      <rect x="184.7" y="32.7" width="9.5" height="9.5"/>
      <rect x="184.7" y="70.7" width="9.5" height="9.5"/>
      <rect x="184.7" y="99.2" width="9.5" height="9.5"/>
      <rect x="184.7" y="108.7" width="9.5" height="9.5"/>
      <rect x="184.7" y="146.7" width="9.5" height="9.5"/>
      <rect x="184.7" y="156.2" width="9.5" height="9.5"/>
      <rect x="184.7" y="165.7" width="9.5" height="9.5"/>
      <rect x="184.7" y="175.2" width="9.5" height="9.5"/>
      <rect x="184.7" y="184.7" width="9.5" height="9.5"/>
      <rect x="184.7" y="222.7" width="9.5" height="9.5"/>
      <rect x="184.7" y="270.2" width="9.5" height="9.5"/>
      <rect x="184.7" y="279.7" width="9.5" height="9.5"/>
      <rect x="194.2" y="32.7" width="9.5" height="9.5"/>
      <rect x="194.2" y="80.2" width="9.5" height="9.5"/>
      <rect x="194.2" y="89.7" width="9.5" height="9.5"/>
      <rect x="194.2" y="99.2" width="9.5" height="9.5"/>
      <rect x="194.2" y="127.7" width="9.5" height="9.5"/>
      <rect x="194.2" y="146.7" width="9.5" height="9.5"/>
      <rect x="194.2" y="175.2" width="9.5" height="9.5"/>
      <rect x="194.2" y="184.7" width="9.5" height="9.5"/>
      <rect x="194.2" y="194.2" width="9.5" height="9.5"/>
      <rect x="194.2" y="222.7" width="9.5" height="9.5"/>
      <rect x="194.2" y="232.2" width="9.5" height="9.5"/>
      <rect x="194.2" y="270.2" width="9.5" height="9.5"/>
      <rect x="194.2" y="279.7" width="9.5" height="9.5"/>
      <rect x="203.7" y="13.7" width="9.5" height="9.5"/>
      <rect x="203.7" y="42.2" width="9.5" height="9.5"/>
      <rect x="203.7" y="61.2" width="9.5" height="9.5"/>
      <rect x="203.7" y="70.7" width="9.5" height="9.5"/>
      <rect x="203.7" y="89.7" width="9.5" height="9.5"/>
      <rect x="203.7" y="118.2" width="9.5" height="9.5"/>
      <rect x="203.7" y="156.2" width="9.5" height="9.5"/>
      <rect x="203.7" y="203.7" width="9.5" height="9.5"/>
      <rect x="203.7" y="213.2" width="9.5" height="9.5"/>
      <rect x="203.7" y="222.7" width="9.5" height="9.5"/>
      <rect x="203.7" y="232.2" width="9.5" height="9.5"/>
      <rect x="203.7" y="241.7" width="9.5" height="9.5"/>
      <rect x="203.7" y="260.7" width="9.5" height="9.5"/>
      <rect x="213.2" y="89.7" width="9.5" height="9.5"/>
      <rect x="213.2" y="146.7" width="9.5" height="9.5"/>
      <rect x="213.2" y="156.2" width="9.5" height="9.5"/>
      <rect x="213.2" y="194.2" width="9.5" height="9.5"/>
      <rect x="213.2" y="203.7" width="9.5" height="9.5"/>
      <rect x="213.2" y="241.7" width="9.5" height="9.5"/>
      <rect x="213.2" y="260.7" width="9.5" height="9.5"/>
      <rect x="213.2" y="270.2" width="9.5" height="9.5"/>
      <rect x="213.2" y="279.7" width="9.5" height="9.5"/>
      <rect x="222.7" y="99.2" width="9.5" height="9.5"/>
      <rect x="222.7" y="108.7" width="9.5" height="9.5"/>
      <rect x="222.7" y="118.2" width="9.5" height="9.5"/>
      <rect x="222.7" y="165.7" width="9.5" height="9.5"/>
      <rect x="222.7" y="184.7" width="9.5" height="9.5"/>
      <rect x="222.7" y="203.7" width="9.5" height="9.5"/>
      <rect x="222.7" y="222.7" width="9.5" height="9.5"/>
      <rect x="222.7" y="241.7" width="9.5" height="9.5"/>
      <rect x="222.7" y="270.2" width="9.5" height="9.5"/>
      <rect x="232.2" y="89.7" width="9.5" height="9.5"/>
      <rect x="232.2" y="99.2" width="9.5" height="9.5"/>
      <rect x="232.2" y="108.7" width="9.5" height="9.5"/>
      <rect x="232.2" y="118.2" width="9.5" height="9.5"/>
      <rect x="232.2" y="127.7" width="9.5" height="9.5"/>
      <rect x="232.2" y="146.7" width="9.5" height="9.5"/>
      <rect x="232.2" y="156.2" width="9.5" height="9.5"/>
      <rect x="232.2" y="184.7" width="9.5" height="9.5"/>
      <rect x="232.2" y="203.7" width="9.5" height="9.5"/>
      <rect x="232.2" y="241.7" width="9.5" height="9.5"/>
      <rect x="232.2" y="251.2" width="9.5" height="9.5"/>
      <rect x="232.2" y="260.7" width="9.5" height="9.5"/>
      <rect x="241.7" y="99.2" width="9.5" height="9.5"/>
      <rect x="241.7" y="127.7" width="9.5" height="9.5"/>
      <rect x="241.7" y="165.7" width="9.5" height="9.5"/>
      <rect x="241.7" y="203.7" width="9.5" height="9.5"/>
      <rect x="241.7" y="213.2" width="9.5" height="9.5"/>
      <rect x="241.7" y="222.7" width="9.5" height="9.5"/>
      <rect x="241.7" y="232.2" width="9.5" height="9.5"/>
      <rect x="241.7" y="241.7" width="9.5" height="9.5"/>
      <rect x="241.7" y="270.2" width="9.5" height="9.5"/>
      <rect x="251.2" y="89.7" width="9.5" height="9.5"/>
      <rect x="251.2" y="108.7" width="9.5" height="9.5"/>
      <rect x="251.2" y="137.2" width="9.5" height="9.5"/>
      <rect x="251.2" y="156.2" width="9.5" height="9.5"/>
      <rect x="251.2" y="175.2" width="9.5" height="9.5"/>
      <rect x="251.2" y="184.7" width="9.5" height="9.5"/>
      <rect x="251.2" y="203.7" width="9.5" height="9.5"/>
      <rect x="251.2" y="222.7" width="9.5" height="9.5"/>
      <rect x="251.2" y="241.7" width="9.5" height="9.5"/>
      <rect x="251.2" y="251.2" width="9.5" height="9.5"/>
      <rect x="251.2" y="260.7" width="9.5" height="9.5"/>
      <rect x="251.2" y="279.7" width="9.5" height="9.5"/>
      <rect x="260.7" y="99.2" width="9.5" height="9.5"/>
      <rect x="260.7" y="108.7" width="9.5" height="9.5"/>
      <rect x="260.7" y="118.2" width="9.5" height="9.5"/>
      <rect x="260.7" y="137.2" width="9.5" height="9.5"/>
      <rect x="260.7" y="156.2" width="9.5" height="9.5"/>
      <rect x="260.7" y="165.7" width="9.5" height="9.5"/>
      <rect x="260.7" y="184.7" width="9.5" height="9.5"/>
      <rect x="260.7" y="194.2" width="9.5" height="9.5"/>
      <rect x="260.7" y="203.7" width="9.5" height="9.5"/>
      <rect x="260.7" y="213.2" width="9.5" height="9.5"/>
      <rect x="260.7" y="241.7" width="9.5" height="9.5"/>
      <rect x="260.7" y="251.2" width="9.5" height="9.5"/>
      <rect x="260.7" y="260.7" width="9.5" height="9.5"/>
      <rect x="260.7" y="279.7" width="9.5" height="9.5"/>
      <rect x="270.2" y="118.2" width="9.5" height="9.5"/>
      <rect x="270.2" y="137.2" width="9.5" height="9.5"/>
      <rect x="270.2" y="146.7" width="9.5" height="9.5"/>
      <rect x="270.2" y="165.7" width="9.5" height="9.5"/>
      <rect x="270.2" y="175.2" width="9.5" height="9.5"/>
      <rect x="270.2" y="184.7" width="9.5" height="9.5"/>
      <rect x="270.2" y="194.2" width="9.5" height="9.5"/>
      <rect x="270.2" y="203.7" width="9.5" height="9.5"/>
      <rect x="270.2" y="213.2" width="9.5" height="9.5"/>
      <rect x="270.2" y="270.2" width="9.5" height="9.5"/>
      <rect x="279.7" y="89.7" width="9.5" height="9.5"/>
      <rect x="279.7" y="108.7" width="9.5" height="9.5"/>
      <rect x="279.7" y="137.2" width="9.5" height="9.5"/>
      <rect x="279.7" y="156.2" width="9.5" height="9.5"/>
      <rect x="279.7" y="184.7" width="9.5" height="9.5"/>
      <rect x="279.7" y="194.2" width="9.5" height="9.5"/>
      <rect x="279.7" y="203.7" width="9.5" height="9.5"/>
      <rect x="279.7" y="222.7" width="9.5" height="9.5"/>
      <rect x="279.7" y="241.7" width="9.5" height="9.5"/>
      <rect x="279.7" y="270.2" width="9.5" height="9.5"/>
    </g>
    <path d="M13.7,13.7v66.5h66.5V13.7H13.7ZM23.2,23.2h47.5v47.5H23.2V23.2Z"/>
    <rect x="32.7" y="32.7" width="28.5" height="28.5"/>
    <path d="M289.3,13.8h-66.5v66.5h66.5V13.8ZM279.8,23.3v47.5h-47.5V23.3h47.5Z"/>
    <rect x="241.8" y="32.8" width="28.5" height="28.5"/>
    <path d="M13.7,289.3h66.5v-66.5H13.7v66.5ZM23.2,279.8v-47.5h47.5v47.5H23.2Z"/>
    <rect x="32.7" y="241.8" width="28.5" height="28.5"/>
  </g>
  <path class="st0" d=""/>
</svg>