<?xml version="1.0" encoding="iso-8859-1"?>
<!-- Uploaded to: SVG Repo, www.svgrepo.com, Generator: SVG Repo Mixer Tools -->
<svg height="800px" width="800px" version="1.1" id="Layer_1" xmlns="http://www.w3.org/2000/svg" xmlns:xlink="http://www.w3.org/1999/xlink" 
	 viewBox="0 0 512.001 512.001" xml:space="preserve">
<path style="fill:#666666;" d="M256.004,305.728c25.963,0,47.023,21.06,47.023,47.023c0,17.848-9.943,33.375-24.592,41.341
	c-6.67,3.619-14.316,5.682-22.431,5.682c-8.127,0-15.761-2.063-22.431-5.682c-14.649-7.967-24.592-23.493-24.592-41.341
	C208.981,326.788,230.028,305.728,256.004,305.728z"/>
<path style="fill:#4D4D4D;" d="M270.895,394.092c-14.649-7.967-24.592-23.493-24.592-41.341c0-19.333,11.674-35.94,28.36-43.166
	c-5.721-2.478-12.028-3.859-18.659-3.859c-25.976,0-47.023,21.06-47.023,47.023c0,17.848,9.943,33.375,24.592,41.341
	c6.67,3.619,14.303,5.682,22.431,5.682c6.629,0,12.935-1.396,18.661-3.872C273.382,395.347,272.117,394.756,270.895,394.092z"/>
<path style="fill:#666666;" d="M256.004,64.584c66.588,0,120.566,53.99,120.566,120.578s-53.977,120.566-120.566,120.566
	S135.426,251.75,135.426,185.162S189.416,64.584,256.004,64.584z"/>
<path style="fill:#4D4D4D;" d="M190.702,185.162c0-57.078,39.67-104.895,92.94-117.39c-8.876-2.083-18.127-3.188-27.637-3.188
	c-66.588,0-120.578,53.99-120.578,120.578s53.99,120.566,120.578,120.566c9.511,0,18.762-1.105,27.637-3.187
	C230.372,290.048,190.702,242.241,190.702,185.162z"/>
<path style="fill:#E6E6E6;" d="M308.659,220.741c-0.877-5.041-5.676-8.419-10.715-7.538c-10.794,1.879-21.721,3.014-32.675,3.428
	V113.016c0-5.116-4.146-9.264-9.264-9.264c-5.116,0-9.264,4.148-9.264,9.264v103.614c-10.961-0.413-21.892-1.549-32.688-3.428
	c-5.04-0.881-9.838,2.498-10.715,7.538c-0.877,5.041,2.496,9.838,7.538,10.715c11.835,2.06,23.861,3.299,35.865,3.725v33.455
	c0,5.116,4.148,9.264,9.264,9.264c5.117,0,9.264-4.148,9.264-9.264v-33.455c11.997-0.426,24.019-1.665,35.852-3.725
	C306.161,230.578,309.537,225.781,308.659,220.741z"/>
<path style="fill:#333333;" d="M490.521,355.405l-56.227-56.227c-1.738-1.738-4.093-2.714-6.551-2.714h-97.616l140.008-69.749
	c4.119-2.053,6.108-6.819,4.667-11.192L405.875,6.367c-1.601-4.859-6.834-7.5-11.698-5.899c-4.859,1.601-7.5,6.839-5.898,11.698
	l66.417,201.543l-92.524,46.094c14.899-21.129,23.662-46.881,23.662-74.643c0-71.591-58.244-129.835-129.835-129.835
	s-129.833,58.242-129.833,129.833c0,27.762,8.762,53.513,23.662,74.643l-92.522-46.094l66.417-201.543
	c1.601-4.859-1.04-10.096-5.899-11.697c-4.858-1.602-10.096,1.04-11.697,5.899L37.198,215.525
	c-1.441,4.373,0.547,9.139,4.668,11.192l140.006,69.749H84.255c-2.457,0-4.813,0.976-6.55,2.714L21.48,355.405
	c-3.618,3.618-3.618,9.484,0,13.1c1.808,1.808,4.18,2.714,6.55,2.714s4.742-0.904,6.55-2.714l53.513-53.513h91.555L77.716,362.767
	c-3.253,1.525-5.332,4.795-5.332,8.388v75.65c0,5.116,4.148,9.264,9.264,9.264c5.116,0,9.264-4.148,9.264-9.264v-69.76l94.52-44.3
	l-34.348,107.143c-1.059,3.304-0.183,6.924,2.271,9.379l60.02,60.02c1.808,1.808,4.18,2.714,6.55,2.714s4.742-0.904,6.55-2.714
	c3.618-3.618,3.618-9.484,0-13.1l-56.023-56.023l29.452-91.87c-0.116,1.475-0.193,2.959-0.193,4.463
	c0,18.937,9.408,35.705,23.787,45.914c-0.934,11.922,3.308,23.63,11.98,32.304c1.81,1.808,4.18,2.714,6.551,2.714
	c2.372,0,4.742-0.904,6.55-2.712c3.618-3.618,3.618-9.484,0-13.102c-2.964-2.964-4.985-6.574-5.978-10.451
	c4.297,1.054,8.781,1.624,13.398,1.624c4.617,0,9.101-0.571,13.397-1.624c-0.993,3.878-3.014,7.488-5.978,10.452
	c-3.618,3.618-3.618,9.484,0.001,13.1c1.81,1.808,4.18,2.712,6.55,2.712c2.37,0,4.742-0.904,6.551-2.714
	c8.672-8.672,12.913-20.38,11.98-32.301c14.379-10.209,23.788-26.979,23.788-45.915c0-1.504-0.077-2.989-0.193-4.464l29.453,91.871
	l-56.023,56.023c-3.618,3.618-3.618,9.484,0,13.1c1.81,1.808,4.181,2.714,6.551,2.714c2.37,0,4.742-0.904,6.551-2.714l60.02-60.02
	c2.453-2.454,3.33-6.073,2.27-9.379l-34.35-107.144l94.52,44.301v69.76c0,5.116,4.146,9.264,9.264,9.264s9.264-4.148,9.264-9.264
	v-75.65c0-3.593-2.079-6.863-5.332-8.388l-101.931-47.774h91.556l53.512,53.513c1.81,1.808,4.181,2.714,6.551,2.714
	c2.37,0,4.742-0.904,6.551-2.714C494.139,364.889,494.139,359.023,490.521,355.405z M255.999,73.854
	c61.375,0,111.307,49.932,111.307,111.307s-49.932,111.307-111.307,111.307c-61.374,0-111.306-49.932-111.306-111.307
	S194.626,73.854,255.999,73.854z M255.999,390.517c-20.821,0-37.761-16.939-37.761-37.762c0-17.626,12.141-32.467,28.497-36.607
	v27.58c0,5.116,4.148,9.264,9.264,9.264c5.116,0,9.264-4.148,9.264-9.264v-27.58c16.356,4.142,28.497,18.982,28.497,36.607
	C293.761,373.577,276.821,390.517,255.999,390.517z"/>
</svg>