<?xml version="1.0" encoding="UTF-8"?>
<svg id="Layer_1" xmlns="http://www.w3.org/2000/svg" xmlns:xlink="http://www.w3.org/1999/xlink" version="1.1" viewBox="0 0 1024 1024">
  <!-- Generator: Adobe Illustrator 29.6.0, SVG Export Plug-In . SVG Version: 2.1.1 Build 207)  -->
  <defs>
    <style>
      .st0 {
        fill: #1391aa;
      }

      .st1 {
        fill: #344dbd;
      }

      .st2 {
        fill: #41a6c9;
      }

      .st3 {
        fill: #536eb8;
      }

      .st4 {
        fill: #6b81ca;
      }

      .st5 {
        fill: #3898bf;
      }

      .st6 {
        fill: #036;
      }

      .st7 {
        fill: #f5f9f8;
      }

      .st8 {
        fill: #4f78cc;
      }

      .st9 {
        fill: #3ebebb;
      }

      .st10 {
        fill: #477fcb;
      }

      .st11 {
        fill: #389bc3;
      }

      .st12 {
        fill: #006592;
      }

      .st13 {
        fill: #4388a9;
      }

      .st14 {
        fill: #4c75cb;
      }

      .st15 {
        fill: #f9c75f;
      }

      .st16 {
        fill: #dd9453;
      }

      .st17 {
        fill: #3e90c7;
      }

      .st18 {
        fill: url(#linear-gradient2);
      }

      .st19 {
        fill: url(#linear-gradient1);
      }

      .st20 {
        fill: url(#linear-gradient3);
      }

      .st21 {
        fill: #983220;
      }

      .st22 {
        fill: #ecd3cf;
      }

      .st23 {
        fill: #0462b3;
      }

      .st24 {
        fill: #df9415;
      }

      .st25 {
        fill: #3b99c3;
      }

      .st26 {
        fill: #4c91d2;
      }

      .st27 {
        fill: #6d5ec9;
      }

      .st28 {
        fill: #5272cd;
      }

      .st29 {
        fill: #3dadca;
      }

      .st30 {
        fill: #3e98a6;
      }

      .st31 {
        fill: #90aeb7;
      }

      .st32 {
        fill: #1277aa;
      }

      .st33 {
        fill: #1389b4;
      }

      .st34 {
        fill: #55a4cc;
      }

      .st35 {
        fill: #4086c7;
      }

      .st36 {
        fill: #3c9ac4;
      }

      .st37 {
        fill: #36a2bc;
      }

      .st38 {
        fill: #33aab2;
      }

      .st39 {
        fill: #5074cc;
      }

      .st40 {
        fill: #428bc8;
      }

      .st41 {
        fill: #0268ae;
      }

      .st42 {
        fill: #7a58ca;
      }

      .st43 {
        fill: #0469ac;
      }

      .st44 {
        fill: #3d8bc3;
      }

      .st45 {
        fill: #128aaa;
      }

      .st46 {
        fill: #48a0c6;
      }

      .st47 {
        fill: url(#linear-gradient);
      }

      .st48 {
        fill: #026fae;
      }

      .st49 {
        fill: #477fb5;
      }

      .st50 {
        fill: #546fcc;
      }

      .st51 {
        fill: #a5470f;
      }

      .st52 {
        fill: #ecf1f2;
      }

      .st53 {
        fill: #0972b5;
      }

      .st54 {
        fill: #078691;
      }

      .st55 {
        fill: #be7613;
      }

      .st56 {
        fill: #4486ca;
      }

      .st57 {
        fill: #5974d6;
      }

      .st58 {
        fill: #0b74a6;
      }

      .st59 {
        fill: #184bbb;
      }

      .st60 {
        fill: #03426f;
      }

      .st61 {
        fill: #c78242;
      }

      .st62 {
        fill: #5dd6c4;
      }

      .st63 {
        fill: #f8fbf9;
      }

      .st64 {
        fill: #4287c9;
      }

      .st65 {
        fill: #1465b7;
      }

      .st66 {
        fill: #c87f52;
      }

      .st67 {
        fill: #35a8b8;
      }

      .st68 {
        fill: #596bcc;
      }

      .st69 {
        fill: #0f5fb9;
      }

      .st70 {
        fill: #6b60cc;
      }

      .st71 {
        fill: #6673d8;
      }

      .st72 {
        fill: #1280ba;
      }

      .st73 {
        fill: #007a99;
      }

      .st74 {
        fill: #285cc0;
      }

      .st75 {
        fill: #4380c8;
      }

      .st76 {
        fill: #d26b1f;
      }

      .st77 {
        fill: #3f90c7;
      }

      .st78 {
        fill: #467eca;
      }

      .st79 {
        fill: #6e5ac9;
      }

      .st80 {
        fill: #8055c9;
      }

      .st81 {
        fill: #5883cf;
      }

      .st82 {
        fill: #36a9ba;
      }

      .st83 {
        fill: #7873d2;
      }

      .st84 {
        fill: #3d95c6;
      }

      .st85 {
        fill: #e9ad55;
      }

      .st86 {
        fill: #39a0c1;
      }

      .st87 {
        fill: #735ccb;
      }

      .st88 {
        fill: #3a96c3;
      }

      .st89 {
        fill: #0270ae;
      }

      .st90 {
        fill: #1162ba;
      }

      .st91 {
        fill: #3e8ec6;
      }

      .st92 {
        fill: #ba331b;
      }

      .st93 {
        fill: #7756c7;
      }

      .st94 {
        fill: #cd8778;
      }

      .st95 {
        fill: #159dae;
      }

      .st96 {
        fill: #0d82b7;
      }

      .st97 {
        fill: #526dcb;
      }

      .st98 {
        fill: #487fcb;
      }

      .st99 {
        fill: #6264cc;
      }

      .st100 {
        fill: #6f4b9a;
      }

      .st101 {
        fill: #3fb0ba;
      }

      .st102 {
        fill: #5c65ca;
      }

      .st103 {
        fill: #34a5b6;
      }

      .st104 {
        fill: #4c79cc;
      }

      .st105 {
        fill: #5f67cc;
      }

      .st106 {
        fill: #655fc9;
      }

      .st107 {
        fill: #586aab;
      }

      .st108 {
        fill: #3daead;
      }

      .st109 {
        fill: #3f8bc8;
      }

      .st110 {
        fill: #1152bc;
      }

      .st111 {
        fill: #48a2c9;
      }

      .st112 {
        fill: #5781d6;
      }

      .st113 {
        fill: #0984ad;
      }

      .st114 {
        fill: #a85a16;
      }

      .st115 {
        fill: #1457bb;
      }

      .st116 {
        fill: #ebb67b;
      }

      .st117 {
        fill: #1e69bd;
      }

      .st118 {
        fill: #a160e5;
      }

      .st119 {
        fill: #54a1cd;
      }

      .st120 {
        fill: #e9eae9;
      }

      .st121 {
        fill: #418bc9;
      }

      .st122 {
        fill: #6063b5;
      }

      .st123 {
        fill: #fcfcfa;
      }

      .st124 {
        fill: #0b75b9;
      }

      .st125 {
        fill: #33adb5;
      }

      .st126 {
        fill: #4695d3;
      }

      .st127 {
        fill: #7f51c3;
      }

      .st128 {
        fill: #f39126;
      }

      .st129 {
        fill: #ecf2f3;
      }

      .st130 {
        fill: #6761cb;
      }

      .st131 {
        fill: #37a6bd;
      }

      .st132 {
        fill: #1caaa2;
      }

      .st133 {
        fill: #055ab3;
      }

      .st134 {
        fill: #0c6780;
      }

      .st135 {
        fill: #ab4c34;
      }

      .st136 {
        fill: #359eb9;
      }

      .st137 {
        fill: #4d70ca;
      }

      .st138 {
        fill: #3a98c3;
      }

      .st139 {
        fill: #1b6fb9;
      }

      .st140 {
        fill: #489fc9;
      }

      .st141 {
        fill: #586acc;
      }

      .st142 {
        fill: #de4424;
      }

      .st143 {
        fill: #f5f7f6;
      }

      .st144 {
        fill: #ebf4f7;
      }

      .st145 {
        fill: #fafcfb;
      }

      .st146 {
        fill: #35afb6;
      }

      .st147 {
        fill: #467bca;
      }

      .st148 {
        fill: #0a5067;
      }

      .st149 {
        fill: #35b1b2;
      }

      .st150 {
        fill: #0888a5;
      }

      .st151 {
        fill: #104ab8;
      }

      .st152 {
        fill: #4e78ad;
      }

      .st153 {
        fill: #0a95a8;
      }

      .st154 {
        fill: #fafbfa;
      }

      .st155 {
        fill: #f5f6f6;
      }

      .st156 {
        fill: #1936b7;
      }

      .st157 {
        fill: #3b90c4;
      }

      .st158 {
        fill: #4092ae;
      }
    </style>
    <linearGradient id="linear-gradient" x1="-1122" y1="465.3" x2="-1106" y2="509.5" gradientUnits="userSpaceOnUse">
      <stop offset="0" stop-color="#018ea1"/>
      <stop offset="1" stop-color="#004e86"/>
    </linearGradient>
    <linearGradient id="linear-gradient1" x1="-1083.9" y1="521.1" x2="-1093.3" y2="554.4" gradientUnits="userSpaceOnUse">
      <stop offset="0" stop-color="#bb3719"/>
      <stop offset="1" stop-color="#9e2014"/>
    </linearGradient>
    <linearGradient id="linear-gradient2" x1="-1038.3" y1="427.6" x2="-1066" y2="523.5" gradientUnits="userSpaceOnUse">
      <stop offset=".2" stop-color="#f49c19"/>
      <stop offset=".5" stop-color="#cd5c1d"/>
      <stop offset="1" stop-color="#b93319"/>
    </linearGradient>
    <linearGradient id="linear-gradient3" x1="-1052.6" y1="447.2" x2="-1057" y2="519.9" gradientUnits="userSpaceOnUse">
      <stop offset="0" stop-color="#faaf4e"/>
      <stop offset="1" stop-color="#e4572d"/>
    </linearGradient>
  </defs>
  <g>
    <path class="st149" d="M-995.6,393.6c14.8,2.7,24.7,15.8,25.5,30.4-1.1,47,4.1,95.4-1.6,141.5-2.8-.8-3.7-3.9-2.7-9.3-1.8-2.1-2.6-4-2.2-5.6-3.9-.5-4.8-7.7-4.3-11.5-1.2-2.9-1.1-5.3.1-7.2-2.3-1.8-2.7-4-1.8-6.7-2.9-3.9-3.3-8.9-1.3-15.2-3.4-2.6-3-5.4.5-7.8l.4-3.1c-2.3-2.2-3.3-5.6.4-6.5-4.4-8.3-.7-18.9-1.4-28-.8-6.5-1.9-12.9-3.2-19.2.6-5.5.7-10.8-2.1-15.3l1.4-2.2c-2.9-1.3-3.4-4-1.9-6.7-2-1.6-2.5-2.5-2.2-5-3-3.6-4.5-8-4.6-13.2-5.5-1.1-3.2-9,1-9.3Z"/>
    <path class="st87" d="M-1144.5,394.6c5-1,2.5,8.4-1.4,8-2.5,5.5-2.4,10.8.1,15.8-1.3,6.3-.7,11.7,1.8,16.4-1.9,3.5-1.5,6.6,1.3,9.2,4.6,31.4,7,65.1,2.2,97.4l-1.2,1.1c.2,6-2.2,14.5-6.8,17.9-2.9.4-4.8-7.6-2-9-3.4-45.9,5.7-93-7.8-137.6.6-8.7,6-15.3,13.8-19.3Z"/>
    <path class="st80" d="M-1157.5,405.6c2.1,7-8.1,17.7.6,22.3-1.5,3.4-1.1,6.3,1.2,8.8-.7,2.8-.2,6.1,1.3,9.8-1.1,4.7-1.7,8.1.3,12.4-.5,8.5.2,15.3,2.1,23.3-1.9,2-2.1,6.1.3,7.7-2.4,8.6-3.6,19.5-1.5,29.3l-3,28.9c1.1,2.9.7,4.7-1.3,5.4,4.2,2.6,2,9.2-2.9,10.6,5.4,5.6,6,9,1.9,10.4-4.1-5.3-7.5-10.7-8-18,4.3-8.4,1-109.4,2-120.9-.7-.3-.6-.6,0-1,.8-3.2.9-6.8,0-10-.3.9-.6.8-1,0-.3.9-.6.9-1,0,1.7-8.2,3.9-12.6,9-19Z"/>
    <path class="st42" d="M-1152.5,400.6c-7.3,10.4-1.8,18.2.7,28.6,0,9.5,12.2,139.3-5.7,124.2-1.1-10.8,1.6-22.1,2.1-31.4.9-7.4-1.5-8.1-1.2-14.1s1.4-7.7,1.7-11.6-2.1-2.8,2.3-5.9c-.9-.2-2.9.5-3-.5s.4-6.5.5-7c.2-.9,1.8-2,1.5-2.5-3.9-1-3.5-1.5-1.3-4.5,0-.7-1.7-1.7-1.5-2.8s2.3-2.1,1.9-2.6c-4.3,1.1-.8-8.2-1.6-11.8-.2-2-1.9-3.7-1.9-4.7s1.4-1.4,1.2-2.5c-.4-2-3.3-2.4.4-3.4.9-3.1-1.9-2.3-2-2.5-.4-.7,1.9-1.8,1.9-2.5s-2.5-2.1-2.9-3c-.8-2,2.5-.9,1.9-2.9s-2.6-3-2.8-4.3,2.2-3.4,1.5-4.8-4-2-4.4-5.1l5.7-17.4c2.7-3.4,2.1-2.6,5-5Z"/>
    <path class="st146" d="M-995.6,393.6l-3,7c5.8-.6,3.2.6,4.2,4.3s.7,5,1.1,6.1c.7,2.4,4.8,3.7,2.7,7.6h4c0,2.6-2.6,3.3-2,6.3s2.3.8,2.6,2.6-1.5,2.1-1.6,3.5c4.4,1.5,2.1,11.1,2.4,14,0,1.5,2.4,7.3,2.5,10.1s-2-1.6-.3,5.4,1.6,9.4,1.5,12.4-2,.5-2.1,1.1c.2,3.3.5,13,3,15.4-.6.8-1-1.8-2,3-3.3,5.3-11.4,4.1-6.6-3.4-2.3-3.4-1.4-6.8,2.5-10.2-1.4-1.6-1.9-3.5-1.2-5.5-3.4-2.3-4.8-5.7-1-8.5-1.8-4.2-2.3-9-1.4-14.5-.3-1.6-1.9-3.6-3.3-1.8-.3.9-.6.9-1,0-1.7,2.5-3-7.4-2-8l-1.1-1.6c0-3.9-2.3-6.7-7.1-8.4-.7-4-1.8-8-3.1-12.1-4-1.8-4.6-4-2-7.5-2.7-2.7-3.8-5.6-3.3-8.8-2.8-2.2-3-7.5.6-8.5-2.4-2,10.2-1.9,12-2,1.2,0,3.8,1.6,5,2Z"/>
    <path class="st38" d="M-994.6,555.5c.7-3.7,6-6.2,9.6-7.4,3.7-7,5.3-2.8,6.7,2.4,8.9,1.6,4.2,9.7,6.6,15.1-4.5,10.8-9.2,15.6-20,20-2.5-1-2.1-2.7,1.1-5.1-2.7-3.2-4.3-6.4-5.3-10.5-3.5-1.4-3.6-8,.2-8.4-2.4-3.7-2.1-5.7,1-6Z"/>
    <path class="st130" d="M-1133.5,391.6c.9,0,1.3.4,1,1,.9.2.9.6,0,1,6.1,3.2-2.3,13.5,2.1,18.5-2.7,16.4,4.2,35.2-3.1,50.4-6.8-.8-8.4-12-4.8-17.6-1.2-.2-1.7-1.1-2.2-2.4l-1.8-1.1c1-10.1.4-19.9-2-29.3,1.9-4,2-6.8.3-8.3,1.6-7.3,1.4-11.4,10.5-12.3Z"/>
    <path class="st103" d="M-995.6,561.5c-.2.2-.9,5.6-.8,5.8,4.3.4,3.2,12,7.8,9.2-1.6,2.1.9,4.3.9,4.5,0,1-4.5,1.9-3.9,4.5-5.7,3-11.9,1.6-18,1-.8-1.7.3-3,3.1-3.8-1.3-3.3-7.7-13.1-3.1-14.2-2.3-1.9-2.5-4.6-.4-8.2-1.4-2.2-1.3-3.8.4-4.8,1.7-4.7,6.7.4,8.6,3.4,3.1-1.5,5.8-1.3,5.4,2.6Z"/>
    <path class="st27" d="M-1140.5,393.6c1.6,3.6-2,7.8-2,9.5s2.1,0,2.1,1.9c-1.8,7.3-3,5.3,0,13,.3,2.8.5,23.2,0,24.5,1.6,2.3,1.7,5.5.2,9.6,2,4.7,1.9,7.8-.2,9.4l-4-1c2,.2,1.3.5,1.6-1,.9-7.4.5-6-3.3-10.4,2.4-4.7,2.4-3.8-1-8.2-.7-1.9,1.5-4.8,1.3-5.8-5.5-7,.8-15-4.4-23.8.2-2.4,4-6.6.8-10.6h6c-4.9-4.6,4.3-3.1-1-6,1.1-.5,2.8-.6,4-1Z"/>
    <path class="st79" d="M-1140.5,541.5c2.3,1.3,2.6,4,.9,8,.7,4,3.4,5.8.9,10.6.8,7.4.8,14.8,0,22.3,2.6,1.2,3.4,2.5,2.2,4.1.9,1.1.3,1.4-1,1-5.3.5-9.8-4.1-13.2-7-1.5-3.5-.7-17.5,2.2-19.9.7-5.1,4.1-9.6,5.6-14s-1.1-7.8,2.4-5Z"/>
    <path class="st93" d="M-1150.5,551.5c3.7,8.9,0,21.2,2,30.2.8,2.7,8.1,1.6,8,5.7-8.6-2.3-13-6.5-18-13,3.3-5-4.4-7.1-4-11.4,6.3-4.4,4.8,0,5-9.6l7-2Z"/>
    <path class="st9" d="M-968.7,423.6c-.4,45.1,2.2,91.1-1,135.9l-2-144.9c1.2,3,2.7,5.7,3,9Z"/>
    <path class="st118" d="M-1164.5,434.6c0,9.4,0,112,0,118.4,0,1.9,1,4-2,3.5.3-43.1.8-86.8,1-131.9.3,0,.8-.1,1,0,1,3.2.8,6.8,0,10Z"/>
    <path class="st108" d="M-968.7,556.5v-132.9c4.3,41.6-3.2,90.5,0,132.9Z"/>
    <path class="st100" d="M-1166.5,553.5v-128.9h1c-1,42.7,1.9,86.6-1,128.9Z"/>
    <path class="st2" d="M-1037.6,586.4c4.6-2,9.4-2,14,0,4.6-2.7,9.4-2.8,14,0,3.6,0,7.7-.7,11,1-14.3,2.6-30.4-.4-46,0-2.6-1.1,5.8-3.7,7-1Z"/>
    <path class="st158" d="M-1000.6,588.4c-13.2,1.3-30.2,0-44,0-.9-.3-.9-.6,0-1,12.8,0,25.7-.2,38.5,0,1.7,0,4.4-.6,5.5,1Z"/>
    <path class="st49" d="M-1074.6,587.4c10-.7,20-.7,30,0v1c-13.3,0-26.7,0-40,0-2.5-2.1,8.7-1.8,10-1Z"/>
    <path class="st30" d="M-1000.6,391.6c-11.7,1.1-25.9,2.3-38,1-.9-.3-.9-.6,0-1h38Z"/>
    <path class="st13" d="M-1038.6,391.6v1c-49.2,1.8-51.3-2.2,0-1Z"/>
    <path class="st71" d="M-1127.5,586.4c3.6-2,7.4-2,11,0,2.6-2,5.4-2,8,0,1.6-2,3.4-2,5,0,2.4,2.2-10.4,1.6-12,1-5.7-.4-17.6,2.5-22,0,.1-.5.5-1,1-1,1.1-3.2,7.7-3,9,0Z"/>
    <path class="st107" d="M-1101.5,391.6c.9.3.9.6,0,1-.3.7-.6.7-1,0-9.4.8-20.4.8-30,0,0-.2-.8-.6-1-1,9.8-.9,21.8,0,32,0Z"/>
    <path class="st3" d="M-1103.5,587.4c6.3-.7,12.7-.7,19,0v1c-10.3,0-20.7.1-31,0-2.6-2,10.4-.6,12-1Z"/>
    <path class="st152" d="M-1076.6,391.6v1c-2.1,1.1-5.5.6-8,0,.3,2.1-1.3,2.1-5,0,.4,3-5.5,2.8-6,0,.2,3.6-6.6,2.5-6-1,8.3,0,16.7,0,25,0Z"/>
    <path class="st122" d="M-1115.5,587.4v1c-6.6,0-14.7.7-21,0,6.4-1.8,14.2-1,21-1Z"/>
    <path class="st125" d="M-993.6,448.6c0-1.4-1.3-4.6-1-5s1.5.8,2,.5c1-.5-.2-2.9,1.5-3.5,4.1-1.6,3.8,4.5-.5,5.5,7.9,3-1.3,16.4,6,18.5-.4,1.6-4,2.1-3.8,4.5,1.7,3,4.2,2.1,3.1,6.8,4.3,5.1-3.1,5.5-2.4,11.1.2.7,2.1.5,2.1,1.1,0,1.7-3.1,3.8-2,6.5,1.7.4.4-1.8,1.6-2.1s3,1.3,4.4,0c-1.1,5.5.1,2.9,1.4,6s-1.8,2.7,1.5,3.5c-8.9,5.6-3,4.6-2.4,7.4,1.1,3.7-4.1,11.8,1.5,14.8-1.7,6.3,1.4,5.4,5,9.8l-5-.5c1.9,4,2.1,6.6,1,11l2-1c-2.3,6.1,1.3,3.6,1,7-2.9,4.7-2.9,1.2-3.9-1.6s.9-2.9-2.1-2.3l1,4c-5.1-2.3-8.4,3.8-13,5l-2.2-1.9c-1.5-8.4-2-16.9-1.5-25.3,1.5-2.2,2.1-4.8,1.6-7.7-1.2-.5-1.1-1.2,0-2l1-5,1-1c1-21.3,1.3-42.6,1-63.9Z"/>
    <path class="st70" d="M-1140.5,442.6c8.6.3,1.2,7.1,1.2,9.3,0,3.7,4,7.6,5.8,10.7,0,19.2.3,38.1,1,56.9,3.1,7.5,2.9,17.4,0,25-.2,3-.3,4.9-3.6,5.2.6,2.6-.2,3.8-2.4,3.8-3.7-3.3-2-7.7-2-12,.7-32.5-.8-67,0-98.9Z"/>
    <path class="st127" d="M-1164.5,539.5c.1-34.6,0-69.3,0-103.9v103.9Z"/>
    <path class="st127" d="M-1164.5,434.6v-10c1.6,1,1.7,8.1,0,10Z"/>
    <path class="st82" d="M-1012.6,393.6c0,3.5-2.5,6.2,1.9,7.1-2.2,4.3,1.1,7.6,3.2,9.4,0,1.6-2.8,4.2-2,5.3,4.1.6,4.2,4.9,5,8.4.2.9,2,.7,2,1.3-2.5,6.9,2.1,5.2,5.8,7.5.5.7.9,13.3-1.8,6.8-2.7-3.3-5.7-5.9-9-8-.9-.3-.9-.6,0-1-1.4-1-3.4-1.9-6.3-2.5,0-1.8-1.4-2.5-4.3-2.3-.6-2.2-1.4-3.5-2.4-4.1-2-6.4-4.2-12.8-6.5-19.1-3.2-1.4-4.1-4.4-2.5-8.9,5.1-.9,11.8-.9,17,0Z"/>
    <path class="st153" d="M-996.6,440.6c2.3,25.4,3.3,53.2,0,77.9-.8-.6-.4-1.2,0-2l-1-1.5c1.2-25.6.6-50.6-1-75.5l2,1Z"/>
    <path class="st95" d="M-994.6,512.5c-.3.4-.6.7-1,1,.4-21,.9-44.1,0-64.9h1c1.4,20.6,1.7,42.9,0,63.9Z"/>
    <path class="st101" d="M-994.6,512.5v-63.9h1c.2,17.9,3.2,47.2-1,63.9Z"/>
    <path class="st29" d="M-1038.6,392.6c8.6,0,17.3,0,26,0v1h-17c-2.6,2-5.4,2-8,0-2.3,2-4.7,2-7,0-2.1,2.9-10.5.4-8-1,4.7,0,9.3,0,14,0Z"/>
    <path class="st67" d="M-996.6,520.5l4,5.5c-2.3,1.8-3.5-.5-3.9,4.1-.7,7.7,1.3,17.5,1.9,25.4s-1.9,3.5,1,5.5c-.2.9-1.8.3-2,.5-2.2-3.3-4.8.2-6-.4s-3.3-6.4-8-5.6c-3.7-.5-2.9-10.1-2.2-13.2,2.1-9,8.9-15.6,15.2-21.7Z"/>
    <path class="st105" d="M-1124.5,393.6c3.1.8,3.2,3.8.3,9.1,1.9,7.7,1.7,15,.7,22.8,2.5,2.3,2.7,5.5.6,9.6l1.6,12.9c-2.6,3.1-2.6,3.3-1.7,6.9-2.6,1.2-5.9,1.1-7.3,3.7,0,.6-.4,1-1,1-.3.9-.6.9-1,0,0-8.2,1.3-21.7-.2-29.2-2.5-8.7,3.5-18.3-1.8-20.4-.4-2.8,3.5-7.1,0-8.8-.4-.8,1.7-.1,2-1.1s0-4.7,0-6.3c2.1-.9,5.8-.8,8,0Z"/>
    <path class="st83" d="M-1132.5,518.5c.9.2.9.5,0,1-1.7-1-1-3.8-1-5.5.4-17-2.7-38.4,1-54.5.9,19.6.8,39.3,0,58.9Z"/>
    <path class="st57" d="M-1102.5,392.6c.9.3.9.6,0,1-.6,3-8.2,3-9,0,0,3-4.5,2.8-5,0-.4,3.1-7.3,2.9-8,0h-8c0-.3,0-.7,0-1h30Z"/>
    <path class="st37" d="M-1004.6,528.5c-.4.9-.2,2.5-.5,3.5-.5,2.1-3.2,1.9.5,3-8,4.3-6.2,18-3.4,25,.2,2.5-2.3,3.7-1.6,8.5-2.2,1.7-6.3,0-8.6-1.4-2.7,2.4-7-3-6.4-5.6-2.9-1.6-4.6-4.6-2.8-7.8-3.3-1.2-3.7-8.3-1.2-10.2-5.8-1.7-1.6-7.8,3-9,3.9-.5,7.9-.8,12-1-.3-1.3,3.6-2.4,5-2.4s-1.1,1.3,0-.6c-.9-2.8,2.1-4.1,4-2Z"/>
    <path class="st136" d="M-1024.6,561.5c.1.3,4.6,2.7,4,5,2,.9.5-6.9,3-4-1.1,5.3,5.5,3.3,8,6,.4,2.7.8,7,4,7v1c-5.2,0,2,3.3,1,7.5-5.5,3.9-12.6,2.2-19,2.5-3.4-2.5-3.1-7.2-1.6-11.3-2-2.1-2.1-4-.4-5.8-4.1-2.6-3.7-7.2,1-8Z"/>
    <path class="st106" d="M-1132.5,544.5l2.1,1.8c1,4.9,1.3,12-.1,16.8,2.5,4.8,3.2,10.2,2,15.4,8.7,9.7-.7,7.7-8,8-.5-1.6-3.8-1.4-4.1-2.7-.6-2.8.7-12.3.7-15.8,0-8.2-2.6-6,1.4-14.5s-.5-3.7.1-4.8,5.8-.5,5.9-4.2Z"/>
    <path class="st5" d="M-1028.6,543.5c.3,4.7.9,2.7,1,3.6-1.3,4.2-.3,4.3,2.9,5.4.3.4-1.9,3.6-1.9,4.5,3,1,1.8,2,2,4.4.2,1.5-2.3,3.4-2,4.5s6.3,3.3,1,6c6.2,3.5-2.2,7.6,3,12l-1,2.5c-4.7,0-9.3,0-14,0-2.6-4.2-4.6-9.9-1-12.4-1.7-2.4-1.7-4.3,0-5.6.5-5.2.6-10.3.4-15.4l2.7-2.4c1.6-8.2,3.9-10.6,6.9-7.2Z"/>
    <path class="st157" d="M-1044.6,534.5c.5,2,1.5,4,2.8,6-.9,5.5.3,10.9,3.7,16.4-.5,3.7-.3,6.9.9,9.7l-1.4,1.7c2.5,6.7,2.6,5.4-1,10.5,0,.4,5.3,2.7,2,7.5-3.4,0-13.9,1-6.4-4.3-2.3-4-4.7-7.9-7.2-11.8,2.6-9.7-4.4-14.7-2.2-21.4-1.1-1.9-1.9-13.5-1.3-13.9,3.2-1.2,6.9-1.7,10.2-.7Z"/>
    <path class="st26" d="M-1064.6,586.4c2.9-1.2,5.5-2.1,8,0,4-2,8-2,12,0,0,.3,0,.7,0,1-10,0-20,0-30,0-.9-.3-.9-.6,0-1,.2-.9.5-.9,1,0,3-2,6-2,9,0Z"/>
    <path class="st112" d="M-1099.5,586.4c1.6-2,3.4-2,5,0,3.7-1.6,7.4-1.8,11,0,3-2,6-2,9,0v1c-9.3,0-19.7,0-29,0v-1c1.3-1.9,2.7-1.9,4,0Z"/>
    <path class="st126" d="M-1076.6,392.6c8,0,16,0,24,0,0,2.3.8,4.7-2,2-.8,2.9-5.2,1.7-6-1-2.3,2-4.7,2-7,0-3,2.2-5.2,2.6-8,0-2.1,3.2-9.4,3.4-9-1h8Z"/>
    <path class="st141" d="M-1122.5,519.5c7.4-2.8,8.3,1.1,7.8,7.8,8,1.8-.3,10.5,6.1,14.3,1.1,5.4,1.3,10.6.7,15.6,2.3,3.9,2.3,8.5,0,13.8.6,3.8.4,7.7-.4,11.8,4.9,4.8-5.6,3.5-8.3,3.6-1.8-.8-2.1-3.1-1-7-2.7-5.6-3.2-11-1.2-16l-1.2-2.6c2.9-3.9.4-7.8-2-11.1l.2-10.9c-1.2-.6-2.4-2.2-2.8-3.3l-1.3-.5c-.2-3.3-.5-6.7-.7-10.2-3.1-.3-5.6-2.9-2-4.2,1-2.9,4.3-3.8,6-1Z"/>
    <path class="st102" d="M-1124.5,535.5l5,2.1c-.4,3-.8,8.2-.5,11s2.2,2.8,2.5,3.7c.7,2.1,2,8.5-.9,8.7,3.7,2.4.4,4.2.3,7,.5,7.9,4.2,11.4,1.7,18.5-3.7,0-7.3,0-11,0l1-3c-4.1,0-1.7-3.7-2-5,0-7.9.9-15.8,2.5-23.5-1.3-3.3-1.2-5.9.4-7.6v-7.7c-1.6-2.5-1.3-3.9,1.1-4.1Z"/>
    <path class="st97" d="M-1111.5,537.5c5.5-1.7,8,8.6,6.9,13.1,4.8,2.5,1,11.4,6,14.4l-.8,10.3c1.9,3.3,1.8,7-.1,11.1-3,0-6,0-9,0,.8-2-1.8-1.9-1.8-2.5-.1-1.9,1.5-4.7-1.2-7l3-.5c-4.7-7.1,5-14.1-2.1-18.5,2.8-3.7,1.1-11,1-15.9,0-.4-4.3-1.9-2-4.6Z"/>
    <path class="st104" d="M-1095.5,392.6l2.2.7-.3,11c4.1,4.5,4.7,9.2,1.6,14,3.8,2.6,1.3,7.9-3.1,8.4-.7.2-4.8,5.1-5.4,3.8-6.1.7.8-16.1-4.7-23.5,1.2-3.7,1.3-7.7.3-11.8,4.5-1.2,5.3-1.8,2.5-1.7v-1h7Z"/>
    <path class="st98" d="M-1089.5,392.6l3.5.7c3.2,2.2,5.2,19,5.1,23.4.9,10.8-9.4,13.7-18.5,13.9,1.2-3.4,3-7.1,7-6-.8-2.2-2.1-3.3,1-3,.2-1.7-2.9-1.3-3-2.5s3.3-5.5,2.6-8.5-2.4-2.6-3.1-4c-1.9-4.2,1-9.2-.5-13.9h6Z"/>
    <path class="st56" d="M-1084.6,392.6c2,1.8,6.2,1,9,1,1.3,3.8,1.6,7.8,1,12,2.4,5.6,7.9,21.6-1,23-.4,1.2-1.4,1.2-3,0-2.4,1.6-7.4,1.4-10,0-.2-4.3,4.1-3.9,4.8-5.6,2.2-5.2-1-22.3-2.7-27.9s-1.5-1.3-3.1-2.5h5Z"/>
    <path class="st45" d="M-996.6,518.5c.6,4.6-4.5,8.1-8,10-2.3-2.2,3.2-8.6,6-8,0-2.9.7-4.2,2-4,0,.7,0,1.4,0,2Z"/>
    <path class="st99" d="M-1130.5,518.5c1.3.2,2.2.6,2,2,.1.1-.2,1.2.3,1.7,1,.8,3,.2,3.6,1.9s.7,8.7.1,11.4.4,1,.9,2.6,0,9.1,0,10.9-2,.2-1.9.9c3.2,4.7.4,10-.4,15-.6,4,.2,9.7-2.6,13.5-1.1-5.4-1.8-11.9-5-16.5-.3-.9,1.8-.1,1.9-.9-.5-13.8-1.3-27.6-.9-41.5-.2-.8.3-2.6,1-1,.3-.9.6-.9,1,0Z"/>
    <path class="st131" d="M-1029.6,393.6c3.5,1.2.2,4,1.5,6,5.3,2.4,1.4,5.9,6.5,5l-3,1.5c2.8,4.7,5.1,8.7,5,14.5l3-1-1,5c6.5-1.8,4.9,3.1,6.1,3.9s4.7-1.4,3.8,2.1c-7.5-.2-22.2-1.7-23-10.1-3.8-5.6-5.3-11.4-4.6-17.5-5.5,0-5.1-6.3-2.4-9.4,2.7,0,5.3,0,8,0Z"/>
    <path class="st113" d="M-1047.6,428.6c2.8-2.5,5.2-2.5,8,0,10-5.4,21.5,1,32,2,.1.7-.2,2.5-1,1-15.6,0-31.2-.7-46.8-1.8v-1.2c2.5-2,5.2-2,7.9,0Z"/>
    <path class="st0" d="M-998.6,439.6c.1.3-.1.7,0,1-.8-1.1-12.6-8.1-10-9,4.9.4,8.2,3.6,10,8Z"/>
    <path class="st154" d="M-998.6,440.6c5.5,21.8,2.4,53.4,2,75.9-1.3,1-1.3,2.7-2,4l-2-.9v-73.2c-1-4-3.4-7.3-7.4-10l.4-2.8c4.6,1.3,5.9,3.9,9,7Z"/>
    <path class="st86" d="M-1037.6,393.6c1.5,1.6-.4,6.6,0,7s4.7.6,5,1c-2.3,6.1.5,12.1,3.7,17.8,1.4,3.2-1.1,5.1,5.2,5.8l3,3.4c-6.3-.3-12.7,0-19,0l-.2-2c-5,.6-5.4-3.1-3.9-7-2.4-2.8-4.4-5.9-1.1-8.9-2.3-1.3-3.3-15.5-2.7-16.1,3.1-1.3,6.7-.8,10-.9Z"/>
    <path class="st36" d="M-1044.6,393.6c-2.9,2.9-.4,4.2-.4,5.6,0,2.2-.6,5.3,0,7.4s2.7,3.1,2.5,5.4-2,.5-2.1,1.1c-.4,2.7,2.5,4.5,2.8,6.1s-1.3,4.7-.7,5.3,5-.9,6,1.5-2.4,1.3-3,2.5c-2.7,0-5.3,0-8,0l-1.1-1.8c-6.1-.4-6.8-4.7-4.5-9.6l-1.4-2.3c.7-6.5,0-12.8-2.1-19,3.5-2.9,7.8-2.2,12.1-2.3Z"/>
    <path class="st68" d="M-1116.5,393.6l2.1,1.5c-2,5.4-1.9,9.8.4,13-1,12.6-1.4,25.5-1.4,38.7-1,1.1-1.6,3.7-3.2,3.8.2,3.4-1.2,7.4-5,6.9-.2.9-.6.8-1,0-1.9-.6-1.9-1.4,0-2,0-.7,0-1.3,0-2l-2,1c-.1-2.9,2.3-3.6-1-4.5.6-1.6,3.7-1.3,4-1.6.5-.5-1.6-11.6-1.5-13.5.2-3.2,3.8-6.5-.6-8.1-.3-2.8,1-10.3.9-13.8s-1.5-8-1.6-10.5,3.7-5.6,1.7-9.1h8Z"/>
    <path class="st4" d="M-1130.5,518.5c-.2.1-.7,0-1,0-.9-18.9-.8-39.8,0-58.9.3-.4.7-.7,1-1l1,.3c-.3,19.9-.7,39.7-1,59.6Z"/>
    <path class="st156" d="M-1131.5,518.5h-1c0-19.6.1-39.3,0-58.9.1-.2.9.2,1,0v58.9Z"/>
    <path class="st1" d="M-1124.5,455.6c0,.7,0,1.3,0,2-1.9.2-3.9.5-6,1,1.1-1.1.4-4.4,6-3Z"/>
    <path class="st39" d="M-1102.5,393.6l2,.5c-5.6,2-1.1,5.3-1.2,7.8-3.3,6.4.3,7,1.2,14.2,0,4.2-1.7,10.3,0,14.5.9,0,1.2.4,1,1,1.2,2.7-2.1,4-4,2-2.2,1.4-3.9,3.1-5,5,1.4,1.4.8,1.9-1,1-4.5,5.1-7.3-8-1.5-9.5-1.8-3-1.7-5.4.2-7.1-1.6-3-1.2-6.1,1.1-9.3-1.6-6.7-2.7-13.2-3.2-19.5.6-1,9.3-.5,10.3-.6Z"/>
    <path class="st50" d="M-1111.5,393.6c-.7,7.9,7.7,18.3,1.4,24.9-.2.7,1.7,4.2,1.4,5.6s-1.8.4-1.8,1c0,1.4,2,5,1.9,6-.3,2.4-4.9-1.3-3.3,5.8s-.5,2.7,2.5,2.6c2.7,1,1.7,3-1,3-.7,1.4-1.4,1.7-2,1l-.8.7c-.5,5.6-1.6,7-3.2,4.3,3.8,3.2,1.8,14.5-5,10-.6,1.9-2.4.8-2-1,.6-1.3,2.1-2.2,2.5-3.4,1.7-5-2.3-5.2,4.5-5.5.9-12.5-2.9-27,.9-38.4,0-2.3-2.4-3.6-2.5-5-.2-2.3,2.3-8.4,1.6-11.5h5Z"/>
    <path class="st155" d="M-1007.6,433.6c3.2,4.6,7.8,5.1,8.9,12.6v74.3c-1.8,3.5-4.6,5.4-5.9,8-5.6,3.4-11.2,5.2-17.8,3.7-12.1,0-24.2-.2-36.2-.7-4.3,3.5-7.1,9.6-12,13,1.3,1.5.7,2-1,1-1.2,2-2.9,3.7-5,5,.8.3.8.6,0,1-.5,6.3-7.2,12.8-12,7-2.7,2-2.2-21.6-2-24.9-2.6-1.2-5.7-1.6-9.2-1.1l-.8-1c-2.1,1.8-11.7-.1-10-4-3.1-2.4-2.1-5.4,3-9-1.7-3.3,12.8-12.6,16-11,.2-3.9,9.7-8.3,13-7,17.1-6.3,10-24.9-5-27-3.5,1.7-8.8-2.3-10-6-2.8,1.6-10.5-5.5-12.8-8,.7-1.4,0-2-2.2-2-2.3,1.8-3,.6-2-2-7.9-5.8,3.5-22.2,11-24,.3-.8.6-.8,1,0,11.2,1.2,82.2-3.4,90.9,2Z"/>
    <path class="st138" d="M-1025.6,534.5c0,4-5.5,2-3,9-4.7-.9-3.1,4.9-5.2,8.3-4.6,3.7-2.3,1.7-2,6.9-.2,1.8-1.7,4.3-1.7,5.3s5.3,2.4-1,4.4c-1.5-5.4-.9-8.1-1.4-11.1s-3.8-7.6-4.3-10.7c-.8-4.8,3.5-6.6-3.2-8.7l3-3.5c6.2-.8,12.7-.7,19,0Z"/>
    <path class="st33" d="M-1008.6,530.5l1,1c-4,.7-8,3.5-12,2-12.8-.6-25.8-.9-39-.8v-1.2c14.8-1.7,36,2.7,50-1Z"/>
    <path class="st111" d="M-1019.6,533.5h6c-12.9,2.2-25.9.5-39,1-.6,3.5-8.4,2.9-7-1,13.3-.7,26.6-.8,40,0Z"/>
    <path class="st109" d="M-1052.6,534.5c-.9,2.8,0,5.6,0,8.4,0,6.7.7,3.5,1,5.2s-1.2,3.7-1.1,4.8,2.9-.9,1,5.6c2.3,5.1-1.9,11.2-6.6,6.1-1.2-7.5-8.8-21.2-3.4-28.1-.9-.3-.9-.6,0-1-.5-1.3.7-3.1,2-2,1.4,1.7,4.8,1,7,1Z"/>
    <path class="st44" d="M-1051.6,558.5l4,5.5c-4.3,1.1,0,1.4,0,4s-2.1.5-2,1c-.9,2.2,13.9,16.4,5.1,15.6-.4.3,0,1.4-.1,1.9-4,0-8,0-12,0l-.6-2.4c1.6-4.9,1.6-10.1,0-15.4,2.3-2.9,4.6-6.6,5.5-10.1Z"/>
    <path class="st35" d="M-1061.6,536.5c.3.7,2.7.5,1,4l-2-1c1.7,11.9,13.6,38.4,6,47-2.7,0-5.3,0-8,0-1.5-1.6-.5-2.3,1.1-3.1-2.2-2.5-2.3-5-1.4-8.1-3.6-6.4-4.5-12.4-2.7-18-6.9-6-1.2-17.5,5.9-20.8Z"/>
    <path class="st147" d="M-1076.6,551.5c8.1,8.4,3.1,23.1,6.6,33.8-1.9,1.2-19,3.1-14.3-2-.6-7.9-8.1-17.6-4.2-24.8,6.7,2,7.7-2.4,12-7Z"/>
    <path class="st75" d="M-1069.6,544.5c3.4,3.3-1.4,9.3,4,11.6.4,2.6-1.7,4.3-1.6,6.4.7,5.1,5.4,11.2,3.7,17.1.3,1.4,2.5,2.7,1.8,4.8l-3,2c-3,0-6,0-9,0l2-2c-.9-7.1-3.8-14.2-2.1-21.4-.6-3.6-3.5-8.5-2.9-12.6,2.6-1.5,4-3.9,6-6h1Z"/>
    <path class="st14" d="M-1102.5,533.5l10.2.5c0,7.4.4,14.9.8,22.5.9-.5,1.6.2,2,2,.2.1.7,0,1,0-.8,2,2,2,2,2.6-1.7,4.8-1.1,5.7,1.5,9.9.7,2.8.7,7.3,1.6,9.8s2.6.2,2,3.2-2.8.5-2,2.5c-3.7,0-7.3,0-11,0-6.3-2.4.3-5,4.6-4.3l-8.5-16.3c.7-4.4.4-8.5-1.1-12.3-6.3-2,1.3-22.4-7.5-15-6.2.6-4.1-12.8,4.5-5Z"/>
    <path class="st137" d="M-1099.5,553.5c5.5,3.9,3,5.1,2.6,11l10.4,19.5-9.5.5,1.5,2c-1.7,0-3.3,0-5,0-2.4-3-.2-6.3,0-8.6s-1.7-.3-1.8-.9c-.2-3,.7-9.9.9-13.5-1.5-2.5-2.5-9.4,1-10Z"/>
    <path class="st84" d="M-1054.6,394.6c-.8,3,2.6,9.5,2.6,10.5,0,2.3-1.7,5.7-.6,9.8s2.3.4,2,1.1c-2.9,6.9-3.6,9.3,6,8.5l-3,4c-2.7,0-5.3,0-8,0-4.1,3.7-4.5-3.3-7.2-5.5,1.7-6.9,1.1-14.1.3-21.2-2.8-2.3-1.6-7.8,1.9-8.2,2.5,0,5.3,1,6,1Z"/>
    <path class="st121" d="M-1067.6,393.6c1.1,1.4.6,2.5-.6,3.5,3.9,5,4.1,15.4,2.2,21.3,2,1.4,2.6,2.8,1.5,5.1,6.2,3.5.4,4.8-4.1,5-1.9,1.5-5.1,1.5-7,0,2.7-.3,2.9-10.5,2.5-11-.7-.9-2.4-.9-2.5-1-.4-.6,1.7-1.6,1.7-2.5,0-1.3-1.8-7.9-3.7-9,4.9-2-2.1-6.6,2-11.5,2.7,0,5.3,0,8,0Z"/>
    <path class="st77" d="M-1060.6,393.6l-2,6.5,2-.5c.2,5.5,1.1,12,.9,17.4s-4.5,7.3,4.1,7.6c-3.2,4.1-7.9,6.8-13,4,14.6-3.6-6.6-2.6,3-6.5-.4-1.8-3.1-2.8-3-3,.1-1.5,1.6-2.2,1.8-3.2s-.8-13.7-1-14.5c-.8-3.4-4.9-3,.2-7.8,2.3,0,4.7,0,7,0Z"/>
    <path class="st143" d="M-1120.5,460.6c2.5-2.6,9.5,1.6,9,5,5.6-.1,12.7,4.8,15,10,4.5-.7,9.7,2.7,11,7,6,3.5,6,8.5,0,12,.4,3.8-4.9,7.3-8,6-3.7,5.8-10.1,10.1-17,11,.5,1.6-.4,2.4-2.7,2.5-4.3,5.8-9.5,5.3-15.3,6.5-.2-.2-2.5.3-2-2,.5-19.7.7-39.4.7-59.1,2.2-2.2,5.3-1.8,9.3,1.2Z"/>
    <path class="st28" d="M-1110.5,511.5c4.7-2.1,5.5,4.7,2,7-9.1,8.1,1,12,8,13,2.7.3,2.5,1.2,0,2-2.7.2-5.3-.9-8-1v4c3,1,1.1-2.4,3.5-2,6.8,1.1,4.3,7.1,4.5,10.5,1.2,5.9.9,12.6,0,18.5-3.2-1.3-2.4-4.3-3-6.5s-1.7.8-2,.5c-1.8-1.9,2.1-2.1,2-2.5-.5-2.6-3.8-3.3-4-3.6-.2-.3,2.7-2.9.9-6.2s-.6-3.1-1.1-4.6c-4.9-3-6.3-6.1-4.8-12.1-5.7,2.4-3.8-4-4-8-2.1,1-5.2-1-6-1l7.8-6.7c.9-1.2,3.7-1,4.2-1.3Z"/>
    <path class="st69" d="M-1088.5,428.6c2.2.4,13.5-1.5,12,2-7.3.8-15.1,1.1-23,1-.4-.3-.8-.6-1-1,4-.8,7.8-2,12-2Z"/>
    <path class="st53" d="M-1075.6,428.6c6.7,0,13.3,0,20,0,2.7,2.7,8.3-.7,11,2-10.6,1-21.4,1.4-32,0l-2-2c1,0,2,0,3,0Z"/>
    <path class="st63" d="M-1076.6,430.6c22.1.7,46.2-1.8,67.9,1,.4.6.6,1.4,1,2-29.7-4.4-61,.7-90.9-2,7-1.7,14.7-1,22-1Z"/>
    <path class="st123" d="M-1124.5,457.6c.9-.2,2.4.6,3,1,2.7-.3,3,0,1,2-2.1,3.1-7.5-6.5-9,.5-.8,6.8,1.4,55.9-1,57.4v-59.9c2.5-2.3,3.2-1.6,6-1Z"/>
    <path class="st151" d="M-1103.5,433.6c-.7,2.3-3.9,3.6-5,5-1.1-2.7,3.3-4.1,5-5Z"/>
    <path class="st8" d="M-1112.5,443.6c-2,7.2,0,10.6,4,14,5.6-.5,2.1,11.4-3,8-2.8-1.8-5.8-3.9-9-5-.4-.5-.6-1.7-1-2,6.8-.8,4.9-5.3,5-10,3.5-.2,1.6-2.8,3-6,.5,0,.9,1,1,1Z"/>
    <path class="st59" d="M-1110.5,455.6c-5.1.3-2.8-8.7-2-12,.6,0,1.4-.8,2-1-1.5,4.1-3.6,9.4,0,13Z"/>
    <path class="st64" d="M-1083.6,473.5c11.3,0,18.8,17.6,8,24,1.7,1.2-1.2,3.3-3,3-3.5,2.6-9.3,4.5-13,7-3.9,1.4-3-5.8-1.4-5.3l-.6-1.7c5.8-4.4,19.5-11.4,8-18-2.7-2.8-18.5-8.2-9.6-11.6-.8-1.8-.6-3,1.6-3.4,2.9,2,6.8,3.8,10,6Z"/>
    <path class="st88" d="M-1017.6,462.5c-10.7-.5-21.6-1.1-33-1-3-.8-5.3-2.8-7-6,12.6-1.2,26.6.7,39-1,3.6,0,3.6,5.3,1,8Z"/>
    <path class="st145" d="M-1056.6,508.5l1.7-1.2c12.5-.1,24.9,0,37.2.2,2-3.4,2.1-4.5,0-8-11.3-.4-22.7-.4-34.3,0l-.7-1-.3,1c-6.2.2-5.1,3.9-3.7,8,.9.3.9.6,0,1-2.8-1.5-4.6-1.9-3.8-6.3,1.6-9.2,20.7-4.9,27.3-4.7s13.6-2.9,17.5,1.5,1.5,10.6-3.7,11.3-9.6-.7-12.8-.6c-7.2.2-18.4,2.1-24.4-1.2Z"/>
    <path class="st10" d="M-1093.5,500.5c4.7-.7-.6,5,2,7-3.8,2.6-13.1,8.4-16,11-.3.9-.6.9-1,0-.1-2.8,1.1-5.7-2-7,5.5-3.6,11.2-7.4,17-11Z"/>
    <path class="st78" d="M-1108.5,457.6c3.8-2.2,11.4,8.5,15,10-.7,1.4,1.2,4.8,1,5-.4.5-5.1,0-4,3-5-3.2-10-6.9-15-10,4.6-.6,2.8-5.2,3.3-5.8s2.1.5,1.7-1.1c-.8,0-1.4-.5-2-1Z"/>
    <path class="st91" d="M-1052.6,477.5c5.1.2,10.1.5,15,1,4.5,3.1-2,4.2-5.2,3.6l-1.8,2.4c-19.1,4.8-15.4-12.3-8-7Z"/>
    <path class="st7" d="M-1078.6,500.5c13.8-10.5,9.3-20.5-5-27-.4-3.1.8-2,2.7-1.2,12.5,5.3,19.1,18.3,6.2,27.7s-2.5,2-3.9.5Z"/>
    <path class="st110" d="M-1100.5,531.5c3.5.4,7.4-.3,11,0v27c-4.5-3-1.9-18.6-2.4-24.3l-8.6-.7v-2Z"/>
    <path class="st41" d="M-1044.6,475.5c4.1,1.6,7.3-.6,11.4.8,4,.1,14.3-1.8,16.5,1.2v1c-1.9,1.9-2.2,1.6-2-1-11.3.6-22.7.8-34,0-1.2-.2-3.3.6-4-1,2.5-1.7,8.7-1,12-1Z"/>
    <rect class="st52" x="-1071.6" y="465.5" width="51" height="1"/>
    <path class="st124" d="M-1058.6,531.5c11.9,3.7,27.3-1.8,39,2h-40c-.7.2-1.9,1.3-2,2-2,2.7-.4-5,3-4Z"/>
    <path class="st43" d="M-1057.6,483.5l1.1-.9c2.6,3,8.2,1.8,11.9,1.9l1.5-2,21.6.2,1.9,1.7c.8.3.8.6,0,1-3.4.5-40.9,2.6-38-2Z"/>
    <path class="st48" d="M-1018.6,462.5h1c-.2,3.2-24.8.4-26.5,1-3.2,1.6-6.4,0-8.4,0-.9-.3-.9-.6,0-1,11.3-.8,22.7-.9,34,0Z"/>
    <path class="st133" d="M-1075.6,455.6c.9,1.5.9,3.5,0,6,7.7.4,15.4.8,23,1v1c-7.3,0-14.7-.2-22,.6-4.5-.9-6-8.8-1-8.6Z"/>
    <rect class="st129" x="-1054.6" y="487.5" width="36" height="1"/>
    <path class="st144" d="M-1019.6,485.5c-4.9,2.6-29.6,2.2-35,0h35Z"/>
    <path class="st23" d="M-1044.6,454.6c3.8,1.9-13.2.7-13,1l-1.3,1.9h-15.4s-1.3-1.9-1.3-1.9c-.3,0-.7,0-1,0,1-1.7,3.8-1,5.5-1,8.8,0,17.7,0,26.5,0Z"/>
    <path class="st89" d="M-1018.6,454.6c-7.7,2.6-17.7.3-26,1v-1h26Z"/>
    <path class="st117" d="M-1061.6,535.5c0,.2,0,.8,0,1l-8,8h-1c2.7-3.2,4.8-5.7,8-9h1Z"/>
    <path class="st74" d="M-1107.5,518.5c0,4.1-6.9,3.1-3,9-.7-.5-3.3,0-2.9-2.3.8-2.9,2.5-6.6,5.8-6.7Z"/>
    <path class="st32" d="M-1019.6,485.5c-.1-2.5.5-5.9,3-7v-1c2.9,3.8.9,6.5-3,8Z"/>
    <path class="st115" d="M-1076.6,550.5c.7-2.4,3.8-3.6,5-5-.3,2.6-2.4,4.7-5,5Z"/>
    <path class="st144" d="M-1035.6,475.5c-1.9,1.7-7.1,1.7-9,0,3,0,6,0,9,0Z"/>
    <path class="st81" d="M-1100.5,533.5c3,0,6,0,9,0v23c-2.4-4.3-.1-21.1-1-22-3.7.8-7-.5-10-1h2Z"/>
    <path class="st90" d="M-1085.5,494.5c5.2-5.3,5.2-6.7,0-12,2.8,1.8,5.4,1.5,5.1,6.5-.3,4.5-3,4-5.1,5.5Z"/>
    <path class="st65" d="M-1075.6,497.5c5.4-6.3,5.4-9.2,3-17,4.8,4.7,4.1,15.2-3,17Z"/>
    <path class="st40" d="M-1057.6,455.6c2.4.2,6.6,2,10,1,0,2.6-9.9.5-3,5-7.9,1-16.7.9-25,0-3.4-2-1.4-3.1,0-6,4.5-.5,13.3-.3,18,0Z"/>
    <path class="st119" d="M-1050.6,461.5c8.8,0,17.7-.1,26.5,0s4.4-.6,5.5,1c-17.7-1-40.1,2-56.9-1h25Z"/>
    <path class="st96" d="M-1018.6,506.5c1.5-1.2,2.1-.6,1,1-5.1,3.3-31.5-.4-39,1,.2-1.2-1.4-3.2,1-2,11.9-1.4,25-1.2,37,0Z"/>
    <path class="st72" d="M-1017.6,499.5c1.3,1.4.8,1.9-1,1-49.3,3.9-43.1-7,1-1Z"/>
    <path class="st139" d="M-1052.6,498.5v2c-.4.6-1.4.6-3,0,1,1.6,1.4,3.5,0,5,.9.3.9.6,0,1-1.3,4-8-7.1,3-8Z"/>
    <path class="st58" d="M-1017.6,507.5c-.4-.2-.8-1-1-1,0-.6.4-1,1-1-1.5-1.4-1.1-2.5,0-4-.7-.1-1.1-.3-1-1l1-1c3.1,2,3,6.1,0,8Z"/>
    <path class="st25" d="M-1016.6,478.5c2.5,10.8-21.3,5.1-28,6-.9-1-.7-3.1.2-3.8,2.6-2.1,7.1,1.5,6.8-2.2,6.8,0,14.5-2.4,21,0Z"/>
    <path class="st34" d="M-1018.6,477.5c-11.2,1.1-22.6,1.7-34,0h34Z"/>
    <path class="st46" d="M-1044.6,505.5c9-2,18-2,27,0-.2.4-.7.7-1,1-5.3-.6-32.7-1-37,0-.9-4.4,10-4,11-1Z"/>
    <path class="st140" d="M-1052.6,500.5c11-.7,22.8.5,34,0,.5.1.7.7,1,1-8.9,2.8-18.1,2.8-27,0-1.7,3.3-11.1,3.2-11-1,.5-.2,2.1,0,3,0Z"/>
    <path class="st17" d="M-1044.6,501.5c2.9,0,2.8,3.3,0,4h-11c-1.2-1.3-1.9-4.2,0-5,2.6,1.8,7.5,1,11,1Z"/>
    <path class="st11" d="M-1017.6,501.5c1.9,2.3,1.1,2.1,0,4h-27v-4c9,0,18,0,27,0Z"/>
  </g>
  <g id="Generative_Object">
    <path class="st120" d="M-1128,391.5c30.4-1.6,65.1-.4,95.8,0s51.9-3.3,62.1,25.5c4.7,13.3,2.4,55.2,2.3,71.4s-.7,27-1,40.4,3.1,31.8-8.9,46.2c-14.9,18-34.8,12.6-55.3,12.6-32.1,0-67.9,2.6-99.6.3-17.6-1.3-30.6-14.2-33.4-31.4l-.3-128.3c1.5-21.8,16.7-35.6,38.2-36.7Z"/>
    <g>
      <path class="st120" d="M-969.7,429.9c1.3.9-.2,3.5,1.4,3.7-.5,11.8-.1,23.7-.3,35.6,0,7.8-.7,16.1-.8,24.1s.6,22.4,0,23.4-.6,0-.9.1c-.3-28.9-1.2-58,.5-86.9Z"/>
      <path class="st120" d="M-1030.4,585.4c4.6-.3,14.2-.4,18.8.8s1.9,1.3,3.4.9h-27.8c.1-1.8,3.8-1.5,5.6-1.7Z"/>
      <path class="st120" d="M-996,441.1c-2.5-1.2-2.8-3.9-4.8-5.8,2.3-2.7,1.9-.3,2.8,1.1s.7-.2,1.3.8.5,3.2.8,3.9Z"/>
      <g>
        <path class="st120" d="M-1005.7,431.9c-4.3-2.4-8.6-3.4-13.5-3.6-17,0-34,.3-51.1.3s-20.9-2.5-32.3,3.6-5.8,3.1-5.8,3.9c-.1,2.3,2.8-1.8,3.3-1-3.2,2.4-6.2,6.3-6.6,10.4s0,8.4.3,8.9c.8,2.1,7.5,4.3,9.8,6s3.5,3.5,5.5,4.8c4.2,2.9,8.7,5.4,13,8.1s9.3,5,10.7,7.5,0,2.7.3,4.6,1.1,3.2,1,5c-.5,9.3-22.5,17.5-29.6,22.6s-18,16.7.1,18c-.1,2.9,4.2.3,5.1,2.5,0,0-1.6.3-1.4.8l5.2.6c-.7,7.6-1.5,15.5.5,23-.8-.2-.4-1.7-1.4-1.8-.7.2,0,3.1-1.3,3-.2-.4-2.8-3-3-3-.6-.2-2.8,3.4-2.9,3.7-.6,2.6.5,7.2-.9,9.8-.4-3.7-2.9-7.5-2.2-11.3s2.3-3.3,2.3-3.6-2.3-2.3-2.4-2.4c-1.1-.5-3.4,0-4.8-.8s-2.9-2.4-3-2.3c.2,1.9-1.4,2.8-1.9,4.2s.2,5.9-2.9,4.7-2-5.8-2.2-6.7c-.4-2.1-.8-5.9-1-8.1s0-3.7.3-5.3c-3.2,1.8-3.7.2-6-1.9-.6,0-.4,9.1-.4,10,.5,11.1-.2,19-2,30.2s-.3,1.8-.9,1.7c-.9-5.1-3.3-10.3-3.9-15.4s-.2-11.3-.6-16.6c-.7-.5-3.6,6.2-7.2-1.7s0-3.4-1.9-2.9-4,13-4.6,14.7c-.4-2.4-1.8-1-2.4-1.4s-1.6-3.2-1.9-3.4c-.7-.5-1.5.9-2.5,1-4,.5-5.3-3.5-5.2-6.7.2-4.8,2.7-10.9,3.3-15.2.9-6.7-2-16.8-1.3-24.9s2.4-9.2,2.5-12.4-.9-.4-.8-1,.9-.4,1-.8c.2-.7-.7-1.4-.8-1.5s.9-.6.5-1.3-.6.4-.8,0,.4-1.2.3-1.8-1.2-1.8-1.3-2c0-1,1.4-4.9,1.8-6.1-7.7,0,0-8.5.8-12.4s0-6.7,1-10.2,5.4-10.6,8.5-5l.4-.4c-.2-1.1-1.8-6.8-.6-7.2,3.5.6,5,.2,7.1-2.5,3.6,3.2-3.1,10.1-2.9,11.8s1.8,1.6,2.3,2.5.5,4.1.8,4.8,2.8.2,3.4.6-.8,1,1.1,1.3c-1.5,2.2-2.1,8.9-2.3,11.7-.8,10.6.5,21.2.8,31.8s-.3,8.9.3,13.3c1.5-.3.8-1.3.9-1.4s1.5-.2,1.9-.8c0,.6.2,1.2.3,1.8s-.6.9-.3,1.4c6,2,11-3.1,15.2-6.7,10.6-5.4,19.1-11.1,28.7-18s5.4-2.3,5.8-4.7-.5-5.4-.8-5.8c-.5-.8-2.4-1.2-3-1.7-2.2-1.3-4.4-2.5-6.6-3.8s-4.9-3.1-7.4-4.6c-2.7-2.3-5.8-4.4-8.8-6.4s-9.9-6.8-13.8-8.6c-1.7-1,1.2-2.8,1.5-4.2s-.8-2.8.4-3.9c2.6,1.7,2.8-.3,4.3-.8s2.7.2,2.9-.1c1.3-1.9-1.5-.8-1.7-.9-.8-.3.5-6.7.1-8s-4.2-2.7-2.8-5.8,2.8,2.1,5.2,1.9c.2-2.6,1.6-4.8,3.8-6.4s5.7-2.6,6.1-2.5,2.5,1.4,2.8,1.3c.7-.3,2.7-5.6,4.1-6.1l24.1.3c1.5-2.5,3.7-4.2,5.7-6.2s1-2.1,2.4-2.2,3.3,2.5,3.2,3.4c-1.8,1.2-4.1,3.1-4.4,5.5,6-.8,12-.2,18-.3s6.7-.2,9.7-.3c4.6,0,20.2.9,23.4,0s.8-3,1.3-3.3c1-.7,2.4,1.7,2.8,1.8.7,0,1.6-2.2,2.8-1.8,3,4-.8,8.3-5.2,8.5l4.8,2.7Z"/>
        <path class="st120" d="M-992.4,490.4c.1-8.1-.7-16-1-24s1-14.1-1.5-23c1.3-1.4.8,1.5,2.9.3s.2-1.7.4-2.7c.5-2.8,5.1-.8,3.8,2.3s-5.2,2.3-4.1,4.8,2.6-.1,3.3.8,0,8,.3,9.7,1,1.4,1,1.5c.2,1.2-.3,2.8.3,4.1l.8-.5c-.4,1.9,0,3.3,0,5.3,0,5.8.1,12,.3,17.8s-2.3,3.6-6.4,3.7Z"/>
        <path class="st120" d="M-1006.7,530.8c1.5-1,3.6-3,4.8-4.3.9,0,.5.2.5.6,0,1.7.3,8.2-1.1,9s-2.3.4-2.4.4c-.2-.1.3-.5.3-.5-.3-.3-2-1.6-2-1.8-.3-1,.6-2.4,0-3.4Z"/>
        <g>
          <path class="st120" d="M-1083.1,558.5c2.6-1.3,7.1-8.9,9.4-11.6,4.4-5,8.2-9,12.4-14.4l3.6.8c-1.1,0-2.3.1-3.4,0,2.1.9,5.8,1.3,8.4,1.5,9.6.7,22.2.5,31.6-.3s1.9-.1,2.8-.3c4.5-.6,7.9-1,11.7-3.6.6,1-.3,2.4,0,3.4s1.7,1.5,2,1.8-.5.4-.3.5,2.1-.2,2.4-.4c1.4-.8,1.2-7.3,1.1-9s.4-.7-.5-.6c2-2.2,3.8-4.5,5.3-7l-2,1.3c-.4.5-.2,2.6-1.3,2.3,0-2.7,3.8-3.6,3.2-5.7l-.8,1.5c-1-.2.3-1.6.4-1.9.2-1.4-.4-4,1.5-4.7,0,.5-.4,1.7.1,1.8,1.9-4.2,2-10,2.4-14.7,1.9,1.4,2.1-1.5,3.2-2.3,4.1-2.9,5.9,1.4,5.2,5s-2,2.9-2,3c0,.5,3.8,2.7,3.8,4.1s-1.6,3-1.8,4.1c-1.6,7.9,5,9.6,4.1,14s-.9.9-1,1.3c-.2,1.1,1.7,4.3,2,5.8.9,5-.4,10.9-4.1,14.5s-7.1,4.8-7.5,5c-1.5.4-3.7.3-4.6-1-.3,1.7-1.6,1.5-1.7,1.7-.4.8.6,2.6.5,3.3-.3,1.4-3.9,5.2-5.6,3.8s-3.3-7.5-6.2-6.5-1.3,1.9-1.5,2c-1,.7-2.9.6-3.7,1.7s-1.2,4.9-1.7,5-1.1-1.7-1.3-1.8c-.3-.2-3.2-.2-4.1-.5s-3.2-1.9-3.4-2.4c-.8-1.6.9-1.9-.1-3.2-.4,1-3.4,1.4-3.9.9-1-.8-1.2-7-1.5-7.9s-2.6-1.2-2.9-2.4c-.5,0-2.1,1.4-2.2,1.7-.4,2,.6,8.1,0,10.7s-2.7,3.4-3.2,4.4c-.8-1.4-3.7-1.9-4.7-3.9s-.4-3.9-.9-4.4-1.7,1.3-3.6.3-3.2-5.1-3.8-5.3-4,1.5-4.2,1.9c-.7,2.1,3.7,4.7,4.1,6.9s-4.3,7-5.5,9.8l-9.8-14.1c-1.1-.8-2.2,1.6-2.2-2.4-1.1.9-1.6,2.9-2.8,3.8s-1.5.2-1.5.3c-1,.7-1.2,2-2.7,2.2,0,1.7,2,2.4,2.3,4.1.5,2.7.3,7.6-2.4,9.3-1.9.4-4.7-4.7-5.1-4.8-.8-.2-1.6,1.5-2.5,1.8-4.9,1.1-5.8-5.5-2.5-6.9s2.4.2,3.7-.1c-.5-.7.3-2.9-1-2.7Z"/>
          <path class="st120" d="M-1067,540.4c.8.6-.3,4.9-1.3,5.6-.7-2.2-.8-4.2,1.3-5.6Z"/>
        </g>
      </g>
      <g>
        <path class="st134" d="M-1098.4,474.4c2.5,1.5,4.9,3.1,7.4,4.6l-2,3.3c-9.6-6.8-21.1-11.1-31.4-16.8l-5-3.3c0-.6-.2-.5-.3-.5,0,0,0-.2,0-.3-.2-.2-.2-.4-.5-.5s-1,.2-1,.3c.2-.9.4-3.2,1-3.8,1.9.1,3.7,1.1,5.5,2,8.6,4.5,17.8,10.1,26.3,15Z"/>
        <path class="st132" d="M-1121,459.4c3.9,1.9,10,6.1,13.8,8.6s6,4,8.8,6.4c-8.5-4.9-17.7-10.4-26.3-15s-3.5-1.9-5.5-2c2.1-2.2,5.1,1.1,6.7,1.8s2.2.2,2.4.3Z"/>
        <path class="st134" d="M-1129.6,461.4c0,0,0,.2,0,.3-2.3,1.3-.2.7-.1.8.5.3-1.7,1.5-1.9,1.9s-.4,4.3-.8,5.5-.7.8,0,1c-.7,1.2,0,3-1.8,2.8.2-2.8.8-9.5,2.3-11.7s.4-.5.8-.8,1-.3,1-.3l.5.5Z"/>
        <path class="st6" d="M-1129.1,498.2c0,5,.7,14.2,0,18.7s-.3,1.3-1,1.4c0-.6-.2-1.2-.3-1.8s-.1-1.6,0-2.4l-.5.3c-.6-.8.7-1.2.8-1.5,0-.6-.8-1-.8-1,0-.1.8-.6.8-.8,0-.6-.5-.3-.5-.5,0-1.9.4-4.1.3-6.2s.1-.9-.1-1l-1,1c-.3-.2,0-.7-.1-1,2.2-.3,1.3-3.3,0-1-1-.5-.1-.4,0-.8,1.7-.6,1.1-3,1-4.6.4-.2.2-.7.9-.5.4.4-.3,2,.6,1.8Z"/>
        <path class="st54" d="M-1086.4,494.9c3-4.5,8-7.4,2-12.2.7.4,2.5.8,3,1.7s.8,5.4.8,5.8c-.4,2.4-4.4,3.6-5.8,4.7Z"/>
        <path class="st62" d="M-1129.6,461.4l-.5-.5c.3,0,.4.3.5.5Z"/>
        <path class="st12" d="M-1101.4,488.1c-.3,2,0,8.4-.5,9.5-1.3,3.3-.5-7.2-2-6,0-1,.5-9.1.8-9.5,1.6-2.5.8,5.3.5,5.8h1.3Z"/>
        <path class="st12" d="M-1095.3,487.1c-.7,1.1.4,6.1-.9,6.4-2,.3.2-3.6-1.4-3.6,0-.9.5-2.4.5-2.7,0-.8-.6-3.6.4-3.7s0,3.1.4,3.7.6-.2,1-.1Z"/>
        <g>
          <path class="st47" d="M-1093.1,482.2c2.3,1.6,4,4.3,7.1,5l-4.7,2.9-.5-2.5-.8,3.3c-.4-1.1.4-2.5-.8-3.3-1.1,1.9.8,4.3-2,5.1-.7-1.8.9-5.3-.6-5.6s-.8.5-1,.1c-.3-.6,1-3.8-.4-3.7s-.3,2.9-.4,3.7-.4,1.8-.5,2.7,0,5.6-1.1,5.3.6-10.2.1-11.1c-1-1.7-1.3,4.6-1.3,5h-.8c0-.9.1-1.8-.3-2.7-.8,0-.4,1.2-.5,1.7h-1.3c.3-.7,1.1-8.5-.5-6s-.7,8.5-.8,9.5.6,6.9.5,7.2-1.2,1.2-1.5.5l-.4-17.9c-.7.7-.8,2.7-.9,3.9-.4,5.1.4,10.2.5,15.2l-1.5,1c0-2.3-.1-4.7-.3-7-.3-4.2-.7-8.6-1-12.6s.5-3.4-.4-4.7c-1.5,0,.6,16.4.6,17.5,0,2.5.9,8.6-1.9,9.1-.2-3.4-.3-6.8-.4-10.2-.2-5.1-.4-10.3-.3-15.4s.7-4.3.1-4.7c-.1.2-.6.5-.6.6-1.5,4.6-.1,15.5,0,20.7s.4,9.5.3,10-1.2,1-1.5,1l-.5-18.3-.8.3.5,19.1c-.9,1.4-8.8,8.1-8.9,8.9s0,.5.1.6c2.1-1.7,4.6-2.6,7-3.8-4.2,3.6-9.2,8.7-15.2,6.7-.3-.5.3-1.3.3-1.4.7-.1.9-.9,1-1.4.7-4.5,0-13.7,0-18.7s.5-14.3,0-17.7-2.2.2-3.4.4c-.4-.2.5-1.3.6-1.5.5,0,.7-.4,1-.6-.6-.3-.8.3-1,.6-2.1-.3,1.6-2.3,1.5-2.4-3.1.6-1.4.2-1.5-.5s-.7-.4-.5-1,2-1.3,2-2l-2.3.8,2.5-2.8-2.2,1.4c-.4-1.5,1.8-2.2,2.2-3.7-.4-.7-2.2,1.5-2.3,1.7-.7-.2,0-.9,0-1l2.3-1.7c-.2-1-1.3.7-1.5.3-.8-1.7,1.8-3.4,1.8-3.6-.1-.5-1.4,1-1.5,0s2.1-.4,2-2.7l5,3.3c10.3,5.6,21.8,10,31.4,16.8Z"/>
          <g>
            <path class="st148" d="M-1129.6,461.7s.2-.1.3.5c0,2.3-2.1,1.6-2,2.7s1.4-.5,1.5,0-2.6,1.9-1.8,3.6,1.3-1.2,1.5-.3l-2.3,1.7c.3-1.2.4-4.9.8-5.5s2.4-1.6,1.9-1.9-2.2.5.1-.8Z"/>
            <path class="st73" d="M-1118.5,504.8c0-11.3-.2-22.9.4-34l.5-.3c.2.1.6,4.8.6,5.2,0,5.9.4,22.2-.5,27.7s-.2,1.1-1,1.4Z"/>
            <path class="st60" d="M-1123.7,472.8c.5,12.9.9,25.9.3,38.9-.5-12.9-1.1-25.9-.3-38.9Z"/>
            <path class="st73" d="M-1110.6,493.9l-.8,1.3c-.1-5.2-1.5-16.1,0-20.7s.5-.4.6-.6c.6.4-.1,4-.1,4.7,0,5.1,0,10.3.3,15.4Z"/>
            <path class="st12" d="M-1107.5,494.7l-.8.3c0-1.1-2.1-17.6-.6-17.5.9,1.3.2,3.1.4,4.7.3,3.9.7,8.4,1,12.6Z"/>
            <path class="st60" d="M-1120,483.8c.2,6.6.3,13.3.8,19.9-.6.3-.5.2-.8-.3-.5-1-.8-15.4-.8-17.7s-1-2.3.8-2Z"/>
            <path class="st12" d="M-1120,483.8c-1.8-.3-.7,1-.8,2l-.5-15.4c.2,0,.9-.4,1-.3.3.6.2,11.7.3,13.6Z"/>
            <path class="st60" d="M-1115.8,490.9c.6-.5.6.3.6.6.3,1.5,0,7.7,0,9.7s-.5,9.1-1.4,8.5c.6-2.3,0-18.2.8-18.8Z"/>
            <path class="st60" d="M-1127.2,488.1l.6,10v10c-1.1,0-.7-18.6-.6-20.1Z"/>
            <path class="st60" d="M-1118.5,504.8c0,1.9.7,4.1-.4,5.8l-.4-6c.3-.4.6.2.8.1Z"/>
            <path class="st60" d="M-1131.9,479.4c.2-.3.4-1,1-.6-.3.3-.5.7-1,.6Z"/>
          </g>
        </g>
        <g>
          <path class="st60" d="M-1091,478.9c2.2,1.3,4.5,2.5,6.6,3.8,6,4.8,1,7.7-2,12.2-9.6,6.9-18.1,12.6-28.7,18s-4.9,2.1-7,3.8c-.2-.1-.2-.4-.1-.6.1-.8,8-7.5,8.9-8.9l-.5-19.1.8-.3.5,18.3c.4,0,1.4-.8,1.5-1,.2-.6-.2-8.7-.3-10l.8-1.3c.1,3.4.2,6.8.4,10.2,2.9-.6,2-6.7,1.9-9.1l.8-.3c.1,2.3.2,4.7.3,7l1.5-1c-.1-5-.9-10.2-.5-15.2s.2-3.2.9-3.9l.4,17.9c.3.7,1.5-.3,1.5-.5,0-.4-.6-5.9-.5-7.2,1.5-1.3.8,9.3,2,6s.2-7.5.5-9.5-.3-1.7.5-1.7c.4.9.3,1.8.3,2.7s-.7,7.2-.1,7.6,1.1-.6,1.1-.6c.1-.3-.3-5.8-.3-7s.3-6.7,1.3-5-1.4,10.7-.1,11.1,1-4.3,1.1-5.3c1.6,0-.6,3.9,1.4,3.6s.2-5.2.9-6.4c1.5.3-.1,3.8.6,5.6,2.8-.8.9-3.1,2-5.1,1.2.8.3,2.2.8,3.3l.8-3.3.5,2.5,4.7-2.9c-3.1-.7-4.8-3.4-7.1-5l2-3.3Z"/>
          <path class="st12" d="M-1099.9,489.1c0,1.2.4,6.7.3,7s-1.1.7-1.1.6c-.6-.5.1-6.7.1-7.6h.8Z"/>
          <polygon class="st12" points="-1097 493.7 -1096.7 493.9 -1096.7 494.2 -1097 494.2 -1097 493.7"/>
        </g>
        <path class="st12" d="M-1131.7,503.3c0-.1,0-1,0-1,1.3-2.3,2.2.7,0,1Z"/>
        <g>
          <path class="st60" d="M-1131.9,479.4c-.2.2-1,1.3-.6,1.5,1.2-.1,3.1-2.8,3.4-.4s0,13.4,0,17.7c-1,.2-.2-1.4-.6-1.8-.7-.2-.5.3-.9.5-.7.4-2.2,1.3-1.1,2,2.2-1.5,0,1-.1,1.1s.6.1.3,1.4-1,.2,0,.8c0,0,0,.9,0,1,0,.3-.1.8.1,1l1-1c.2.2.1.7.1,1l-3,1c-.3-10.6-1.6-21.2-.8-31.8,1.8.2,1.1-1.6,1.8-2.8s1.9-2.4,2.3-1.7c-.3,1.5-2.6,2.1-2.2,3.7l2.2-1.4-2.5,2.8,2.3-.8c0,.7-2,1.9-2,2-.2.6.5.9.5,1,0,.7-1.5,1.1,1.5.5,0,.2-3.6,2.1-1.5,2.4Z"/>
          <g>
            <path class="st150" d="M-1131,486.3c.2,0,.5,0,.6.1-.8,2.1.4,4.1-1.9,5-.4-1.6-.6-2.8,1.1-3.7h-1.5c0-.2,1.4-1.4,1.7-1.4Z"/>
            <path class="st12" d="M-1131.7,501.5c.4-1.3-.3-1.3-.3-1.4,0-.1,2.3-2.6.1-1.1-1.1-.7.4-1.6,1.1-2,0,1.6.7,3.9-1,4.6Z"/>
            <path class="st150" d="M-1130.8,480.5c1.3,1.2-.5,2.5-1.8,2.5-.7-1.6.9-1.7,1.8-2.5Z"/>
            <path class="st73" d="M-1130.8,484.3c1.4,1.5-2.5,3.2-1.7,1.1s1.4-.9,1.7-1.1Z"/>
            <path class="st73" d="M-1130.8,482.7l.3.8c-2.2,2.1-2.9.2-.3-.8Z"/>
            <path class="st73" d="M-1132.2,493.4c2.5-1.3,2,.3.1,1.3-.4-.4-.1-1-.1-1.3Z"/>
            <path class="st73" d="M-1132.2,493.4c0-1.7.1-1.4,1.4-2.5.6,1.3-1.1,1.5-1.4,2.5Z"/>
          </g>
        </g>
        <g>
          <path class="st60" d="M-1130.4,516.5c-.4.5-1.8.7-1.9.8s.6,1.1-.9,1.4c-.5-4.4-.1-8.9-.3-13.3l3-1c.2,2.1-.2,4.3-.3,6.2s.5,0,.5.5-.8.7-.8.8.9.4.8,1-1.4.8-.8,1.5l.5-.3c-.1.9,0,1.6,0,2.4Z"/>
          <path class="st31" d="M-1132,513.2c.1.4.4,1.7-.3,1.8-.3-.6,0-1.3.3-1.8Z"/>
        </g>
      </g>
      <g>
        <path class="st19" d="M-1068.9,483c7.6,18.6-24.7,23.2-29.7,35.9-.6,1.6,0,3.6-.5,4.8s-1-2.1-.6-2.4l-1.7,2.9,5,1.1,1.3-7.1c.7,1.2-.8,6.7-.4,7.2s2.7.6,2.8.5c.3-.5.5-6.2,1.1-6.2.6,2.6-1.1,11.9,1.3,3,.8,0-.2,5,1,4.1s-.3-5.3,1.1-6c-.1,2.7.3,5.9-1,8.1l5.7,23,6.7-10.8c.8-8.3.6-18.2,1.8-25.4s.2-.9.3-1.3c.2-1.1,1-2.8,1-4.1l-2.3,29c2.5-2.3,1.4-8,2.4-11.3.9-.1.6.3.6.9,0,1.1-1.4,8.1-.9,8.5,2.2-2.1,1.2-6.8,2.2-9.8s.2-1.5,1-1c0,2.3-1.2,4.8-1.3,7.1s-.3,1.7.5,1.3l3.8-24.1h.8c-.3,2.9-.6,5.9-1,8.8-.7,5-2,9.9-2.7,15,4.4-2.1,2.6-4.7,2.9-8.8s.5-3.8.8-5.7.7-4.3.8-6.5c.3-.4.7.3.8.5.3.8-1.4,10.2-1.5,11.9s0,3.7,0,5.6l2.2-.6c-.5-2.3-.4-6.2-.1-8.5s1.2-1.5,1.3-1.8c.6-1.4-.7-4,1-4.6.6,2.4-1.3,12.8-.5,14.2s1.2-.2,1.3-.5c.2-.4-.7-1-.8-1.5-.3-4,.9-8.3,1.3-11.4s-.5-5.4.8-5.6c1,1-1.6,14.7-1,17.5s.4,0,.8,1.1.4.4.3.8c-.2,0-.5,1.2-.8,1.5-4.2,5.3-8.1,9.3-12.4,14.4s-6.8,10.3-9.4,11.6-6.2,1.5-6.9-.8c.1-7.2.4-14.4.3-21.6s.1-5.2-.1-5.3c-3.5.2-7.3.5-10.8.3-18.1-1.4-9-11.6-.1-18s29.1-13.3,29.6-22.6h1.5c0,.1-.1,1.8-.1,1.8,1.9-2.8.7-6.5-.4-9.5l1.3.4Z"/>
        <path class="st94" d="M-1090,557.7c-.2,0-.4,0-.5,0,0-3.1-1.1-6.4-1.3-9.4.7.1,1.4-2.9.3-2,0-1.1-.1-2.1.3-3.2h-.5c0-1,.2-1.4.8-2.3-1.3.4-.3-3.2-.5-4.3.9,2.6.5.8,1,.1s.6-.4.8-.5c.2,7.2-.1,14.4-.3,21.6Z"/>
        <path class="st21" d="M-1090.5,536.6c-.5.7,0,2.5-1-.1.2,1.1-.8,4.7.5,4.3-.6.8-.7,1.2-.8,2.3h.5c-.4,1.1-.3,2.1-.3,3.2s-.3,1.6-.3,2c.2,3,1.2,6.3,1.3,9.4-.3,0-.4.3-.8.3-2-7.5-1.2-15.4-.5-23l-5.2-.6c-.2-.4,1.3-.8,1.4-.8.9,0,1,.7,1.9.5s1.4-1.4,2.8-.8l.4,3.3Z"/>
        <path class="st18" d="M-1096.1,431.2c6.9-.3,14.2.9,20.7,1,18.5.3,40.4-2.2,58.2-.5s10.3,3,14.1,6.9c.3,1.1,2.9,4.3,3.6,6.2s.9,3.4,1,5.2c.4,4.8.2,11.1.3,16l-.3,35.3c0,2.2,0,5,.3,7.2s.2,2.5,1,1.7c0,.4,0,1,.1,1.3.5-1,.7-3,2.2-1.9-.6.6-.5,1.9-.5,2.7-1.9.7-1.3,3.3-1.5,4.7s-1.4,1.7-.4,1.9l.8-1.5c.6,2.1-3.3,3-3.2,5.7,1.1.3.9-1.7,1.3-2.3l2-1.3c-1.6,2.5-3.3,4.8-5.3,7s-3.3,3.3-4.8,4.3c-3.8,2.6-7.2,3-11.7,3.6-.2-.7.4-.9.9-1,1.7-.5,6.5-.7,7.6-1.3s0-.7.5-1c1.8-.9,3.8-1.6,5.2-3.2,0-.7-.6-.2-.9-.1-.8.3-2.5,1.9-3.9,2.5,0-.8-.5-.4-.9-.3-10,3.4-22.1.4-32.5.8-1.6,0-2.1,0-3.7.5v-.5c-.6-.2-13.9-.1-14.5.3,0-.4-.2-.5-.3-.8,2.7-1.5,4.9-3.5,7.9-4.4,0-2.2.7-4.2,1-6.4s-.3-3.1.6-4.4l-.8,10.7c.1,0,1.5-.2,1.5-.3.8-.7.5-8.1,1.8-9.4,1.3.1-1.1,8.5-.6,9.3s1,.2,1.3-.3c.6-.8.2-7.9,1.1-9.5.9,1.5-.8,8.6-.1,9.5s1.5.2,1.8,0c.6-.5.1-9.2,1.4-10.5,1.2.1-1,10.4-.5,10.7s1.7,0,1.9-.1c.6-.7,0-9.4,1.7-10.5.8,1.4-1.2,10.4-.8,10.7s1.5,0,1.7-.1c.6-.8,0-8.3.4-8.5,1.8-1,0,7.8.8,8.6,1.7-.7,12.6.8,13,.3s.2-5.4,1.3-4.6c.7,1.9-1.5,4.4,1,4.6l2-9.9v2.7c.1,0-1.3,7.2-1.3,7.2,1.6-.4.8-2.8,1.8-4.1.6,8.6,1.1,1.1,2-2,.8,0-.1,4.9-.1,5.5,6.4.4,3.6-3.8,5.5-7.7.9,0-.6,5.3-.1,6,2.9-.2,1.1-4.2,2.9-6v4.1c3-2.7,2.3-5.6,3.3-9.1.5.2-.5,5,.4,4.2,1.9-4.3,2.6-8.8,3-13.5s.9-13,1-18.8c.2-11-.3-22.2-2.3-33l-.8.5c-.5-1.7.3-3.9-1-5.1-.3,1.2.6,3.6-.5,4.3-.6-1,.6-6.9-1.1-6.7s0,7.6-.9,5.2.9-6.7-.1-6.7c-.8,1,0,5.7-.8,6.1s-.1-6.4-.4-7.2-.5,0-.5-.1c-.3-.6-.9-1-1.5-1.1l-.9,7.7c-1.1,0,.5-7.5.4-8-.3-1-6.8-3-8-3.2-14.3-1.6-30.1-.2-44.5.3s-25.9-.5-26.8.9l-2.4,22.2,1.4-21.7-2.8,1.3-1.1,19.2.4-18.4-1.5,1.5-1.4,15.1.6-14.9c-1.5.3-2.4,2.1-3,3.2-7.3,12.1,6.4,15.1,13,21.6-2-1.4-4.3-2.6-6.2-4.1-.9,1.4,1.5.3-.1,2.5-2-1.3-3.7-3.6-5.5-4.8s-9-3.8-9.8-6-.3-8.1-.3-8.9c.5-4.1,3.4-8,6.6-10.4-.5-.8-3.4,3.3-3.3,1s4.9-3.5,5.8-3.9c.2.4.6.5,1,.4,2.1-.4,3.3-1.3,5.3-1.4Z"/>
        <path class="st24" d="M-1019.1,428.4c-2.9,0-7.8,0-10.8.3s-3.3,0-3.7.9l15.8.6c-16.6-1.1-36.1,0-53.1,0l.8-1.5c17,0,34-.3,51.1-.3Z"/>
        <path class="st76" d="M-1068.9,483l-1.3-.4c1.1,3,2.3,6.7.4,9.5v-1.7c.1,0-1.4-.1-1.4-.1,0-1.8-.8-3.3-1-5s.8-2.7-.3-4.6-8.1-5.8-10.7-7.5c-1.6-1.2-1.4-2.3-2.3-3.3.5-.3.7-.2,1.1,0,5.5,2.6,13,7.1,15.4,13Z"/>
        <path class="st55" d="M-1070.2,428.6l-.8,1.5c-5,0-10.1-.3-15.1-.5l-10,1.5c-2.1,0-3.2,1-5.3,1.4s-.8,0-1-.4c11.4-6,20-3.6,32.3-3.6Z"/>
        <path class="st114" d="M-1089.7,466.7c.7.5,2.6,1.3,3.2,1.8s.7,1,1.1,1.5c.9,1,.7,2.1,2.3,3.3-4.3-2.8-8.8-5.3-13-8.1,1.7-2.3-.8-1.1.1-2.5,2,1.5,4.2,2.7,6.2,4.1Z"/>
        <path class="st94" d="M-1089.7,536.1c-.2,0-.7.4-.8.5l-.4-3.3c-1.4-.7-2.6.7-2.8.8-.9.2-1-.5-1.9-.5-.8-2.2-5.2.4-5.1-2.5,3.5.3,7.3,0,10.8-.3.3.2.1,4.6.1,5.3Z"/>
        <path class="st21" d="M-1046.1,531.3l-1.7,2.5,2-2,.6.9-1.1.9c1.3.4,1.4-.9,2.3-1.5l-.6,1.4c.5.9,1.8-1.7,1.9-1.7l-.4,1.7,1.7-1.1v1.5l1.8-1.8-.3,1.8,2-1.8-.5,1.8c.5.2,1.3-1.6,1.5-1.5.5.2-1.6,3,1.8-.3l-.5,1.8c1.5-1.1,1-1.7,2.7-1.7-.6,2.5.1.8,1.1-.1-.6,4.3,1.7-2.2,1.8,1.5.4,0,1.2-1.9,1.7-1.1-1.7,1.8.4,1.3.9-.1,0,2.9,1.1.3,1.5.3s.5,1,.8,1,1.2-1.3,1.3-1.3c.7.3-.8,1.2,0,1.5,2.1-1.6,1.5-.2,2.3-.3s1.1-2.1,1.4,0c-.1,0-.6.9-1,1-9.5.7-22.1.9-31.6.3s-6.3-.6-8.4-1.5c1.2.1,2.3,0,3.4,0s1.2-.6,1.4-.5-.3,1,1.3.8.5-.8.8-.8.4.8.5.8c1.7,0,1.9-.1,3.3-.3s.3.6,1,.5,1.9-1.9,3.4-2.5Z"/>
        <path class="st94" d="M-1046.1,531.3c-1.6.6-2.5,2.4-3.4,2.5s-.9-.5-1-.5c-1.4.2-1.6.4-3.3.3s-.2-.7-.5-.8-.7.8-.8.8c-1.6.3-1-.7-1.3-.8s-.4.5-1.4.5l-3.6-.8c.2-.3.6-1.4.8-1.5.6-.4,13.9-.5,14.6-.3v.5Z"/>
        <path class="st135" d="M-1018.4,534.3c-.9.1-1.9.2-2.8.3.4-.1.9-1,1-1,2-1.2,7.5-1.5,11.2-3.3s3.1-2.2,3.9-2.5.9-.5.9.1c-1.4,1.5-3.4,2.3-5.2,3.2s0,.7-.5,1c-1.2.5-5.9.8-7.6,1.3s-1.1.3-.9,1Z"/>
        <path class="st142" d="M-1066.9,520.3c-.2,1.9-.6,3.8-.8,5.7-.3,4,1.5,6.6-2.9,8.8.6-5,2-9.9,2.7-15l1,.5Z"/>
        <path class="st15" d="M-1070.9,430.2c17,0,36.4-1.1,53.1,0s10.9,1.6,15.2,6.6c-.6-.5-.5,1.7-.5,1.8-3.8-3.8-8.6-6.3-14.1-6.9-17.8-1.7-39.7.8-58.2.5s-13.8-1.3-20.7-1l10-1.5c5,.2,10.1.5,15.1.5Z"/>
        <path class="st16" d="M-996.8,449.5c1,6.1.1,12.5.3,18.7.2,13.1,1.1,28.1-.8,42-.8.9-1-1.2-1-1.7-.2-2.2-.2-5-.3-7.2-.3-11.8.4-23.6.3-35.3s.2-11.2-.3-16l1.8-.5Z"/>
        <path class="st85" d="M-1002.6,436.8c3.2,3.7,5.1,7.8,5.8,12.7l-1.8.5c-.2-1.8-.4-3.5-1-5.2s-3.3-5.1-3.6-6.2,0-2.3.5-1.8Z"/>
        <g>
          <path class="st114" d="M-1005.7,431.9c.9.5,4.2,2.7,4.8,3.3,2,1.9,2.3,4.6,4.8,5.8.3.8.8,1.5,1,2.3,2.6,8.9,1.2,14.1,1.5,23s1.1,16,1,24-.3,5.8-.5,8.9c-.4,4.7-.5,10.6-2.4,14.7-.5-.1-.1-1.3-.1-1.8,0-.8,0-2,.5-2.7-1.4-1.1-1.6.9-2.2,1.9-.2-.3-.2-.9-.1-1.3,1.9-13.9,1-29,.8-42-.1-6.2.7-12.5-.3-18.7s-2.6-9-5.8-12.7-9-6.2-15.2-6.6l-15.8-.6c.4-.8,2.8-.8,3.7-.9,3-.2,7.9-.3,10.8-.3,4.9.1,9.2,1.2,13.5,3.6Z"/>
          <g>
            <path class="st24" d="M-997.9,441.6c1.1,1.1,2.2,3,1.8,4.6l-1.8-4.6Z"/>
            <path class="st16" d="M-994.7,492.1c.2,0,.6-.1.8.1.4.8-1.1,2.5-1.7,2.2s.7-1.9.9-2.3Z"/>
            <path class="st16" d="M-994.4,486.6c1.4.2-.9,2.9-1,2.8-.7-.7.5-2.9,1-2.8Z"/>
            <path class="st16" d="M-995.4,466.5c.8-.2,1,3-.3,2.8l.3-2.8Z"/>
            <path class="st85" d="M-995.6,446.2l.3,3c-1.1-.1-.1-1.1-.1-1.1,0-.1-1.7-.3-.1-1.9Z"/>
            <path class="st16" d="M-994.9,500.8c.9,0-1,2.3-1.3,2.3-.3-1.4.3-1.5,1.3-2.3Z"/>
            <path class="st16" d="M-994.7,492.1c-.4-.1-.5.3-.9.3-.7-.4,3-4.1.9-.3Z"/>
            <path class="st16" d="M-994.7,480.2c1.3,1.6-.5,2.1-.6,2-.7-.5.5-1.7.6-2Z"/>
            <path class="st16" d="M-994.6,497.2c1,.9-.8,1.8-1.5,2l1.5-2Z"/>
            <path class="st16" d="M-994.4,494.2c1.1.7-2.4,3.2-1.3,1s1.2-1.1,1.3-1Z"/>
            <path class="st16" d="M-995.2,483.8c.2,0,.7-.4.8-.5,1.2.5-.3,1.3-.6,1.8-.6-.5-.1-1.1-.1-1.3Z"/>
            <path class="st16" d="M-994.9,499c1.1,0-.7,1.9-1,2-.6-.5.8-2,1-2Z"/>
            <path class="st16" d="M-994.4,495.7c.6,1-.8,1.3-1.3,2-.8-1,.7-1.4,1.3-2Z"/>
            <path class="st16" d="M-994.1,488.6l-1.3,2.3c-.5-1.1.8-1.6,1.3-2.3Z"/>
            <path class="st16" d="M-994.5,483.3c0,0-.6.4-.8.5,0-.9,0-1,.9-1.8.7.5.2.9-.1,1.3Z"/>
            <path class="st16" d="M-994.6,476.1c.7,0-.1,1.9-.8,1.5s.6-1.5.8-1.5Z"/>
            <path class="st16" d="M-994.7,480.2c0-.1-1.8-.2.4-1.5.4.2-.2,1.1-.4,1.5Z"/>
            <path class="st16" d="M-995.1,462.9l-.3,1.8c-.8-.6-.4-1.3.3-1.8Z"/>
            <path class="st16" d="M-995.1,469.5c1.2-.4.2,1.7-.5,1.3s.4-1.2.5-1.3Z"/>
            <path class="st16" d="M-994.9,474.9c.8,0,.3,1.3-.3,1.3s.2-1.3.3-1.3Z"/>
            <path class="st66" d="M-995.4,504.8c.5.6-.2.9-.8,1l.8-1Z"/>
            <path class="st16" d="M-995.4,465.2c.7,0,.3,1,0,1s-.2-1,0-1Z"/>
            <path class="st16" d="M-995.1,461.9c.6-.2.1.5-.3.8-.3-.2,0-.7.3-.8Z"/>
            <path class="st16" d="M-995.1,460.4c.5.3-.2.8-.6.4.2,0,.6-.4.6-.4Z"/>
            <path class="st16" d="M-995.1,451s.5.4.3.5c-.7.3-.7-.5-.3-.5Z"/>
          </g>
        </g>
        <path class="st22" d="M-1091.8,548.3c0-.4.3-1.6.3-2,1.1-.8.5,2.2-.3,2Z"/>
        <path class="st94" d="M-1009,530.3c-3.6,1.8-9.2,2.1-11.2,3.3-.3-2.1-.9,0-1.4,0-.8,0-.2-1.3-2.3.3-.8-.4.7-1.3,0-1.5s-1,1.3-1.3,1.3-.2-1-.8-1-1.5,2.6-1.5-.3c-.5,1.4-2.6,1.9-.9.1-.4-.8-1.3,1.1-1.7,1.1,0-3.8-2.3,2.8-1.8-1.5-1,.9-1.7,2.7-1.1.1-1.6,0-1.2.6-2.7,1.7l.5-1.8c-3.4,3.2-1.3.5-1.8.3s-1,1.7-1.5,1.5l.5-1.8-2,1.8.3-1.8-1.8,1.8v-1.5l-1.7,1.1.4-1.7c-.1,0-1.4,2.5-1.9,1.7l.6-1.4c-.8.6-1,1.9-2.3,1.5l1.1-.9-.6-.9-2,2,1.7-2.5c1.6-.6,2.1-.5,3.7-.5,10.4-.3,22.6,2.7,32.5-.8s1-.6.9.3Z"/>
        <path class="st51" d="M-998.3,466c.1,11.7-.5,23.6-.3,35.3l.3-35.3Z"/>
        <g>
          <path class="st20" d="M-1011.5,441.1c-.6,0-.7,1.5-.8,1.9-.2,1.4-.2,3.5-.1,5,1.4-1.8.7-4.7.9-6.9,0,0,.4-.1.5.1.3.8-.7,7.8.4,7.2s0-5.1.8-6.1c1,0,0,6.3.1,6.7.9,2.4.6-5.2.9-5.2,1.8-.2.6,5.7,1.1,6.7,1.1-.7.2-3.1.5-4.3,1.3,1.2.5,3.4,1,5.1l.8-.5c2,10.8,2.5,22,2.3,33-.1,5.8-.4,13.1-1,18.8s-1.2,9.2-3,13.5c-.8.8.1-4-.4-4.2-1,3.5-.3,6.4-3.3,9.1v-4.1c-1.8,1.8,0,5.8-2.9,6-.5-.7,1.1-6,.1-6-1.9,4,.9,8.1-5.5,7.7,0-.6.9-5.5.1-5.5-.9,3.1-1.5,10.6-2,2-1,1.3-.1,3.6-1.8,4.1l1.4-7.2v-2.7c-.1,0-2.2,9.9-2.2,9.9-2.6-.1-.3-2.7-1-4.6-1-.8-1.1,4.3-1.3,4.6-.4.5-11.2-.9-13-.3-.7-.9,1.1-9.6-.8-8.6s.2,7.7-.4,8.5-1.5.2-1.7.1c-.5-.3,1.5-9.3.8-10.7-1.6,1.1-1,9.9-1.7,10.5s-1.8.2-1.9.1c-.5-.3,1.7-10.5.5-10.7-1.3,1.3-.8,10-1.4,10.5s-1.6.2-1.8,0c-.6-.9,1-8,.1-9.5-1,1.6-.6,8.7-1.1,9.5s-1.1.6-1.3.3c-.5-.8,1.9-9.1.6-9.3-1.3,1.3-1,8.7-1.8,9.4s-1.4.3-1.5.3l.8-10.7c-1,1.3-.4,3.1-.6,4.4-.3,2.1-1,4.2-1,6.4-3,1-5.2,2.9-7.9,4.4-.4-1.1-.7-1.1-.8-1.1-.5-2.8,2-16.6,1-17.5-1.3.2-.6,4.3-.8,5.6-.3,3.1-1.6,7.5-1.3,11.4s.9,1.1.8,1.5c-.1.3-1.2.6-1.3.5-.8-1.5,1.1-11.8.5-14.2-1.7.6-.4,3.2-1,4.6s-.9-.8-1.3,1.8-.3,6.2.1,8.5l-2.2.6c0-1.9,0-3.7,0-5.6s1.8-11.2,1.5-11.9-.4-.9-.8-.5c0,2.2-.5,4.3-.8,6.5l-1-.5c.4-2.9.7-5.9,1-8.8h-.8l-3.8,24.1c-.8.4-.5-1-.5-1.3,0-2.3,1.2-4.8,1.3-7.1-.8-.5-.9.5-1,1-.9,3,0,7.6-2.2,9.8-.5-.4.9-7.4.9-8.5s.2-1-.6-.9c-1,3.3,0,9-2.4,11.3l2.3-29c0,1.3-.8,3-1,4.1s-.2,1.1-.3,1.3c-1.2,7.2-1,17.1-1.8,25.4l-6.7,10.8-5.7-23c1.3-2.2.9-5.5,1-8.1-1.4.6-.3,5.4-1.1,6-1.2.9-.2-4.1-1-4.1-2.4,8.8-.7-.4-1.3-3-.6,0-.8,5.7-1.1,6.2s-2.7-.4-2.8-.5c-.4-.6,1.1-6.1.4-7.2l-1.3,7.1-5-1.1,1.7-2.9c-.4.3.1,4,.6,2.4s-.1-3.2.5-4.8c5-12.8,37.3-17.3,29.7-35.9s-9.8-10.3-15.4-13-.7-.3-1.1,0c-.4-.5-.8-1.3-1.1-1.5-.6-.5-2.5-1.3-3.2-1.8-6.6-6.5-20.3-9.4-13-21.6-.5,1.1-.8,7.1-.9,8.6,1.4-2.4,1.3-5.8,1.7-8.5-.1-.3-.6-.4-.8-.1.7-1.1,1.5-2.9,3-3.2l-.6,14.9,1.4-15.1,1.5-1.5-.4,18.4,1.1-19.2,2.8-1.3-1.4,21.7,2.4-22.2c.9-1.4,23.4-.8,26.8-.9,14.3-.4,30.2-1.9,44.5-.3s7.7,2.1,8,3.2-1.5,8-.4,8l.9-7.7c.6.2,1.2.6,1.5,1.1Z"/>
          <g>
            <path class="st120" d="M-1016.6,460.1c-.9.8-1.9.7-3,.8-2.2.2-4.8,0-7.1,0s-.3,0-.5,0c-1.4,0-2.9-.2-4.3-.3s-.5,0-.8,0c-.5,0-1,0-1.5,0s-.2,0-.3,0c-13.7,0-27.4,0-41.2.8-.6-.4-1.5-.8-1.8-1.5.1-2.4,2.4-2.8,3.6-4.6,13.5-2.1,36.6-.1,51.1,0s2.8.3,4.2.3.2-1.6,1.8-.3,1,3.8-.1,4.8Z"/>
            <path class="st92" d="M-1082.8,515.8l-2,30.2c-.8,0-.2-10.3-.1-11.6.3-4.7,1-10.2,1.5-14.5s-.4-2.8.6-4.2Z"/>
            <path class="st128" d="M-1091.1,437.8v11.3c.1,0-1,10.8-1,10.8-.4-7.3.4-14.8,1-22.1Z"/>
            <path class="st92" d="M-1080.7,523.1l-.4,11.6-.9,12.6c-.4-8,0-16.2,1.3-24.1Z"/>
            <path class="st128" d="M-1088.6,437.5c.7,3.2-.2,6.8-.4,10s.4,7.3-1.1,10.3c.3-6.8.3-13.6,1.5-20.3Z"/>
            <path class="st92" d="M-1078.2,525.4c.8-.4.6.6.6.9,0,1.6-.8,7.8-1,9.9s-1.1,8.6-1.7,8.3c.3-2.2,1.2-18.6,2-19.1Z"/>
            <path class="st128" d="M-1085.8,438.3v7.5c.1,0-.8,8-.8,8-.9,0,.4-14.4.8-15.5Z"/>
            <path class="st128" d="M-1074.8,454.3c-.1,0-.4,0-.5,0l.9-16.3-.4,16.3Z"/>
            <path class="st128" d="M-1071.3,437.3c.8,2.3,0,5.2-.1,7.5s.6,5.5-.6,7.7c-.5-4.9-.2-10.4.8-15.2Z"/>
            <path class="st92" d="M-1058.4,513c0,0,.8,0,.9.1.5.8-.5,12.1-.6,14.1l-.3-14.2Z"/>
            <path class="st128" d="M-1068.8,437c.4,2.4,0,4.8-.1,7.2s.5,5.4-.6,7.5c-.7,0,0-13.7.8-14.7Z"/>
            <path class="st142" d="M-1053.8,513.2l-1.5,13c-1.2,0,.3-6,.4-6.5.2-2.2,0-4.5,1.1-6.5Z"/>
            <path class="st128" d="M-1051.3,437.5l.4,6.2-.6,6.5c-.7-4.1,0-8.6.3-12.7Z"/>
            <path class="st128" d="M-1077.2,437.8l.4,6.7-.6,7c-.8,0,.3-12.6.3-13.7Z"/>
            <path class="st128" d="M-1080.5,438v6.7c.1,0-.5,7-.5,7-1,0,.3-12.6.5-13.7Z"/>
            <path class="st128" d="M-1066,437.5c.7,1.1.2,13.5-.5,13.5-.8-4.3,0-9.2.5-13.5Z"/>
            <path class="st128" d="M-1064,437.5c.3,3.1.7,8.3.4,11.3s-.1,2.3-.9,2.4l.5-13.7Z"/>
            <path class="st128" d="M-1048.5,437.3c0,0,.8,0,.5.3-1,3.2-.4,7.2-.9,10.3s-.2,1.6-.9,1.4c-.2-1.6.6-11.4,1.3-11.9Z"/>
            <path class="st128" d="M-1055.3,437.8v5.5c.1,0-.5,6.5-.5,6.5-.3-4,0-8,.5-11.9Z"/>
            <path class="st128" d="M-1037.3,437.8c.6,0,.3,10.4-.5,11.2-.7,0,0-11.2.5-11.2Z"/>
            <path class="st128" d="M-1046.4,438c.6,0,.4,5.3.4,6,0,1.6.5,4.5-.6,5.7-.2-1.2-.4-11.7.3-11.7Z"/>
            <path class="st128" d="M-1082.8,438.5c.6,0-.1,11-.5,11.9l.5-11.9Z"/>
            <path class="st92" d="M-1086.1,517.3c0,3.5,0,8.4-1.5,11.7l1.5-11.7Z"/>
            <path class="st128" d="M-1056.8,437.8c.5,0,.2,9.8.1,10.3s-.2,1.1-.6.9l.5-11.2Z"/>
            <path class="st128" d="M-1034.5,438.8c.6,0,.7,10.2-.3,10.2l.3-10.2Z"/>
            <path class="st128" d="M-1061.7,438c.6,0,.2,10-.3,10.7-.8,0-.4-10.7.3-10.7Z"/>
            <path class="st128" d="M-1043.4,438l-.3,11.7c-1-1.4-.8-4.9-.6-6.7s.1-3.5.9-5Z"/>
            <path class="st128" d="M-1052.8,439.1c.7,0,.3,9.5-.8,10.2l.8-10.2Z"/>
            <path class="st128" d="M-1040.8,438.8c.7,0,.5,8.7.4,9.3s0,.9-.6.9l.3-10.2Z"/>
            <path class="st128" d="M-1026.1,438.5c.5,0,.2,8.1.1,8.5s-.2.7-.6.6c-.7-.5,0-9.1.5-9.1Z"/>
            <path class="st128" d="M-1023.6,439.3c.7,0-.1,7.9-.8,8.6-.9,0,.3-8.6.8-8.6Z"/>
            <path class="st92" d="M-1037,516.3c.8,0,.5.1.6.6.3,1.7-.7,5.2-1.1,7-.9,0,.2-6.9.5-7.6Z"/>
            <path class="st128" d="M-1102.7,445.1c.1-.3.6-.2.8.1-.3,2.7-.2,6.1-1.7,8.5,0-1.6.4-7.6.9-8.6Z"/>
            <path class="st128" d="M-1030.4,438.8c.5,0,.8,8.2-.3,7.9-.8-.6-.1-7.9.3-7.9Z"/>
            <path class="st128" d="M-1017.2,438.3c1.2.7.5,9-.3,8.9l.3-8.9Z"/>
            <path class="st128" d="M-1059.4,437.8c.8.9.1,8.4-.5,8.4-.7-2.5,0-5.8.5-8.4Z"/>
            <path class="st128" d="M-1028.1,438.5l-.8,8.9c-1.3,0,0-7.9.8-8.9Z"/>
            <path class="st92" d="M-1034.2,517c.9.7,0,8.1-1,7.9-.5-2.3.8-5.4,1-7.9Z"/>
            <path class="st128" d="M-1018.7,439.3c.5,0,.7,7.8-.3,8.4-.4,0-.2-8.4.3-8.4Z"/>
            <path class="st92" d="M-1015.9,516l-1.3,8.1c-1.1,0,.8-7.4,1.3-8.1Z"/>
            <path class="st128" d="M-1021.3,439.6c.2.9.2,8.4-.8,8.1s.1-7.3.8-8.1Z"/>
            <path class="st128" d="M-1032.5,438.8c.9.1.6,1.3.6,1.9,0,1.6,0,5.1-.9,6.2l.3-8.1Z"/>
            <path class="st128" d="M-1015.2,439.3c.6,0,.2,6.2.1,6.7s0,.9-.6.9l.5-7.6Z"/>
            <path class="st128" d="M-1011.5,441.1c-.2,2.1.6,5.1-.9,6.9-.1-1.4,0-3.6.1-5s.2-2,.8-1.9Z"/>
            <path class="st92" d="M-1032.2,518.6c.8,1.4.4,5.1-.8,6.4l.8-6.4Z"/>
            <path class="st92" d="M-1026.4,519.3c.8,0,0,5.6-.5,5.6-1-.6.2-5.6.5-5.6Z"/>
            <path class="st92" d="M-1030.2,519.1c.2,1.7.5,4-.8,5.3-.6,0,.3-5,.8-5.3Z"/>
            <path class="st135" d="M-1028.7,520.1c.6.7.1,4.9-.5,4.8-.9-1.3,0-3.5.5-4.8Z"/>
            <path class="st92" d="M-1093.7,519.6c.8,1.2.3,4.2-.5,5.3l.5-5.3Z"/>
            <path class="st92" d="M-1059.6,522.9c.6.8.6,4.1-.5,4.6l.5-4.6Z"/>
            <path class="st92" d="M-1097.8,519.8c.8-.6.5,3.7,0,4.1-.7-.5-.4-3.8,0-4.1Z"/>
            <path class="st92" d="M-1056.6,522.9l.3,3.6c-1.1,0-.7-3.6-.3-3.6Z"/>
            <path class="st16" d="M-1034.1,460.6c-.5,2.1-2.9,2.8-3.4.5l-.8,1.3c-7-.3-14.1.3-21.1.3s-13.1.4-15.9-1.3c13.7-.8,27.5-.8,41.2-.8Z"/>
            <g>
              <path class="st114" d="M-1022.4,455.3c-14.5-.1-37.6-2.1-51.1,0s-4.6,1.8-3.6,4.6,1.1,1.1,1.8,1.5c2.7,1.7,12.1,1.2,15.9,1.3,7,0,14.1-.6,21.1-.3l.8-1.3c.5,2.3,3,1.6,3.4-.5,0,0,.2,0,.3,0-1.2,2.8,1.8,1.9,1.5,0,.3,0,.5,0,.8,0l-.8,1.7c1.4,0,2.6.8,3.2-1.1v1.1c.9.7,1.7-.3,1.9-1.4.2,0,.3,0,.5,0v2c.1,0,1.9-1.3,1.9-1.3,0,2,.9,1.8,1.3,0l.5,1.5c.6-.1.9-.9,1-1,.9-.6-.1,1.5.8.8s1.3-1.5,1.7-2c1.2,0,2.1,0,3-.8,3.1,1.7-4,4.1-5.5,4.3s-5.1-.2-5.5.1c-2.2,1.9,6.7.6,6.7,2.2-10.2.2-20.3-.9-30.5-1s-19.4,1.3-19.8,0c.8-1.2,3.3.3,3.8-2-3.2-.3-9.8.4-11.1-3.7s.7-4.8,3-5.7.4,0,.5,0c2.8-.8,5.8-.5,8.8-.5,12,0,25.1.1,37.1.5s5,0,6.5,1Z"/>
              <g>
                <path class="st16" d="M-1019.6,460.9c-.3.5-1.2,1.7-1.7,2-.9.8.2-1.4-.8-.8s-.4.9-1,1l-.5-1.5c-.4,1.8-1.3,2-1.3,0l-1.8,1.3v-2c2.2,0,4.7.2,7,0Z"/>
                <path class="st16" d="M-1027.3,460.9c-.2,1.1-1,2.1-2,1.4v-1.1c-.5,1.9-1.6,1.2-3,1.1l.8-1.7c1.4,0,2.9.3,4.3.3Z"/>
                <path class="st116" d="M-1073.5,455.3c-1.2,1.8-3.4,2.2-3.6,4.6-1.1-2.8,1.3-4.2,3.6-4.6Z"/>
                <path class="st16" d="M-1032.3,460.6c.3,1.9-2.7,2.8-1.5,0,.5,0,1,0,1.5,0Z"/>
                <path class="st16" d="M-1061.7,463.7h26.2c-.7,2.3.6.3.8.3,1.1-.1,1,1.1,2.3,0,.9,0,0,1.5-.3,1.5-.3.1-.7-.5-.8-.5-4.5.5-8.6-.5-13-.5s-10.9.4-16.3.8l1-1.5Z"/>
                <path class="st16" d="M-1030.7,464.2c.9,2.2.8.2,1.5,0,1.4-.4,1.9,1.3-1,1.5s-.7-1-1.8-.3l1.3-1.3Z"/>
                <path class="st16" d="M-1065.2,463.7c.8.5-.2,1.9-1,1.5l1-1.5Z"/>
                <path class="st16" d="M-1064.2,463.9l1.1.4c-.8.8-2.1,1.3-1.1-.4Z"/>
              </g>
            </g>
            <g>
              <path class="st51" d="M-1049.2,496.2c6.4-.3,13,1.3,19.3,1s12.3-3.3,15.4,2.9c6.1,12.5-16.8,9.7-23.2,9.5s-20,.1-22.2-3.4c-4.3-6.9,5.8-9.8,10.8-10Z"/>
              <path class="st120" d="M-1057.7,505.1c0,0-.8-.5-1-.5-.6-2.1.3-1.7,1.3-3,2.8-.6,6.1-.7,9-.5s1.7,0,1.8,0c1.2,0,3.6,1.3,4.3,1.3s1.4-1,1.5-1c2.8-.2,18.8-.7,20.8-.3s3.3,2,2.9,3.2c-.6,1.9-8.3.6-9.8.6-8.6,0-23.1,1.6-30.9.3Z"/>
              <path class="st51" d="M-1015.6,503.1c0,.7,0,.9-.3,1.5-1.1.2-1.5,1.6-2.9,1.8s-6.4-.5-8.6-.5c-5,0-27.7,1.1-30.4-.1s-.9-.7,0-.6c7.8,1.4,22.3-.3,30.9-.3s9.2,1.2,9.8-.6-1.9-3-2.9-3.2c-2.1-.4-18,0-20.8.3s-.9,1-1.5,1-3.1-1.2-4.3-1.3-1,0-1.8,0c-2.9-.2-6.2-.1-9,.5.2-.2-.2-.5.8-1.3.7,1.1,3.2-.2,4.2-.3,8.5-.7,18.7.3,27.4.3s5.1-1,7.1,0,1.4,2.7,2.4,2.8Z"/>
              <path class="st66" d="M-1015.6,503.1c-1,0-1.7-2.4-2.4-2.8-2-1-5,0-7.1,0-8.7,0-19-1-27.4-.3s-3.4,1.4-4.2.3c1.1-.9,3.9-2.1,5.2-2.3,3.7-.5,28.2-.6,31.5,0s4.3,3.3,4.4,5.1Z"/>
              <path class="st66" d="M-1015.8,504.6c-.5,1.7-2.5,3-4.2,3.3-4.1.9-31.6.4-35.6-.8s-2.8-1.1-3.2-2.5c.2,0,1,.5,1,.5-.9-.1-.2.5,0,.6,2.7,1.2,25.4,0,30.4.1s6.7.8,8.6.5,1.8-1.6,2.9-1.8Z"/>
            </g>
            <g>
              <path class="st51" d="M-1057.7,483.5l.3-.3c.7.6,16.6,1.2,18.9,1.3,3.5,0,8.1-.4,11.4-.3s1.4-.6,1.5-.5c.3.2,0,.8.3,1s.8-1.2,1-1.3c.3,0,.9.6,1.3.5s1.2-.7,1.3-.8.4.6.8.5,4.1-2,4.2-2.2c.9-1.6-.4-3-1.8-3.7l.8-1.3c5.6,2.8,1.2,8.9-3.7,9.7s-25.6.5-30.5-.3-3.8,0-5.7-2.5Z"/>
              <path class="st61" d="M-1017.9,476.6l-.8,1.3c-1.7-.8-2.4,0-4.1,0-4.3-.9-8.7-.3-13.1-.3s-5.9,0-8.4,0-3.3-.4-4.4.5c-1.9,0-3.9-.8-6.1-.5-.8-1.2-2.8-1.5-3.6-.1,1.1.4,1.8-1.1,3,.1-.2,0-2.7,1.2-2.8,1.4-.5.8-.3,3.6.5,4.2l-.3.3s-.4,0-.8-.4.1-1.4-.3-1.8-2.5-.1-2-2.8c1.1-6,18.7-3,23-2.9s16.5-.7,19.9,1Z"/>
              <path class="st51" d="M-1044.4,486.8l25.5.6-35.7,1.1c-.7-.3,0-.9.3-1,2.2-.7,7.4.3,9.9-.8Z"/>
              <path class="st120" d="M-1018.6,477.9c1.4.6,2.7,2.1,1.8,3.7s-4,2.1-4.2,2.2c-.4,0-.7-.5-.8-.5s-.9.7-1.3.8-.9-.6-1.3-.5-.9,1.4-1,1.3c-.3-.2,0-.8-.3-1s-1.4.5-1.5.5c-3.3-.2-7.9.3-11.4.3s-18.2-.7-18.9-1.3-1-3.3-.5-4.2,2.6-1.4,2.8-1.4.3,0,.5,0c2.2-.3,4.2.5,6.1.5,8.9.3,17,.2,25.9-.3s2.4-.8,4.1,0Z"/>
              <path class="st114" d="M-1022.7,477.9c-8.9.4-17,.5-25.9.3,1.2-.9,3-.5,4.4-.5,2.5,0,5.5,0,8.4,0,4.4,0,8.8-.6,13.1.3Z"/>
              <path class="st114" d="M-1054.7,477.7c-.2,0-.4,0-.5,0-1.3-1.2-2,.3-3-.1.8-1.3,2.7-1.1,3.6.1Z"/>
            </g>
          </g>
        </g>
      </g>
    </g>
  </g>
</svg>