<?xml version="1.0" encoding="utf-8" ?>
<svg baseProfile="tiny" height="100%" version="1.2" width="100%" xmlns="http://www.w3.org/2000/svg" xmlns:ev="http://www.w3.org/2001/xml-events" xmlns:xlink="http://www.w3.org/1999/xlink"><defs /><path d="M 308,934 Z" fill="black" /><path d="M 830,591 Z" fill="black" /><path d="M 756,591 Z" fill="black" /><path d="M 734,591 Z" fill="black" /><path d="M 628,591 Z" fill="black" /><path d="M 524,591 Z" fill="black" /><path d="M 400,591 Z" fill="black" /><path d="M 875,590 Z" fill="black" /><path d="M 268,590 Z" fill="black" /><path d="M 230,590 Z" fill="black" /><path d="M 179,590 L 181,590 Z" fill="black" /><path d="M 172,590 Z" fill="black" /><path d="M 147,590 L 150,590 Z" fill="black" /><path d="M 134,590 Z" fill="black" /><path d="M 897,589 L 898,589 Z" fill="black" /><path d="M 857,589 L 858,589 Z" fill="black" /><path d="M 855,589 Z" fill="black" /><path d="M 833,589 L 836,589 Z" fill="black" /><path d="M 803,589 Z" fill="black" /><path d="M 779,589 Z" fill="black" /><path d="M 776,589 L 777,589 Z" fill="black" /><path d="M 770,589 Z" fill="black" /><path d="M 768,589 Z" fill="black" /><path d="M 755,589 Z" fill="black" /><path d="M 736,589 L 739,589 Z" fill="black" /><path d="M 658,589 Z" fill="black" /><path d="M 641,589 L 640,590 L 641,589 L 642,589 Z" fill="black" /><path d="M 624,589 L 625,589 Z" fill="black" /><path d="M 577,589 Z" fill="black" /><path d="M 497,589 Z" fill="black" /><path d="M 482,589 Z" fill="black" /><path d="M 480,589 Z" fill="black" /><path d="M 441,589 Z" fill="black" /><path d="M 433,589 L 434,589 Z" fill="black" /><path d="M 407,589 Z" fill="black" /><path d="M 400,589 Z" fill="black" /><path d="M 373,589 Z" fill="black" /><path d="M 370,589 Z" fill="black" /><path d="M 341,589 Z" fill="black" /><path d="M 336,589 L 339,589 Z" fill="black" /><path d="M 258,589 Z" fill="black" /><path d="M 233,589 Z" fill="black" /><path d="M 225,589 Z" fill="black" /><path d="M 216,589 L 218,589 L 219,590 L 218,589 Z" fill="black" /><path d="M 200,589 L 202,589 L 203,590 L 202,589 Z" fill="black" /><path d="M 192,589 L 194,589 L 195,590 L 197,590 L 196,590 L 195,589 Z" fill="black" /><path d="M 168,589 L 169,589 Z" fill="black" /><path d="M 161,589 L 162,589 L 163,590 L 164,590 L 163,590 L 162,589 Z" fill="black" /><path d="M 122,589 Z" fill="black" /><path d="M 850,588 Z" fill="black" /><path d="M 743,588 Z" fill="black" /><path d="M 586,588 Z" fill="black" /><path d="M 117,588 Z" fill="black" /><path d="M 729,587 Z" fill="black" /><path d="M 695,587 Z" fill="black" /><path d="M 591,587 Z" fill="black" /><path d="M 407,587 Z" fill="black" /><path d="M 828,586 Z" fill="black" /><path d="M 752,586 Z" fill="black" /><path d="M 616,586 Z" fill="black" /><path d="M 271,586 Z" fill="black" /><path d="M 807,585 Z" fill="black" /><path d="M 838,584 L 838,586 Z" fill="black" /><path d="M 819,584 Z" fill="black" /><path d="M 793,584 Z" fill="black" /><path d="M 752,584 Z" fill="black" /><path d="M 723,584 Z" fill="black" /><path d="M 774,583 Z" fill="black" /><path d="M 710,583 Z" fill="black" /><path d="M 353,583 Z" fill="black" /><path d="M 828,582 Z" fill="black" /><path d="M 789,582 Z" fill="black" /><path d="M 752,582 Z" fill="black" /><path d="M 475,581 L 475,582 Z" fill="black" /><path d="M 828,580 Z" fill="black" /><path d="M 557,580 Z" fill="black" /><path d="M 459,580 Z" fill="black" /><path d="M 104,580 Z" fill="black" /><path d="M 336,579 Z" fill="black" /><path d="M 752,578 L 752,580 Z" fill="black" /><path d="M 842,577 Z" fill="black" /><path d="M 734,577 Z" fill="black" /><path d="M 725,577 Z" fill="black" /><path d="M 571,577 Z" fill="black" /><path d="M 557,577 Z" fill="black" /><path d="M 728,576 Z" fill="black" /><path d="M 884,575 Z" fill="black" /><path d="M 752,575 L 752,576 Z" fill="black" /><path d="M 828,574 Z" fill="black" /><path d="M 728,574 L 729,574 Z" fill="black" /><path d="M 661,574 Z" fill="black" /><path d="M 723,573 Z" fill="black" /><path d="M 619,573 Z" fill="black" /><path d="M 490,573 Z" fill="black" /><path d="M 98,573 Z" fill="black" /><path d="M 841,572 L 841,573 Z" fill="black" /><path d="M 668,572 Z" fill="black" /><path d="M 874,571 Z" fill="black" /><path d="M 799,571 Z" fill="black" /><path d="M 628,571 Z" fill="black" /><path d="M 495,571 Z" fill="black" /><path d="M 423,571 Z" fill="black" /><path d="M 380,571 L 379,572 L 379,576 L 380,577 L 381,576 L 393,576 L 393,572 L 392,571 L 391,571 L 390,572 L 384,572 L 383,571 Z" fill="black" /><path d="M 819,569 Z" fill="black" /><path d="M 752,569 L 752,573 Z" fill="black" /><path d="M 743,569 Z" fill="black" /><path d="M 571,569 Z" fill="black" /><path d="M 740,568 L 741,568 Z" fill="black" /><path d="M 723,568 L 723,569 Z" fill="black" /><path d="M 713,568 L 713,569 Z" fill="black" /><path d="M 662,568 L 662,569 Z" fill="black" /><path d="M 598,568 Z" fill="black" /><path d="M 561,568 Z" fill="black" /><path d="M 558,568 Z" fill="black" /><path d="M 505,568 L 506,568 Z" fill="black" /><path d="M 465,568 Z" fill="black" /><path d="M 828,567 Z" fill="black" /><path d="M 748,567 L 749,567 Z" fill="black" /><path d="M 871,566 Z" fill="black" /><path d="M 752,566 Z" fill="black" /><path d="M 638,566 Z" fill="black" /><path d="M 518,566 Z" fill="black" /><path d="M 821,565 Z" fill="black" /><path d="M 819,565 L 819,566 Z" fill="black" /><path d="M 737,565 L 739,565 Z" fill="black" /><path d="M 735,565 Z" fill="black" /><path d="M 634,565 Z" fill="black" /><path d="M 632,565 Z" fill="black" /><path d="M 628,565 Z" fill="black" /><path d="M 571,565 Z" fill="black" /><path d="M 556,565 Z" fill="black" /><path d="M 513,565 L 514,565 Z" fill="black" /><path d="M 505,565 Z" fill="black" /><path d="M 291,565 Z" fill="black" /><path d="M 796,563 Z" fill="black" /><path d="M 752,563 L 752,564 Z" fill="black" /><path d="M 662,563 Z" fill="black" /><path d="M 356,563 Z" fill="black" /><path d="M 841,561 Z" fill="black" /><path d="M 752,561 Z" fill="black" /><path d="M 749,561 Z" fill="black" /><path d="M 467,561 Z" fill="black" /><path d="M 801,559 Z" fill="black" /><path d="M 713,559 Z" fill="black" /><path d="M 494,559 Z" fill="black" /><path d="M 478,559 Z" fill="black" /><path d="M 876,558 L 876,587 L 878,587 L 879,588 L 879,589 L 879,588 L 880,587 L 881,587 L 882,586 L 882,584 L 881,583 L 882,582 L 882,578 L 883,577 L 881,575 L 881,573 L 882,572 L 883,573 L 884,572 L 886,574 L 886,575 L 888,577 L 888,578 L 890,580 L 890,581 L 892,583 L 892,584 L 894,586 L 894,587 L 899,587 L 901,585 L 900,586 L 899,585 L 899,559 L 900,558 L 901,558 L 894,558 L 894,574 L 893,575 L 892,574 L 892,573 L 890,571 L 890,570 L 891,569 L 890,570 L 888,568 L 888,567 L 886,565 L 886,564 L 885,563 L 885,562 L 883,560 L 883,559 L 882,558 Z" fill="black" /><path d="M 874,558 Z" fill="black" /><path d="M 803,558 L 803,559 L 804,560 L 803,561 L 803,563 L 811,563 L 812,564 L 812,565 L 811,566 L 810,565 L 808,565 L 808,566 L 809,567 L 808,566 L 809,565 L 810,565 L 812,567 L 812,585 L 811,586 L 812,587 L 817,587 L 817,564 L 818,563 L 825,563 L 827,561 L 828,562 L 828,565 L 828,562 L 829,561 L 830,562 L 830,586 L 831,587 L 836,587 L 836,559 L 837,558 L 838,559 L 837,558 L 830,558 L 830,560 L 828,562 L 827,561 L 827,560 L 825,558 Z" fill="black" /><path d="M 786,558 L 785,559 L 785,561 L 784,562 L 784,564 L 783,565 L 783,567 L 782,568 L 782,569 L 781,570 L 781,572 L 780,573 L 780,575 L 779,576 L 779,577 L 778,578 L 778,580 L 777,581 L 777,582 L 776,583 L 776,585 L 775,586 L 775,587 L 781,587 L 782,586 L 782,583 L 785,580 L 792,580 L 793,581 L 794,581 L 795,582 L 795,584 L 796,585 L 796,586 L 797,587 L 802,587 L 803,586 L 802,585 L 802,584 L 801,583 L 801,582 L 800,581 L 800,579 L 799,578 L 799,577 L 798,576 L 798,574 L 797,573 L 797,571 L 796,570 L 796,568 L 795,567 L 795,566 L 794,565 L 794,562 L 793,561 L 793,559 L 792,558 Z" fill="black" /><path d="M 752,558 L 752,559 L 753,559 L 754,560 L 754,587 L 758,587 L 759,588 L 760,587 L 772,587 L 772,582 L 771,581 L 770,582 L 769,582 L 768,581 L 767,582 L 761,582 L 760,581 L 760,571 L 759,570 L 760,569 L 760,562 L 759,561 L 760,560 L 760,559 L 759,558 L 754,558 L 753,559 Z" fill="black" /><path d="M 697,558 L 697,586 L 698,587 L 701,587 L 702,588 L 701,589 L 701,590 L 702,590 L 701,589 L 703,587 L 703,576 L 705,574 L 704,575 L 703,574 L 703,573 L 705,571 L 707,573 L 707,574 L 708,575 L 708,576 L 710,578 L 710,579 L 711,580 L 711,581 L 713,583 L 713,584 L 715,586 L 715,587 L 718,587 L 719,588 L 721,586 L 721,580 L 722,579 L 721,578 L 721,572 L 722,571 L 721,570 L 721,558 L 715,558 L 715,574 L 714,575 L 713,574 L 713,573 L 712,572 L 712,571 L 709,568 L 709,567 L 707,565 L 707,564 L 706,563 L 706,562 L 704,560 L 704,559 L 703,558 Z" fill="black" /><path d="M 675,558 L 675,560 L 674,561 L 673,560 L 674,561 L 674,563 L 673,564 L 673,565 L 672,566 L 672,568 L 671,569 L 670,568 L 671,569 L 671,571 L 670,572 L 670,574 L 669,575 L 669,576 L 668,577 L 668,579 L 667,580 L 667,582 L 666,583 L 666,584 L 665,585 L 665,587 L 671,587 L 671,586 L 672,585 L 672,582 L 674,580 L 680,580 L 681,581 L 683,581 L 685,583 L 685,584 L 686,585 L 686,587 L 692,587 L 692,585 L 691,584 L 691,583 L 690,582 L 690,581 L 689,580 L 689,578 L 688,577 L 688,575 L 687,574 L 687,572 L 686,571 L 686,569 L 685,568 L 685,567 L 684,566 L 684,564 L 683,563 L 683,561 L 682,560 L 682,558 Z" fill="black" /><path d="M 640,558 L 640,587 L 644,587 L 645,588 L 645,590 L 645,588 L 646,587 L 647,587 L 647,586 L 646,585 L 646,576 L 647,575 L 648,575 L 650,577 L 650,578 L 649,579 L 649,580 L 649,579 L 650,578 L 651,579 L 651,580 L 652,581 L 652,582 L 653,583 L 653,584 L 654,585 L 654,586 L 655,587 L 663,587 L 661,585 L 662,584 L 661,585 L 659,583 L 659,582 L 658,581 L 658,580 L 657,579 L 657,578 L 658,577 L 657,576 L 656,577 L 655,576 L 655,575 L 656,574 L 657,574 L 659,572 L 659,571 L 660,570 L 660,563 L 659,562 L 659,561 L 658,560 L 657,560 L 655,558 Z" fill="black" /><path d="M 612,558 L 612,563 L 617,563 L 618,564 L 617,565 L 616,565 L 618,565 L 619,566 L 620,566 L 621,567 L 621,585 L 620,586 L 621,587 L 626,587 L 627,586 L 628,586 L 627,586 L 626,585 L 626,564 L 627,563 L 634,563 L 635,562 L 636,563 L 637,563 L 637,562 L 638,561 L 636,561 L 635,562 L 634,561 L 634,558 Z" fill="black" /><path d="M 573,558 L 573,587 L 584,587 L 585,586 L 588,586 L 589,585 L 590,585 L 595,580 L 595,579 L 596,578 L 596,573 L 597,572 L 596,571 L 596,566 L 595,565 L 595,564 L 592,561 L 593,560 L 592,561 L 591,560 L 590,560 L 589,559 L 588,559 L 587,558 Z" fill="black" /><path d="M 548,558 L 548,559 L 549,560 L 549,563 L 548,564 L 548,567 L 549,568 L 549,571 L 548,572 L 548,576 L 549,577 L 548,578 L 548,583 L 549,584 L 549,585 L 548,586 L 549,587 L 566,587 L 567,586 L 567,582 L 555,582 L 554,581 L 554,576 L 555,575 L 566,575 L 565,574 L 565,571 L 566,570 L 567,570 L 555,570 L 554,569 L 554,564 L 555,563 L 566,563 L 566,561 L 567,560 L 566,559 L 566,558 Z" fill="black" /><path d="M 521,558 L 520,559 L 521,560 L 521,566 L 522,567 L 521,568 L 521,569 L 520,570 L 521,569 L 522,570 L 522,573 L 521,574 L 520,574 L 521,574 L 522,575 L 522,583 L 521,584 L 521,586 L 522,587 L 527,587 L 528,586 L 527,585 L 527,583 L 528,582 L 528,581 L 527,580 L 528,579 L 527,578 L 527,577 L 529,575 L 531,577 L 531,578 L 532,579 L 532,580 L 531,581 L 532,580 L 534,582 L 534,583 L 535,584 L 535,585 L 536,586 L 535,587 L 536,586 L 537,587 L 542,587 L 543,588 L 543,586 L 542,585 L 542,584 L 540,582 L 540,581 L 538,579 L 538,578 L 537,577 L 537,576 L 536,575 L 537,574 L 538,574 L 540,572 L 540,571 L 541,570 L 541,569 L 542,568 L 541,567 L 541,563 L 540,562 L 540,561 L 541,560 L 540,561 L 539,560 L 538,560 L 537,559 L 536,559 L 535,558 Z" fill="black" /><path d="M 497,558 L 497,560 L 496,561 L 497,562 L 497,587 L 515,587 L 517,585 L 518,585 L 518,583 L 517,583 L 517,585 L 516,586 L 515,585 L 515,582 L 504,582 L 503,581 L 503,576 L 504,575 L 505,575 L 506,574 L 507,575 L 513,575 L 514,574 L 514,570 L 504,570 L 503,569 L 503,564 L 504,563 L 515,563 L 515,559 L 516,558 L 517,559 L 517,561 L 517,559 L 516,558 Z" fill="black" /><path d="M 400,558 L 400,587 L 405,587 L 405,578 L 406,577 L 407,578 L 407,579 L 407,578 L 409,576 L 414,576 L 415,575 L 416,575 L 419,572 L 419,570 L 421,568 L 422,568 L 421,568 L 420,567 L 420,566 L 419,565 L 419,563 L 418,562 L 418,561 L 417,560 L 416,560 L 415,559 L 414,559 L 413,558 Z" fill="black" /><path d="M 368,558 L 368,586 L 367,587 L 373,587 L 374,586 L 374,585 L 373,584 L 374,583 L 374,575 L 373,574 L 374,573 L 374,569 L 373,568 L 373,563 L 374,562 L 375,563 L 373,561 L 373,558 Z" fill="black" /><path d="M 346,558 L 345,559 L 345,562 L 344,563 L 344,564 L 343,565 L 343,567 L 342,568 L 342,570 L 341,571 L 341,572 L 340,573 L 340,575 L 339,576 L 339,578 L 338,579 L 338,580 L 337,581 L 337,583 L 336,584 L 336,585 L 335,586 L 335,587 L 341,587 L 342,586 L 342,584 L 343,583 L 343,582 L 345,580 L 352,580 L 353,581 L 354,581 L 355,582 L 355,584 L 356,585 L 356,586 L 357,587 L 362,587 L 363,586 L 364,586 L 365,585 L 364,586 L 363,586 L 361,584 L 361,582 L 360,581 L 360,579 L 359,578 L 359,576 L 358,575 L 358,574 L 357,573 L 357,571 L 356,570 L 356,568 L 355,567 L 355,565 L 354,564 L 354,563 L 353,562 L 353,559 L 352,558 Z" fill="black" /><path d="M 854,557 L 853,558 L 851,558 L 850,559 L 849,559 L 846,562 L 846,563 L 845,564 L 845,565 L 844,566 L 844,567 L 843,568 L 843,575 L 844,576 L 844,579 L 843,580 L 842,579 L 843,580 L 843,581 L 845,583 L 846,582 L 850,586 L 851,586 L 852,587 L 860,587 L 861,586 L 863,586 L 868,581 L 868,579 L 869,578 L 869,576 L 870,575 L 870,568 L 869,567 L 869,566 L 868,565 L 868,564 L 867,563 L 867,562 L 865,560 L 864,560 L 862,558 L 860,558 L 859,557 Z" fill="black" /><path d="M 735,557 L 734,558 L 732,558 L 728,562 L 728,564 L 727,565 L 727,568 L 728,569 L 728,570 L 731,573 L 733,573 L 734,574 L 736,574 L 737,575 L 739,575 L 740,576 L 739,577 L 740,576 L 741,576 L 742,577 L 742,580 L 740,582 L 735,582 L 732,579 L 732,578 L 731,577 L 730,578 L 729,578 L 728,579 L 725,579 L 726,580 L 725,581 L 726,580 L 727,581 L 727,582 L 728,583 L 728,584 L 729,585 L 730,585 L 731,586 L 732,586 L 733,587 L 732,588 L 733,587 L 741,587 L 742,586 L 743,586 L 745,584 L 746,584 L 746,583 L 747,582 L 747,580 L 748,579 L 748,577 L 747,576 L 747,574 L 745,572 L 744,572 L 743,571 L 742,571 L 741,570 L 739,570 L 738,569 L 738,568 L 737,569 L 736,569 L 733,566 L 733,564 L 734,563 L 736,563 L 737,562 L 738,563 L 740,563 L 742,565 L 742,566 L 744,566 L 745,565 L 747,565 L 748,564 L 749,565 L 749,564 L 748,564 L 746,562 L 746,561 L 744,559 L 743,559 L 742,558 L 741,558 L 740,557 Z" fill="black" /><path d="M 537,557 Z" fill="black" /><path d="M 487,557 L 486,558 L 486,561 L 485,562 L 485,564 L 484,565 L 484,567 L 483,568 L 481,568 L 481,569 L 482,568 L 483,569 L 483,571 L 482,572 L 482,575 L 481,576 L 480,575 L 480,573 L 479,572 L 479,569 L 478,568 L 478,566 L 477,565 L 477,562 L 476,561 L 476,558 L 471,558 L 471,559 L 470,560 L 470,562 L 469,563 L 469,566 L 468,567 L 468,569 L 467,570 L 467,573 L 465,575 L 464,574 L 464,571 L 463,570 L 463,567 L 462,566 L 462,562 L 461,561 L 461,558 L 455,558 L 455,561 L 456,562 L 456,564 L 457,565 L 457,568 L 458,569 L 458,571 L 459,572 L 459,575 L 460,576 L 460,578 L 461,579 L 461,582 L 460,583 L 461,582 L 462,583 L 462,586 L 463,587 L 468,587 L 468,585 L 469,584 L 469,581 L 470,580 L 470,577 L 472,575 L 473,576 L 472,575 L 473,574 L 473,573 L 474,572 L 475,573 L 475,575 L 476,576 L 476,579 L 477,580 L 477,583 L 478,584 L 478,586 L 479,587 L 484,587 L 484,586 L 485,585 L 485,582 L 486,581 L 486,579 L 487,578 L 487,575 L 488,574 L 488,571 L 489,570 L 489,568 L 490,567 L 490,564 L 491,563 L 491,561 L 492,560 L 492,558 L 488,558 Z" fill="black" /><path d="M 435,557 L 434,558 L 433,558 L 432,559 L 431,559 L 427,563 L 427,564 L 426,565 L 426,566 L 425,567 L 425,577 L 426,578 L 426,580 L 429,583 L 429,584 L 430,585 L 431,585 L 432,586 L 433,586 L 434,587 L 442,587 L 443,586 L 444,586 L 445,585 L 446,585 L 448,583 L 448,582 L 450,580 L 450,578 L 451,577 L 451,567 L 450,566 L 450,565 L 449,564 L 449,563 L 445,559 L 444,559 L 443,558 L 441,558 L 440,557 Z" fill="black" /><path d="M 877,556 L 879,556 Z" fill="black" /><path d="M 807,556 Z" fill="black" /><path d="M 791,556 Z" fill="black" /><path d="M 755,556 L 757,556 Z" fill="black" /><path d="M 719,556 Z" fill="black" /><path d="M 679,556 Z" fill="black" /><path d="M 677,556 Z" fill="black" /><path d="M 651,556 L 653,556 Z" fill="black" /><path d="M 644,556 Z" fill="black" /><path d="M 551,556 Z" fill="black" /><path d="M 525,556 L 527,556 Z" fill="black" /><path d="M 523,556 Z" fill="black" /><path d="M 507,556 Z" fill="black" /><path d="M 500,556 Z" fill="black" /><path d="M 459,556 Z" fill="black" /><path d="M 407,556 Z" fill="black" /><path d="M 373,556 Z" fill="black" /><path d="M 351,556 Z" fill="black" /><path d="M 831,554 L 831,555 Z" fill="black" /><path d="M 753,554 Z" fill="black" /><path d="M 826,553 Z" fill="black" /><path d="M 731,551 L 732,551 Z" fill="black" /><path d="M 729,551 Z" fill="black" /><path d="M 723,551 L 726,551 Z" fill="black" /><path d="M 712,551 Z" fill="black" /><path d="M 740,549 L 739,550 Z" fill="black" /><path d="M 752,543 Z" fill="black" /><path d="M 702,543 Z" fill="black" /><path d="M 728,531 L 730,531 Z" fill="black" /><path d="M 722,530 L 722,531 Z" fill="black" /><path d="M 736,528 Z" fill="black" /><path d="M 718,528 Z" fill="black" /><path d="M 476,526 Z" fill="black" /><path d="M 784,525 Z" fill="black" /><path d="M 738,525 Z" fill="black" /><path d="M 860,524 L 863,524 L 864,525 L 863,524 Z" fill="black" /><path d="M 708,524 Z" fill="black" /><path d="M 870,523 L 869,524 L 870,523 L 871,523 Z" fill="black" /><path d="M 802,523 Z" fill="black" /><path d="M 788,523 Z" fill="black" /><path d="M 784,523 L 786,523 Z" fill="black" /><path d="M 482,523 Z" fill="black" /><path d="M 470,523 L 471,523 Z" fill="black" /><path d="M 468,523 Z" fill="black" /><path d="M 466,523 Z" fill="black" /><path d="M 623,522 Z" fill="black" /><path d="M 739,520 Z" fill="black" /><path d="M 846,519 Z" fill="black" /><path d="M 685,519 L 686,519 Z" fill="black" /><path d="M 518,519 L 518,520 Z" fill="black" /><path d="M 355,518 Z" fill="black" /><path d="M 835,517 Z" fill="black" /><path d="M 619,517 Z" fill="black" /><path d="M 439,515 L 439,516 Z" fill="black" /><path d="M 417,515 L 417,516 Z" fill="black" /><path d="M 355,515 Z" fill="black" /><path d="M 619,514 Z" fill="black" /><path d="M 841,513 Z" fill="black" /><path d="M 417,512 L 417,513 Z" fill="black" /><path d="M 517,511 Z" fill="black" /><path d="M 388,511 Z" fill="black" /><path d="M 698,510 Z" fill="black" /><path d="M 619,510 Z" fill="black" /><path d="M 353,510 Z" fill="black" /><path d="M 770,509 Z" fill="black" /><path d="M 417,508 L 417,509 Z" fill="black" /><path d="M 448,507 Z" fill="black" /><path d="M 439,507 Z" fill="black" /><path d="M 619,505 L 619,506 Z" fill="black" /><path d="M 417,504 Z" fill="black" /><path d="M 768,503 Z" fill="black" /><path d="M 390,503 L 390,504 Z" fill="black" /><path d="M 685,502 Z" fill="black" /><path d="M 445,502 Z" fill="black" /><path d="M 547,501 L 547,502 Z" fill="black" /><path d="M 692,500 Z" fill="black" /><path d="M 838,499 Z" fill="black" /><path d="M 808,499 Z" fill="black" /><path d="M 439,499 Z" fill="black" /><path d="M 791,498 Z" fill="black" /><path d="M 517,498 Z" fill="black" /><path d="M 838,496 Z" fill="black" /><path d="M 417,496 L 417,502 Z" fill="black" /><path d="M 517,495 Z" fill="black" /><path d="M 348,495 Z" fill="black" /><path d="M 294,495 Z" fill="black" /><path d="M 812,494 L 812,495 Z" fill="black" /><path d="M 790,494 L 790,495 Z" fill="black" /><path d="M 347,493 Z" fill="black" /><path d="M 812,492 Z" fill="black" /><path d="M 790,492 Z" fill="black" /><path d="M 417,492 Z" fill="black" /><path d="M 690,491 L 690,492 Z" fill="black" /><path d="M 344,491 Z" fill="black" /><path d="M 439,490 L 439,494 Z" fill="black" /><path d="M 619,489 L 619,502 Z" fill="black" /><path d="M 443,489 L 443,490 Z" fill="black" /><path d="M 395,488 Z" fill="black" /><path d="M 517,487 Z" fill="black" /><path d="M 417,487 L 417,488 Z" fill="black" /><path d="M 790,486 L 790,487 Z" fill="black" /><path d="M 443,486 L 443,487 Z" fill="black" /><path d="M 439,486 Z" fill="black" /><path d="M 547,485 Z" fill="black" /><path d="M 396,485 L 396,486 Z" fill="black" /><path d="M 685,483 L 685,484 Z" fill="black" /><path d="M 439,482 L 439,483 Z" fill="black" /><path d="M 417,482 L 417,485 Z" fill="black" /><path d="M 790,481 L 790,483 Z" fill="black" /><path d="M 619,481 L 619,486 Z" fill="black" /><path d="M 517,481 Z" fill="black" /><path d="M 442,481 L 443,482 L 443,483 L 443,482 Z" fill="black" /><path d="M 790,479 Z" fill="black" /><path d="M 686,479 Z" fill="black" /><path d="M 398,479 Z" fill="black" /><path d="M 857,477 Z" fill="black" /><path d="M 547,477 Z" fill="black" /><path d="M 685,476 Z" fill="black" /><path d="M 619,476 L 619,478 Z" fill="black" /><path d="M 525,476 Z" fill="black" /><path d="M 444,476 L 444,477 Z" fill="black" /><path d="M 417,476 L 417,478 Z" fill="black" /><path d="M 876,475 Z" fill="black" /><path d="M 874,475 Z" fill="black" /><path d="M 872,475 Z" fill="black" /><path d="M 863,475 L 862,476 L 861,476 L 863,476 L 864,475 L 865,475 L 866,476 L 866,475 Z" fill="black" /><path d="M 858,475 Z" fill="black" /><path d="M 850,475 Z" fill="black" /><path d="M 847,475 Z" fill="black" /><path d="M 790,475 Z" fill="black" /><path d="M 690,475 L 690,477 Z" fill="black" /><path d="M 642,475 Z" fill="black" /><path d="M 881,474 Z" fill="black" /><path d="M 439,474 Z" fill="black" /><path d="M 365,474 Z" fill="black" /><path d="M 643,473 Z" fill="black" /><path d="M 619,473 L 619,474 Z" fill="black" /><path d="M 863,472 Z" fill="black" /><path d="M 691,472 Z" fill="black" /><path d="M 417,472 Z" fill="black" /><path d="M 790,471 Z" fill="black" /><path d="M 619,471 Z" fill="black" /><path d="M 294,471 Z" fill="black" /><path d="M 880,470 L 880,471 L 881,472 L 880,471 Z" fill="black" /><path d="M 517,470 Z" fill="black" /><path d="M 692,469 Z" fill="black" /><path d="M 619,469 Z" fill="black" /><path d="M 339,469 L 340,470 L 340,469 Z" fill="black" /><path d="M 658,468 L 659,469 Z" fill="black" /><path d="M 417,468 L 417,469 Z" fill="black" /><path d="M 685,467 L 685,471 L 686,471 L 686,470 L 685,469 Z" fill="black" /><path d="M 876,466 L 877,467 Z" fill="black" /><path d="M 835,465 Z" fill="black" /><path d="M 768,465 Z" fill="black" /><path d="M 619,465 L 619,467 Z" fill="black" /><path d="M 517,465 Z" fill="black" /><path d="M 694,464 Z" fill="black" /><path d="M 684,464 L 684,465 Z" fill="black" /><path d="M 362,464 Z" fill="black" /><path d="M 790,463 Z" fill="black" /><path d="M 517,463 Z" fill="black" /><path d="M 417,463 L 417,465 Z" fill="black" /><path d="M 619,461 L 619,463 Z" fill="black" /><path d="M 404,461 Z" fill="black" /><path d="M 517,460 Z" fill="black" /><path d="M 416,459 L 417,460 L 417,459 Z" fill="black" /><path d="M 404,459 Z" fill="black" /><path d="M 517,458 Z" fill="black" /><path d="M 439,458 Z" fill="black" /><path d="M 619,457 Z" fill="black" /><path d="M 417,456 L 417,457 Z" fill="black" /><path d="M 417,454 Z" fill="black" /><path d="M 359,454 Z" fill="black" /><path d="M 457,453 Z" fill="black" /><path d="M 439,453 Z" fill="black" /><path d="M 890,451 Z" fill="black" /><path d="M 674,451 Z" fill="black" /><path d="M 493,451 Z" fill="black" /><path d="M 439,451 Z" fill="black" /><path d="M 416,451 Z" fill="black" /><path d="M 358,451 Z" fill="black" /><path d="M 771,450 L 770,451 L 770,452 L 769,453 L 769,456 L 770,457 L 770,459 L 769,460 L 770,461 L 769,462 L 769,463 L 770,464 L 770,471 L 769,472 L 768,471 L 769,472 L 769,473 L 770,474 L 770,475 L 769,476 L 769,477 L 770,478 L 769,479 L 769,480 L 768,481 L 769,482 L 769,495 L 770,496 L 770,504 L 771,505 L 771,507 L 772,508 L 772,510 L 774,512 L 774,513 L 777,516 L 776,517 L 777,516 L 778,517 L 779,517 L 781,519 L 783,519 L 784,520 L 785,520 L 786,521 L 790,521 L 791,522 L 790,523 L 791,522 L 798,522 L 799,521 L 803,521 L 804,520 L 805,520 L 806,519 L 807,519 L 808,518 L 809,518 L 810,517 L 812,519 L 812,518 L 813,517 L 814,518 L 814,520 L 816,520 L 817,521 L 818,520 L 819,521 L 820,520 L 822,520 L 823,521 L 824,520 L 825,521 L 829,521 L 830,520 L 831,521 L 832,520 L 833,520 L 833,451 L 832,450 L 815,450 L 814,451 L 814,496 L 813,497 L 813,498 L 812,499 L 811,498 L 811,497 L 811,498 L 810,499 L 811,498 L 812,499 L 812,500 L 809,503 L 808,503 L 807,504 L 805,504 L 804,505 L 796,505 L 795,504 L 794,504 L 793,503 L 792,503 L 791,502 L 791,501 L 789,499 L 789,497 L 788,496 L 788,451 L 787,450 Z" fill="black" /><path d="M 591,450 L 591,494 L 590,495 L 591,496 L 591,520 L 596,520 L 597,521 L 598,520 L 599,521 L 600,520 L 601,520 L 602,521 L 603,520 L 610,520 L 610,519 L 609,518 L 609,450 Z" fill="black" /><path d="M 407,450 Z" fill="black" /><path d="M 886,449 Z" fill="black" /><path d="M 715,449 L 714,450 L 712,450 L 711,451 L 710,451 L 709,452 L 708,452 L 707,453 L 706,453 L 703,456 L 702,456 L 702,457 L 697,462 L 697,463 L 696,464 L 696,465 L 695,466 L 695,467 L 694,468 L 694,470 L 693,471 L 693,474 L 692,475 L 692,481 L 691,482 L 691,487 L 692,488 L 692,494 L 693,495 L 693,498 L 694,499 L 694,500 L 695,501 L 695,503 L 697,505 L 697,506 L 700,509 L 700,510 L 701,510 L 702,511 L 702,512 L 703,512 L 705,514 L 704,515 L 706,517 L 704,519 L 706,517 L 707,517 L 708,518 L 707,519 L 708,519 L 710,517 L 712,517 L 713,518 L 718,518 L 719,519 L 724,519 L 725,518 L 730,518 L 731,517 L 732,517 L 733,516 L 735,516 L 737,514 L 738,514 L 739,515 L 738,516 L 738,517 L 739,517 L 739,515 L 738,514 L 740,512 L 741,513 L 741,523 L 740,524 L 740,526 L 738,528 L 738,529 L 737,530 L 736,530 L 734,532 L 733,532 L 732,533 L 728,533 L 727,534 L 726,534 L 725,533 L 721,533 L 720,532 L 719,532 L 718,531 L 717,531 L 715,529 L 715,528 L 714,527 L 714,526 L 696,526 L 696,530 L 697,531 L 697,533 L 698,534 L 698,535 L 699,536 L 699,537 L 701,539 L 700,540 L 701,539 L 705,543 L 706,543 L 708,545 L 709,545 L 710,546 L 711,546 L 712,547 L 714,547 L 715,548 L 714,549 L 712,549 L 714,549 L 715,550 L 717,550 L 715,550 L 714,549 L 715,548 L 718,548 L 719,549 L 733,549 L 734,548 L 737,548 L 738,547 L 740,547 L 741,546 L 743,546 L 744,547 L 743,546 L 744,545 L 745,545 L 747,543 L 748,543 L 754,537 L 754,536 L 756,534 L 756,533 L 757,532 L 757,530 L 758,529 L 758,527 L 759,526 L 759,450 L 743,450 L 742,451 L 741,451 L 741,452 L 742,453 L 740,455 L 737,452 L 736,452 L 735,451 L 734,451 L 733,450 L 734,449 L 735,449 L 734,449 L 733,450 L 731,450 L 730,449 Z" fill="black" /><path d="M 710,449 Z" fill="black" /><path d="M 652,449 L 651,450 L 649,450 L 648,451 L 647,451 L 646,452 L 645,452 L 644,453 L 643,453 L 640,456 L 639,455 L 639,450 L 623,450 L 622,451 L 621,451 L 621,452 L 620,453 L 619,453 L 619,455 L 619,454 L 620,453 L 621,454 L 621,520 L 639,520 L 640,519 L 640,474 L 641,473 L 641,472 L 642,471 L 642,470 L 643,469 L 644,470 L 644,471 L 645,470 L 646,470 L 644,468 L 645,467 L 646,467 L 647,466 L 648,466 L 649,465 L 657,465 L 658,466 L 659,466 L 662,469 L 660,471 L 661,471 L 661,470 L 662,469 L 664,471 L 664,473 L 665,474 L 665,520 L 666,521 L 667,520 L 670,520 L 671,521 L 672,520 L 673,521 L 675,521 L 676,520 L 677,521 L 679,521 L 680,520 L 681,520 L 682,521 L 683,521 L 683,468 L 682,467 L 682,464 L 681,463 L 681,462 L 680,461 L 680,460 L 678,458 L 678,457 L 674,453 L 673,453 L 671,451 L 670,451 L 669,450 L 667,450 L 666,449 Z" fill="black" /><path d="M 647,449 Z" fill="black" /><path d="M 621,449 Z" fill="black" /><path d="M 613,449 Z" fill="black" /><path d="M 870,448 L 869,449 L 863,449 L 862,450 L 860,450 L 859,451 L 857,451 L 855,453 L 854,453 L 851,456 L 850,456 L 849,457 L 849,458 L 847,460 L 847,461 L 846,462 L 846,463 L 845,464 L 845,466 L 844,467 L 844,471 L 843,472 L 844,473 L 861,473 L 861,470 L 862,469 L 862,468 L 866,464 L 868,464 L 869,463 L 874,463 L 875,464 L 877,464 L 878,465 L 879,465 L 880,466 L 880,467 L 882,469 L 882,470 L 883,471 L 883,475 L 882,476 L 880,476 L 879,477 L 868,477 L 867,478 L 862,478 L 861,479 L 856,479 L 855,480 L 853,480 L 852,481 L 851,481 L 850,482 L 849,482 L 848,481 L 849,482 L 846,485 L 845,485 L 845,486 L 842,489 L 842,490 L 841,491 L 841,493 L 840,494 L 840,506 L 841,507 L 841,509 L 842,510 L 842,511 L 843,512 L 843,513 L 848,518 L 849,518 L 850,519 L 851,519 L 852,520 L 854,520 L 855,521 L 858,521 L 859,522 L 867,522 L 868,521 L 872,521 L 873,520 L 874,520 L 875,519 L 876,519 L 877,518 L 878,518 L 879,519 L 878,518 L 881,515 L 882,515 L 883,516 L 883,520 L 886,520 L 887,521 L 888,520 L 889,521 L 897,521 L 898,520 L 899,520 L 900,521 L 901,521 L 902,520 L 902,518 L 901,517 L 901,516 L 902,515 L 902,514 L 901,513 L 901,470 L 900,469 L 900,466 L 899,465 L 899,464 L 898,463 L 898,462 L 897,461 L 897,460 L 895,458 L 895,457 L 894,456 L 893,456 L 890,453 L 889,453 L 888,452 L 887,452 L 886,451 L 885,451 L 884,450 L 881,450 L 880,449 L 871,449 Z" fill="black" /><path d="M 815,448 Z" fill="black" /><path d="M 772,448 Z" fill="black" /><path d="M 770,448 Z" fill="black" /><path d="M 757,448 Z" fill="black" /><path d="M 742,448 Z" fill="black" /><path d="M 738,448 L 739,449 Z" fill="black" /><path d="M 608,448 Z" fill="black" /><path d="M 487,448 Z" fill="black" /><path d="M 419,448 L 419,519 L 418,520 L 419,521 L 420,521 L 421,520 L 422,520 L 423,521 L 424,520 L 435,520 L 436,521 L 439,518 L 438,519 L 437,518 L 437,449 L 438,448 L 437,449 L 436,448 L 437,449 L 436,450 L 435,450 L 434,449 L 433,450 L 423,450 L 422,451 L 421,450 L 420,450 L 419,449 L 420,448 Z" fill="black" /><path d="M 428,447 Z" fill="black" /><path d="M 384,447 Z" fill="black" /><path d="M 357,447 Z" fill="black" /><path d="M 294,447 Z" fill="black" /><path d="M 605,444 Z" fill="black" /><path d="M 600,444 L 603,444 Z" fill="black" /><path d="M 597,444 Z" fill="black" /><path d="M 517,444 Z" fill="black" /><path d="M 428,444 L 429,444 Z" fill="black" /><path d="M 356,444 Z" fill="black" /><path d="M 424,443 L 425,444 L 426,444 L 425,444 Z" fill="black" /><path d="M 517,441 Z" fill="black" /><path d="M 357,441 Z" fill="black" /><path d="M 386,440 L 386,441 Z" fill="black" /><path d="M 613,436 Z" fill="black" /><path d="M 412,433 Z" fill="black" /><path d="M 614,431 Z" fill="black" /><path d="M 517,430 Z" fill="black" /><path d="M 413,430 L 413,431 Z" fill="black" /><path d="M 588,429 L 588,431 Z" fill="black" /><path d="M 416,427 Z" fill="black" /><path d="M 528,423 L 527,424 L 527,520 L 530,520 L 531,521 L 532,520 L 535,520 L 536,521 L 541,521 L 542,520 L 543,521 L 544,520 L 545,521 L 547,521 L 548,520 L 549,521 L 550,520 L 551,521 L 557,521 L 558,520 L 559,520 L 560,521 L 567,521 L 568,520 L 583,520 L 583,504 L 546,504 L 545,503 L 545,423 L 544,423 L 543,424 L 542,423 Z" fill="black" /><path d="M 498,423 L 497,424 L 496,424 L 497,425 L 497,455 L 496,456 L 493,453 L 492,453 L 491,452 L 490,452 L 488,450 L 485,450 L 484,449 L 470,449 L 469,450 L 466,450 L 465,451 L 464,451 L 463,452 L 462,452 L 461,453 L 460,453 L 451,462 L 450,461 L 451,462 L 451,463 L 450,464 L 450,465 L 449,466 L 449,467 L 448,468 L 448,469 L 447,470 L 447,473 L 446,474 L 446,479 L 445,480 L 445,491 L 444,492 L 444,493 L 445,492 L 446,493 L 446,498 L 447,499 L 447,501 L 448,502 L 448,503 L 449,504 L 449,505 L 450,506 L 450,507 L 452,509 L 452,510 L 458,516 L 457,517 L 458,516 L 459,516 L 461,518 L 462,518 L 463,519 L 464,519 L 465,520 L 467,520 L 468,521 L 473,521 L 474,522 L 479,522 L 480,521 L 484,521 L 485,520 L 487,520 L 488,519 L 489,519 L 491,517 L 492,517 L 493,518 L 492,517 L 496,513 L 497,514 L 497,520 L 498,521 L 499,520 L 502,520 L 503,521 L 504,520 L 505,521 L 506,521 L 507,520 L 516,520 L 515,519 L 515,423 Z" fill="black" /><path d="M 328,423 L 328,426 L 329,427 L 329,429 L 330,430 L 330,432 L 331,433 L 331,436 L 330,437 L 329,436 L 329,435 L 329,436 L 330,437 L 330,438 L 330,437 L 331,436 L 332,437 L 332,439 L 333,440 L 333,442 L 334,443 L 334,445 L 335,446 L 335,448 L 336,449 L 336,451 L 337,452 L 337,454 L 338,455 L 338,457 L 339,458 L 339,460 L 340,461 L 340,463 L 341,464 L 341,466 L 342,467 L 342,470 L 343,471 L 343,473 L 344,474 L 344,476 L 345,477 L 345,479 L 346,480 L 346,482 L 347,483 L 347,485 L 348,486 L 348,489 L 349,490 L 349,492 L 350,493 L 350,495 L 351,496 L 351,498 L 352,499 L 352,501 L 353,502 L 353,504 L 354,505 L 354,507 L 355,508 L 355,510 L 356,511 L 356,513 L 357,514 L 357,516 L 358,517 L 358,520 L 364,520 L 365,521 L 366,520 L 370,520 L 371,521 L 372,520 L 373,521 L 374,520 L 375,521 L 376,520 L 383,520 L 383,519 L 384,518 L 384,515 L 385,514 L 385,512 L 386,511 L 386,509 L 387,508 L 387,506 L 388,505 L 388,502 L 389,501 L 389,499 L 390,498 L 390,496 L 391,495 L 391,493 L 392,492 L 392,490 L 393,489 L 393,487 L 394,486 L 394,483 L 395,482 L 395,480 L 396,479 L 396,477 L 397,476 L 397,474 L 398,473 L 398,470 L 399,469 L 399,468 L 400,467 L 400,464 L 401,463 L 401,461 L 402,460 L 402,458 L 403,457 L 403,455 L 404,454 L 404,451 L 405,450 L 405,449 L 406,448 L 406,445 L 407,444 L 407,442 L 408,441 L 408,439 L 409,438 L 409,436 L 410,435 L 410,432 L 411,431 L 411,429 L 412,428 L 412,426 L 413,425 L 413,424 L 412,424 L 411,423 L 410,424 L 409,423 L 394,423 L 393,424 L 393,425 L 392,426 L 392,429 L 391,430 L 391,432 L 390,433 L 390,435 L 389,436 L 389,439 L 388,440 L 388,442 L 387,443 L 387,445 L 386,446 L 386,449 L 385,450 L 385,452 L 384,453 L 384,455 L 383,456 L 383,459 L 382,460 L 382,462 L 381,463 L 380,462 L 381,463 L 381,466 L 380,467 L 380,470 L 379,471 L 379,473 L 378,474 L 378,476 L 377,477 L 377,480 L 376,481 L 376,482 L 375,483 L 375,486 L 374,487 L 374,490 L 373,491 L 373,493 L 372,494 L 371,493 L 372,494 L 372,497 L 371,498 L 370,497 L 370,496 L 369,495 L 369,493 L 368,492 L 368,489 L 367,488 L 367,487 L 366,486 L 366,483 L 365,482 L 365,480 L 364,479 L 364,477 L 363,476 L 363,473 L 362,472 L 362,470 L 361,469 L 361,466 L 360,465 L 360,463 L 359,462 L 359,460 L 358,459 L 358,456 L 357,455 L 357,454 L 356,453 L 356,450 L 355,449 L 355,447 L 354,446 L 354,443 L 353,442 L 353,440 L 352,439 L 352,437 L 351,436 L 351,433 L 350,432 L 350,430 L 349,429 L 349,426 L 348,425 L 348,424 L 347,423 L 344,423 L 343,424 L 342,423 L 339,423 L 338,424 L 337,424 L 336,423 L 335,424 L 334,423 Z" fill="black" /><path d="M 592,422 Z" fill="black" /><path d="M 607,420 Z" fill="black" /><path d="M 599,420 L 598,421 L 596,421 L 593,424 L 592,424 L 592,425 L 591,426 L 591,427 L 590,428 L 590,434 L 591,435 L 591,437 L 595,441 L 597,441 L 598,442 L 603,442 L 604,441 L 606,441 L 611,436 L 611,434 L 612,433 L 612,430 L 611,429 L 611,427 L 610,426 L 610,425 L 607,422 L 606,422 L 605,421 L 603,421 L 602,420 Z" fill="black" /><path d="M 426,419 L 427,420 L 426,421 L 424,421 L 423,422 L 422,422 L 419,425 L 419,426 L 418,427 L 418,428 L 417,429 L 417,432 L 418,433 L 418,436 L 417,437 L 417,438 L 416,439 L 417,438 L 417,437 L 418,436 L 420,438 L 420,439 L 421,440 L 422,440 L 423,441 L 425,441 L 426,442 L 430,442 L 431,441 L 433,441 L 434,440 L 435,440 L 437,438 L 437,437 L 438,436 L 438,435 L 439,434 L 439,428 L 438,427 L 438,426 L 437,425 L 437,424 L 435,422 L 436,421 L 435,422 L 434,422 L 433,421 L 430,421 L 429,420 L 427,420 Z" fill="black" /><path d="M 424,419 Z" fill="black" /><path d="M 97,408 Z" fill="black" /><path d="M 111,394 Z" fill="black" /><path d="M 273,393 Z" fill="black" /><path d="M 129,390 L 128,391 L 122,391 L 121,392 L 119,392 L 118,393 L 116,393 L 115,394 L 114,394 L 112,396 L 111,396 L 109,398 L 108,398 L 101,405 L 101,406 L 99,408 L 99,409 L 98,410 L 98,411 L 97,412 L 97,413 L 96,414 L 96,416 L 95,417 L 95,420 L 94,421 L 94,455 L 93,456 L 94,457 L 94,471 L 93,472 L 94,473 L 94,479 L 93,480 L 93,481 L 94,482 L 93,483 L 94,484 L 94,487 L 93,488 L 93,489 L 94,490 L 94,496 L 93,497 L 94,498 L 94,559 L 95,560 L 95,563 L 96,564 L 96,565 L 97,566 L 97,568 L 98,569 L 98,570 L 100,572 L 100,573 L 107,580 L 106,581 L 107,580 L 108,581 L 109,581 L 111,583 L 112,583 L 113,584 L 114,584 L 115,585 L 116,585 L 117,586 L 119,586 L 120,587 L 126,587 L 127,588 L 128,587 L 129,587 L 130,588 L 129,589 L 130,588 L 136,588 L 137,589 L 138,589 L 139,588 L 150,588 L 151,587 L 152,588 L 152,590 L 154,588 L 157,588 L 158,587 L 171,587 L 172,588 L 173,587 L 174,587 L 176,589 L 176,590 L 177,590 L 177,589 L 178,588 L 181,588 L 182,587 L 183,587 L 184,588 L 185,587 L 188,587 L 189,588 L 190,588 L 191,587 L 207,587 L 209,589 L 208,588 L 209,587 L 255,587 L 256,588 L 257,587 L 263,587 L 264,586 L 267,586 L 268,585 L 269,585 L 270,584 L 271,584 L 272,583 L 273,583 L 274,582 L 275,582 L 278,579 L 279,579 L 281,577 L 281,576 L 282,575 L 283,575 L 284,574 L 284,573 L 286,571 L 286,570 L 287,569 L 287,568 L 288,567 L 288,566 L 289,565 L 289,564 L 290,563 L 290,560 L 291,559 L 291,548 L 292,547 L 291,546 L 291,544 L 292,543 L 292,541 L 291,540 L 292,539 L 292,533 L 291,532 L 292,531 L 292,529 L 291,528 L 292,527 L 292,526 L 291,525 L 291,524 L 292,523 L 292,522 L 291,521 L 291,520 L 292,519 L 292,499 L 291,498 L 292,497 L 292,489 L 291,488 L 292,487 L 292,481 L 291,480 L 292,479 L 292,473 L 291,472 L 292,471 L 292,470 L 291,469 L 291,464 L 292,463 L 292,457 L 291,456 L 292,455 L 291,454 L 291,452 L 292,451 L 291,450 L 292,449 L 291,448 L 292,447 L 292,443 L 291,442 L 291,440 L 292,439 L 292,433 L 291,432 L 292,431 L 291,430 L 291,419 L 290,418 L 290,416 L 289,415 L 289,413 L 288,412 L 288,411 L 287,410 L 287,409 L 285,407 L 285,406 L 281,402 L 281,401 L 280,400 L 279,400 L 276,397 L 275,397 L 273,395 L 272,395 L 271,394 L 269,394 L 268,393 L 267,393 L 266,392 L 264,392 L 263,391 L 257,391 L 256,390 Z" fill="black" /></svg>